<svg width="12" height="21" viewBox="0 0 12 21" fill="none" xmlns="http://www.w3.org/2000/svg">
<path d="M5.47826 21L0 11.2941V10H0.637681C2.18357 10 3.36232 9.77451 4.17391 9.32353C5.00483 8.87255 5.48792 8.05882 5.62319 6.88235H0V5H5.5942C5.40097 3.90196 4.88889 3.10784 4.05797 2.61765C3.24638 2.12745 2.10628 1.88235 0.637681 1.88235H0V0H12V1.88235H6.52174C7.44928 2.64706 8 3.68627 8.17391 5H12V6.88235H8.23188C8.09662 8.31373 7.55556 9.43137 6.6087 10.2353C5.68116 11.0196 4.44444 11.5196 2.89855 11.7353L8.43478 21H5.47826Z" fill="white"/>
</svg>
