<svg width="20" height="20" viewBox="0 0 20 20" fill="none" xmlns="http://www.w3.org/2000/svg">
<path d="M1.5625 13.2422C0.700938 13.2422 0 13.9431 0 14.8047C0 15.6663 0.700938 16.3672 1.5625 16.3672V18.0469C1.5625 18.2626 1.73738 18.4375 1.95312 18.4375H8.4375C8.65324 18.4375 8.82812 18.2626 8.82812 18.0469V15.9047C8.82812 15.7777 8.76637 15.6586 8.66262 15.5854C8.55883 15.5123 8.42594 15.4941 8.30633 15.5368C8.21352 15.5698 8.12863 15.5859 8.04688 15.5859C7.61609 15.5859 7.26562 15.2355 7.26562 14.8047C7.26562 14.3739 7.61609 14.0234 8.04688 14.0234C8.12863 14.0234 8.21352 14.0395 8.30633 14.0726C8.42598 14.1154 8.55887 14.0971 8.66262 14.0239C8.76641 13.9507 8.82812 13.8317 8.82812 13.7047V11.5625C8.82812 11.3468 8.65324 11.1719 8.4375 11.1719H6.75781C6.75781 10.3103 6.05688 9.60938 5.19531 9.60938C4.33375 9.60938 3.63281 10.3103 3.63281 11.1719H1.95312C1.73738 11.1719 1.5625 11.3468 1.5625 11.5625V13.2422ZM1.82195 14.0726C1.9416 14.1154 2.07449 14.0971 2.17824 14.0239C2.28203 13.9507 2.34375 13.8317 2.34375 13.7047V11.9531H4.09531C4.2223 11.9531 4.34137 11.8914 4.41457 11.7876C4.48773 11.6838 4.5059 11.5509 4.46324 11.4313C4.43016 11.3385 4.41406 11.2536 4.41406 11.1719C4.41406 10.7411 4.76453 10.3906 5.19531 10.3906C5.62609 10.3906 5.97656 10.7411 5.97656 11.1719C5.97656 11.2536 5.96047 11.3385 5.92738 11.4313C5.88473 11.5509 5.90289 11.6838 5.97605 11.7876C6.04926 11.8914 6.16832 11.9531 6.29531 11.9531H8.04688V13.2422C7.18531 13.2422 6.48438 13.9431 6.48438 14.8047C6.48438 15.6663 7.18531 16.3672 8.04688 16.3672V17.6562H2.34375V15.9047C2.34375 15.7777 2.28199 15.6586 2.17824 15.5854C2.07445 15.5123 1.94156 15.4941 1.82195 15.5368C1.72914 15.5698 1.64426 15.5859 1.5625 15.5859C1.13172 15.5859 0.78125 15.2355 0.78125 14.8047C0.78125 14.3739 1.13172 14.0234 1.5625 14.0234C1.64426 14.0234 1.72914 14.0395 1.82195 14.0726Z" fill="white"/>
<path d="M18.4375 3.63281V1.95312C18.4375 1.73738 18.2626 1.5625 18.0469 1.5625H11.5625C11.3468 1.5625 11.1719 1.73738 11.1719 1.95312V4.09531C11.1719 4.2223 11.2336 4.34137 11.3374 4.41457C11.4412 4.48773 11.5741 4.50594 11.6937 4.46324C11.7865 4.43016 11.8713 4.41406 11.9531 4.41406C12.3839 4.41406 12.7344 4.76453 12.7344 5.19531C12.7344 5.62609 12.3839 5.97656 11.9531 5.97656C11.8714 5.97656 11.7865 5.96047 11.6937 5.92738C11.5741 5.88473 11.4412 5.90289 11.3374 5.97605C11.2336 6.04926 11.1719 6.16832 11.1719 6.29531V8.4375C11.1719 8.65324 11.3468 8.82812 11.5625 8.82812H13.2422C13.2422 9.68969 13.9431 10.3906 14.8047 10.3906C15.6663 10.3906 16.3672 9.68969 16.3672 8.82812H18.0469C18.2626 8.82812 18.4375 8.65324 18.4375 8.4375V6.75781C19.2991 6.75781 20 6.05688 20 5.19531C20 4.33375 19.2991 3.63281 18.4375 3.63281ZM18.4375 5.97656C18.3557 5.97656 18.2709 5.96047 18.178 5.92738C18.0584 5.88473 17.9255 5.90289 17.8218 5.97605C17.718 6.04926 17.6562 6.16832 17.6562 6.29531V8.04688H15.9047C15.7777 8.04688 15.6586 8.10863 15.5854 8.21238C15.5123 8.31617 15.4941 8.44906 15.5368 8.56867C15.5698 8.66148 15.5859 8.74633 15.5859 8.82812C15.5859 9.25891 15.2355 9.60938 14.8047 9.60938C14.3739 9.60938 14.0234 9.25891 14.0234 8.82812C14.0234 8.74637 14.0395 8.66148 14.0726 8.56867C14.1153 8.44906 14.0971 8.31617 14.0239 8.21238C13.9507 8.10859 13.8317 8.04688 13.7047 8.04688H11.9531V6.75781C12.8147 6.75781 13.5156 6.05688 13.5156 5.19531C13.5156 4.33375 12.8147 3.63281 11.9531 3.63281V2.34375H17.6562V4.09531C17.6562 4.2223 17.718 4.34137 17.8218 4.41457C17.9256 4.48773 18.0584 4.50594 18.178 4.46324C18.2709 4.43016 18.3557 4.41406 18.4375 4.41406C18.8683 4.41406 19.2188 4.76453 19.2188 5.19531C19.2188 5.62609 18.8683 5.97656 18.4375 5.97656Z" fill="white"/>
<path d="M8.4375 1.5625H6.75781C6.75781 0.700938 6.05688 0 5.19531 0C4.33375 0 3.63281 0.700938 3.63281 1.5625H1.95312C1.73738 1.5625 1.5625 1.73738 1.5625 1.95312V8.4375C1.5625 8.65324 1.73738 8.82812 1.95312 8.82812H4.09531C4.2223 8.82812 4.34137 8.76637 4.41457 8.66262C4.48773 8.55883 4.5059 8.42594 4.46324 8.30633C4.43016 8.21352 4.41406 8.12863 4.41406 8.04688C4.41406 7.61609 4.76453 7.26562 5.19531 7.26562C5.62609 7.26562 5.97656 7.61609 5.97656 8.04688C5.97656 8.12863 5.96047 8.21352 5.92738 8.30633C5.88473 8.42594 5.90289 8.55883 5.97605 8.66262C6.04926 8.76641 6.16832 8.82812 6.29531 8.82812H8.4375C8.65324 8.82812 8.82812 8.65324 8.82812 8.4375V6.75781C9.68969 6.75781 10.3906 6.05688 10.3906 5.19531C10.3906 4.33375 9.68969 3.63281 8.82812 3.63281V1.95312C8.82812 1.73738 8.65324 1.5625 8.4375 1.5625ZM9.60938 5.19531C9.60938 5.62609 9.25891 5.97656 8.82812 5.97656C8.74637 5.97656 8.66148 5.96047 8.56867 5.92738C8.44902 5.88473 8.31617 5.90289 8.21238 5.97605C8.10859 6.04926 8.04688 6.16832 8.04688 6.29531V8.04688H6.75781C6.75781 7.18531 6.05688 6.48438 5.19531 6.48438C4.33375 6.48438 3.63281 7.18531 3.63281 8.04688H2.34375V2.34375H4.09531C4.2223 2.34375 4.34137 2.28199 4.41457 2.17824C4.48773 2.07445 4.5059 1.94156 4.46324 1.82195C4.43016 1.72914 4.41406 1.64426 4.41406 1.5625C4.41406 1.13172 4.76453 0.78125 5.19531 0.78125C5.62609 0.78125 5.97656 1.13172 5.97656 1.5625C5.97656 1.64426 5.96047 1.72914 5.92738 1.82195C5.88473 1.94156 5.90289 2.07445 5.97605 2.17824C6.04926 2.28203 6.16832 2.34375 6.29531 2.34375H8.04688V4.09531C8.04688 4.2223 8.10863 4.34137 8.21238 4.41457C8.31617 4.48773 8.44902 4.50594 8.56867 4.46324C8.66148 4.43016 8.74633 4.41406 8.82812 4.41406C9.25891 4.41406 9.60938 4.76453 9.60938 5.19531Z" fill="white"/>
<path d="M18.0469 15.1953C18.2626 15.1953 18.4375 15.0204 18.4375 14.8047C18.4375 14.589 18.2626 14.4141 18.0469 14.4141C17.8311 14.4141 17.6562 14.589 17.6562 14.8047C17.6562 15.0204 17.8311 15.1953 18.0469 15.1953Z" fill="white"/>
<path d="M14.0239 11.3374C13.9507 11.2336 13.8317 11.1719 13.7047 11.1719H11.5625C11.3468 11.1719 11.1719 11.3468 11.1719 11.5625V13.2422C10.3103 13.2422 9.60938 13.9431 9.60938 14.8047C9.60938 15.6663 10.3103 16.3672 11.1719 16.3672V18.0469C11.1719 18.2626 11.3468 18.4375 11.5625 18.4375H13.2422C13.2422 19.2991 13.9431 20 14.8047 20C15.6663 20 16.3672 19.2991 16.3672 18.4375H18.0469C18.2626 18.4375 18.4375 18.2626 18.4375 18.0469V16.5625C18.4375 16.3468 18.2626 16.1719 18.0469 16.1719C17.8311 16.1719 17.6562 16.3468 17.6562 16.5625V17.6562H15.9047C15.7777 17.6562 15.6586 17.718 15.5854 17.8218C15.5123 17.9255 15.4941 18.0584 15.5368 18.178C15.5698 18.2709 15.5859 18.3557 15.5859 18.4375C15.5859 18.8683 15.2355 19.2188 14.8047 19.2188C14.3739 19.2188 14.0234 18.8683 14.0234 18.4375C14.0234 18.3557 14.0395 18.2709 14.0726 18.178C14.1153 18.0584 14.0971 17.9255 14.0239 17.8218C13.9507 17.718 13.8317 17.6562 13.7047 17.6562H11.9531V15.9047C11.9531 15.7777 11.8914 15.6586 11.7876 15.5854C11.6838 15.5123 11.551 15.4941 11.4313 15.5368C11.3385 15.5698 11.2536 15.5859 11.1719 15.5859C10.7411 15.5859 10.3906 15.2355 10.3906 14.8047C10.3906 14.3739 10.7411 14.0234 11.1719 14.0234C11.2536 14.0234 11.3385 14.0395 11.4313 14.0726C11.551 14.1154 11.6839 14.0971 11.7876 14.0239C11.8914 13.9507 11.9531 13.8317 11.9531 13.7047V11.9531H13.2422C13.2422 12.8147 13.9431 13.5156 14.8047 13.5156C15.6663 13.5156 16.3672 12.8147 16.3672 11.9531H17.6562V13.0469C17.6562 13.2626 17.8311 13.4375 18.0469 13.4375C18.2626 13.4375 18.4375 13.2626 18.4375 13.0469V11.5625C18.4375 11.3468 18.2626 11.1719 18.0469 11.1719H15.9047C15.7777 11.1719 15.6586 11.2336 15.5854 11.3374C15.5123 11.4412 15.4941 11.5741 15.5368 11.6937C15.5698 11.7865 15.5859 11.8713 15.5859 11.9531C15.5859 12.3839 15.2355 12.7344 14.8047 12.7344C14.3739 12.7344 14.0234 12.3839 14.0234 11.9531C14.0234 11.8714 14.0395 11.7865 14.0726 11.6937C14.1153 11.5741 14.0971 11.4412 14.0239 11.3374Z" fill="white"/>
</svg>
