<svg width="20" height="21" viewBox="0 0 20 21" fill="none" xmlns="http://www.w3.org/2000/svg">
<path d="M19.0983 11.9426H18.7931V9.19422C18.7931 8.75912 18.5766 8.37387 18.2459 8.13979V7.76558C18.2459 7.22276 17.8043 6.78116 17.2614 6.78116H17.0336L17.9053 5.50206C18.1975 5.07332 18.0864 4.48678 17.6576 4.19456L11.7427 0.163701C11.5351 0.0221313 11.2847 -0.0301161 11.0377 0.0167552C10.7907 0.0635469 10.5768 0.203683 10.4352 0.411398L5.32991 7.90297H3.90924L4.25199 4.43321C4.25585 4.39411 4.28126 4.36022 4.3167 4.34688C4.7583 4.18038 5.14099 3.86944 5.39427 3.47138C5.41422 3.44004 5.45185 3.42212 5.4908 3.42606L7.71908 3.6462C7.87885 3.66169 8.02097 3.54533 8.03674 3.38564C8.05251 3.22595 7.93587 3.08374 7.77618 3.06797L5.5479 2.84783C5.28925 2.8225 5.04259 2.94169 4.90401 3.15944C4.7178 3.45214 4.43641 3.68072 4.11174 3.80314C3.86734 3.89529 3.69953 4.11479 3.67373 4.37607L3.32536 7.90293H2.95489L3.49695 2.4152C3.51647 2.21768 3.69276 2.07256 3.89052 2.09236L8.39344 2.53717C8.55312 2.55259 8.69533 2.4363 8.7111 2.27661C8.72687 2.11693 8.61023 1.97472 8.45054 1.95895L3.94763 1.51413C3.43136 1.4632 2.9697 1.84171 2.91869 2.35805L2.48175 6.78116H1.73766C1.19488 6.78116 0.753247 7.22276 0.753247 7.76558V8.02084C0.309184 8.22529 0 8.67417 0 9.19422V19.0979C0 19.81 0.579261 20.3892 1.29133 20.3892H17.5018C18.2139 20.3892 18.7931 19.81 18.7931 19.0979V16.3496H19.0983C19.4584 16.3496 19.7514 16.0566 19.7514 15.6965V12.5957C19.7514 12.2356 19.4584 11.9426 19.0983 11.9426ZM17.2614 7.36226C17.4839 7.36222 17.6648 7.54317 17.6648 7.76562V7.91364C17.6114 7.90687 17.5571 7.90301 17.5018 7.90301H16.2691L16.6376 7.36226H17.2614ZM10.9154 0.738582C10.9695 0.659136 11.0514 0.605534 11.1458 0.587614C11.1684 0.583353 11.1911 0.581202 11.2136 0.581202C11.2851 0.581202 11.3551 0.602627 11.4155 0.643804L17.3304 4.67466C17.4944 4.78644 17.5369 5.0108 17.4252 5.17479L15.566 7.90289H15.1199L16.0314 6.56536C16.1792 6.34845 16.1914 6.0724 16.0631 5.84489C15.8925 5.54263 15.8234 5.18674 15.8684 4.84271C15.9019 4.58677 15.7892 4.33692 15.5745 4.19061L12.5082 2.10104C12.2935 1.95469 12.0197 1.94127 11.7938 2.06603C11.4901 2.23369 11.1336 2.29951 10.7899 2.25141C10.5351 2.21565 10.2766 2.33073 10.1309 2.54438L6.47924 7.90293H6.03306L10.9154 0.738582ZM11.0433 5.67226C9.77811 5.67226 8.73953 6.65879 8.65491 7.90293H7.18231L10.611 2.87161C10.611 2.87161 10.611 2.87161 10.611 2.87161C10.6305 2.84297 10.6628 2.82593 10.696 2.82593C10.7004 2.82593 10.7048 2.82625 10.7092 2.82685C11.1767 2.89223 11.6615 2.80279 12.0746 2.57473C12.1071 2.55673 12.1488 2.55932 12.181 2.58122L15.2473 4.67084C15.2794 4.69274 15.297 4.73065 15.2922 4.76745C15.231 5.23532 15.3251 5.71933 15.557 6.13038C15.5756 6.16339 15.5733 6.20568 15.5513 6.23814L14.4168 7.90289H13.4318C13.3471 6.65879 12.3086 5.67226 11.0433 5.67226ZM12.8492 7.90297H9.23748C9.32071 6.97952 10.0986 6.25335 11.0433 6.25335C11.9881 6.25331 12.766 6.97952 12.8492 7.90297ZM1.3343 7.76558C1.3343 7.54313 1.51521 7.36217 1.73766 7.36217H2.42437L2.37097 7.90293H1.3343V7.76558ZM0.581053 9.19422C0.581053 8.8026 0.899675 8.48398 1.29133 8.48398H17.5018C17.8935 8.48398 18.2121 8.8026 18.2121 9.19422V10.0004H0.581053V9.19422ZM18.2121 19.0979C18.2121 19.4895 17.8935 19.8082 17.5018 19.8082H1.29133C0.899675 19.8082 0.581053 19.4895 0.581053 19.0979V18.2918H2.14776C2.30824 18.2918 2.43827 18.1617 2.43827 18.0013C2.43827 17.8408 2.3082 17.7107 2.14776 17.7107H0.581053V10.5814H18.2121V11.9426H15.4497H15.4497C14.5793 11.9426 13.8254 12.4499 13.4676 13.1843C13.4664 13.1868 13.4651 13.1892 13.4638 13.1916C13.4608 13.1979 13.4582 13.2044 13.4552 13.2107C13.4126 13.3012 13.3756 13.3949 13.3454 13.4916C13.3454 13.4918 13.3453 13.4921 13.3452 13.4924C13.2809 13.699 13.2462 13.9185 13.2462 14.1461C13.2462 15.3611 14.2347 16.3496 15.4497 16.3496H15.4497H18.212V17.7107H4.00804C3.84755 17.7107 3.71753 17.8408 3.71753 18.0013C3.71753 18.1617 3.84759 18.2918 4.00804 18.2918H18.2121V19.0979ZM19.1704 15.6965C19.1704 15.7362 19.138 15.7686 19.0983 15.7686H15.4498C14.8347 15.7686 14.2985 15.4245 14.0234 14.9188C14.0109 14.8958 13.999 14.8725 13.9875 14.8489C13.9647 14.8016 13.9441 14.7531 13.9259 14.7034C13.8621 14.5295 13.8273 14.3418 13.8273 14.1461C13.8273 13.9504 13.8622 13.7627 13.9259 13.5888C13.9442 13.5392 13.9648 13.4906 13.9875 13.4433C13.999 13.4197 14.0109 13.3964 14.0234 13.3734C14.2985 12.8677 14.8347 12.5236 15.4498 12.5236H19.0983C19.138 12.5236 19.1704 12.556 19.1704 12.5957V15.6965Z" fill="white"/>
<path d="M15.5179 12.9673C14.8679 12.9673 14.3391 13.4962 14.3391 14.1461C14.3391 14.796 14.8679 15.3248 15.5179 15.3248C16.1679 15.3248 16.6966 14.796 16.6966 14.1461C16.6966 13.4962 16.1679 12.9673 15.5179 12.9673ZM15.5179 14.7438C15.1883 14.7438 14.9202 14.4756 14.9202 14.1461C14.9202 13.8166 15.1883 13.5484 15.5179 13.5484C15.8474 13.5484 16.1156 13.8165 16.1156 14.1461C16.1156 14.4757 15.8474 14.7438 15.5179 14.7438Z" fill="white"/>
</svg>
