<svg width="20" height="20" viewBox="0 0 20 20" fill="none" xmlns="http://www.w3.org/2000/svg">
<path d="M14.203 12.2848C14.0239 12.1243 13.7486 12.14 13.5891 12.3187C12.6821 13.3322 11.3743 13.913 9.99994 13.913C8.62602 13.913 7.31776 13.3322 6.4108 12.3187C6.25036 12.14 5.97602 12.1243 5.79689 12.2848C5.61775 12.4448 5.60297 12.7196 5.76297 12.8987C6.83471 14.0961 8.37906 14.7826 9.99994 14.7826C11.6212 14.7826 13.1656 14.0957 14.2369 12.8987C14.3969 12.7196 14.3817 12.4448 14.203 12.2848Z" fill="white"/>
<path d="M10 0C4.48609 0 0 4.48609 0 10C0 15.5139 4.48609 20 10 20C15.5139 20 20 15.5139 20 10C20 4.48609 15.5139 0 10 0ZM10 19.1304C4.96522 19.1304 0.869565 15.0348 0.869565 10C0.869565 4.96522 4.96522 0.869565 10 0.869565C15.0348 0.869565 19.1304 4.96522 19.1304 10C19.1304 15.0348 15.0348 19.1304 10 19.1304Z" fill="white"/>
<path d="M13.4782 6.95652C12.2795 6.95652 11.3043 7.93174 11.3043 9.13044C11.3043 9.37044 11.4991 9.56522 11.7391 9.56522C11.9791 9.56522 12.1739 9.37044 12.1739 9.13044C12.1739 8.4113 12.7591 7.82609 13.4782 7.82609C14.1974 7.82609 14.7826 8.4113 14.7826 9.13044C14.7826 9.37044 14.9774 9.56522 15.2174 9.56522C15.4574 9.56522 15.6521 9.37044 15.6521 9.13044C15.6521 7.93174 14.6769 6.95652 13.4782 6.95652Z" fill="white"/>
<path d="M7.82604 9.13044C7.82604 9.37044 8.02082 9.56522 8.26082 9.56522C8.50082 9.56522 8.6956 9.37044 8.6956 9.13044C8.6956 7.93174 7.72039 6.95652 6.52169 6.95652C5.323 6.95652 4.34778 7.93174 4.34778 9.13044C4.34778 9.37044 4.54256 9.56522 4.78256 9.56522C5.02256 9.56522 5.21734 9.37044 5.21734 9.13044C5.21734 8.4113 5.80256 7.82609 6.52169 7.82609C7.24082 7.82609 7.82604 8.4113 7.82604 9.13044Z" fill="white"/>
</svg>
