<svg width="247" height="30" viewBox="0 0 247 30" fill="none" xmlns="http://www.w3.org/2000/svg">
<path d="M2.792 10.07C2.61467 10.07 2.47467 10.0187 2.372 9.916C2.26933 9.804 2.218 9.65933 2.218 9.482V0.69C2.218 0.522 2.26933 0.386666 2.372 0.284C2.484 0.181333 2.62867 0.129999 2.806 0.129999H7.902C8.07 0.129999 8.20067 0.171999 8.294 0.255999C8.38733 0.339999 8.434 0.461333 8.434 0.62C8.434 0.769333 8.38733 0.885999 8.294 0.969999C8.20067 1.054 8.07 1.096 7.902 1.096H3.352V4.498H7.622C7.79 4.498 7.92067 4.54 8.014 4.624C8.10733 4.708 8.154 4.82933 8.154 4.988C8.154 5.13733 8.10733 5.254 8.014 5.338C7.92067 5.422 7.79 5.464 7.622 5.464H3.352V9.482C3.352 9.65933 3.30067 9.804 3.198 9.916C3.10467 10.0187 2.96933 10.07 2.792 10.07ZM15.1243 8.418C15.2269 8.418 15.3156 8.46 15.3903 8.544C15.4649 8.628 15.5023 8.73533 15.5023 8.866C15.5023 9.09933 15.3389 9.314 15.0123 9.51C14.6763 9.706 14.3216 9.85533 13.9483 9.958C13.5749 10.0513 13.2109 10.098 12.8563 10.098C11.8016 10.098 10.9662 9.78533 10.3502 9.16C9.74358 8.53467 9.44025 7.67133 9.44025 6.57C9.44025 5.87 9.57558 5.254 9.84625 4.722C10.1169 4.18067 10.4949 3.76067 10.9802 3.462C11.4749 3.16333 12.0349 3.014 12.6603 3.014C13.5469 3.014 14.2516 3.30333 14.7743 3.882C15.2969 4.46067 15.5583 5.24467 15.5583 6.234C15.5583 6.42067 15.5209 6.556 15.4463 6.64C15.3716 6.724 15.2503 6.766 15.0823 6.766H10.5742C10.6582 8.37133 11.4189 9.174 12.8563 9.174C13.2203 9.174 13.5329 9.12733 13.7943 9.034C14.0556 8.93133 14.3356 8.796 14.6343 8.628C14.8769 8.488 15.0403 8.418 15.1243 8.418ZM12.6743 3.896C12.0769 3.896 11.5963 4.08267 11.2323 4.456C10.8776 4.82933 10.6676 5.35667 10.6022 6.038H14.5643C14.5456 5.34733 14.3729 4.82 14.0463 4.456C13.7196 4.08267 13.2622 3.896 12.6743 3.896ZM22.6471 8.418C22.7497 8.418 22.8384 8.46 22.9131 8.544C22.9877 8.628 23.0251 8.73533 23.0251 8.866C23.0251 9.09933 22.8617 9.314 22.5351 9.51C22.1991 9.706 21.8444 9.85533 21.4711 9.958C21.0977 10.0513 20.7337 10.098 20.3791 10.098C19.3244 10.098 18.4891 9.78533 17.8731 9.16C17.2664 8.53467 16.9631 7.67133 16.9631 6.57C16.9631 5.87 17.0984 5.254 17.3691 4.722C17.6397 4.18067 18.0177 3.76067 18.5031 3.462C18.9977 3.16333 19.5577 3.014 20.1831 3.014C21.0697 3.014 21.7744 3.30333 22.2971 3.882C22.8197 4.46067 23.0811 5.24467 23.0811 6.234C23.0811 6.42067 23.0437 6.556 22.9691 6.64C22.8944 6.724 22.7731 6.766 22.6051 6.766H18.0971C18.1811 8.37133 18.9417 9.174 20.3791 9.174C20.7431 9.174 21.0557 9.12733 21.3171 9.034C21.5784 8.93133 21.8584 8.796 22.1571 8.628C22.3997 8.488 22.5631 8.418 22.6471 8.418ZM20.1971 3.896C19.5997 3.896 19.1191 4.08267 18.7551 4.456C18.4004 4.82933 18.1904 5.35667 18.1251 6.038H22.0871C22.0684 5.34733 21.8957 4.82 21.5691 4.456C21.2424 4.08267 20.7851 3.896 20.1971 3.896ZM25.4659 10.07C25.2979 10.07 25.1579 10.0233 25.0459 9.93C24.9432 9.82733 24.8919 9.68733 24.8919 9.51V0.62C24.8919 0.442666 24.9432 0.307333 25.0459 0.213999C25.1579 0.111333 25.2979 0.0599995 25.4659 0.0599995C25.6245 0.0599995 25.7552 0.111333 25.8579 0.213999C25.9699 0.307333 26.0259 0.442666 26.0259 0.62V9.51C26.0259 9.68733 25.9699 9.82733 25.8579 9.93C25.7552 10.0233 25.6245 10.07 25.4659 10.07ZM28.8598 10.07C28.6918 10.07 28.5518 10.0233 28.4398 9.93C28.3371 9.82733 28.2858 9.68733 28.2858 9.51V3.602C28.2858 3.42467 28.3371 3.28933 28.4398 3.196C28.5518 3.09333 28.6918 3.042 28.8598 3.042C29.0278 3.042 29.1631 3.09333 29.2658 3.196C29.3684 3.28933 29.4198 3.42467 29.4198 3.602V9.51C29.4198 9.69667 29.3684 9.83667 29.2658 9.93C29.1631 10.0233 29.0278 10.07 28.8598 10.07ZM28.8598 1.572C28.6358 1.572 28.4538 1.50667 28.3138 1.376C28.1738 1.24533 28.1038 1.07267 28.1038 0.857999C28.1038 0.652666 28.1738 0.484667 28.3138 0.354C28.4538 0.223333 28.6358 0.158 28.8598 0.158C29.0838 0.158 29.2658 0.223333 29.4058 0.354C29.5458 0.484667 29.6158 0.652666 29.6158 0.857999C29.6158 1.07267 29.5458 1.24533 29.4058 1.376C29.2658 1.50667 29.0838 1.572 28.8598 1.572ZM35.1097 3.014C36.743 3.014 37.5597 3.91467 37.5597 5.716V9.51C37.5597 9.68733 37.5084 9.82733 37.4057 9.93C37.3124 10.0233 37.177 10.07 36.9997 10.07C36.8224 10.07 36.6824 10.0233 36.5797 9.93C36.477 9.82733 36.4257 9.68733 36.4257 9.51V5.786C36.4257 5.15133 36.2997 4.68933 36.0477 4.4C35.805 4.11067 35.413 3.966 34.8717 3.966C34.2464 3.966 33.747 4.15733 33.3737 4.54C33.0004 4.92267 32.8137 5.44067 32.8137 6.094V9.51C32.8137 9.68733 32.7624 9.82733 32.6597 9.93C32.5664 10.0233 32.431 10.07 32.2537 10.07C32.0764 10.07 31.9364 10.0233 31.8337 9.93C31.731 9.82733 31.6797 9.68733 31.6797 9.51V3.602C31.6797 3.434 31.731 3.29867 31.8337 3.196C31.9364 3.09333 32.0764 3.042 32.2537 3.042C32.4217 3.042 32.5524 3.09333 32.6457 3.196C32.7484 3.29867 32.7997 3.42933 32.7997 3.588V4.302C33.0237 3.882 33.3364 3.56467 33.7377 3.35C34.139 3.126 34.5964 3.014 35.1097 3.014ZM45.3067 3.042C45.4841 3.042 45.6241 3.09333 45.7267 3.196C45.8294 3.29867 45.8807 3.434 45.8807 3.602V9.538C45.8807 10.5553 45.6194 11.3207 45.0967 11.834C44.5741 12.3567 43.7994 12.618 42.7727 12.618C41.7741 12.618 40.9434 12.422 40.2807 12.03C39.9447 11.8433 39.7767 11.6287 39.7767 11.386C39.7767 11.2553 39.8094 11.148 39.8747 11.064C39.9494 10.98 40.0427 10.938 40.1547 10.938C40.2481 10.938 40.4161 11.0033 40.6587 11.134C40.9854 11.302 41.3074 11.4373 41.6247 11.54C41.9421 11.6427 42.3201 11.694 42.7587 11.694C43.4214 11.694 43.9207 11.5167 44.2567 11.162C44.5927 10.8167 44.7607 10.308 44.7607 9.636V8.432C44.5647 8.87067 44.2614 9.20667 43.8507 9.44C43.4494 9.67333 42.9734 9.79 42.4227 9.79C41.8254 9.79 41.2934 9.65 40.8267 9.37C40.3694 9.09 40.0101 8.69333 39.7487 8.18C39.4967 7.66667 39.3707 7.074 39.3707 6.402C39.3707 5.73 39.4967 5.13733 39.7487 4.624C40.0101 4.11067 40.3694 3.714 40.8267 3.434C41.2934 3.154 41.8254 3.014 42.4227 3.014C42.9641 3.014 43.4354 3.13067 43.8367 3.364C44.2381 3.59733 44.5414 3.92867 44.7467 4.358V3.602C44.7467 3.434 44.7934 3.29867 44.8867 3.196C44.9894 3.09333 45.1294 3.042 45.3067 3.042ZM42.6467 8.852C43.3001 8.852 43.8134 8.63733 44.1867 8.208C44.5601 7.76933 44.7467 7.16733 44.7467 6.402C44.7467 5.646 44.5601 5.05333 44.1867 4.624C43.8227 4.18533 43.3094 3.966 42.6467 3.966C41.9841 3.966 41.4614 4.18533 41.0787 4.624C40.7054 5.05333 40.5187 5.646 40.5187 6.402C40.5187 7.16733 40.7054 7.76933 41.0787 8.208C41.4614 8.63733 41.9841 8.852 42.6467 8.852ZM50.4158 10.098C49.9865 10.098 49.5758 10.0467 49.1838 9.944C48.8012 9.84133 48.4605 9.69667 48.1618 9.51C47.9938 9.398 47.8725 9.29533 47.7978 9.202C47.7325 9.09933 47.6998 8.978 47.6998 8.838C47.6998 8.71667 47.7325 8.61867 47.7978 8.544C47.8725 8.46 47.9658 8.418 48.0778 8.418C48.1898 8.418 48.3532 8.488 48.5678 8.628C48.8478 8.796 49.1232 8.93133 49.3938 9.034C49.6738 9.12733 50.0192 9.174 50.4298 9.174C50.9338 9.174 51.3258 9.08533 51.6058 8.908C51.8858 8.73067 52.0258 8.474 52.0258 8.138C52.0258 7.93267 51.9745 7.76933 51.8718 7.648C51.7692 7.51733 51.5918 7.40533 51.3398 7.312C51.0878 7.20933 50.7192 7.10667 50.2338 7.004C49.4125 6.82667 48.8245 6.58867 48.4698 6.29C48.1152 5.99133 47.9378 5.58533 47.9378 5.072C47.9378 4.67067 48.0498 4.316 48.2738 4.008C48.4978 3.7 48.8058 3.45733 49.1978 3.28C49.5992 3.10267 50.0518 3.014 50.5558 3.014C50.9198 3.014 51.2698 3.06533 51.6058 3.168C51.9512 3.26133 52.2545 3.39667 52.5158 3.574C52.8332 3.798 52.9918 4.03133 52.9918 4.274C52.9918 4.39533 52.9545 4.498 52.8798 4.582C52.8052 4.666 52.7165 4.708 52.6138 4.708C52.5018 4.708 52.3338 4.62867 52.1098 4.47C51.8485 4.302 51.6012 4.17133 51.3678 4.078C51.1345 3.98467 50.8452 3.938 50.4998 3.938C50.0612 3.938 49.7065 4.036 49.4358 4.232C49.1745 4.428 49.0438 4.68933 49.0438 5.016C49.0438 5.22133 49.0905 5.38933 49.1838 5.52C49.2865 5.64133 49.4498 5.75333 49.6738 5.856C49.9072 5.94933 50.2385 6.04267 50.6678 6.136C51.3025 6.276 51.7925 6.43 52.1378 6.598C52.4925 6.766 52.7445 6.97133 52.8938 7.214C53.0432 7.45667 53.1178 7.76467 53.1178 8.138C53.1178 8.726 52.8705 9.202 52.3758 9.566C51.8812 9.92067 51.2278 10.098 50.4158 10.098ZM61.5218 3.014C63.2298 3.014 64.0838 3.91 64.0838 5.702V9.51C64.0838 9.678 64.0324 9.81333 63.9298 9.916C63.8364 10.0187 63.7058 10.07 63.5378 10.07C63.3698 10.07 63.2344 10.0187 63.1318 9.916C63.0291 9.81333 62.9778 9.678 62.9778 9.51V8.838C62.8004 9.23933 62.5298 9.552 62.1658 9.776C61.8018 9.99067 61.3818 10.098 60.9058 10.098C60.4671 10.098 60.0611 10.0093 59.6878 9.832C59.3238 9.65467 59.0344 9.40733 58.8198 9.09C58.6051 8.77267 58.4978 8.42267 58.4978 8.04C58.4978 7.52667 58.6284 7.13 58.8898 6.85C59.1511 6.56067 59.5804 6.35533 60.1778 6.234C60.7751 6.10333 61.6058 6.038 62.6698 6.038H62.9778V5.576C62.9778 5.016 62.8611 4.60533 62.6278 4.344C62.4038 4.08267 62.0351 3.952 61.5218 3.952C60.8871 3.952 60.2431 4.12467 59.5898 4.47C59.3378 4.62867 59.1604 4.708 59.0578 4.708C58.9458 4.708 58.8524 4.666 58.7778 4.582C58.7031 4.498 58.6658 4.39067 58.6658 4.26C58.6658 4.12933 58.7031 4.01733 58.7778 3.924C58.8618 3.82133 58.9924 3.71867 59.1698 3.616C59.4964 3.42933 59.8651 3.28467 60.2758 3.182C60.6958 3.07 61.1111 3.014 61.5218 3.014ZM61.0598 9.202C61.6198 9.202 62.0771 9.01533 62.4318 8.642C62.7958 8.25933 62.9778 7.76933 62.9778 7.172V6.766H62.7258C61.9044 6.766 61.2791 6.80333 60.8498 6.878C60.4204 6.94333 60.1124 7.06 59.9258 7.228C59.7484 7.38667 59.6598 7.62467 59.6598 7.942C59.6598 8.306 59.7904 8.60933 60.0518 8.852C60.3224 9.08533 60.6584 9.202 61.0598 9.202ZM69.6736 3.042C70.0656 3.014 70.2616 3.17267 70.2616 3.518C70.2616 3.66733 70.2196 3.78867 70.1356 3.882C70.0516 3.966 69.9069 4.01733 69.7016 4.036L69.2816 4.078C68.6563 4.134 68.1896 4.358 67.8816 4.75C67.5829 5.13267 67.4336 5.58533 67.4336 6.108V9.51C67.4336 9.69667 67.3823 9.83667 67.2796 9.93C67.1769 10.0233 67.0416 10.07 66.8736 10.07C66.7056 10.07 66.5656 10.0233 66.4536 9.93C66.3509 9.82733 66.2996 9.68733 66.2996 9.51V3.602C66.2996 3.42467 66.3556 3.28933 66.4676 3.196C66.5796 3.09333 66.7149 3.042 66.8736 3.042C67.0229 3.042 67.1489 3.09333 67.2516 3.196C67.3543 3.28933 67.4056 3.42 67.4056 3.588V4.372C67.6016 3.96133 67.8769 3.64867 68.2316 3.434C68.5956 3.21933 69.0109 3.09333 69.4776 3.056L69.6736 3.042ZM76.5164 8.418C76.6191 8.418 76.7078 8.46 76.7824 8.544C76.8571 8.628 76.8944 8.73533 76.8944 8.866C76.8944 9.09933 76.7311 9.314 76.4044 9.51C76.0684 9.706 75.7138 9.85533 75.3404 9.958C74.9671 10.0513 74.6031 10.098 74.2484 10.098C73.1938 10.098 72.3584 9.78533 71.7424 9.16C71.1358 8.53467 70.8324 7.67133 70.8324 6.57C70.8324 5.87 70.9678 5.254 71.2384 4.722C71.5091 4.18067 71.8871 3.76067 72.3724 3.462C72.8671 3.16333 73.4271 3.014 74.0524 3.014C74.9391 3.014 75.6438 3.30333 76.1664 3.882C76.6891 4.46067 76.9504 5.24467 76.9504 6.234C76.9504 6.42067 76.9131 6.556 76.8384 6.64C76.7638 6.724 76.6424 6.766 76.4744 6.766H71.9664C72.0504 8.37133 72.8111 9.174 74.2484 9.174C74.6124 9.174 74.9251 9.12733 75.1864 9.034C75.4478 8.93133 75.7278 8.796 76.0264 8.628C76.2691 8.488 76.4324 8.418 76.5164 8.418ZM74.0664 3.896C73.4691 3.896 72.9884 4.08267 72.6244 4.456C72.2698 4.82933 72.0598 5.35667 71.9944 6.038H75.9564C75.9378 5.34733 75.7651 4.82 75.4384 4.456C75.1118 4.08267 74.6544 3.896 74.0664 3.896ZM85.9406 3.014C86.538 3.014 87.0653 3.15867 87.5226 3.448C87.98 3.73733 88.3346 4.148 88.5866 4.68C88.8386 5.212 88.9646 5.828 88.9646 6.528C88.9646 7.23733 88.8386 7.86267 88.5866 8.404C88.3346 8.936 87.98 9.35133 87.5226 9.65C87.0653 9.94867 86.538 10.098 85.9406 10.098C85.4086 10.098 84.942 9.98133 84.5406 9.748C84.1486 9.51467 83.85 9.18333 83.6446 8.754V9.51C83.6446 9.678 83.5933 9.81333 83.4906 9.916C83.3973 10.0187 83.262 10.07 83.0846 10.07C82.9073 10.07 82.7673 10.0187 82.6646 9.916C82.562 9.81333 82.5106 9.678 82.5106 9.51V0.606C82.5106 0.447333 82.562 0.316666 82.6646 0.213999C82.7673 0.111333 82.9073 0.0599995 83.0846 0.0599995C83.262 0.0599995 83.3973 0.111333 83.4906 0.213999C83.5933 0.307333 83.6446 0.438 83.6446 0.606V4.358C83.85 3.92867 84.1486 3.59733 84.5406 3.364C84.942 3.13067 85.4086 3.014 85.9406 3.014ZM85.7166 9.16C86.3793 9.16 86.8926 8.93133 87.2566 8.474C87.6206 8.00733 87.8026 7.35867 87.8026 6.528C87.8026 5.716 87.6206 5.086 87.2566 4.638C86.8926 4.19 86.3793 3.966 85.7166 3.966C85.054 3.966 84.5406 4.19 84.1766 4.638C83.822 5.086 83.6446 5.72533 83.6446 6.556C83.6446 7.38667 83.822 8.03067 84.1766 8.488C84.5406 8.936 85.054 9.16 85.7166 9.16ZM96.0771 8.418C96.1797 8.418 96.2684 8.46 96.3431 8.544C96.4177 8.628 96.4551 8.73533 96.4551 8.866C96.4551 9.09933 96.2917 9.314 95.9651 9.51C95.6291 9.706 95.2744 9.85533 94.9011 9.958C94.5277 10.0513 94.1637 10.098 93.8091 10.098C92.7544 10.098 91.9191 9.78533 91.3031 9.16C90.6964 8.53467 90.3931 7.67133 90.3931 6.57C90.3931 5.87 90.5284 5.254 90.7991 4.722C91.0697 4.18067 91.4477 3.76067 91.9331 3.462C92.4277 3.16333 92.9877 3.014 93.6131 3.014C94.4997 3.014 95.2044 3.30333 95.7271 3.882C96.2497 4.46067 96.5111 5.24467 96.5111 6.234C96.5111 6.42067 96.4737 6.556 96.3991 6.64C96.3244 6.724 96.2031 6.766 96.0351 6.766H91.5271C91.6111 8.37133 92.3717 9.174 93.8091 9.174C94.1731 9.174 94.4857 9.12733 94.7471 9.034C95.0084 8.93133 95.2884 8.796 95.5871 8.628C95.8297 8.488 95.9931 8.418 96.0771 8.418ZM93.6271 3.896C93.0297 3.896 92.5491 4.08267 92.1851 4.456C91.8304 4.82933 91.6204 5.35667 91.5551 6.038H95.5171C95.4984 5.34733 95.3257 4.82 94.9991 4.456C94.6724 4.08267 94.2151 3.896 93.6271 3.896ZM98.8959 10.07C98.7279 10.07 98.5879 10.0233 98.4759 9.93C98.3732 9.82733 98.3219 9.68733 98.3219 9.51V3.602C98.3219 3.42467 98.3732 3.28933 98.4759 3.196C98.5879 3.09333 98.7279 3.042 98.8959 3.042C99.0639 3.042 99.1992 3.09333 99.3019 3.196C99.4045 3.28933 99.4559 3.42467 99.4559 3.602V9.51C99.4559 9.69667 99.4045 9.83667 99.3019 9.93C99.1992 10.0233 99.0639 10.07 98.8959 10.07ZM98.8959 1.572C98.6719 1.572 98.4899 1.50667 98.3499 1.376C98.2099 1.24533 98.1399 1.07267 98.1399 0.857999C98.1399 0.652666 98.2099 0.484667 98.3499 0.354C98.4899 0.223333 98.6719 0.158 98.8959 0.158C99.1199 0.158 99.3019 0.223333 99.4419 0.354C99.5819 0.484667 99.6519 0.652666 99.6519 0.857999C99.6519 1.07267 99.5819 1.24533 99.4419 1.376C99.3019 1.50667 99.1199 1.572 98.8959 1.572ZM105.146 3.014C106.779 3.014 107.596 3.91467 107.596 5.716V9.51C107.596 9.68733 107.544 9.82733 107.442 9.93C107.348 10.0233 107.213 10.07 107.036 10.07C106.858 10.07 106.718 10.0233 106.616 9.93C106.513 9.82733 106.462 9.68733 106.462 9.51V5.786C106.462 5.15133 106.336 4.68933 106.084 4.4C105.841 4.11067 105.449 3.966 104.908 3.966C104.282 3.966 103.783 4.15733 103.41 4.54C103.036 4.92267 102.85 5.44067 102.85 6.094V9.51C102.85 9.68733 102.798 9.82733 102.696 9.93C102.602 10.0233 102.467 10.07 102.29 10.07C102.112 10.07 101.972 10.0233 101.87 9.93C101.767 9.82733 101.716 9.68733 101.716 9.51V3.602C101.716 3.434 101.767 3.29867 101.87 3.196C101.972 3.09333 102.112 3.042 102.29 3.042C102.458 3.042 102.588 3.09333 102.682 3.196C102.784 3.29867 102.836 3.42933 102.836 3.588V4.302C103.06 3.882 103.372 3.56467 103.774 3.35C104.175 3.126 104.632 3.014 105.146 3.014ZM115.343 3.042C115.52 3.042 115.66 3.09333 115.763 3.196C115.865 3.29867 115.917 3.434 115.917 3.602V9.538C115.917 10.5553 115.655 11.3207 115.133 11.834C114.61 12.3567 113.835 12.618 112.809 12.618C111.81 12.618 110.979 12.422 110.317 12.03C109.981 11.8433 109.813 11.6287 109.813 11.386C109.813 11.2553 109.845 11.148 109.911 11.064C109.985 10.98 110.079 10.938 110.191 10.938C110.284 10.938 110.452 11.0033 110.695 11.134C111.021 11.302 111.343 11.4373 111.661 11.54C111.978 11.6427 112.356 11.694 112.795 11.694C113.457 11.694 113.957 11.5167 114.293 11.162C114.629 10.8167 114.797 10.308 114.797 9.636V8.432C114.601 8.87067 114.297 9.20667 113.887 9.44C113.485 9.67333 113.009 9.79 112.459 9.79C111.861 9.79 111.329 9.65 110.863 9.37C110.405 9.09 110.046 8.69333 109.785 8.18C109.533 7.66667 109.407 7.074 109.407 6.402C109.407 5.73 109.533 5.13733 109.785 4.624C110.046 4.11067 110.405 3.714 110.863 3.434C111.329 3.154 111.861 3.014 112.459 3.014C113 3.014 113.471 3.13067 113.873 3.364C114.274 3.59733 114.577 3.92867 114.783 4.358V3.602C114.783 3.434 114.829 3.29867 114.923 3.196C115.025 3.09333 115.165 3.042 115.343 3.042ZM112.683 8.852C113.336 8.852 113.849 8.63733 114.223 8.208C114.596 7.76933 114.783 7.16733 114.783 6.402C114.783 5.646 114.596 5.05333 114.223 4.624C113.859 4.18533 113.345 3.966 112.683 3.966C112.02 3.966 111.497 4.18533 111.115 4.624C110.741 5.05333 110.555 5.646 110.555 6.402C110.555 7.16733 110.741 7.76933 111.115 8.208C111.497 8.63733 112.02 8.852 112.683 8.852ZM124.201 10.098C123.772 10.098 123.361 10.0467 122.969 9.944C122.587 9.84133 122.246 9.69667 121.947 9.51C121.779 9.398 121.658 9.29533 121.583 9.202C121.518 9.09933 121.485 8.978 121.485 8.838C121.485 8.71667 121.518 8.61867 121.583 8.544C121.658 8.46 121.751 8.418 121.863 8.418C121.975 8.418 122.139 8.488 122.353 8.628C122.633 8.796 122.909 8.93133 123.179 9.034C123.459 9.12733 123.805 9.174 124.215 9.174C124.719 9.174 125.111 9.08533 125.391 8.908C125.671 8.73067 125.811 8.474 125.811 8.138C125.811 7.93267 125.76 7.76933 125.657 7.648C125.555 7.51733 125.377 7.40533 125.125 7.312C124.873 7.20933 124.505 7.10667 124.019 7.004C123.198 6.82667 122.61 6.58867 122.255 6.29C121.901 5.99133 121.723 5.58533 121.723 5.072C121.723 4.67067 121.835 4.316 122.059 4.008C122.283 3.7 122.591 3.45733 122.983 3.28C123.385 3.10267 123.837 3.014 124.341 3.014C124.705 3.014 125.055 3.06533 125.391 3.168C125.737 3.26133 126.04 3.39667 126.301 3.574C126.619 3.798 126.777 4.03133 126.777 4.274C126.777 4.39533 126.74 4.498 126.665 4.582C126.591 4.666 126.502 4.708 126.399 4.708C126.287 4.708 126.119 4.62867 125.895 4.47C125.634 4.302 125.387 4.17133 125.153 4.078C124.92 3.98467 124.631 3.938 124.285 3.938C123.847 3.938 123.492 4.036 123.221 4.232C122.96 4.428 122.829 4.68933 122.829 5.016C122.829 5.22133 122.876 5.38933 122.969 5.52C123.072 5.64133 123.235 5.75333 123.459 5.856C123.693 5.94933 124.024 6.04267 124.453 6.136C125.088 6.276 125.578 6.43 125.923 6.598C126.278 6.766 126.53 6.97133 126.679 7.214C126.829 7.45667 126.903 7.76467 126.903 8.138C126.903 8.726 126.656 9.202 126.161 9.566C125.667 9.92067 125.013 10.098 124.201 10.098ZM132.216 3.014C133.019 3.014 133.625 3.24267 134.036 3.7C134.447 4.148 134.652 4.82 134.652 5.716V9.51C134.652 9.68733 134.601 9.82733 134.498 9.93C134.395 10.0233 134.26 10.07 134.092 10.07C133.915 10.07 133.775 10.0233 133.672 9.93C133.569 9.82733 133.518 9.68733 133.518 9.51V5.744C133.518 5.13733 133.392 4.68933 133.14 4.4C132.897 4.11067 132.505 3.966 131.964 3.966C131.339 3.966 130.839 4.15733 130.466 4.54C130.093 4.92267 129.906 5.44067 129.906 6.094V9.51C129.906 9.68733 129.855 9.82733 129.752 9.93C129.659 10.0233 129.523 10.07 129.346 10.07C129.169 10.07 129.029 10.0233 128.926 9.93C128.823 9.82733 128.772 9.68733 128.772 9.51V0.606C128.772 0.447333 128.823 0.316666 128.926 0.213999C129.038 0.111333 129.178 0.0599995 129.346 0.0599995C129.523 0.0599995 129.659 0.111333 129.752 0.213999C129.855 0.307333 129.906 0.438 129.906 0.606V4.274C130.13 3.86333 130.443 3.55067 130.844 3.336C131.245 3.12133 131.703 3.014 132.216 3.014ZM139.655 3.014C141.363 3.014 142.217 3.91 142.217 5.702V9.51C142.217 9.678 142.166 9.81333 142.063 9.916C141.97 10.0187 141.839 10.07 141.671 10.07C141.503 10.07 141.368 10.0187 141.265 9.916C141.162 9.81333 141.111 9.678 141.111 9.51V8.838C140.934 9.23933 140.663 9.552 140.299 9.776C139.935 9.99067 139.515 10.098 139.039 10.098C138.6 10.098 138.194 10.0093 137.821 9.832C137.457 9.65467 137.168 9.40733 136.953 9.09C136.738 8.77267 136.631 8.42267 136.631 8.04C136.631 7.52667 136.762 7.13 137.023 6.85C137.284 6.56067 137.714 6.35533 138.311 6.234C138.908 6.10333 139.739 6.038 140.803 6.038H141.111V5.576C141.111 5.016 140.994 4.60533 140.761 4.344C140.537 4.08267 140.168 3.952 139.655 3.952C139.02 3.952 138.376 4.12467 137.723 4.47C137.471 4.62867 137.294 4.708 137.191 4.708C137.079 4.708 136.986 4.666 136.911 4.582C136.836 4.498 136.799 4.39067 136.799 4.26C136.799 4.12933 136.836 4.01733 136.911 3.924C136.995 3.82133 137.126 3.71867 137.303 3.616C137.63 3.42933 137.998 3.28467 138.409 3.182C138.829 3.07 139.244 3.014 139.655 3.014ZM139.193 9.202C139.753 9.202 140.21 9.01533 140.565 8.642C140.929 8.25933 141.111 7.76933 141.111 7.172V6.766H140.859C140.038 6.766 139.412 6.80333 138.983 6.878C138.554 6.94333 138.246 7.06 138.059 7.228C137.882 7.38667 137.793 7.62467 137.793 7.942C137.793 8.306 137.924 8.60933 138.185 8.852C138.456 9.08533 138.792 9.202 139.193 9.202ZM147.807 3.042C148.199 3.014 148.395 3.17267 148.395 3.518C148.395 3.66733 148.353 3.78867 148.269 3.882C148.185 3.966 148.04 4.01733 147.835 4.036L147.415 4.078C146.789 4.134 146.323 4.358 146.015 4.75C145.716 5.13267 145.567 5.58533 145.567 6.108V9.51C145.567 9.69667 145.515 9.83667 145.413 9.93C145.31 10.0233 145.175 10.07 145.007 10.07C144.839 10.07 144.699 10.0233 144.587 9.93C144.484 9.82733 144.433 9.68733 144.433 9.51V3.602C144.433 3.42467 144.489 3.28933 144.601 3.196C144.713 3.09333 144.848 3.042 145.007 3.042C145.156 3.042 145.282 3.09333 145.385 3.196C145.487 3.28933 145.539 3.42 145.539 3.588V4.372C145.735 3.96133 146.01 3.64867 146.365 3.434C146.729 3.21933 147.144 3.09333 147.611 3.056L147.807 3.042ZM154.65 8.418C154.752 8.418 154.841 8.46 154.916 8.544C154.99 8.628 155.028 8.73533 155.028 8.866C155.028 9.09933 154.864 9.314 154.538 9.51C154.202 9.706 153.847 9.85533 153.474 9.958C153.1 10.0513 152.736 10.098 152.382 10.098C151.327 10.098 150.492 9.78533 149.876 9.16C149.269 8.53467 148.966 7.67133 148.966 6.57C148.966 5.87 149.101 5.254 149.372 4.722C149.642 4.18067 150.02 3.76067 150.506 3.462C151 3.16333 151.56 3.014 152.186 3.014C153.072 3.014 153.777 3.30333 154.3 3.882C154.822 4.46067 155.084 5.24467 155.084 6.234C155.084 6.42067 155.046 6.556 154.972 6.64C154.897 6.724 154.776 6.766 154.608 6.766H150.1C150.184 8.37133 150.944 9.174 152.382 9.174C152.746 9.174 153.058 9.12733 153.32 9.034C153.581 8.93133 153.861 8.796 154.16 8.628C154.402 8.488 154.566 8.418 154.65 8.418ZM152.2 3.896C151.602 3.896 151.122 4.08267 150.758 4.456C150.403 4.82933 150.193 5.35667 150.128 6.038H154.09C154.071 5.34733 153.898 4.82 153.572 4.456C153.245 4.08267 152.788 3.896 152.2 3.896ZM162.368 0.0599995C162.546 0.0599995 162.686 0.111333 162.788 0.213999C162.891 0.316666 162.942 0.447333 162.942 0.606V9.51C162.942 9.678 162.891 9.81333 162.788 9.916C162.686 10.0187 162.546 10.07 162.368 10.07C162.191 10.07 162.051 10.0187 161.948 9.916C161.855 9.81333 161.808 9.678 161.808 9.51V8.754C161.603 9.18333 161.3 9.51467 160.898 9.748C160.506 9.98133 160.044 10.098 159.512 10.098C158.915 10.098 158.388 9.94867 157.93 9.65C157.473 9.35133 157.118 8.936 156.866 8.404C156.614 7.86267 156.488 7.23733 156.488 6.528C156.488 5.828 156.614 5.212 156.866 4.68C157.118 4.148 157.473 3.73733 157.93 3.448C158.388 3.15867 158.915 3.014 159.512 3.014C160.044 3.014 160.506 3.13067 160.898 3.364C161.3 3.59733 161.603 3.92867 161.808 4.358V0.606C161.808 0.438 161.855 0.307333 161.948 0.213999C162.051 0.111333 162.191 0.0599995 162.368 0.0599995ZM159.736 9.16C160.399 9.16 160.908 8.936 161.262 8.488C161.626 8.03067 161.808 7.38667 161.808 6.556C161.808 5.72533 161.626 5.086 161.262 4.638C160.908 4.19 160.399 3.966 159.736 3.966C159.074 3.966 158.556 4.19 158.182 4.638C157.818 5.086 157.636 5.716 157.636 6.528C157.636 7.35867 157.818 8.00733 158.182 8.474C158.556 8.93133 159.074 9.16 159.736 9.16ZM171.942 1.026C171.448 1.06333 171.074 1.222 170.822 1.502C170.57 1.77267 170.444 2.18333 170.444 2.734V3.182H171.998C172.157 3.182 172.278 3.224 172.362 3.308C172.446 3.392 172.488 3.504 172.488 3.644C172.488 3.784 172.446 3.89133 172.362 3.966C172.278 4.04067 172.157 4.078 171.998 4.078H170.444V9.51C170.444 9.68733 170.388 9.82733 170.276 9.93C170.174 10.0233 170.043 10.07 169.884 10.07C169.716 10.07 169.576 10.0233 169.464 9.93C169.362 9.82733 169.31 9.68733 169.31 9.51V4.078H168.372C168.214 4.078 168.088 4.04067 167.994 3.966C167.91 3.882 167.868 3.77467 167.868 3.644C167.868 3.504 167.91 3.392 167.994 3.308C168.088 3.224 168.214 3.182 168.372 3.182H169.31V2.93C169.31 2.09 169.52 1.432 169.94 0.956C170.36 0.470666 170.962 0.2 171.746 0.143999L172.11 0.116C172.353 0.0973332 172.526 0.120666 172.628 0.186C172.74 0.251333 172.796 0.368 172.796 0.535999C172.796 0.806666 172.633 0.960666 172.306 0.998L171.942 1.026ZM177.04 3.042C177.432 3.014 177.628 3.17267 177.628 3.518C177.628 3.66733 177.586 3.78867 177.502 3.882C177.418 3.966 177.273 4.01733 177.068 4.036L176.648 4.078C176.023 4.134 175.556 4.358 175.248 4.75C174.949 5.13267 174.8 5.58533 174.8 6.108V9.51C174.8 9.69667 174.749 9.83667 174.646 9.93C174.543 10.0233 174.408 10.07 174.24 10.07C174.072 10.07 173.932 10.0233 173.82 9.93C173.717 9.82733 173.666 9.68733 173.666 9.51V3.602C173.666 3.42467 173.722 3.28933 173.834 3.196C173.946 3.09333 174.081 3.042 174.24 3.042C174.389 3.042 174.515 3.09333 174.618 3.196C174.721 3.28933 174.772 3.42 174.772 3.588V4.372C174.968 3.96133 175.243 3.64867 175.598 3.434C175.962 3.21933 176.377 3.09333 176.844 3.056L177.04 3.042ZM181.433 10.098C180.789 10.098 180.219 9.95333 179.725 9.664C179.239 9.37467 178.861 8.964 178.591 8.432C178.329 7.89067 178.199 7.26533 178.199 6.556C178.199 5.84667 178.329 5.226 178.591 4.694C178.861 4.15267 179.239 3.73733 179.725 3.448C180.219 3.15867 180.789 3.014 181.433 3.014C182.077 3.014 182.646 3.15867 183.141 3.448C183.635 3.73733 184.013 4.15267 184.275 4.694C184.545 5.226 184.681 5.84667 184.681 6.556C184.681 7.26533 184.545 7.89067 184.275 8.432C184.013 8.964 183.635 9.37467 183.141 9.664C182.646 9.95333 182.077 10.098 181.433 10.098ZM181.433 9.16C182.105 9.16 182.618 8.94067 182.973 8.502C183.337 8.054 183.519 7.40533 183.519 6.556C183.519 5.72533 183.337 5.086 182.973 4.638C182.609 4.18067 182.095 3.952 181.433 3.952C180.77 3.952 180.257 4.18067 179.893 4.638C179.529 5.086 179.347 5.72533 179.347 6.556C179.347 7.396 179.524 8.04 179.879 8.488C180.243 8.936 180.761 9.16 181.433 9.16ZM194.098 3.014C195.61 3.014 196.366 3.91467 196.366 5.716V9.51C196.366 9.68733 196.315 9.82733 196.212 9.93C196.11 10.0233 195.974 10.07 195.806 10.07C195.638 10.07 195.498 10.0233 195.386 9.93C195.284 9.82733 195.232 9.68733 195.232 9.51V5.744C195.232 5.11867 195.12 4.666 194.896 4.386C194.672 4.106 194.322 3.966 193.846 3.966C193.277 3.966 192.829 4.15733 192.502 4.54C192.176 4.92267 192.012 5.44067 192.012 6.094V9.51C192.012 9.68733 191.956 9.82733 191.844 9.93C191.742 10.0233 191.606 10.07 191.438 10.07C191.27 10.07 191.135 10.0233 191.032 9.93C190.93 9.82733 190.878 9.68733 190.878 9.51V5.744C190.878 5.11867 190.766 4.666 190.542 4.386C190.318 4.106 189.964 3.966 189.478 3.966C188.918 3.966 188.47 4.15733 188.134 4.54C187.808 4.92267 187.644 5.44067 187.644 6.094V9.51C187.644 9.68733 187.593 9.82733 187.49 9.93C187.388 10.0233 187.252 10.07 187.084 10.07C186.916 10.07 186.776 10.0233 186.664 9.93C186.562 9.82733 186.51 9.68733 186.51 9.51V3.602C186.51 3.434 186.562 3.29867 186.664 3.196C186.776 3.09333 186.916 3.042 187.084 3.042C187.243 3.042 187.374 3.09333 187.476 3.196C187.579 3.28933 187.63 3.42 187.63 3.588V4.26C187.836 3.85867 188.12 3.55067 188.484 3.336C188.848 3.12133 189.268 3.014 189.744 3.014C190.808 3.014 191.504 3.462 191.83 4.358C192.026 3.94733 192.325 3.62067 192.726 3.378C193.128 3.13533 193.585 3.014 194.098 3.014ZM205.108 3.014C206.816 3.014 207.67 3.91 207.67 5.702V9.51C207.67 9.678 207.618 9.81333 207.516 9.916C207.422 10.0187 207.292 10.07 207.124 10.07C206.956 10.07 206.82 10.0187 206.718 9.916C206.615 9.81333 206.564 9.678 206.564 9.51V8.838C206.386 9.23933 206.116 9.552 205.752 9.776C205.388 9.99067 204.968 10.098 204.492 10.098C204.053 10.098 203.647 10.0093 203.274 9.832C202.91 9.65467 202.62 9.40733 202.406 9.09C202.191 8.77267 202.084 8.42267 202.084 8.04C202.084 7.52667 202.214 7.13 202.476 6.85C202.737 6.56067 203.166 6.35533 203.764 6.234C204.361 6.10333 205.192 6.038 206.256 6.038H206.564V5.576C206.564 5.016 206.447 4.60533 206.214 4.344C205.99 4.08267 205.621 3.952 205.108 3.952C204.473 3.952 203.829 4.12467 203.176 4.47C202.924 4.62867 202.746 4.708 202.644 4.708C202.532 4.708 202.438 4.666 202.364 4.582C202.289 4.498 202.252 4.39067 202.252 4.26C202.252 4.12933 202.289 4.01733 202.364 3.924C202.448 3.82133 202.578 3.71867 202.756 3.616C203.082 3.42933 203.451 3.28467 203.862 3.182C204.282 3.07 204.697 3.014 205.108 3.014ZM204.646 9.202C205.206 9.202 205.663 9.01533 206.018 8.642C206.382 8.25933 206.564 7.76933 206.564 7.172V6.766H206.312C205.49 6.766 204.865 6.80333 204.436 6.878C204.006 6.94333 203.698 7.06 203.512 7.228C203.334 7.38667 203.246 7.62467 203.246 7.942C203.246 8.306 203.376 8.60933 203.638 8.852C203.908 9.08533 204.244 9.202 204.646 9.202ZM210.459 10.07C210.291 10.07 210.151 10.0233 210.039 9.93C209.937 9.82733 209.885 9.68733 209.885 9.51V0.62C209.885 0.442666 209.937 0.307333 210.039 0.213999C210.151 0.111333 210.291 0.0599995 210.459 0.0599995C210.618 0.0599995 210.749 0.111333 210.851 0.213999C210.963 0.307333 211.019 0.442666 211.019 0.62V9.51C211.019 9.68733 210.963 9.82733 210.851 9.93C210.749 10.0233 210.618 10.07 210.459 10.07ZM213.853 10.07C213.685 10.07 213.545 10.0233 213.433 9.93C213.331 9.82733 213.279 9.68733 213.279 9.51V0.62C213.279 0.442666 213.331 0.307333 213.433 0.213999C213.545 0.111333 213.685 0.0599995 213.853 0.0599995C214.012 0.0599995 214.143 0.111333 214.245 0.213999C214.357 0.307333 214.413 0.442666 214.413 0.62V9.51C214.413 9.68733 214.357 9.82733 214.245 9.93C214.143 10.0233 214.012 10.07 213.853 10.07ZM223.251 10.098C222.607 10.098 222.037 9.95333 221.543 9.664C221.057 9.37467 220.679 8.964 220.409 8.432C220.147 7.89067 220.017 7.26533 220.017 6.556C220.017 5.84667 220.147 5.226 220.409 4.694C220.679 4.15267 221.057 3.73733 221.543 3.448C222.037 3.15867 222.607 3.014 223.251 3.014C223.895 3.014 224.464 3.15867 224.959 3.448C225.453 3.73733 225.831 4.15267 226.093 4.694C226.363 5.226 226.499 5.84667 226.499 6.556C226.499 7.26533 226.363 7.89067 226.093 8.432C225.831 8.964 225.453 9.37467 224.959 9.664C224.464 9.95333 223.895 10.098 223.251 10.098ZM223.251 9.16C223.923 9.16 224.436 8.94067 224.791 8.502C225.155 8.054 225.337 7.40533 225.337 6.556C225.337 5.72533 225.155 5.086 224.791 4.638C224.427 4.18067 223.913 3.952 223.251 3.952C222.588 3.952 222.075 4.18067 221.711 4.638C221.347 5.086 221.165 5.72533 221.165 6.556C221.165 7.396 221.342 8.04 221.697 8.488C222.061 8.936 222.579 9.16 223.251 9.16ZM233.16 3.392C233.263 3.168 233.426 3.056 233.65 3.056C233.79 3.056 233.916 3.10267 234.028 3.196C234.14 3.28933 234.196 3.406 234.196 3.546C234.196 3.63 234.178 3.70467 234.14 3.77L231.41 9.65C231.354 9.77133 231.27 9.86933 231.158 9.944C231.046 10.0093 230.925 10.042 230.794 10.042C230.673 10.042 230.556 10.0093 230.444 9.944C230.332 9.86933 230.244 9.77133 230.178 9.65L227.462 3.77C227.425 3.70467 227.406 3.63467 227.406 3.56C227.406 3.42 227.467 3.29867 227.588 3.196C227.719 3.09333 227.859 3.042 228.008 3.042C228.102 3.042 228.19 3.07 228.274 3.126C228.368 3.182 228.438 3.26133 228.484 3.364L230.822 8.614L233.16 3.392ZM240.774 8.418C240.876 8.418 240.965 8.46 241.04 8.544C241.114 8.628 241.152 8.73533 241.152 8.866C241.152 9.09933 240.988 9.314 240.662 9.51C240.326 9.706 239.971 9.85533 239.598 9.958C239.224 10.0513 238.86 10.098 238.506 10.098C237.451 10.098 236.616 9.78533 236 9.16C235.393 8.53467 235.09 7.67133 235.09 6.57C235.09 5.87 235.225 5.254 235.496 4.722C235.766 4.18067 236.144 3.76067 236.63 3.462C237.124 3.16333 237.684 3.014 238.31 3.014C239.196 3.014 239.901 3.30333 240.424 3.882C240.946 4.46067 241.208 5.24467 241.208 6.234C241.208 6.42067 241.17 6.556 241.096 6.64C241.021 6.724 240.9 6.766 240.732 6.766H236.224C236.308 8.37133 237.068 9.174 238.506 9.174C238.87 9.174 239.182 9.12733 239.444 9.034C239.705 8.93133 239.985 8.796 240.284 8.628C240.526 8.488 240.69 8.418 240.774 8.418ZM238.324 3.896C237.726 3.896 237.246 4.08267 236.882 4.456C236.527 4.82933 236.317 5.35667 236.252 6.038H240.214C240.195 5.34733 240.022 4.82 239.696 4.456C239.369 4.08267 238.912 3.896 238.324 3.896ZM246.392 3.042C246.784 3.014 246.98 3.17267 246.98 3.518C246.98 3.66733 246.938 3.78867 246.854 3.882C246.77 3.966 246.626 4.01733 246.42 4.036L246 4.078C245.375 4.134 244.908 4.358 244.6 4.75C244.302 5.13267 244.152 5.58533 244.152 6.108V9.51C244.152 9.69667 244.101 9.83667 243.998 9.93C243.896 10.0233 243.76 10.07 243.592 10.07C243.424 10.07 243.284 10.0233 243.172 9.93C243.07 9.82733 243.018 9.68733 243.018 9.51V3.602C243.018 3.42467 243.074 3.28933 243.186 3.196C243.298 3.09333 243.434 3.042 243.592 3.042C243.742 3.042 243.868 3.09333 243.97 3.196C244.073 3.28933 244.124 3.42 244.124 3.588V4.372C244.32 3.96133 244.596 3.64867 244.95 3.434C245.314 3.21933 245.73 3.09333 246.196 3.056L246.392 3.042ZM5.2 28.174C5.52667 28.202 5.69 28.3513 5.69 28.622C5.69 28.7807 5.62933 28.902 5.508 28.986C5.396 29.0607 5.22333 29.0887 4.99 29.07L4.612 29.042C3.86533 28.986 3.31467 28.762 2.96 28.37C2.60533 27.978 2.428 27.3853 2.428 26.592V23.078H1.49C1.33133 23.078 1.20533 23.0407 1.112 22.966C1.028 22.882 0.986 22.7747 0.986 22.644C0.986 22.504 1.028 22.392 1.112 22.308C1.20533 22.224 1.33133 22.182 1.49 22.182H2.428V20.6C2.428 20.4227 2.47933 20.2873 2.582 20.194C2.68467 20.0913 2.82467 20.04 3.002 20.04C3.17 20.04 3.30533 20.0913 3.408 20.194C3.51067 20.2873 3.562 20.4227 3.562 20.6V22.182H5.116C5.26533 22.182 5.382 22.224 5.466 22.308C5.55933 22.392 5.606 22.504 5.606 22.644C5.606 22.7747 5.55933 22.882 5.466 22.966C5.382 23.0407 5.26533 23.078 5.116 23.078H3.562V26.648C3.562 27.1613 3.66467 27.5347 3.87 27.768C4.08467 27.992 4.402 28.118 4.822 28.146L5.2 28.174ZM10.3918 22.014C11.1945 22.014 11.8011 22.2427 12.2118 22.7C12.6225 23.148 12.8278 23.82 12.8278 24.716V28.51C12.8278 28.6873 12.7765 28.8273 12.6738 28.93C12.5711 29.0233 12.4358 29.07 12.2678 29.07C12.0905 29.07 11.9505 29.0233 11.8478 28.93C11.7451 28.8273 11.6938 28.6873 11.6938 28.51V24.744C11.6938 24.1373 11.5678 23.6893 11.3158 23.4C11.0731 23.1107 10.6811 22.966 10.1398 22.966C9.51448 22.966 9.01515 23.1573 8.64181 23.54C8.26848 23.9227 8.08181 24.4407 8.08181 25.094V28.51C8.08181 28.6873 8.03048 28.8273 7.92781 28.93C7.83448 29.0233 7.69915 29.07 7.52181 29.07C7.34448 29.07 7.20448 29.0233 7.10181 28.93C6.99915 28.8273 6.94781 28.6873 6.94781 28.51V19.606C6.94781 19.4473 6.99915 19.3167 7.10181 19.214C7.21381 19.1113 7.35381 19.06 7.52181 19.06C7.69915 19.06 7.83448 19.1113 7.92781 19.214C8.03048 19.3073 8.08181 19.438 8.08181 19.606V23.274C8.30581 22.8633 8.61848 22.5507 9.01981 22.336C9.42115 22.1213 9.87848 22.014 10.3918 22.014ZM20.3228 27.418C20.4255 27.418 20.5142 27.46 20.5888 27.544C20.6635 27.628 20.7008 27.7353 20.7008 27.866C20.7008 28.0993 20.5375 28.314 20.2108 28.51C19.8748 28.706 19.5202 28.8553 19.1468 28.958C18.7735 29.0513 18.4095 29.098 18.0548 29.098C17.0002 29.098 16.1648 28.7853 15.5488 28.16C14.9422 27.5347 14.6388 26.6713 14.6388 25.57C14.6388 24.87 14.7742 24.254 15.0448 23.722C15.3155 23.1807 15.6935 22.7607 16.1788 22.462C16.6735 22.1633 17.2335 22.014 17.8588 22.014C18.7455 22.014 19.4502 22.3033 19.9728 22.882C20.4955 23.4607 20.7568 24.2447 20.7568 25.234C20.7568 25.4207 20.7195 25.556 20.6448 25.64C20.5702 25.724 20.4488 25.766 20.2808 25.766H15.7728C15.8568 27.3713 16.6175 28.174 18.0548 28.174C18.4188 28.174 18.7315 28.1273 18.9928 28.034C19.2542 27.9313 19.5342 27.796 19.8328 27.628C20.0755 27.488 20.2388 27.418 20.3228 27.418ZM17.8728 22.896C17.2755 22.896 16.7948 23.0827 16.4308 23.456C16.0762 23.8293 15.8662 24.3567 15.8008 25.038H19.7628C19.7442 24.3473 19.5715 23.82 19.2448 23.456C18.9182 23.0827 18.4608 22.896 17.8728 22.896ZM35.641 22.406C35.7344 22.182 35.8884 22.07 36.103 22.07C36.243 22.07 36.369 22.1167 36.481 22.21C36.593 22.3033 36.649 22.42 36.649 22.56C36.649 22.6253 36.635 22.6953 36.607 22.77L34.283 28.65C34.227 28.7713 34.143 28.8693 34.031 28.944C33.9284 29.0093 33.8117 29.042 33.681 29.042C33.5597 29.042 33.443 29.0093 33.331 28.944C33.2284 28.8693 33.149 28.7713 33.093 28.65L31.161 23.736L29.243 28.65C29.1964 28.7713 29.117 28.8693 29.005 28.944C28.893 29.0093 28.7717 29.042 28.641 29.042C28.5197 29.042 28.403 29.0093 28.291 28.944C28.179 28.8693 28.095 28.7713 28.039 28.65L25.715 22.784C25.687 22.7093 25.673 22.644 25.673 22.588C25.673 22.4387 25.7337 22.3127 25.855 22.21C25.9857 22.1073 26.1257 22.056 26.275 22.056C26.499 22.056 26.6577 22.168 26.751 22.392L28.669 27.558L30.643 22.434C30.699 22.3127 30.7737 22.2193 30.867 22.154C30.9697 22.0887 31.077 22.056 31.189 22.056C31.3104 22.056 31.4177 22.0887 31.511 22.154C31.6137 22.2193 31.6884 22.3127 31.735 22.434L33.709 27.544L35.641 22.406ZM40.9882 29.098C40.3442 29.098 39.7748 28.9533 39.2802 28.664C38.7948 28.3747 38.4168 27.964 38.1462 27.432C37.8848 26.8907 37.7542 26.2653 37.7542 25.556C37.7542 24.8467 37.8848 24.226 38.1462 23.694C38.4168 23.1527 38.7948 22.7373 39.2802 22.448C39.7748 22.1587 40.3442 22.014 40.9882 22.014C41.6322 22.014 42.2015 22.1587 42.6962 22.448C43.1908 22.7373 43.5688 23.1527 43.8302 23.694C44.1008 24.226 44.2362 24.8467 44.2362 25.556C44.2362 26.2653 44.1008 26.8907 43.8302 27.432C43.5688 27.964 43.1908 28.3747 42.6962 28.664C42.2015 28.9533 41.6322 29.098 40.9882 29.098ZM40.9882 28.16C41.6602 28.16 42.1735 27.9407 42.5282 27.502C42.8922 27.054 43.0742 26.4053 43.0742 25.556C43.0742 24.7253 42.8922 24.086 42.5282 23.638C42.1642 23.1807 41.6508 22.952 40.9882 22.952C40.3255 22.952 39.8122 23.1807 39.4482 23.638C39.0842 24.086 38.9022 24.7253 38.9022 25.556C38.9022 26.396 39.0795 27.04 39.4342 27.488C39.7982 27.936 40.3162 28.16 40.9882 28.16ZM49.4398 22.042C49.8318 22.014 50.0278 22.1727 50.0278 22.518C50.0278 22.6673 49.9858 22.7887 49.9018 22.882C49.8178 22.966 49.6731 23.0173 49.4678 23.036L49.0478 23.078C48.4224 23.134 47.9558 23.358 47.6478 23.75C47.3491 24.1327 47.1998 24.5853 47.1998 25.108V28.51C47.1998 28.6967 47.1484 28.8367 47.0458 28.93C46.9431 29.0233 46.8078 29.07 46.6398 29.07C46.4718 29.07 46.3318 29.0233 46.2198 28.93C46.1171 28.8273 46.0658 28.6873 46.0658 28.51V22.602C46.0658 22.4247 46.1218 22.2893 46.2338 22.196C46.3458 22.0933 46.4811 22.042 46.6398 22.042C46.7891 22.042 46.9151 22.0933 47.0178 22.196C47.1204 22.2893 47.1718 22.42 47.1718 22.588V23.372C47.3678 22.9613 47.6431 22.6487 47.9978 22.434C48.3618 22.2193 48.7771 22.0933 49.2438 22.056L49.4398 22.042ZM51.7153 29.07C51.5473 29.07 51.4073 29.0233 51.2953 28.93C51.1927 28.8273 51.1413 28.6873 51.1413 28.51V19.62C51.1413 19.4427 51.1927 19.3073 51.2953 19.214C51.4073 19.1113 51.5473 19.06 51.7153 19.06C51.874 19.06 52.0047 19.1113 52.1073 19.214C52.2193 19.3073 52.2753 19.4427 52.2753 19.62V28.51C52.2753 28.6873 52.2193 28.8273 52.1073 28.93C52.0047 29.0233 51.874 29.07 51.7153 29.07ZM60.0092 19.06C60.1866 19.06 60.3266 19.1113 60.4292 19.214C60.5319 19.3167 60.5832 19.4473 60.5832 19.606V28.51C60.5832 28.678 60.5319 28.8133 60.4292 28.916C60.3266 29.0187 60.1866 29.07 60.0092 29.07C59.8319 29.07 59.6919 29.0187 59.5892 28.916C59.4959 28.8133 59.4492 28.678 59.4492 28.51V27.754C59.2439 28.1833 58.9406 28.5147 58.5392 28.748C58.1472 28.9813 57.6852 29.098 57.1532 29.098C56.5559 29.098 56.0286 28.9487 55.5712 28.65C55.1139 28.3513 54.7592 27.936 54.5072 27.404C54.2552 26.8627 54.1292 26.2373 54.1292 25.528C54.1292 24.828 54.2552 24.212 54.5072 23.68C54.7592 23.148 55.1139 22.7373 55.5712 22.448C56.0286 22.1587 56.5559 22.014 57.1532 22.014C57.6852 22.014 58.1472 22.1307 58.5392 22.364C58.9406 22.5973 59.2439 22.9287 59.4492 23.358V19.606C59.4492 19.438 59.4959 19.3073 59.5892 19.214C59.6919 19.1113 59.8319 19.06 60.0092 19.06ZM57.3772 28.16C58.0399 28.16 58.5486 27.936 58.9032 27.488C59.2672 27.0307 59.4492 26.3867 59.4492 25.556C59.4492 24.7253 59.2672 24.086 58.9032 23.638C58.5486 23.19 58.0399 22.966 57.3772 22.966C56.7146 22.966 56.1966 23.19 55.8232 23.638C55.4592 24.086 55.2772 24.716 55.2772 25.528C55.2772 26.3587 55.4592 27.0073 55.8232 27.474C56.1966 27.9313 56.7146 28.16 57.3772 28.16ZM63.3837 29.07C63.1597 29.07 62.973 29 62.8237 28.86C62.6743 28.7107 62.5997 28.5193 62.5997 28.286C62.5997 28.0527 62.6743 27.8613 62.8237 27.712C62.973 27.5627 63.1597 27.488 63.3837 27.488C63.5983 27.488 63.7757 27.5627 63.9157 27.712C64.065 27.8613 64.1397 28.0527 64.1397 28.286C64.1397 28.5193 64.065 28.7107 63.9157 28.86C63.7757 29 63.5983 29.07 63.3837 29.07Z" fill="white"/>
</svg>
