<svg width="363" height="147" viewBox="0 0 363 147" fill="none" xmlns="http://www.w3.org/2000/svg">
<path d="M58.4 24.18C57.536 24.18 56.768 24.072 56.096 23.856C55.424 23.64 54.794 23.274 54.206 22.758C53.882 22.47 53.72 22.152 53.72 21.804C53.72 21.528 53.822 21.288 54.026 21.084C54.23 20.868 54.476 20.76 54.764 20.76C54.992 20.76 55.196 20.832 55.376 20.976C55.856 21.372 56.324 21.66 56.78 21.84C57.236 22.02 57.776 22.11 58.4 22.11C59.072 22.11 59.648 21.96 60.128 21.66C60.62 21.36 60.866 20.988 60.866 20.544C60.866 20.004 60.626 19.584 60.146 19.284C59.666 18.972 58.904 18.738 57.86 18.582C55.232 18.198 53.918 16.974 53.918 14.91C53.918 14.154 54.116 13.5 54.512 12.948C54.908 12.384 55.448 11.958 56.132 11.67C56.816 11.37 57.578 11.22 58.418 11.22C59.174 11.22 59.882 11.334 60.542 11.562C61.214 11.79 61.772 12.09 62.216 12.462C62.564 12.738 62.738 13.056 62.738 13.416C62.738 13.692 62.636 13.938 62.432 14.154C62.228 14.358 61.988 14.46 61.712 14.46C61.532 14.46 61.37 14.406 61.226 14.298C60.914 14.046 60.476 13.818 59.912 13.614C59.36 13.398 58.862 13.29 58.418 13.29C57.662 13.29 57.074 13.434 56.654 13.722C56.246 13.998 56.042 14.364 56.042 14.82C56.042 15.336 56.252 15.726 56.672 15.99C57.104 16.254 57.776 16.47 58.688 16.638C59.72 16.818 60.542 17.052 61.154 17.34C61.778 17.616 62.246 18 62.558 18.492C62.87 18.972 63.026 19.614 63.026 20.418C63.026 21.174 62.81 21.84 62.378 22.416C61.958 22.98 61.394 23.418 60.686 23.73C59.978 24.03 59.216 24.18 58.4 24.18ZM70.1482 14.19C71.3362 14.19 72.1582 14.556 72.6142 15.288C73.0702 16.008 73.2982 17.01 73.2982 18.294V22.902C73.2982 23.214 73.1962 23.478 72.9922 23.694C72.7882 23.898 72.5302 24 72.2182 24C71.9062 24 71.6482 23.898 71.4442 23.694C71.2402 23.478 71.1382 23.214 71.1382 22.902V18.294C71.1382 17.634 71.0062 17.118 70.7422 16.746C70.4902 16.362 70.0402 16.17 69.3922 16.17C68.7202 16.17 68.1922 16.374 67.8082 16.782C67.4362 17.178 67.2502 17.682 67.2502 18.294V22.902C67.2502 23.214 67.1482 23.478 66.9442 23.694C66.7402 23.898 66.4822 24 66.1702 24C65.8582 24 65.6002 23.898 65.3962 23.694C65.1922 23.478 65.0902 23.214 65.0902 22.902V11.778C65.0902 11.466 65.1922 11.208 65.3962 11.004C65.6002 10.788 65.8582 10.68 66.1702 10.68C66.4822 10.68 66.7402 10.788 66.9442 11.004C67.1482 11.208 67.2502 11.466 67.2502 11.778V15.756C67.5742 15.324 67.9822 14.958 68.4742 14.658C68.9782 14.346 69.5362 14.19 70.1482 14.19ZM83.6111 14.19C83.9231 14.19 84.1811 14.292 84.3851 14.496C84.5891 14.7 84.6911 14.964 84.6911 15.288V22.902C84.6911 23.214 84.5891 23.478 84.3851 23.694C84.1811 23.898 83.9231 24 83.6111 24C83.2991 24 83.0411 23.898 82.8371 23.694C82.6451 23.49 82.5431 23.232 82.5311 22.92C82.2311 23.268 81.8231 23.568 81.3071 23.82C80.8031 24.06 80.2691 24.18 79.7051 24.18C78.8771 24.18 78.1271 23.97 77.4551 23.55C76.7831 23.118 76.2491 22.524 75.8531 21.768C75.4691 21.012 75.2771 20.154 75.2771 19.194C75.2771 18.234 75.4691 17.376 75.8531 16.62C76.2371 15.852 76.7591 15.258 77.4191 14.838C78.0911 14.406 78.8291 14.19 79.6331 14.19C80.2091 14.19 80.7491 14.298 81.2531 14.514C81.7571 14.718 82.1831 14.982 82.5311 15.306V15.288C82.5311 14.976 82.6331 14.718 82.8371 14.514C83.0411 14.298 83.2991 14.19 83.6111 14.19ZM79.9751 22.2C80.7551 22.2 81.3911 21.918 81.8831 21.354C82.3751 20.778 82.6211 20.058 82.6211 19.194C82.6211 18.33 82.3751 17.61 81.8831 17.034C81.3911 16.458 80.7551 16.17 79.9751 16.17C79.2071 16.17 78.5771 16.458 78.0851 17.034C77.5931 17.61 77.3471 18.33 77.3471 19.194C77.3471 20.058 77.5871 20.778 78.0671 21.354C78.5591 21.918 79.1951 22.2 79.9751 22.2ZM92.216 14.19C92.576 14.19 92.876 14.292 93.116 14.496C93.368 14.7 93.494 14.94 93.494 15.216C93.494 15.588 93.398 15.87 93.206 16.062C93.014 16.242 92.786 16.332 92.522 16.332C92.342 16.332 92.138 16.29 91.91 16.206C91.874 16.194 91.79 16.17 91.658 16.134C91.538 16.098 91.406 16.08 91.262 16.08C90.95 16.08 90.65 16.176 90.362 16.368C90.074 16.56 89.834 16.854 89.642 17.25C89.462 17.634 89.372 18.096 89.372 18.636V22.902C89.372 23.214 89.27 23.478 89.066 23.694C88.862 23.898 88.604 24 88.292 24C87.98 24 87.722 23.898 87.518 23.694C87.314 23.478 87.212 23.214 87.212 22.902V15.468C87.212 15.156 87.314 14.898 87.518 14.694C87.722 14.478 87.98 14.37 88.292 14.37C88.604 14.37 88.862 14.478 89.066 14.694C89.27 14.898 89.372 15.156 89.372 15.468V15.702C89.648 15.21 90.044 14.838 90.56 14.586C91.076 14.322 91.628 14.19 92.216 14.19ZM103.432 18.96C103.42 19.248 103.306 19.482 103.09 19.662C102.874 19.842 102.622 19.932 102.334 19.932H96.3943C96.5383 20.64 96.8683 21.198 97.3843 21.606C97.9003 22.002 98.4823 22.2 99.1303 22.2C99.6223 22.2 100.006 22.158 100.282 22.074C100.558 21.978 100.774 21.882 100.93 21.786C101.098 21.678 101.212 21.606 101.272 21.57C101.488 21.462 101.692 21.408 101.884 21.408C102.136 21.408 102.352 21.498 102.532 21.678C102.712 21.858 102.802 22.068 102.802 22.308C102.802 22.632 102.634 22.926 102.298 23.19C101.962 23.466 101.512 23.7 100.948 23.892C100.384 24.084 99.8143 24.18 99.2383 24.18C98.2303 24.18 97.3483 23.97 96.5923 23.55C95.8483 23.13 95.2723 22.554 94.8643 21.822C94.4563 21.078 94.2523 20.244 94.2523 19.32C94.2523 18.288 94.4683 17.382 94.9003 16.602C95.3323 15.822 95.9023 15.228 96.6103 14.82C97.3183 14.4 98.0743 14.19 98.8783 14.19C99.6703 14.19 100.414 14.406 101.11 14.838C101.818 15.27 102.382 15.852 102.802 16.584C103.222 17.316 103.432 18.108 103.432 18.96ZM98.8783 16.17C97.4863 16.17 96.6643 16.824 96.4123 18.132H101.128V18.006C101.08 17.502 100.834 17.07 100.39 16.71C99.9463 16.35 99.4423 16.17 98.8783 16.17ZM117.785 14.37C118.097 14.37 118.355 14.478 118.559 14.694C118.763 14.898 118.865 15.156 118.865 15.468V23.118C118.865 24.678 118.445 25.812 117.605 26.52C116.765 27.24 115.643 27.6 114.239 27.6C113.831 27.6 113.411 27.564 112.979 27.492C112.559 27.432 112.217 27.348 111.953 27.24C111.365 26.988 111.071 26.64 111.071 26.196C111.071 26.112 111.089 26.016 111.125 25.908C111.197 25.644 111.317 25.44 111.485 25.296C111.665 25.164 111.857 25.098 112.061 25.098C112.181 25.098 112.295 25.116 112.403 25.152C112.487 25.188 112.631 25.248 112.835 25.332C113.051 25.416 113.273 25.482 113.501 25.53C113.741 25.59 113.987 25.62 114.239 25.62C115.091 25.62 115.715 25.434 116.111 25.062C116.519 24.702 116.723 24.078 116.723 23.19V23.01C116.099 23.79 115.127 24.18 113.807 24.18C113.183 24.18 112.631 24.036 112.151 23.748C111.671 23.448 111.299 23.04 111.035 22.524C110.771 21.996 110.639 21.396 110.639 20.724V15.468C110.639 15.156 110.741 14.898 110.945 14.694C111.149 14.478 111.407 14.37 111.719 14.37C112.031 14.37 112.289 14.478 112.493 14.694C112.697 14.898 112.799 15.156 112.799 15.468V20.076C112.799 20.832 112.961 21.378 113.285 21.714C113.621 22.038 114.107 22.2 114.743 22.2C115.367 22.2 115.847 22.02 116.183 21.66C116.531 21.288 116.705 20.76 116.705 20.076V15.468C116.705 15.156 116.807 14.898 117.011 14.694C117.215 14.478 117.473 14.37 117.785 14.37ZM130.547 19.194C130.547 20.154 130.331 21.018 129.899 21.786C129.467 22.542 128.873 23.13 128.117 23.55C127.373 23.97 126.551 24.18 125.651 24.18C124.739 24.18 123.911 23.97 123.167 23.55C122.423 23.13 121.835 22.542 121.403 21.786C120.971 21.018 120.755 20.154 120.755 19.194C120.755 18.234 120.971 17.376 121.403 16.62C121.835 15.852 122.423 15.258 123.167 14.838C123.911 14.406 124.739 14.19 125.651 14.19C126.551 14.19 127.373 14.406 128.117 14.838C128.873 15.258 129.467 15.852 129.899 16.62C130.331 17.376 130.547 18.234 130.547 19.194ZM128.387 19.194C128.387 18.606 128.261 18.084 128.009 17.628C127.769 17.16 127.439 16.8 127.019 16.548C126.611 16.296 126.155 16.17 125.651 16.17C125.147 16.17 124.685 16.296 124.265 16.548C123.857 16.8 123.527 17.16 123.275 17.628C123.035 18.084 122.915 18.606 122.915 19.194C122.915 19.782 123.035 20.304 123.275 20.76C123.527 21.216 123.857 21.57 124.265 21.822C124.685 22.074 125.147 22.2 125.651 22.2C126.155 22.2 126.611 22.074 127.019 21.822C127.439 21.57 127.769 21.216 128.009 20.76C128.261 20.304 128.387 19.782 128.387 19.194ZM139.678 14.37C139.99 14.37 140.248 14.478 140.452 14.694C140.656 14.898 140.758 15.156 140.758 15.468V20.04C140.758 21.336 140.398 22.35 139.678 23.082C138.97 23.814 137.956 24.18 136.636 24.18C135.316 24.18 134.302 23.814 133.594 23.082C132.886 22.35 132.532 21.336 132.532 20.04V15.468C132.532 15.156 132.634 14.898 132.838 14.694C133.042 14.478 133.3 14.37 133.612 14.37C133.924 14.37 134.182 14.478 134.386 14.694C134.59 14.898 134.692 15.156 134.692 15.468V20.04C134.692 20.772 134.854 21.318 135.178 21.678C135.502 22.026 135.988 22.2 136.636 22.2C137.296 22.2 137.788 22.026 138.112 21.678C138.436 21.318 138.598 20.772 138.598 20.04V15.468C138.598 15.156 138.7 14.898 138.904 14.694C139.108 14.478 139.366 14.37 139.678 14.37ZM148.28 14.19C148.64 14.19 148.94 14.292 149.18 14.496C149.432 14.7 149.558 14.94 149.558 15.216C149.558 15.588 149.462 15.87 149.27 16.062C149.078 16.242 148.85 16.332 148.586 16.332C148.406 16.332 148.202 16.29 147.974 16.206C147.938 16.194 147.854 16.17 147.722 16.134C147.602 16.098 147.47 16.08 147.326 16.08C147.014 16.08 146.714 16.176 146.426 16.368C146.138 16.56 145.898 16.854 145.706 17.25C145.526 17.634 145.436 18.096 145.436 18.636V22.902C145.436 23.214 145.334 23.478 145.13 23.694C144.926 23.898 144.668 24 144.356 24C144.044 24 143.786 23.898 143.582 23.694C143.378 23.478 143.276 23.214 143.276 22.902V15.468C143.276 15.156 143.378 14.898 143.582 14.694C143.786 14.478 144.044 14.37 144.356 14.37C144.668 14.37 144.926 14.478 145.13 14.694C145.334 14.898 145.436 15.156 145.436 15.468V15.702C145.712 15.21 146.108 14.838 146.624 14.586C147.14 14.322 147.692 14.19 148.28 14.19ZM161.112 12.588C160.704 12.588 160.416 12.708 160.248 12.948C160.08 13.176 159.996 13.428 159.996 13.704V14.55H161.634C161.922 14.55 162.162 14.646 162.354 14.838C162.546 15.018 162.642 15.252 162.642 15.54C162.642 15.828 162.546 16.068 162.354 16.26C162.162 16.44 161.922 16.53 161.634 16.53H159.996V22.902C159.996 23.214 159.894 23.478 159.69 23.694C159.486 23.898 159.228 24 158.916 24C158.604 24 158.346 23.898 158.142 23.694C157.938 23.478 157.836 23.214 157.836 22.902V16.53H156.864C156.576 16.53 156.336 16.44 156.144 16.26C155.952 16.068 155.856 15.828 155.856 15.54C155.856 15.252 155.952 15.018 156.144 14.838C156.336 14.646 156.576 14.55 156.864 14.55H157.836V13.722C157.836 12.822 158.142 12.09 158.754 11.526C159.378 10.962 160.272 10.68 161.436 10.68C161.88 10.68 162.264 10.77 162.588 10.95C162.924 11.13 163.092 11.406 163.092 11.778C163.092 12.066 163.008 12.3 162.84 12.48C162.672 12.66 162.468 12.75 162.228 12.75C162.168 12.75 162.102 12.744 162.03 12.732C161.97 12.72 161.904 12.708 161.832 12.696C161.544 12.624 161.304 12.588 161.112 12.588ZM172.812 18.96C172.8 19.248 172.686 19.482 172.47 19.662C172.254 19.842 172.002 19.932 171.714 19.932H165.774C165.918 20.64 166.248 21.198 166.764 21.606C167.28 22.002 167.862 22.2 168.51 22.2C169.002 22.2 169.386 22.158 169.662 22.074C169.938 21.978 170.154 21.882 170.31 21.786C170.478 21.678 170.592 21.606 170.652 21.57C170.868 21.462 171.072 21.408 171.264 21.408C171.516 21.408 171.732 21.498 171.912 21.678C172.092 21.858 172.182 22.068 172.182 22.308C172.182 22.632 172.014 22.926 171.678 23.19C171.342 23.466 170.892 23.7 170.328 23.892C169.764 24.084 169.194 24.18 168.618 24.18C167.61 24.18 166.728 23.97 165.972 23.55C165.228 23.13 164.652 22.554 164.244 21.822C163.836 21.078 163.632 20.244 163.632 19.32C163.632 18.288 163.848 17.382 164.28 16.602C164.712 15.822 165.282 15.228 165.99 14.82C166.698 14.4 167.454 14.19 168.258 14.19C169.05 14.19 169.794 14.406 170.49 14.838C171.198 15.27 171.762 15.852 172.182 16.584C172.602 17.316 172.812 18.108 172.812 18.96ZM168.258 16.17C166.866 16.17 166.044 16.824 165.792 18.132H170.508V18.006C170.46 17.502 170.214 17.07 169.77 16.71C169.326 16.35 168.822 16.17 168.258 16.17ZM183.433 18.96C183.421 19.248 183.307 19.482 183.091 19.662C182.875 19.842 182.623 19.932 182.335 19.932H176.395C176.539 20.64 176.869 21.198 177.385 21.606C177.901 22.002 178.483 22.2 179.131 22.2C179.623 22.2 180.007 22.158 180.283 22.074C180.559 21.978 180.775 21.882 180.931 21.786C181.099 21.678 181.213 21.606 181.273 21.57C181.489 21.462 181.693 21.408 181.885 21.408C182.137 21.408 182.353 21.498 182.533 21.678C182.713 21.858 182.803 22.068 182.803 22.308C182.803 22.632 182.635 22.926 182.299 23.19C181.963 23.466 181.513 23.7 180.949 23.892C180.385 24.084 179.815 24.18 179.239 24.18C178.231 24.18 177.349 23.97 176.593 23.55C175.849 23.13 175.273 22.554 174.865 21.822C174.457 21.078 174.253 20.244 174.253 19.32C174.253 18.288 174.469 17.382 174.901 16.602C175.333 15.822 175.903 15.228 176.611 14.82C177.319 14.4 178.075 14.19 178.879 14.19C179.671 14.19 180.415 14.406 181.111 14.838C181.819 15.27 182.383 15.852 182.803 16.584C183.223 17.316 183.433 18.108 183.433 18.96ZM178.879 16.17C177.487 16.17 176.665 16.824 176.413 18.132H181.129V18.006C181.081 17.502 180.835 17.07 180.391 16.71C179.947 16.35 179.443 16.17 178.879 16.17ZM187.755 22.902C187.755 23.214 187.647 23.478 187.431 23.694C187.227 23.898 186.969 24 186.657 24C186.357 24 186.105 23.898 185.901 23.694C185.697 23.478 185.595 23.214 185.595 22.902V11.778C185.595 11.466 185.697 11.208 185.901 11.004C186.117 10.788 186.381 10.68 186.693 10.68C186.993 10.68 187.245 10.788 187.449 11.004C187.653 11.208 187.755 11.466 187.755 11.778V22.902ZM192.48 22.902C192.48 23.214 192.378 23.478 192.174 23.694C191.97 23.898 191.712 24 191.4 24C191.088 24 190.83 23.898 190.626 23.694C190.422 23.478 190.32 23.214 190.32 22.902V15.468C190.32 15.156 190.422 14.898 190.626 14.694C190.83 14.478 191.088 14.37 191.4 14.37C191.712 14.37 191.97 14.478 192.174 14.694C192.378 14.898 192.48 15.156 192.48 15.468V22.902ZM191.382 13.2C190.974 13.2 190.686 13.134 190.518 13.002C190.35 12.87 190.266 12.636 190.266 12.3V11.958C190.266 11.622 190.356 11.388 190.536 11.256C190.716 11.124 191.004 11.058 191.4 11.058C191.82 11.058 192.114 11.124 192.282 11.256C192.45 11.388 192.534 11.622 192.534 11.958V12.3C192.534 12.648 192.444 12.888 192.264 13.02C192.096 13.14 191.802 13.2 191.382 13.2ZM200.028 14.19C201.252 14.19 202.098 14.556 202.566 15.288C203.034 16.008 203.268 17.01 203.268 18.294V22.902C203.268 23.214 203.166 23.478 202.962 23.694C202.758 23.898 202.5 24 202.188 24C201.876 24 201.618 23.898 201.414 23.694C201.21 23.478 201.108 23.214 201.108 22.902V18.294C201.108 17.634 200.97 17.118 200.694 16.746C200.418 16.362 199.944 16.17 199.272 16.17C198.576 16.17 198.03 16.374 197.634 16.782C197.238 17.178 197.04 17.682 197.04 18.294V22.902C197.04 23.214 196.938 23.478 196.734 23.694C196.53 23.898 196.272 24 195.96 24C195.648 24 195.39 23.898 195.186 23.694C194.982 23.478 194.88 23.214 194.88 22.902V15.468C194.88 15.156 194.982 14.898 195.186 14.694C195.39 14.478 195.648 14.37 195.96 14.37C196.272 14.37 196.53 14.478 196.734 14.694C196.938 14.898 197.04 15.156 197.04 15.468V15.774C197.364 15.342 197.784 14.97 198.3 14.658C198.828 14.346 199.404 14.19 200.028 14.19ZM213.757 14.19C214.069 14.19 214.327 14.292 214.531 14.496C214.735 14.7 214.837 14.964 214.837 15.288V23.298C214.837 24.762 214.381 25.842 213.469 26.538C212.569 27.246 211.423 27.6 210.031 27.6C209.671 27.6 209.173 27.54 208.537 27.42C207.913 27.3 207.469 27.18 207.205 27.06C206.617 26.808 206.323 26.46 206.323 26.016C206.323 25.932 206.341 25.836 206.377 25.728C206.449 25.464 206.569 25.26 206.737 25.116C206.917 24.984 207.109 24.918 207.313 24.918C207.433 24.918 207.547 24.936 207.655 24.972C207.703 24.984 207.997 25.092 208.537 25.296C209.089 25.512 209.587 25.62 210.031 25.62C210.919 25.62 211.579 25.44 212.011 25.08C212.455 24.732 212.677 24.234 212.677 23.586V22.722C212.413 23.094 212.011 23.43 211.471 23.73C210.943 24.03 210.373 24.18 209.761 24.18C208.921 24.18 208.153 23.97 207.457 23.55C206.773 23.118 206.233 22.524 205.837 21.768C205.441 21.012 205.243 20.154 205.243 19.194C205.243 18.234 205.435 17.376 205.819 16.62C206.215 15.852 206.749 15.258 207.421 14.838C208.105 14.406 208.861 14.19 209.689 14.19C210.301 14.19 210.871 14.316 211.399 14.568C211.927 14.82 212.353 15.126 212.677 15.486V15.288C212.677 14.976 212.779 14.718 212.983 14.514C213.187 14.298 213.445 14.19 213.757 14.19ZM210.031 22.2C210.835 22.2 211.489 21.918 211.993 21.354C212.509 20.778 212.767 20.058 212.767 19.194C212.767 18.33 212.509 17.61 211.993 17.034C211.489 16.458 210.835 16.17 210.031 16.17C209.227 16.17 208.573 16.458 208.069 17.034C207.565 17.61 207.313 18.33 207.313 19.194C207.313 20.058 207.565 20.778 208.069 21.354C208.573 21.918 209.227 22.2 210.031 22.2ZM216.62 22.506C216.512 22.362 216.458 22.182 216.458 21.966C216.458 21.654 216.614 21.39 216.926 21.174C217.094 21.066 217.268 21.012 217.448 21.012C217.7 21.012 217.94 21.126 218.168 21.354C218.528 21.726 218.9 22.002 219.284 22.182C219.68 22.362 220.154 22.452 220.706 22.452C221.642 22.416 222.11 22.062 222.11 21.39C222.11 21.042 221.948 20.778 221.624 20.598C221.312 20.418 220.82 20.238 220.148 20.058C219.452 19.866 218.882 19.674 218.438 19.482C218.006 19.29 217.628 19.002 217.304 18.618C216.992 18.222 216.836 17.694 216.836 17.034C216.836 16.458 216.998 15.96 217.322 15.54C217.658 15.108 218.09 14.778 218.618 14.55C219.158 14.31 219.728 14.19 220.328 14.19C220.94 14.19 221.552 14.304 222.164 14.532C222.776 14.76 223.256 15.096 223.604 15.54C223.76 15.732 223.838 15.948 223.838 16.188C223.838 16.464 223.724 16.692 223.496 16.872C223.328 17.004 223.136 17.07 222.92 17.07C222.656 17.07 222.44 16.986 222.272 16.818C222.056 16.554 221.774 16.344 221.426 16.188C221.09 16.032 220.706 15.954 220.274 15.954C219.362 15.954 218.906 16.284 218.906 16.944C218.906 17.208 218.99 17.424 219.158 17.592C219.326 17.748 219.536 17.874 219.788 17.97C220.052 18.054 220.418 18.162 220.886 18.294C221.534 18.474 222.074 18.66 222.506 18.852C222.938 19.044 223.304 19.338 223.604 19.734C223.904 20.13 224.054 20.652 224.054 21.3C224.054 21.888 223.88 22.404 223.532 22.848C223.184 23.28 222.734 23.61 222.182 23.838C221.642 24.066 221.084 24.18 220.508 24.18C219.716 24.18 218.978 24.048 218.294 23.784C217.61 23.52 217.052 23.094 216.62 22.506Z" fill="white"/>
<path d="M61.478 128.93C61.79 128.93 62.048 129.038 62.252 129.254C62.468 129.458 62.576 129.698 62.576 129.974C62.576 130.274 62.468 130.52 62.252 130.712C62.048 130.904 61.79 131 61.478 131H55.448C55.136 131 54.872 130.898 54.656 130.694C54.452 130.478 54.35 130.214 54.35 129.902V119.498C54.35 119.186 54.452 118.928 54.656 118.724C54.872 118.508 55.136 118.4 55.448 118.4H61.478C61.79 118.4 62.048 118.502 62.252 118.706C62.468 118.898 62.576 119.15 62.576 119.462C62.576 119.762 62.474 120.008 62.27 120.2C62.066 120.38 61.802 120.47 61.478 120.47H56.6V123.53H60.668C60.98 123.53 61.238 123.632 61.442 123.836C61.658 124.028 61.766 124.28 61.766 124.592C61.766 124.892 61.664 125.138 61.46 125.33C61.256 125.51 60.992 125.6 60.668 125.6H56.6V128.93H61.478ZM72.4448 121.19C72.7568 121.19 73.0148 121.292 73.2188 121.496C73.4228 121.7 73.5248 121.964 73.5248 122.288V129.902C73.5248 130.214 73.4228 130.478 73.2188 130.694C73.0148 130.898 72.7568 131 72.4448 131C72.1328 131 71.8748 130.898 71.6708 130.694C71.4788 130.49 71.3768 130.232 71.3648 129.92C71.0648 130.268 70.6568 130.568 70.1408 130.82C69.6368 131.06 69.1028 131.18 68.5388 131.18C67.7108 131.18 66.9608 130.97 66.2888 130.55C65.6168 130.118 65.0828 129.524 64.6868 128.768C64.3028 128.012 64.1108 127.154 64.1108 126.194C64.1108 125.234 64.3028 124.376 64.6868 123.62C65.0708 122.852 65.5928 122.258 66.2528 121.838C66.9248 121.406 67.6628 121.19 68.4668 121.19C69.0428 121.19 69.5828 121.298 70.0868 121.514C70.5908 121.718 71.0168 121.982 71.3648 122.306V122.288C71.3648 121.976 71.4668 121.718 71.6708 121.514C71.8748 121.298 72.1328 121.19 72.4448 121.19ZM68.8088 129.2C69.5888 129.2 70.2248 128.918 70.7168 128.354C71.2088 127.778 71.4548 127.058 71.4548 126.194C71.4548 125.33 71.2088 124.61 70.7168 124.034C70.2248 123.458 69.5888 123.17 68.8088 123.17C68.0408 123.17 67.4108 123.458 66.9188 124.034C66.4268 124.61 66.1808 125.33 66.1808 126.194C66.1808 127.058 66.4208 127.778 66.9008 128.354C67.3928 128.918 68.0288 129.2 68.8088 129.2ZM81.0496 121.19C81.4096 121.19 81.7096 121.292 81.9496 121.496C82.2016 121.7 82.3276 121.94 82.3276 122.216C82.3276 122.588 82.2316 122.87 82.0396 123.062C81.8476 123.242 81.6196 123.332 81.3556 123.332C81.1756 123.332 80.9716 123.29 80.7436 123.206C80.7076 123.194 80.6236 123.17 80.4916 123.134C80.3716 123.098 80.2396 123.08 80.0956 123.08C79.7836 123.08 79.4836 123.176 79.1956 123.368C78.9076 123.56 78.6676 123.854 78.4756 124.25C78.2956 124.634 78.2056 125.096 78.2056 125.636V129.902C78.2056 130.214 78.1036 130.478 77.8996 130.694C77.6956 130.898 77.4376 131 77.1256 131C76.8136 131 76.5556 130.898 76.3516 130.694C76.1476 130.478 76.0456 130.214 76.0456 129.902V122.468C76.0456 122.156 76.1476 121.898 76.3516 121.694C76.5556 121.478 76.8136 121.37 77.1256 121.37C77.4376 121.37 77.6956 121.478 77.8996 121.694C78.1036 121.898 78.2056 122.156 78.2056 122.468V122.702C78.4816 122.21 78.8776 121.838 79.3936 121.586C79.9096 121.322 80.4616 121.19 81.0496 121.19ZM89.1783 121.19C90.4023 121.19 91.2483 121.556 91.7163 122.288C92.1843 123.008 92.4183 124.01 92.4183 125.294V129.902C92.4183 130.214 92.3163 130.478 92.1123 130.694C91.9083 130.898 91.6503 131 91.3383 131C91.0263 131 90.7683 130.898 90.5643 130.694C90.3603 130.478 90.2583 130.214 90.2583 129.902V125.294C90.2583 124.634 90.1203 124.118 89.8443 123.746C89.5683 123.362 89.0943 123.17 88.4223 123.17C87.7263 123.17 87.1803 123.374 86.7843 123.782C86.3883 124.178 86.1903 124.682 86.1903 125.294V129.902C86.1903 130.214 86.0883 130.478 85.8843 130.694C85.6803 130.898 85.4223 131 85.1103 131C84.7983 131 84.5403 130.898 84.3363 130.694C84.1323 130.478 84.0303 130.214 84.0303 129.902V122.468C84.0303 122.156 84.1323 121.898 84.3363 121.694C84.5403 121.478 84.7983 121.37 85.1103 121.37C85.4223 121.37 85.6803 121.478 85.8843 121.694C86.0883 121.898 86.1903 122.156 86.1903 122.468V122.774C86.5143 122.342 86.9343 121.97 87.4503 121.658C87.9783 121.346 88.5543 121.19 89.1783 121.19Z" fill="white"/>
<path d="M59.552 66.4C60.164 66.4 60.746 66.586 61.298 66.958C61.85 67.318 62.294 67.81 62.63 68.434C62.966 69.046 63.134 69.718 63.134 70.45C63.134 71.17 62.966 71.842 62.63 72.466C62.294 73.09 61.85 73.588 61.298 73.96C60.746 74.32 60.164 74.5 59.552 74.5H56.42V77.902C56.42 78.226 56.324 78.49 56.132 78.694C55.94 78.898 55.688 79 55.376 79C55.076 79 54.83 78.898 54.638 78.694C54.446 78.478 54.35 78.214 54.35 77.902V67.498C54.35 67.186 54.452 66.928 54.656 66.724C54.872 66.508 55.136 66.4 55.448 66.4H59.552ZM59.552 72.448C59.78 72.448 60.002 72.352 60.218 72.16C60.446 71.968 60.626 71.722 60.758 71.422C60.902 71.11 60.974 70.786 60.974 70.45C60.974 70.114 60.902 69.796 60.758 69.496C60.626 69.184 60.446 68.938 60.218 68.758C60.002 68.566 59.78 68.47 59.552 68.47H56.42V72.448H59.552ZM74.2719 74.194C74.2719 75.154 74.0559 76.018 73.6239 76.786C73.1919 77.542 72.5979 78.13 71.8419 78.55C71.0979 78.97 70.2759 79.18 69.3759 79.18C68.4639 79.18 67.6359 78.97 66.8919 78.55C66.1479 78.13 65.5599 77.542 65.1279 76.786C64.6959 76.018 64.4799 75.154 64.4799 74.194C64.4799 73.234 64.6959 72.376 65.1279 71.62C65.5599 70.852 66.1479 70.258 66.8919 69.838C67.6359 69.406 68.4639 69.19 69.3759 69.19C70.2759 69.19 71.0979 69.406 71.8419 69.838C72.5979 70.258 73.1919 70.852 73.6239 71.62C74.0559 72.376 74.2719 73.234 74.2719 74.194ZM72.1119 74.194C72.1119 73.606 71.9859 73.084 71.7339 72.628C71.4939 72.16 71.1639 71.8 70.7439 71.548C70.3359 71.296 69.8799 71.17 69.3759 71.17C68.8719 71.17 68.4099 71.296 67.9899 71.548C67.5819 71.8 67.2519 72.16 66.9999 72.628C66.7599 73.084 66.6399 73.606 66.6399 74.194C66.6399 74.782 66.7599 75.304 66.9999 75.76C67.2519 76.216 67.5819 76.57 67.9899 76.822C68.4099 77.074 68.8719 77.2 69.3759 77.2C69.8799 77.2 70.3359 77.074 70.7439 76.822C71.1639 76.57 71.4939 76.216 71.7339 75.76C71.9859 75.304 72.1119 74.782 72.1119 74.194ZM75.6986 77.506C75.5906 77.362 75.5366 77.182 75.5366 76.966C75.5366 76.654 75.6926 76.39 76.0046 76.174C76.1726 76.066 76.3466 76.012 76.5266 76.012C76.7786 76.012 77.0186 76.126 77.2466 76.354C77.6066 76.726 77.9786 77.002 78.3626 77.182C78.7586 77.362 79.2326 77.452 79.7846 77.452C80.7206 77.416 81.1886 77.062 81.1886 76.39C81.1886 76.042 81.0266 75.778 80.7026 75.598C80.3906 75.418 79.8986 75.238 79.2266 75.058C78.5306 74.866 77.9606 74.674 77.5166 74.482C77.0846 74.29 76.7066 74.002 76.3826 73.618C76.0706 73.222 75.9146 72.694 75.9146 72.034C75.9146 71.458 76.0766 70.96 76.4006 70.54C76.7366 70.108 77.1686 69.778 77.6966 69.55C78.2366 69.31 78.8066 69.19 79.4066 69.19C80.0186 69.19 80.6306 69.304 81.2426 69.532C81.8546 69.76 82.3346 70.096 82.6826 70.54C82.8386 70.732 82.9166 70.948 82.9166 71.188C82.9166 71.464 82.8026 71.692 82.5746 71.872C82.4066 72.004 82.2146 72.07 81.9986 72.07C81.7346 72.07 81.5186 71.986 81.3506 71.818C81.1346 71.554 80.8526 71.344 80.5046 71.188C80.1686 71.032 79.7846 70.954 79.3526 70.954C78.4406 70.954 77.9846 71.284 77.9846 71.944C77.9846 72.208 78.0686 72.424 78.2366 72.592C78.4046 72.748 78.6146 72.874 78.8666 72.97C79.1306 73.054 79.4966 73.162 79.9646 73.294C80.6126 73.474 81.1526 73.66 81.5846 73.852C82.0166 74.044 82.3826 74.338 82.6826 74.734C82.9826 75.13 83.1326 75.652 83.1326 76.3C83.1326 76.888 82.9586 77.404 82.6106 77.848C82.2626 78.28 81.8126 78.61 81.2606 78.838C80.7206 79.066 80.1626 79.18 79.5866 79.18C78.7946 79.18 78.0566 79.048 77.3726 78.784C76.6886 78.52 76.1306 78.094 75.6986 77.506ZM89.7642 76.966C89.9322 76.966 90.0822 77.05 90.2142 77.218C90.3582 77.374 90.4302 77.584 90.4302 77.848C90.4302 78.172 90.2502 78.448 89.8902 78.676C89.5422 78.892 89.1462 79 88.7022 79C87.9582 79 87.3282 78.844 86.8122 78.532C86.3082 78.208 86.0562 77.53 86.0562 76.498V71.53H85.2282C84.9402 71.53 84.7002 71.434 84.5082 71.242C84.3162 71.05 84.2202 70.81 84.2202 70.522C84.2202 70.246 84.3162 70.018 84.5082 69.838C84.7002 69.646 84.9402 69.55 85.2282 69.55H86.0562V68.398C86.0562 68.086 86.1582 67.828 86.3622 67.624C86.5782 67.408 86.8422 67.3 87.1542 67.3C87.4542 67.3 87.7062 67.408 87.9102 67.624C88.1142 67.828 88.2162 68.086 88.2162 68.398V69.55H89.4942C89.7822 69.55 90.0222 69.646 90.2142 69.838C90.4062 70.03 90.5022 70.27 90.5022 70.558C90.5022 70.834 90.4062 71.068 90.2142 71.26C90.0222 71.44 89.7822 71.53 89.4942 71.53H88.2162V76.408C88.2162 76.66 88.2822 76.846 88.4142 76.966C88.5462 77.074 88.7262 77.128 88.9542 77.128C89.0502 77.128 89.1822 77.104 89.3502 77.056C89.4942 76.996 89.6322 76.966 89.7642 76.966ZM105.036 69.37C105.348 69.37 105.606 69.478 105.81 69.694C106.014 69.898 106.116 70.156 106.116 70.468V78.118C106.116 79.678 105.696 80.812 104.856 81.52C104.016 82.24 102.894 82.6 101.49 82.6C101.082 82.6 100.662 82.564 100.23 82.492C99.8103 82.432 99.4683 82.348 99.2043 82.24C98.6163 81.988 98.3223 81.64 98.3223 81.196C98.3223 81.112 98.3403 81.016 98.3763 80.908C98.4483 80.644 98.5683 80.44 98.7363 80.296C98.9163 80.164 99.1083 80.098 99.3123 80.098C99.4323 80.098 99.5463 80.116 99.6543 80.152C99.7383 80.188 99.8823 80.248 100.086 80.332C100.302 80.416 100.524 80.482 100.752 80.53C100.992 80.59 101.238 80.62 101.49 80.62C102.342 80.62 102.966 80.434 103.362 80.062C103.77 79.702 103.974 79.078 103.974 78.19V78.01C103.35 78.79 102.378 79.18 101.058 79.18C100.434 79.18 99.8823 79.036 99.4023 78.748C98.9223 78.448 98.5503 78.04 98.2863 77.524C98.0223 76.996 97.8903 76.396 97.8903 75.724V70.468C97.8903 70.156 97.9923 69.898 98.1963 69.694C98.4003 69.478 98.6583 69.37 98.9703 69.37C99.2823 69.37 99.5403 69.478 99.7443 69.694C99.9483 69.898 100.05 70.156 100.05 70.468V75.076C100.05 75.832 100.212 76.378 100.536 76.714C100.872 77.038 101.358 77.2 101.994 77.2C102.618 77.2 103.098 77.02 103.434 76.66C103.782 76.288 103.956 75.76 103.956 75.076V70.468C103.956 70.156 104.058 69.898 104.262 69.694C104.466 69.478 104.724 69.37 105.036 69.37ZM117.799 74.194C117.799 75.154 117.583 76.018 117.151 76.786C116.719 77.542 116.125 78.13 115.369 78.55C114.625 78.97 113.803 79.18 112.903 79.18C111.991 79.18 111.163 78.97 110.419 78.55C109.675 78.13 109.087 77.542 108.655 76.786C108.223 76.018 108.007 75.154 108.007 74.194C108.007 73.234 108.223 72.376 108.655 71.62C109.087 70.852 109.675 70.258 110.419 69.838C111.163 69.406 111.991 69.19 112.903 69.19C113.803 69.19 114.625 69.406 115.369 69.838C116.125 70.258 116.719 70.852 117.151 71.62C117.583 72.376 117.799 73.234 117.799 74.194ZM115.639 74.194C115.639 73.606 115.513 73.084 115.261 72.628C115.021 72.16 114.691 71.8 114.271 71.548C113.863 71.296 113.407 71.17 112.903 71.17C112.399 71.17 111.937 71.296 111.517 71.548C111.109 71.8 110.779 72.16 110.527 72.628C110.287 73.084 110.167 73.606 110.167 74.194C110.167 74.782 110.287 75.304 110.527 75.76C110.779 76.216 111.109 76.57 111.517 76.822C111.937 77.074 112.399 77.2 112.903 77.2C113.407 77.2 113.863 77.074 114.271 76.822C114.691 76.57 115.021 76.216 115.261 75.76C115.513 75.304 115.639 74.782 115.639 74.194ZM126.93 69.37C127.242 69.37 127.5 69.478 127.704 69.694C127.908 69.898 128.01 70.156 128.01 70.468V75.04C128.01 76.336 127.65 77.35 126.93 78.082C126.222 78.814 125.208 79.18 123.888 79.18C122.568 79.18 121.554 78.814 120.846 78.082C120.138 77.35 119.784 76.336 119.784 75.04V70.468C119.784 70.156 119.886 69.898 120.09 69.694C120.294 69.478 120.552 69.37 120.864 69.37C121.176 69.37 121.434 69.478 121.638 69.694C121.842 69.898 121.944 70.156 121.944 70.468V75.04C121.944 75.772 122.106 76.318 122.43 76.678C122.754 77.026 123.24 77.2 123.888 77.2C124.548 77.2 125.04 77.026 125.364 76.678C125.688 76.318 125.85 75.772 125.85 75.04V70.468C125.85 70.156 125.952 69.898 126.156 69.694C126.36 69.478 126.618 69.37 126.93 69.37ZM135.532 69.19C135.892 69.19 136.192 69.292 136.432 69.496C136.684 69.7 136.81 69.94 136.81 70.216C136.81 70.588 136.714 70.87 136.522 71.062C136.33 71.242 136.102 71.332 135.838 71.332C135.658 71.332 135.454 71.29 135.226 71.206C135.19 71.194 135.106 71.17 134.974 71.134C134.854 71.098 134.722 71.08 134.578 71.08C134.266 71.08 133.966 71.176 133.678 71.368C133.39 71.56 133.15 71.854 132.958 72.25C132.778 72.634 132.688 73.096 132.688 73.636V77.902C132.688 78.214 132.586 78.478 132.382 78.694C132.178 78.898 131.92 79 131.608 79C131.296 79 131.038 78.898 130.834 78.694C130.63 78.478 130.528 78.214 130.528 77.902V70.468C130.528 70.156 130.63 69.898 130.834 69.694C131.038 69.478 131.296 69.37 131.608 69.37C131.92 69.37 132.178 69.478 132.382 69.694C132.586 69.898 132.688 70.156 132.688 70.468V70.702C132.964 70.21 133.36 69.838 133.876 69.586C134.392 69.322 134.944 69.19 135.532 69.19ZM151.532 69.19C151.844 69.19 152.102 69.292 152.306 69.496C152.51 69.7 152.612 69.964 152.612 70.288V77.902C152.612 78.214 152.51 78.478 152.306 78.694C152.102 78.898 151.844 79 151.532 79C151.22 79 150.962 78.898 150.758 78.694C150.566 78.49 150.464 78.232 150.452 77.92C150.152 78.268 149.744 78.568 149.228 78.82C148.724 79.06 148.19 79.18 147.626 79.18C146.798 79.18 146.048 78.97 145.376 78.55C144.704 78.118 144.17 77.524 143.774 76.768C143.39 76.012 143.198 75.154 143.198 74.194C143.198 73.234 143.39 72.376 143.774 71.62C144.158 70.852 144.68 70.258 145.34 69.838C146.012 69.406 146.75 69.19 147.554 69.19C148.13 69.19 148.67 69.298 149.174 69.514C149.678 69.718 150.104 69.982 150.452 70.306V70.288C150.452 69.976 150.554 69.718 150.758 69.514C150.962 69.298 151.22 69.19 151.532 69.19ZM147.896 77.2C148.676 77.2 149.312 76.918 149.804 76.354C150.296 75.778 150.542 75.058 150.542 74.194C150.542 73.33 150.296 72.61 149.804 72.034C149.312 71.458 148.676 71.17 147.896 71.17C147.128 71.17 146.498 71.458 146.006 72.034C145.514 72.61 145.268 73.33 145.268 74.194C145.268 75.058 145.508 75.778 145.988 76.354C146.48 76.918 147.116 77.2 147.896 77.2ZM159.326 69.19C160.346 69.19 161.168 69.352 161.792 69.676C162.416 69.988 162.728 70.408 162.728 70.936C162.728 71.2 162.65 71.434 162.494 71.638C162.338 71.83 162.134 71.926 161.882 71.926C161.69 71.926 161.534 71.902 161.414 71.854C161.294 71.794 161.174 71.722 161.054 71.638C160.946 71.542 160.838 71.464 160.73 71.404C160.61 71.344 160.43 71.29 160.19 71.242C159.962 71.194 159.776 71.17 159.632 71.17C158.732 71.17 158.024 71.452 157.508 72.016C157.004 72.568 156.752 73.294 156.752 74.194C156.752 75.058 157.01 75.778 157.526 76.354C158.042 76.918 158.702 77.2 159.506 77.2C160.094 77.2 160.532 77.128 160.82 76.984C160.892 76.948 160.988 76.888 161.108 76.804C161.24 76.708 161.36 76.636 161.468 76.588C161.576 76.54 161.708 76.516 161.864 76.516C162.164 76.516 162.398 76.612 162.566 76.804C162.746 76.996 162.836 77.242 162.836 77.542C162.836 77.83 162.668 78.1 162.332 78.352C161.996 78.604 161.552 78.808 161 78.964C160.448 79.108 159.86 79.18 159.236 79.18C158.312 79.18 157.496 78.964 156.788 78.532C156.092 78.1 155.552 77.506 155.168 76.75C154.784 75.982 154.592 75.13 154.592 74.194C154.592 73.222 154.79 72.358 155.186 71.602C155.594 70.846 156.158 70.258 156.878 69.838C157.598 69.406 158.414 69.19 159.326 69.19ZM169.22 76.966C169.388 76.966 169.538 77.05 169.67 77.218C169.814 77.374 169.886 77.584 169.886 77.848C169.886 78.172 169.706 78.448 169.346 78.676C168.998 78.892 168.602 79 168.158 79C167.414 79 166.784 78.844 166.268 78.532C165.764 78.208 165.512 77.53 165.512 76.498V71.53H164.684C164.396 71.53 164.156 71.434 163.964 71.242C163.772 71.05 163.676 70.81 163.676 70.522C163.676 70.246 163.772 70.018 163.964 69.838C164.156 69.646 164.396 69.55 164.684 69.55H165.512V68.398C165.512 68.086 165.614 67.828 165.818 67.624C166.034 67.408 166.298 67.3 166.61 67.3C166.91 67.3 167.162 67.408 167.366 67.624C167.57 67.828 167.672 68.086 167.672 68.398V69.55H168.95C169.238 69.55 169.478 69.646 169.67 69.838C169.862 70.03 169.958 70.27 169.958 70.558C169.958 70.834 169.862 71.068 169.67 71.26C169.478 71.44 169.238 71.53 168.95 71.53H167.672V76.408C167.672 76.66 167.738 76.846 167.87 76.966C168.002 77.074 168.182 77.128 168.41 77.128C168.506 77.128 168.638 77.104 168.806 77.056C168.95 76.996 169.088 76.966 169.22 76.966ZM174.155 77.902C174.155 78.214 174.053 78.478 173.849 78.694C173.645 78.898 173.387 79 173.075 79C172.763 79 172.505 78.898 172.301 78.694C172.097 78.478 171.995 78.214 171.995 77.902V70.468C171.995 70.156 172.097 69.898 172.301 69.694C172.505 69.478 172.763 69.37 173.075 69.37C173.387 69.37 173.645 69.478 173.849 69.694C174.053 69.898 174.155 70.156 174.155 70.468V77.902ZM173.057 68.2C172.649 68.2 172.361 68.134 172.193 68.002C172.025 67.87 171.941 67.636 171.941 67.3V66.958C171.941 66.622 172.031 66.388 172.211 66.256C172.391 66.124 172.679 66.058 173.075 66.058C173.495 66.058 173.789 66.124 173.957 66.256C174.125 66.388 174.209 66.622 174.209 66.958V67.3C174.209 67.648 174.119 67.888 173.939 68.02C173.771 68.14 173.477 68.2 173.057 68.2ZM183.953 69.388C184.241 69.388 184.481 69.484 184.673 69.676C184.865 69.856 184.961 70.084 184.961 70.36C184.961 70.504 184.913 70.684 184.817 70.9L181.451 78.316C181.367 78.52 181.241 78.682 181.073 78.802C180.917 78.922 180.737 78.988 180.533 79L180.371 79.018C180.167 79.018 179.975 78.958 179.795 78.838C179.627 78.706 179.495 78.532 179.399 78.316L176.051 70.9C175.967 70.708 175.925 70.516 175.925 70.324C175.925 70.084 176.027 69.868 176.231 69.676C176.435 69.472 176.687 69.37 176.987 69.37C177.215 69.37 177.425 69.43 177.617 69.55C177.809 69.67 177.953 69.838 178.049 70.054L180.533 75.742L182.999 70.072C183.095 69.844 183.227 69.67 183.395 69.55C183.563 69.43 183.749 69.376 183.953 69.388ZM188.877 77.902C188.877 78.214 188.775 78.478 188.571 78.694C188.367 78.898 188.109 79 187.797 79C187.485 79 187.227 78.898 187.023 78.694C186.819 78.478 186.717 78.214 186.717 77.902V70.468C186.717 70.156 186.819 69.898 187.023 69.694C187.227 69.478 187.485 69.37 187.797 69.37C188.109 69.37 188.367 69.478 188.571 69.694C188.775 69.898 188.877 70.156 188.877 70.468V77.902ZM187.779 68.2C187.371 68.2 187.083 68.134 186.915 68.002C186.747 67.87 186.663 67.636 186.663 67.3V66.958C186.663 66.622 186.753 66.388 186.933 66.256C187.113 66.124 187.401 66.058 187.797 66.058C188.217 66.058 188.511 66.124 188.679 66.256C188.847 66.388 188.931 66.622 188.931 66.958V67.3C188.931 67.648 188.841 67.888 188.661 68.02C188.493 68.14 188.199 68.2 187.779 68.2ZM195.921 76.966C196.089 76.966 196.239 77.05 196.371 77.218C196.515 77.374 196.587 77.584 196.587 77.848C196.587 78.172 196.407 78.448 196.047 78.676C195.699 78.892 195.303 79 194.859 79C194.115 79 193.485 78.844 192.969 78.532C192.465 78.208 192.213 77.53 192.213 76.498V71.53H191.385C191.097 71.53 190.857 71.434 190.665 71.242C190.473 71.05 190.377 70.81 190.377 70.522C190.377 70.246 190.473 70.018 190.665 69.838C190.857 69.646 191.097 69.55 191.385 69.55H192.213V68.398C192.213 68.086 192.315 67.828 192.519 67.624C192.735 67.408 192.999 67.3 193.311 67.3C193.611 67.3 193.863 67.408 194.067 67.624C194.271 67.828 194.373 68.086 194.373 68.398V69.55H195.651C195.939 69.55 196.179 69.646 196.371 69.838C196.563 70.03 196.659 70.27 196.659 70.558C196.659 70.834 196.563 71.068 196.371 71.26C196.179 71.44 195.939 71.53 195.651 71.53H194.373V76.408C194.373 76.66 194.439 76.846 194.571 76.966C194.703 77.074 194.883 77.128 195.111 77.128C195.207 77.128 195.339 77.104 195.507 77.056C195.651 76.996 195.789 76.966 195.921 76.966ZM200.856 77.902C200.856 78.214 200.754 78.478 200.55 78.694C200.346 78.898 200.088 79 199.776 79C199.464 79 199.206 78.898 199.002 78.694C198.798 78.478 198.696 78.214 198.696 77.902V70.468C198.696 70.156 198.798 69.898 199.002 69.694C199.206 69.478 199.464 69.37 199.776 69.37C200.088 69.37 200.346 69.478 200.55 69.694C200.754 69.898 200.856 70.156 200.856 70.468V77.902ZM199.758 68.2C199.35 68.2 199.062 68.134 198.894 68.002C198.726 67.87 198.642 67.636 198.642 67.3V66.958C198.642 66.622 198.732 66.388 198.912 66.256C199.092 66.124 199.38 66.058 199.776 66.058C200.196 66.058 200.49 66.124 200.658 66.256C200.826 66.388 200.91 66.622 200.91 66.958V67.3C200.91 67.648 200.82 67.888 200.64 68.02C200.472 68.14 200.178 68.2 199.758 68.2ZM211.896 73.96C211.884 74.248 211.77 74.482 211.554 74.662C211.338 74.842 211.086 74.932 210.798 74.932H204.858C205.002 75.64 205.332 76.198 205.848 76.606C206.364 77.002 206.946 77.2 207.594 77.2C208.086 77.2 208.47 77.158 208.746 77.074C209.022 76.978 209.238 76.882 209.394 76.786C209.562 76.678 209.676 76.606 209.736 76.57C209.952 76.462 210.156 76.408 210.348 76.408C210.6 76.408 210.816 76.498 210.996 76.678C211.176 76.858 211.266 77.068 211.266 77.308C211.266 77.632 211.098 77.926 210.762 78.19C210.426 78.466 209.976 78.7 209.412 78.892C208.848 79.084 208.278 79.18 207.702 79.18C206.694 79.18 205.812 78.97 205.056 78.55C204.312 78.13 203.736 77.554 203.328 76.822C202.92 76.078 202.716 75.244 202.716 74.32C202.716 73.288 202.932 72.382 203.364 71.602C203.796 70.822 204.366 70.228 205.074 69.82C205.782 69.4 206.538 69.19 207.342 69.19C208.134 69.19 208.878 69.406 209.574 69.838C210.282 70.27 210.846 70.852 211.266 71.584C211.686 72.316 211.896 73.108 211.896 73.96ZM207.342 71.17C205.95 71.17 205.128 71.824 204.876 73.132H209.592V73.006C209.544 72.502 209.298 72.07 208.854 71.71C208.41 71.35 207.906 71.17 207.342 71.17ZM213.319 77.506C213.211 77.362 213.157 77.182 213.157 76.966C213.157 76.654 213.313 76.39 213.625 76.174C213.793 76.066 213.967 76.012 214.147 76.012C214.399 76.012 214.639 76.126 214.867 76.354C215.227 76.726 215.599 77.002 215.983 77.182C216.379 77.362 216.853 77.452 217.405 77.452C218.341 77.416 218.809 77.062 218.809 76.39C218.809 76.042 218.647 75.778 218.323 75.598C218.011 75.418 217.519 75.238 216.847 75.058C216.151 74.866 215.581 74.674 215.137 74.482C214.705 74.29 214.327 74.002 214.003 73.618C213.691 73.222 213.535 72.694 213.535 72.034C213.535 71.458 213.697 70.96 214.021 70.54C214.357 70.108 214.789 69.778 215.317 69.55C215.857 69.31 216.427 69.19 217.027 69.19C217.639 69.19 218.251 69.304 218.863 69.532C219.475 69.76 219.955 70.096 220.303 70.54C220.459 70.732 220.537 70.948 220.537 71.188C220.537 71.464 220.423 71.692 220.195 71.872C220.027 72.004 219.835 72.07 219.619 72.07C219.355 72.07 219.139 71.986 218.971 71.818C218.755 71.554 218.473 71.344 218.125 71.188C217.789 71.032 217.405 70.954 216.973 70.954C216.061 70.954 215.605 71.284 215.605 71.944C215.605 72.208 215.689 72.424 215.857 72.592C216.025 72.748 216.235 72.874 216.487 72.97C216.751 73.054 217.117 73.162 217.585 73.294C218.233 73.474 218.773 73.66 219.205 73.852C219.637 74.044 220.003 74.338 220.303 74.734C220.603 75.13 220.753 75.652 220.753 76.3C220.753 76.888 220.579 77.404 220.231 77.848C219.883 78.28 219.433 78.61 218.881 78.838C218.341 79.066 217.783 79.18 217.207 79.18C216.415 79.18 215.677 79.048 214.993 78.784C214.309 78.52 213.751 78.094 213.319 77.506Z" fill="white"/>
<rect x="0.5" y="0.5" width="36" height="36" rx="12.5" stroke="white"/>
<rect x="0.5" y="53.5" width="36" height="36" rx="12.5" stroke="white"/>
<rect x="0.5" y="106.5" width="36" height="36" rx="12.5" stroke="white"/>
<path d="M28.0983 124.943H27.7931V122.194C27.7931 121.759 27.5766 121.374 27.2459 121.14V120.766C27.2459 120.223 26.8043 119.781 26.2614 119.781H26.0336L26.9053 118.502C27.1975 118.073 27.0864 117.487 26.6576 117.195L20.7427 113.164C20.5351 113.022 20.2847 112.97 20.0377 113.017C19.7907 113.064 19.5768 113.204 19.4352 113.411L14.3299 120.903H12.9092L13.252 117.433C13.2559 117.394 13.2813 117.36 13.3167 117.347C13.7583 117.18 14.141 116.869 14.3943 116.471C14.4142 116.44 14.4519 116.422 14.4908 116.426L16.7191 116.646C16.8788 116.662 17.021 116.545 17.0367 116.386C17.0525 116.226 16.9359 116.084 16.7762 116.068L14.5479 115.848C14.2893 115.823 14.0426 115.942 13.904 116.159C13.7178 116.452 13.4364 116.681 13.1117 116.803C12.8673 116.895 12.6995 117.115 12.6737 117.376L12.3254 120.903H11.9549L12.497 115.415C12.5165 115.218 12.6928 115.073 12.8905 115.092L17.3934 115.537C17.5531 115.553 17.6953 115.436 17.7111 115.277C17.7269 115.117 17.6102 114.975 17.4505 114.959L12.9476 114.514C12.4314 114.463 11.9697 114.842 11.9187 115.358L11.4818 119.781H10.7377C10.1949 119.781 9.75325 120.223 9.75325 120.766V121.021C9.30918 121.225 9 121.674 9 122.194V132.098C9 132.81 9.57926 133.389 10.2913 133.389H26.5018C27.2139 133.389 27.7931 132.81 27.7931 132.098V129.35H28.0983C28.4584 129.35 28.7514 129.057 28.7514 128.697V125.596C28.7514 125.236 28.4584 124.943 28.0983 124.943ZM26.2614 120.362C26.4839 120.362 26.6648 120.543 26.6648 120.766V120.914C26.6114 120.907 26.5571 120.903 26.5018 120.903H25.2691L25.6376 120.362H26.2614ZM19.9154 113.739C19.9695 113.659 20.0514 113.606 20.1458 113.588C20.1684 113.583 20.1911 113.581 20.2136 113.581C20.2851 113.581 20.3551 113.603 20.4155 113.644L26.3304 117.675C26.4944 117.786 26.5369 118.011 26.4252 118.175L24.566 120.903H24.1199L25.0314 119.565C25.1792 119.348 25.1914 119.072 25.0631 118.845C24.8925 118.543 24.8234 118.187 24.8684 117.843C24.9019 117.587 24.7892 117.337 24.5745 117.191L21.5082 115.101C21.2935 114.955 21.0197 114.941 20.7938 115.066C20.4901 115.234 20.1336 115.3 19.7899 115.251C19.5351 115.216 19.2766 115.331 19.1309 115.544L15.4792 120.903H15.0331L19.9154 113.739ZM20.0433 118.672C18.7781 118.672 17.7395 119.659 17.6549 120.903H16.1823L19.611 115.872C19.611 115.872 19.611 115.872 19.611 115.872C19.6305 115.843 19.6628 115.826 19.696 115.826C19.7004 115.826 19.7048 115.826 19.7092 115.827C20.1767 115.892 20.6615 115.803 21.0746 115.575C21.1071 115.557 21.1488 115.559 21.181 115.581L24.2473 117.671C24.2794 117.693 24.297 117.731 24.2922 117.767C24.231 118.235 24.3251 118.719 24.557 119.13C24.5756 119.163 24.5733 119.206 24.5513 119.238L23.4168 120.903H22.4318C22.3471 119.659 21.3086 118.672 20.0433 118.672ZM21.8492 120.903H18.2375C18.3207 119.98 19.0986 119.253 20.0433 119.253C20.9881 119.253 21.766 119.98 21.8492 120.903ZM10.3343 120.766C10.3343 120.543 10.5152 120.362 10.7377 120.362H11.4244L11.371 120.903H10.3343V120.766ZM9.58105 122.194C9.58105 121.803 9.89968 121.484 10.2913 121.484H26.5018C26.8935 121.484 27.2121 121.803 27.2121 122.194V123H9.58105V122.194ZM27.2121 132.098C27.2121 132.49 26.8935 132.808 26.5018 132.808H10.2913C9.89968 132.808 9.58105 132.49 9.58105 132.098V131.292H11.1478C11.3082 131.292 11.4383 131.162 11.4383 131.001C11.4383 130.841 11.3082 130.711 11.1478 130.711H9.58105V123.581H27.2121V124.943H24.4497H24.4497C23.5793 124.943 22.8254 125.45 22.4676 126.184C22.4664 126.187 22.4651 126.189 22.4638 126.192C22.4608 126.198 22.4582 126.204 22.4552 126.211C22.4126 126.301 22.3756 126.395 22.3454 126.492C22.3454 126.492 22.3453 126.492 22.3452 126.492C22.2809 126.699 22.2462 126.919 22.2462 127.146C22.2462 128.361 23.2347 129.35 24.4497 129.35H24.4497H27.212V130.711H13.008C12.8476 130.711 12.7175 130.841 12.7175 131.001C12.7175 131.162 12.8476 131.292 13.008 131.292H27.2121V132.098ZM28.1704 128.696C28.1704 128.736 28.138 128.769 28.0983 128.769H24.4498C23.8347 128.769 23.2985 128.425 23.0234 127.919C23.0109 127.896 22.999 127.873 22.9875 127.849C22.9647 127.802 22.9441 127.753 22.9259 127.703C22.8621 127.53 22.8273 127.342 22.8273 127.146C22.8273 126.95 22.8622 126.763 22.9259 126.589C22.9442 126.539 22.9648 126.491 22.9875 126.443C22.999 126.42 23.0109 126.396 23.0234 126.373C23.2985 125.868 23.8347 125.524 24.4498 125.524H28.0983C28.138 125.524 28.1704 125.556 28.1704 125.596V128.696Z" fill="white"/>
<path d="M24.5179 125.967C23.8679 125.967 23.3391 126.496 23.3391 127.146C23.3391 127.796 23.8679 128.325 24.5179 128.325C25.1679 128.325 25.6966 127.796 25.6966 127.146C25.6966 126.496 25.1679 125.967 24.5179 125.967ZM24.5179 127.744C24.1883 127.744 23.9202 127.476 23.9202 127.146C23.9202 126.817 24.1883 126.548 24.5179 126.548C24.8474 126.548 25.1156 126.817 25.1156 127.146C25.1156 127.476 24.8474 127.744 24.5179 127.744Z" fill="white"/>
<path d="M23.203 20.2847C23.0239 20.1243 22.7486 20.1399 22.5891 20.3186C21.6821 21.3321 20.3743 21.913 18.9999 21.913C17.626 21.913 16.3178 21.3321 15.4108 20.3186C15.2504 20.1399 14.976 20.1243 14.7969 20.2847C14.6178 20.4447 14.603 20.7195 14.763 20.8986C15.8347 22.096 17.3791 22.7826 18.9999 22.7826C20.6212 22.7826 22.1656 22.0956 23.2369 20.8986C23.3969 20.7195 23.3817 20.4447 23.203 20.2847Z" fill="white"/>
<path d="M19 8C13.4861 8 9 12.4861 9 18C9 23.5139 13.4861 28 19 28C24.5139 28 29 23.5139 29 18C29 12.4861 24.5139 8 19 8ZM19 27.1304C13.9652 27.1304 9.86957 23.0348 9.86957 18C9.86957 12.9652 13.9652 8.86957 19 8.86957C24.0348 8.86957 28.1304 12.9652 28.1304 18C28.1304 23.0348 24.0348 27.1304 19 27.1304Z" fill="white"/>
<path d="M22.4782 14.9565C21.2795 14.9565 20.3043 15.9318 20.3043 17.1305C20.3043 17.3705 20.4991 17.5652 20.7391 17.5652C20.9791 17.5652 21.1739 17.3705 21.1739 17.1305C21.1739 16.4113 21.7591 15.8261 22.4782 15.8261C23.1974 15.8261 23.7826 16.4113 23.7826 17.1305C23.7826 17.3705 23.9774 17.5652 24.2174 17.5652C24.4574 17.5652 24.6521 17.3705 24.6521 17.1305C24.6521 15.9318 23.6769 14.9565 22.4782 14.9565Z" fill="white"/>
<path d="M16.826 17.1305C16.826 17.3705 17.0208 17.5652 17.2608 17.5652C17.5008 17.5652 17.6956 17.3705 17.6956 17.1305C17.6956 15.9318 16.7204 14.9565 15.5217 14.9565C14.323 14.9565 13.3478 15.9318 13.3478 17.1305C13.3478 17.3705 13.5426 17.5652 13.7826 17.5652C14.0226 17.5652 14.2173 17.3705 14.2173 17.1305C14.2173 16.4113 14.8026 15.8261 15.5217 15.8261C16.2408 15.8261 16.826 16.4113 16.826 17.1305Z" fill="white"/>
<path d="M9.5625 75.2422C8.70094 75.2422 8 75.9431 8 76.8047C8 77.6663 8.70094 78.3672 9.5625 78.3672V80.0469C9.5625 80.2626 9.73738 80.4375 9.95312 80.4375H16.4375C16.6532 80.4375 16.8281 80.2626 16.8281 80.0469V77.9047C16.8281 77.7777 16.7664 77.6586 16.6626 77.5854C16.5588 77.5123 16.4259 77.4941 16.3063 77.5368C16.2135 77.5698 16.1286 77.5859 16.0469 77.5859C15.6161 77.5859 15.2656 77.2355 15.2656 76.8047C15.2656 76.3739 15.6161 76.0234 16.0469 76.0234C16.1286 76.0234 16.2135 76.0395 16.3063 76.0726C16.426 76.1154 16.5589 76.0971 16.6626 76.0239C16.7664 75.9507 16.8281 75.8317 16.8281 75.7047V73.5625C16.8281 73.3468 16.6532 73.1719 16.4375 73.1719H14.7578C14.7578 72.3103 14.0569 71.6094 13.1953 71.6094C12.3337 71.6094 11.6328 72.3103 11.6328 73.1719H9.95312C9.73738 73.1719 9.5625 73.3468 9.5625 73.5625V75.2422ZM9.82195 76.0726C9.9416 76.1154 10.0745 76.0971 10.1782 76.0239C10.282 75.9507 10.3438 75.8317 10.3438 75.7047V73.9531H12.0953C12.2223 73.9531 12.3414 73.8914 12.4146 73.7876C12.4877 73.6838 12.5059 73.5509 12.4632 73.4313C12.4302 73.3385 12.4141 73.2536 12.4141 73.1719C12.4141 72.7411 12.7645 72.3906 13.1953 72.3906C13.6261 72.3906 13.9766 72.7411 13.9766 73.1719C13.9766 73.2536 13.9605 73.3385 13.9274 73.4313C13.8847 73.5509 13.9029 73.6838 13.9761 73.7876C14.0493 73.8914 14.1683 73.9531 14.2953 73.9531H16.0469V75.2422C15.1853 75.2422 14.4844 75.9431 14.4844 76.8047C14.4844 77.6663 15.1853 78.3672 16.0469 78.3672V79.6562H10.3438V77.9047C10.3438 77.7777 10.282 77.6586 10.1782 77.5854C10.0745 77.5123 9.94156 77.4941 9.82195 77.5368C9.72914 77.5698 9.64426 77.5859 9.5625 77.5859C9.13172 77.5859 8.78125 77.2355 8.78125 76.8047C8.78125 76.3739 9.13172 76.0234 9.5625 76.0234C9.64426 76.0234 9.72914 76.0395 9.82195 76.0726Z" fill="white"/>
<path d="M26.4375 65.6328V63.9531C26.4375 63.7374 26.2626 63.5625 26.0469 63.5625H19.5625C19.3468 63.5625 19.1719 63.7374 19.1719 63.9531V66.0953C19.1719 66.2223 19.2336 66.3414 19.3374 66.4146C19.4412 66.4877 19.5741 66.5059 19.6937 66.4632C19.7865 66.4302 19.8713 66.4141 19.9531 66.4141C20.3839 66.4141 20.7344 66.7645 20.7344 67.1953C20.7344 67.6261 20.3839 67.9766 19.9531 67.9766C19.8714 67.9766 19.7865 67.9605 19.6937 67.9274C19.5741 67.8847 19.4412 67.9029 19.3374 67.9761C19.2336 68.0493 19.1719 68.1683 19.1719 68.2953V70.4375C19.1719 70.6532 19.3468 70.8281 19.5625 70.8281H21.2422C21.2422 71.6897 21.9431 72.3906 22.8047 72.3906C23.6663 72.3906 24.3672 71.6897 24.3672 70.8281H26.0469C26.2626 70.8281 26.4375 70.6532 26.4375 70.4375V68.7578C27.2991 68.7578 28 68.0569 28 67.1953C28 66.3338 27.2991 65.6328 26.4375 65.6328ZM26.4375 67.9766C26.3557 67.9766 26.2709 67.9605 26.178 67.9274C26.0584 67.8847 25.9255 67.9029 25.8218 67.9761C25.718 68.0493 25.6562 68.1683 25.6562 68.2953V70.0469H23.9047C23.7777 70.0469 23.6586 70.1086 23.5854 70.2124C23.5123 70.3162 23.4941 70.4491 23.5368 70.5687C23.5698 70.6615 23.5859 70.7463 23.5859 70.8281C23.5859 71.2589 23.2355 71.6094 22.8047 71.6094C22.3739 71.6094 22.0234 71.2589 22.0234 70.8281C22.0234 70.7464 22.0395 70.6615 22.0726 70.5687C22.1153 70.4491 22.0971 70.3162 22.0239 70.2124C21.9507 70.1086 21.8317 70.0469 21.7047 70.0469H19.9531V68.7578C20.8147 68.7578 21.5156 68.0569 21.5156 67.1953C21.5156 66.3338 20.8147 65.6328 19.9531 65.6328V64.3438H25.6562V66.0953C25.6562 66.2223 25.718 66.3414 25.8218 66.4146C25.9256 66.4877 26.0584 66.5059 26.178 66.4632C26.2709 66.4302 26.3557 66.4141 26.4375 66.4141C26.8683 66.4141 27.2188 66.7645 27.2188 67.1953C27.2188 67.6261 26.8683 67.9766 26.4375 67.9766Z" fill="white"/>
<path d="M16.4375 63.5625H14.7578C14.7578 62.7009 14.0569 62 13.1953 62C12.3338 62 11.6328 62.7009 11.6328 63.5625H9.95312C9.73738 63.5625 9.5625 63.7374 9.5625 63.9531V70.4375C9.5625 70.6532 9.73738 70.8281 9.95312 70.8281H12.0953C12.2223 70.8281 12.3414 70.7664 12.4146 70.6626C12.4877 70.5588 12.5059 70.4259 12.4632 70.3063C12.4302 70.2135 12.4141 70.1286 12.4141 70.0469C12.4141 69.6161 12.7645 69.2656 13.1953 69.2656C13.6261 69.2656 13.9766 69.6161 13.9766 70.0469C13.9766 70.1286 13.9605 70.2135 13.9274 70.3063C13.8847 70.4259 13.9029 70.5588 13.9761 70.6626C14.0493 70.7664 14.1683 70.8281 14.2953 70.8281H16.4375C16.6532 70.8281 16.8281 70.6532 16.8281 70.4375V68.7578C17.6897 68.7578 18.3906 68.0569 18.3906 67.1953C18.3906 66.3337 17.6897 65.6328 16.8281 65.6328V63.9531C16.8281 63.7374 16.6532 63.5625 16.4375 63.5625ZM17.6094 67.1953C17.6094 67.6261 17.2589 67.9766 16.8281 67.9766C16.7464 67.9766 16.6615 67.9605 16.5687 67.9274C16.449 67.8847 16.3162 67.9029 16.2124 67.9761C16.1086 68.0493 16.0469 68.1683 16.0469 68.2953V70.0469H14.7578C14.7578 69.1853 14.0569 68.4844 13.1953 68.4844C12.3338 68.4844 11.6328 69.1853 11.6328 70.0469H10.3438V64.3438H12.0953C12.2223 64.3438 12.3414 64.282 12.4146 64.1782C12.4877 64.0745 12.5059 63.9416 12.4632 63.822C12.4302 63.7291 12.4141 63.6443 12.4141 63.5625C12.4141 63.1317 12.7645 62.7812 13.1953 62.7812C13.6261 62.7812 13.9766 63.1317 13.9766 63.5625C13.9766 63.6443 13.9605 63.7291 13.9274 63.822C13.8847 63.9416 13.9029 64.0745 13.9761 64.1782C14.0493 64.282 14.1683 64.3438 14.2953 64.3438H16.0469V66.0953C16.0469 66.2223 16.1086 66.3414 16.2124 66.4146C16.3162 66.4877 16.449 66.5059 16.5687 66.4632C16.6615 66.4302 16.7463 66.4141 16.8281 66.4141C17.2589 66.4141 17.6094 66.7645 17.6094 67.1953Z" fill="white"/>
<path d="M26.0469 77.1953C26.2626 77.1953 26.4375 77.0204 26.4375 76.8047C26.4375 76.589 26.2626 76.4141 26.0469 76.4141C25.8311 76.4141 25.6562 76.589 25.6562 76.8047C25.6562 77.0204 25.8311 77.1953 26.0469 77.1953Z" fill="white"/>
<path d="M22.0239 73.3374C21.9507 73.2336 21.8317 73.1719 21.7047 73.1719H19.5625C19.3468 73.1719 19.1719 73.3468 19.1719 73.5625V75.2422C18.3103 75.2422 17.6094 75.9431 17.6094 76.8047C17.6094 77.6663 18.3103 78.3672 19.1719 78.3672V80.0469C19.1719 80.2626 19.3468 80.4375 19.5625 80.4375H21.2422C21.2422 81.2991 21.9431 82 22.8047 82C23.6663 82 24.3672 81.2991 24.3672 80.4375H26.0469C26.2626 80.4375 26.4375 80.2626 26.4375 80.0469V78.5625C26.4375 78.3468 26.2626 78.1719 26.0469 78.1719C25.8311 78.1719 25.6562 78.3468 25.6562 78.5625V79.6562H23.9047C23.7777 79.6562 23.6586 79.718 23.5854 79.8218C23.5123 79.9255 23.4941 80.0584 23.5368 80.178C23.5698 80.2709 23.5859 80.3557 23.5859 80.4375C23.5859 80.8683 23.2355 81.2188 22.8047 81.2188C22.3739 81.2188 22.0234 80.8683 22.0234 80.4375C22.0234 80.3557 22.0395 80.2709 22.0726 80.178C22.1153 80.0584 22.0971 79.9255 22.0239 79.8218C21.9507 79.718 21.8317 79.6562 21.7047 79.6562H19.9531V77.9047C19.9531 77.7777 19.8914 77.6586 19.7876 77.5854C19.6838 77.5123 19.551 77.4941 19.4313 77.5368C19.3385 77.5698 19.2536 77.5859 19.1719 77.5859C18.7411 77.5859 18.3906 77.2355 18.3906 76.8047C18.3906 76.3739 18.7411 76.0234 19.1719 76.0234C19.2536 76.0234 19.3385 76.0395 19.4313 76.0726C19.551 76.1154 19.6839 76.0971 19.7876 76.0239C19.8914 75.9507 19.9531 75.8317 19.9531 75.7047V73.9531H21.2422C21.2422 74.8147 21.9431 75.5156 22.8047 75.5156C23.6663 75.5156 24.3672 74.8147 24.3672 73.9531H25.6562V75.0469C25.6562 75.2626 25.8311 75.4375 26.0469 75.4375C26.2626 75.4375 26.4375 75.2626 26.4375 75.0469V73.5625C26.4375 73.3468 26.2626 73.1719 26.0469 73.1719H23.9047C23.7777 73.1719 23.6586 73.2336 23.5854 73.3374C23.5123 73.4412 23.4941 73.5741 23.5368 73.6937C23.5698 73.7865 23.5859 73.8713 23.5859 73.9531C23.5859 74.3839 23.2355 74.7344 22.8047 74.7344C22.3739 74.7344 22.0234 74.3839 22.0234 73.9531C22.0234 73.8714 22.0395 73.7865 22.0726 73.6937C22.1153 73.5741 22.0971 73.4412 22.0239 73.3374Z" fill="white"/>
</svg>
