<svg width="211" height="22" viewBox="0 0 211 22" fill="none" xmlns="http://www.w3.org/2000/svg">
<path d="M5.236 17.22C4.4 17.22 3.62267 17.0513 2.904 16.714C2.18533 16.362 1.59867 15.878 1.144 15.262C0.968 14.998 0.88 14.7413 0.88 14.492C0.88 14.14 1.01933 13.8393 1.298 13.59C1.57667 13.326 1.86267 13.194 2.156 13.194C2.53733 13.194 2.948 13.414 3.388 13.854C3.66667 14.118 3.95267 14.3087 4.246 14.426C4.53933 14.5287 4.86933 14.58 5.236 14.58C5.66133 14.58 6.06467 14.47 6.446 14.25C6.842 14.03 7.15733 13.7367 7.392 13.37C7.62667 12.9887 7.744 12.5927 7.744 12.182V2.942C7.744 2.56067 7.88333 2.24533 8.162 1.996C8.44067 1.732 8.76333 1.6 9.13 1.6C9.54067 1.6 9.87067 1.72467 10.12 1.974C10.3693 2.22333 10.494 2.546 10.494 2.942V12.182C10.494 13.062 10.2593 13.8907 9.79 14.668C9.32067 15.4453 8.68267 16.0687 7.876 16.538C7.06933 16.9927 6.18933 17.22 5.236 17.22ZM25.0967 11.126C25.0967 12.2993 24.8327 13.3553 24.3047 14.294C23.7767 15.218 23.0507 15.9367 22.1267 16.45C21.2173 16.9633 20.2127 17.22 19.1127 17.22C17.998 17.22 16.986 16.9633 16.0767 16.45C15.1673 15.9367 14.4487 15.218 13.9207 14.294C13.3927 13.3553 13.1287 12.2993 13.1287 11.126C13.1287 9.95267 13.3927 8.904 13.9207 7.98C14.4487 7.04133 15.1673 6.31533 16.0767 5.802C16.986 5.274 17.998 5.01 19.1127 5.01C20.2127 5.01 21.2173 5.274 22.1267 5.802C23.0507 6.31533 23.7767 7.04133 24.3047 7.98C24.8327 8.904 25.0967 9.95267 25.0967 11.126ZM22.4567 11.126C22.4567 10.4073 22.3027 9.76933 21.9947 9.212C21.7013 8.64 21.298 8.2 20.7847 7.892C20.286 7.584 19.7287 7.43 19.1127 7.43C18.4967 7.43 17.932 7.584 17.4187 7.892C16.92 8.2 16.5167 8.64 16.2087 9.212C15.9153 9.76933 15.7687 10.4073 15.7687 11.126C15.7687 11.8447 15.9153 12.4827 16.2087 13.04C16.5167 13.5973 16.92 14.03 17.4187 14.338C17.932 14.646 18.4967 14.8 19.1127 14.8C19.7287 14.8 20.286 14.646 20.7847 14.338C21.298 14.03 21.7013 13.5973 21.9947 13.04C22.3027 12.4827 22.4567 11.8447 22.4567 11.126ZM30.0083 15.658C30.0083 16.0393 29.8837 16.362 29.6343 16.626C29.385 16.8753 29.0697 17 28.6883 17C28.307 17 27.9917 16.8753 27.7423 16.626C27.493 16.362 27.3683 16.0393 27.3683 15.658V6.572C27.3683 6.19067 27.493 5.87533 27.7423 5.626C27.9917 5.362 28.307 5.23 28.6883 5.23C29.0697 5.23 29.385 5.362 29.6343 5.626C29.8837 5.87533 30.0083 6.19067 30.0083 6.572V15.658ZM28.6663 3.8C28.1677 3.8 27.8157 3.71933 27.6103 3.558C27.405 3.39667 27.3023 3.11067 27.3023 2.7V2.282C27.3023 1.87133 27.4123 1.58533 27.6323 1.424C27.8523 1.26267 28.2043 1.182 28.6883 1.182C29.2017 1.182 29.561 1.26267 29.7663 1.424C29.9717 1.58533 30.0743 1.87133 30.0743 2.282V2.7C30.0743 3.12533 29.9643 3.41867 29.7443 3.58C29.539 3.72667 29.1797 3.8 28.6663 3.8ZM39.2336 5.01C40.7296 5.01 41.7636 5.45733 42.3356 6.352C42.9076 7.232 43.1936 8.45667 43.1936 10.026V15.658C43.1936 16.0393 43.0689 16.362 42.8196 16.626C42.5702 16.8753 42.2549 17 41.8736 17C41.4922 17 41.1769 16.8753 40.9276 16.626C40.6782 16.362 40.5536 16.0393 40.5536 15.658V10.026C40.5536 9.21933 40.3849 8.58867 40.0476 8.134C39.7102 7.66467 39.1309 7.43 38.3096 7.43C37.4589 7.43 36.7916 7.67933 36.3076 8.178C35.8236 8.662 35.5816 9.278 35.5816 10.026V15.658C35.5816 16.0393 35.4569 16.362 35.2076 16.626C34.9582 16.8753 34.6429 17 34.2616 17C33.8802 17 33.5649 16.8753 33.3156 16.626C33.0662 16.362 32.9416 16.0393 32.9416 15.658V6.572C32.9416 6.19067 33.0662 5.87533 33.3156 5.626C33.5649 5.362 33.8802 5.23 34.2616 5.23C34.6429 5.23 34.9582 5.362 35.2076 5.626C35.4569 5.87533 35.5816 6.19067 35.5816 6.572V6.946C35.9776 6.418 36.4909 5.96333 37.1216 5.582C37.7669 5.20067 38.4709 5.01 39.2336 5.01ZM58.329 14.514C58.5344 14.514 58.7177 14.6167 58.879 14.822C59.055 15.0127 59.143 15.2693 59.143 15.592C59.143 15.988 58.923 16.3253 58.483 16.604C58.0577 16.868 57.5737 17 57.031 17C56.1217 17 55.3517 16.8093 54.721 16.428C54.105 16.032 53.797 15.2033 53.797 13.942V7.87H52.785C52.433 7.87 52.1397 7.75267 51.905 7.518C51.6704 7.28333 51.553 6.99 51.553 6.638C51.553 6.30067 51.6704 6.022 51.905 5.802C52.1397 5.56733 52.433 5.45 52.785 5.45H53.797V4.042C53.797 3.66067 53.9217 3.34533 54.171 3.096C54.435 2.832 54.7577 2.7 55.139 2.7C55.5057 2.7 55.8137 2.832 56.063 3.096C56.3124 3.34533 56.437 3.66067 56.437 4.042V5.45H57.999C58.351 5.45 58.6444 5.56733 58.879 5.802C59.1137 6.03667 59.231 6.33 59.231 6.682C59.231 7.01933 59.1137 7.30533 58.879 7.54C58.6444 7.76 58.351 7.87 57.999 7.87H56.437V13.832C56.437 14.14 56.5177 14.3673 56.679 14.514C56.8404 14.646 57.0604 14.712 57.339 14.712C57.4564 14.712 57.6177 14.6827 57.823 14.624C57.999 14.5507 58.1677 14.514 58.329 14.514ZM68.057 5.01C69.509 5.01 70.5137 5.45733 71.071 6.352C71.6283 7.232 71.907 8.45667 71.907 10.026V15.658C71.907 16.0393 71.7823 16.362 71.533 16.626C71.2837 16.8753 70.9683 17 70.587 17C70.2057 17 69.8903 16.8753 69.641 16.626C69.3917 16.362 69.267 16.0393 69.267 15.658V10.026C69.267 9.21933 69.1057 8.58867 68.783 8.134C68.475 7.66467 67.925 7.43 67.133 7.43C66.3117 7.43 65.6663 7.67933 65.197 8.178C64.7423 8.662 64.515 9.278 64.515 10.026V15.658C64.515 16.0393 64.3903 16.362 64.141 16.626C63.8917 16.8753 63.5763 17 63.195 17C62.8137 17 62.4983 16.8753 62.249 16.626C61.9997 16.362 61.875 16.0393 61.875 15.658V2.062C61.875 1.68067 61.9997 1.36533 62.249 1.116C62.4983 0.851999 62.8137 0.72 63.195 0.72C63.5763 0.72 63.8917 0.851999 64.141 1.116C64.3903 1.36533 64.515 1.68067 64.515 2.062V6.924C64.911 6.396 65.4097 5.94867 66.011 5.582C66.627 5.20067 67.309 5.01 68.057 5.01ZM85.5456 10.84C85.531 11.192 85.3916 11.478 85.1276 11.698C84.8636 11.918 84.5556 12.028 84.2036 12.028H76.9436C77.1196 12.8933 77.523 13.5753 78.1536 14.074C78.7843 14.558 79.4956 14.8 80.2876 14.8C80.889 14.8 81.3583 14.7487 81.6956 14.646C82.033 14.5287 82.297 14.4113 82.4876 14.294C82.693 14.162 82.8323 14.074 82.9056 14.03C83.1696 13.898 83.419 13.832 83.6536 13.832C83.9616 13.832 84.2256 13.942 84.4456 14.162C84.6656 14.382 84.7756 14.6387 84.7756 14.932C84.7756 15.328 84.5703 15.6873 84.1596 16.01C83.749 16.3473 83.199 16.6333 82.5096 16.868C81.8203 17.1027 81.1236 17.22 80.4196 17.22C79.1876 17.22 78.1096 16.9633 77.1856 16.45C76.2763 15.9367 75.5723 15.2327 75.0736 14.338C74.575 13.4287 74.3256 12.4093 74.3256 11.28C74.3256 10.0187 74.5896 8.91133 75.1176 7.958C75.6456 7.00467 76.3423 6.27867 77.2076 5.78C78.073 5.26667 78.997 5.01 79.9796 5.01C80.9476 5.01 81.857 5.274 82.7076 5.802C83.573 6.33 84.2623 7.04133 84.7756 7.936C85.289 8.83067 85.5456 9.79867 85.5456 10.84ZM79.9796 7.43C78.2783 7.43 77.2736 8.22933 76.9656 9.828H82.7296V9.674C82.671 9.058 82.3703 8.53 81.8276 8.09C81.285 7.65 80.669 7.43 79.9796 7.43ZM99.4794 5.01C100.726 5.01 101.731 5.208 102.493 5.604C103.256 5.98533 103.637 6.49867 103.637 7.144C103.637 7.46667 103.542 7.75267 103.351 8.002C103.161 8.23667 102.911 8.354 102.603 8.354C102.369 8.354 102.178 8.32467 102.031 8.266C101.885 8.19267 101.738 8.10467 101.591 8.002C101.459 7.88467 101.327 7.78933 101.195 7.716C101.049 7.64267 100.829 7.57667 100.535 7.518C100.257 7.45933 100.029 7.43 99.8534 7.43C98.7534 7.43 97.888 7.77467 97.2574 8.464C96.6414 9.13867 96.3334 10.026 96.3334 11.126C96.3334 12.182 96.6487 13.062 97.2794 13.766C97.91 14.4553 98.7167 14.8 99.6994 14.8C100.418 14.8 100.953 14.712 101.305 14.536C101.393 14.492 101.511 14.4187 101.657 14.316C101.819 14.1987 101.965 14.1107 102.097 14.052C102.229 13.9933 102.391 13.964 102.581 13.964C102.948 13.964 103.234 14.0813 103.439 14.316C103.659 14.5507 103.769 14.8513 103.769 15.218C103.769 15.57 103.564 15.9 103.153 16.208C102.743 16.516 102.2 16.7653 101.525 16.956C100.851 17.132 100.132 17.22 99.3694 17.22C98.24 17.22 97.2427 16.956 96.3774 16.428C95.5267 15.9 94.8667 15.174 94.3974 14.25C93.928 13.3113 93.6934 12.27 93.6934 11.126C93.6934 9.938 93.9354 8.882 94.4194 7.958C94.918 7.034 95.6074 6.31533 96.4874 5.802C97.3674 5.274 98.3647 5.01 99.4794 5.01ZM116.984 11.126C116.984 12.2993 116.72 13.3553 116.192 14.294C115.664 15.218 114.938 15.9367 114.014 16.45C113.104 16.9633 112.1 17.22 111 17.22C109.885 17.22 108.873 16.9633 107.964 16.45C107.054 15.9367 106.336 15.218 105.808 14.294C105.28 13.3553 105.016 12.2993 105.016 11.126C105.016 9.95267 105.28 8.904 105.808 7.98C106.336 7.04133 107.054 6.31533 107.964 5.802C108.873 5.274 109.885 5.01 111 5.01C112.1 5.01 113.104 5.274 114.014 5.802C114.938 6.31533 115.664 7.04133 116.192 7.98C116.72 8.904 116.984 9.95267 116.984 11.126ZM114.344 11.126C114.344 10.4073 114.19 9.76933 113.882 9.212C113.588 8.64 113.185 8.2 112.672 7.892C112.173 7.584 111.616 7.43 111 7.43C110.384 7.43 109.819 7.584 109.306 7.892C108.807 8.2 108.404 8.64 108.096 9.212C107.802 9.76933 107.656 10.4073 107.656 11.126C107.656 11.8447 107.802 12.4827 108.096 13.04C108.404 13.5973 108.807 14.03 109.306 14.338C109.819 14.646 110.384 14.8 111 14.8C111.616 14.8 112.173 14.646 112.672 14.338C113.185 14.03 113.588 13.5973 113.882 13.04C114.19 12.4827 114.344 11.8447 114.344 11.126ZM132.763 5.01C134.215 5.01 135.22 5.45733 135.777 6.352C136.335 7.232 136.613 8.45667 136.613 10.026V15.658C136.613 16.0393 136.489 16.362 136.239 16.626C135.99 16.8753 135.675 17 135.293 17C134.912 17 134.597 16.8753 134.347 16.626C134.098 16.362 133.973 16.0393 133.973 15.658V10.026C133.973 9.21933 133.812 8.58867 133.489 8.134C133.181 7.66467 132.631 7.43 131.839 7.43C131.018 7.43 130.373 7.67933 129.903 8.178C129.449 8.662 129.221 9.278 129.221 10.026V15.658C129.221 16.0393 129.097 16.362 128.847 16.626C128.598 16.8753 128.283 17 127.901 17C127.52 17 127.205 16.8753 126.955 16.626C126.706 16.362 126.581 16.0393 126.581 15.658V10.026C126.581 9.21933 126.42 8.58867 126.097 8.134C125.789 7.66467 125.239 7.43 124.447 7.43C123.626 7.43 122.981 7.67933 122.511 8.178C122.057 8.662 121.829 9.278 121.829 10.026V15.658C121.829 16.0393 121.705 16.362 121.455 16.626C121.206 16.8753 120.891 17 120.509 17C120.128 17 119.813 16.8753 119.563 16.626C119.314 16.362 119.189 16.0393 119.189 15.658V6.572C119.189 6.19067 119.314 5.87533 119.563 5.626C119.813 5.362 120.128 5.23 120.509 5.23C120.891 5.23 121.206 5.362 121.455 5.626C121.705 5.87533 121.829 6.19067 121.829 6.572V6.924C122.225 6.396 122.724 5.94867 123.325 5.582C123.941 5.20067 124.623 5.01 125.371 5.01C127.219 5.01 128.4 5.81667 128.913 7.43C129.251 6.814 129.757 6.25667 130.431 5.758C131.121 5.25933 131.898 5.01 132.763 5.01ZM153.045 5.01C154.497 5.01 155.501 5.45733 156.059 6.352C156.616 7.232 156.895 8.45667 156.895 10.026V15.658C156.895 16.0393 156.77 16.362 156.521 16.626C156.271 16.8753 155.956 17 155.575 17C155.193 17 154.878 16.8753 154.629 16.626C154.379 16.362 154.255 16.0393 154.255 15.658V10.026C154.255 9.21933 154.093 8.58867 153.771 8.134C153.463 7.66467 152.913 7.43 152.121 7.43C151.299 7.43 150.654 7.67933 150.185 8.178C149.73 8.662 149.503 9.278 149.503 10.026V15.658C149.503 16.0393 149.378 16.362 149.129 16.626C148.879 16.8753 148.564 17 148.183 17C147.801 17 147.486 16.8753 147.237 16.626C146.987 16.362 146.863 16.0393 146.863 15.658V10.026C146.863 9.21933 146.701 8.58867 146.379 8.134C146.071 7.66467 145.521 7.43 144.729 7.43C143.907 7.43 143.262 7.67933 142.793 8.178C142.338 8.662 142.111 9.278 142.111 10.026V15.658C142.111 16.0393 141.986 16.362 141.737 16.626C141.487 16.8753 141.172 17 140.791 17C140.409 17 140.094 16.8753 139.845 16.626C139.595 16.362 139.471 16.0393 139.471 15.658V6.572C139.471 6.19067 139.595 5.87533 139.845 5.626C140.094 5.362 140.409 5.23 140.791 5.23C141.172 5.23 141.487 5.362 141.737 5.626C141.986 5.87533 142.111 6.19067 142.111 6.572V6.924C142.507 6.396 143.005 5.94867 143.607 5.582C144.223 5.20067 144.905 5.01 145.653 5.01C147.501 5.01 148.681 5.81667 149.195 7.43C149.532 6.814 150.038 6.25667 150.713 5.758C151.402 5.25933 152.179 5.01 153.045 5.01ZM168.486 5.23C168.867 5.23 169.182 5.362 169.432 5.626C169.681 5.87533 169.806 6.19067 169.806 6.572V12.16C169.806 13.744 169.366 14.9833 168.486 15.878C167.62 16.7727 166.381 17.22 164.768 17.22C163.154 17.22 161.915 16.7727 161.05 15.878C160.184 14.9833 159.752 13.744 159.752 12.16V6.572C159.752 6.19067 159.876 5.87533 160.126 5.626C160.375 5.362 160.69 5.23 161.072 5.23C161.453 5.23 161.768 5.362 162.018 5.626C162.267 5.87533 162.392 6.19067 162.392 6.572V12.16C162.392 13.0547 162.59 13.722 162.986 14.162C163.382 14.5873 163.976 14.8 164.768 14.8C165.574 14.8 166.176 14.5873 166.572 14.162C166.968 13.722 167.166 13.0547 167.166 12.16V6.572C167.166 6.19067 167.29 5.87533 167.54 5.626C167.789 5.362 168.104 5.23 168.486 5.23ZM178.956 5.01C180.452 5.01 181.486 5.45733 182.058 6.352C182.63 7.232 182.916 8.45667 182.916 10.026V15.658C182.916 16.0393 182.791 16.362 182.542 16.626C182.293 16.8753 181.977 17 181.596 17C181.215 17 180.899 16.8753 180.65 16.626C180.401 16.362 180.276 16.0393 180.276 15.658V10.026C180.276 9.21933 180.107 8.58867 179.77 8.134C179.433 7.66467 178.853 7.43 178.032 7.43C177.181 7.43 176.514 7.67933 176.03 8.178C175.546 8.662 175.304 9.278 175.304 10.026V15.658C175.304 16.0393 175.179 16.362 174.93 16.626C174.681 16.8753 174.365 17 173.984 17C173.603 17 173.287 16.8753 173.038 16.626C172.789 16.362 172.664 16.0393 172.664 15.658V6.572C172.664 6.19067 172.789 5.87533 173.038 5.626C173.287 5.362 173.603 5.23 173.984 5.23C174.365 5.23 174.681 5.362 174.93 5.626C175.179 5.87533 175.304 6.19067 175.304 6.572V6.946C175.7 6.418 176.213 5.96333 176.844 5.582C177.489 5.20067 178.193 5.01 178.956 5.01ZM188.255 15.658C188.255 16.0393 188.131 16.362 187.881 16.626C187.632 16.8753 187.317 17 186.935 17C186.554 17 186.239 16.8753 185.989 16.626C185.74 16.362 185.615 16.0393 185.615 15.658V6.572C185.615 6.19067 185.74 5.87533 185.989 5.626C186.239 5.362 186.554 5.23 186.935 5.23C187.317 5.23 187.632 5.362 187.881 5.626C188.131 5.87533 188.255 6.19067 188.255 6.572V15.658ZM186.913 3.8C186.415 3.8 186.063 3.71933 185.857 3.558C185.652 3.39667 185.549 3.11067 185.549 2.7V2.282C185.549 1.87133 185.659 1.58533 185.879 1.424C186.099 1.26267 186.451 1.182 186.935 1.182C187.449 1.182 187.808 1.26267 188.013 1.424C188.219 1.58533 188.321 1.87133 188.321 2.282V2.7C188.321 3.12533 188.211 3.41867 187.991 3.58C187.786 3.72667 187.427 3.8 186.913 3.8ZM196.645 14.514C196.85 14.514 197.033 14.6167 197.195 14.822C197.371 15.0127 197.459 15.2693 197.459 15.592C197.459 15.988 197.239 16.3253 196.799 16.604C196.373 16.868 195.889 17 195.347 17C194.437 17 193.667 16.8093 193.037 16.428C192.421 16.032 192.113 15.2033 192.113 13.942V7.87H191.101C190.749 7.87 190.455 7.75267 190.221 7.518C189.986 7.28333 189.869 6.99 189.869 6.638C189.869 6.30067 189.986 6.022 190.221 5.802C190.455 5.56733 190.749 5.45 191.101 5.45H192.113V4.042C192.113 3.66067 192.237 3.34533 192.487 3.096C192.751 2.832 193.073 2.7 193.455 2.7C193.821 2.7 194.129 2.832 194.379 3.096C194.628 3.34533 194.753 3.66067 194.753 4.042V5.45H196.315C196.667 5.45 196.96 5.56733 197.195 5.802C197.429 6.03667 197.547 6.33 197.547 6.682C197.547 7.01933 197.429 7.30533 197.195 7.54C196.96 7.76 196.667 7.87 196.315 7.87H194.753V13.832C194.753 14.14 194.833 14.3673 194.995 14.514C195.156 14.646 195.376 14.712 195.655 14.712C195.772 14.712 195.933 14.6827 196.139 14.624C196.315 14.5507 196.483 14.514 196.645 14.514ZM208.705 5.23C209.086 5.23 209.401 5.362 209.651 5.626C209.9 5.87533 210.025 6.19067 210.025 6.572V15.922C210.025 17.8287 209.511 19.2147 208.485 20.08C207.458 20.96 206.087 21.4 204.371 21.4C203.872 21.4 203.359 21.356 202.831 21.268C202.317 21.1947 201.899 21.092 201.577 20.96C200.858 20.652 200.499 20.2267 200.499 19.684C200.499 19.5813 200.521 19.464 200.565 19.332C200.653 19.0093 200.799 18.76 201.005 18.584C201.225 18.4227 201.459 18.342 201.709 18.342C201.855 18.342 201.995 18.364 202.127 18.408C202.229 18.452 202.405 18.5253 202.655 18.628C202.919 18.7307 203.19 18.8113 203.469 18.87C203.762 18.9433 204.063 18.98 204.371 18.98C205.412 18.98 206.175 18.7527 206.659 18.298C207.157 17.858 207.407 17.0953 207.407 16.01V15.79C206.644 16.7433 205.456 17.22 203.843 17.22C203.08 17.22 202.405 17.044 201.819 16.692C201.232 16.3253 200.777 15.8267 200.455 15.196C200.132 14.5507 199.971 13.8173 199.971 12.996V6.572C199.971 6.19067 200.095 5.87533 200.345 5.626C200.594 5.362 200.909 5.23 201.291 5.23C201.672 5.23 201.987 5.362 202.237 5.626C202.486 5.87533 202.611 6.19067 202.611 6.572V12.204C202.611 13.128 202.809 13.7953 203.205 14.206C203.615 14.602 204.209 14.8 204.987 14.8C205.749 14.8 206.336 14.58 206.747 14.14C207.172 13.6853 207.385 13.04 207.385 12.204V6.572C207.385 6.19067 207.509 5.87533 207.759 5.626C208.008 5.362 208.323 5.23 208.705 5.23Z" fill="white"/>
</svg>
