<svg width="79" height="21" viewBox="0 0 79 21" fill="none" xmlns="http://www.w3.org/2000/svg">
<path d="M6.6 16.22C5.544 16.22 4.60533 16.088 3.784 15.824C2.96267 15.56 2.19267 15.1127 1.474 14.482C1.078 14.13 0.88 13.7413 0.88 13.316C0.88 12.9787 1.00467 12.6853 1.254 12.436C1.50333 12.172 1.804 12.04 2.156 12.04C2.43467 12.04 2.684 12.128 2.904 12.304C3.49067 12.788 4.06267 13.14 4.62 13.36C5.17733 13.58 5.83733 13.69 6.6 13.69C7.42133 13.69 8.12533 13.5067 8.712 13.14C9.31333 12.7733 9.614 12.3187 9.614 11.776C9.614 11.116 9.32067 10.6027 8.734 10.236C8.14733 9.85467 7.216 9.56867 5.94 9.378C2.728 8.90867 1.122 7.41267 1.122 4.89C1.122 3.966 1.364 3.16667 1.848 2.492C2.332 1.80267 2.992 1.282 3.828 0.929999C4.664 0.563332 5.59533 0.379999 6.622 0.379999C7.546 0.379999 8.41133 0.519332 9.218 0.797999C10.0393 1.07667 10.7213 1.44333 11.264 1.898C11.6893 2.23533 11.902 2.624 11.902 3.064C11.902 3.40133 11.7773 3.702 11.528 3.966C11.2787 4.21533 10.9853 4.34 10.648 4.34C10.428 4.34 10.23 4.274 10.054 4.142C9.67267 3.834 9.13733 3.55533 8.448 3.306C7.77333 3.042 7.16467 2.91 6.622 2.91C5.698 2.91 4.97933 3.086 4.466 3.438C3.96733 3.77533 3.718 4.22267 3.718 4.78C3.718 5.41067 3.97467 5.88733 4.488 6.21C5.016 6.53267 5.83733 6.79667 6.952 7.002C8.21333 7.222 9.218 7.508 9.966 7.86C10.7287 8.19733 11.3007 8.66667 11.682 9.268C12.0633 9.85467 12.254 10.6393 12.254 11.622C12.254 12.546 11.99 13.36 11.462 14.064C10.9487 14.7533 10.2593 15.2887 9.394 15.67C8.52867 16.0367 7.59733 16.22 6.6 16.22ZM17.263 14.658C17.263 15.0393 17.1383 15.362 16.889 15.626C16.6396 15.8753 16.3243 16 15.943 16C15.5616 16 15.2463 15.8753 14.997 15.626C14.7476 15.362 14.623 15.0393 14.623 14.658V5.572C14.623 5.19067 14.7476 4.87533 14.997 4.626C15.2463 4.362 15.5616 4.23 15.943 4.23C16.3243 4.23 16.6396 4.362 16.889 4.626C17.1383 4.87533 17.263 5.19067 17.263 5.572V14.658ZM15.921 2.8C15.4223 2.8 15.0703 2.71933 14.865 2.558C14.6596 2.39667 14.557 2.11067 14.557 1.7V1.282C14.557 0.871333 14.667 0.585333 14.887 0.424C15.107 0.262666 15.459 0.181999 15.943 0.181999C16.4563 0.181999 16.8156 0.262666 17.021 0.424C17.2263 0.585333 17.329 0.871333 17.329 1.282V1.7C17.329 2.12533 17.219 2.41867 16.999 2.58C16.7936 2.72667 16.4343 2.8 15.921 2.8ZM29.9422 4.01C30.3235 4.01 30.6388 4.13467 30.8882 4.384C31.1375 4.63333 31.2622 4.956 31.2622 5.352V15.142C31.2622 16.9313 30.7048 18.2513 29.5902 19.102C28.4902 19.9673 27.0895 20.4 25.3882 20.4C24.9482 20.4 24.3395 20.3267 23.5622 20.18C22.7995 20.0333 22.2568 19.8867 21.9342 19.74C21.2155 19.432 20.8562 19.0067 20.8562 18.464C20.8562 18.3613 20.8782 18.244 20.9222 18.112C21.0102 17.7893 21.1568 17.54 21.3622 17.364C21.5822 17.2027 21.8168 17.122 22.0662 17.122C22.2128 17.122 22.3522 17.144 22.4842 17.188C22.5428 17.2027 22.9022 17.3347 23.5622 17.584C24.2368 17.848 24.8455 17.98 25.3882 17.98C26.4735 17.98 27.2802 17.76 27.8082 17.32C28.3508 16.8947 28.6222 16.286 28.6222 15.494V14.438C28.2995 14.8927 27.8082 15.3033 27.1482 15.67C26.5028 16.0367 25.8062 16.22 25.0582 16.22C24.0315 16.22 23.0928 15.9633 22.2422 15.45C21.4062 14.922 20.7462 14.196 20.2622 13.272C19.7782 12.348 19.5362 11.2993 19.5362 10.126C19.5362 8.95267 19.7708 7.904 20.2402 6.98C20.7242 6.04133 21.3768 5.31533 22.1982 4.802C23.0342 4.274 23.9582 4.01 24.9702 4.01C25.7182 4.01 26.4148 4.164 27.0602 4.472C27.7055 4.78 28.2262 5.154 28.6222 5.594V5.352C28.6222 4.97067 28.7468 4.65533 28.9962 4.406C29.2455 4.142 29.5608 4.01 29.9422 4.01ZM25.3882 13.8C26.3708 13.8 27.1702 13.4553 27.7862 12.766C28.4168 12.062 28.7322 11.182 28.7322 10.126C28.7322 9.07 28.4168 8.19 27.7862 7.486C27.1702 6.782 26.3708 6.43 25.3882 6.43C24.4055 6.43 23.6062 6.782 22.9902 7.486C22.3742 8.19 22.0662 9.07 22.0662 10.126C22.0662 11.182 22.3742 12.062 22.9902 12.766C23.6062 13.4553 24.4055 13.8 25.3882 13.8ZM40.63 4.01C42.126 4.01 43.16 4.45733 43.732 5.352C44.304 6.232 44.59 7.45667 44.59 9.026V14.658C44.59 15.0393 44.4654 15.362 44.216 15.626C43.9667 15.8753 43.6514 16 43.27 16C42.8887 16 42.5734 15.8753 42.324 15.626C42.0747 15.362 41.95 15.0393 41.95 14.658V9.026C41.95 8.21933 41.7814 7.58867 41.444 7.134C41.1067 6.66467 40.5274 6.43 39.706 6.43C38.8554 6.43 38.188 6.67933 37.704 7.178C37.22 7.662 36.978 8.278 36.978 9.026V14.658C36.978 15.0393 36.8534 15.362 36.604 15.626C36.3547 15.8753 36.0394 16 35.658 16C35.2767 16 34.9614 15.8753 34.712 15.626C34.4627 15.362 34.338 15.0393 34.338 14.658V5.572C34.338 5.19067 34.4627 4.87533 34.712 4.626C34.9614 4.362 35.2767 4.23 35.658 4.23C36.0394 4.23 36.3547 4.362 36.604 4.626C36.8534 4.87533 36.978 5.19067 36.978 5.572V5.946C37.374 5.418 37.8874 4.96333 38.518 4.582C39.1634 4.20067 39.8674 4.01 40.63 4.01ZM62.7835 4.23C63.1649 4.23 63.4802 4.362 63.7295 4.626C63.9789 4.87533 64.1035 5.19067 64.1035 5.572V11.16C64.1035 12.744 63.6635 13.9833 62.7835 14.878C61.9182 15.7727 60.6789 16.22 59.0655 16.22C57.4522 16.22 56.2129 15.7727 55.3475 14.878C54.4822 13.9833 54.0495 12.744 54.0495 11.16V5.572C54.0495 5.19067 54.1742 4.87533 54.4235 4.626C54.6729 4.362 54.9882 4.23 55.3695 4.23C55.7509 4.23 56.0662 4.362 56.3155 4.626C56.5649 4.87533 56.6895 5.19067 56.6895 5.572V11.16C56.6895 12.0547 56.8875 12.722 57.2835 13.162C57.6795 13.5873 58.2735 13.8 59.0655 13.8C59.8722 13.8 60.4735 13.5873 60.8695 13.162C61.2655 12.722 61.4635 12.0547 61.4635 11.16V5.572C61.4635 5.19067 61.5882 4.87533 61.8375 4.626C62.0869 4.362 62.4022 4.23 62.7835 4.23ZM73.2756 4.01C74.2876 4.01 75.2043 4.274 76.0256 4.802C76.847 5.31533 77.4923 6.034 77.9616 6.958C78.4456 7.882 78.6876 8.93067 78.6876 10.104C78.6876 11.2773 78.453 12.3333 77.9836 13.272C77.5143 14.196 76.869 14.922 76.0476 15.45C75.241 15.9633 74.3463 16.22 73.3636 16.22C72.6596 16.22 71.9923 16.0807 71.3616 15.802C70.7456 15.5087 70.2323 15.1567 69.8216 14.746V19.058C69.8216 19.4393 69.697 19.7547 69.4476 20.004C69.1983 20.268 68.883 20.4 68.5016 20.4C68.1203 20.4 67.805 20.2753 67.5556 20.026C67.3063 19.7767 67.1816 19.454 67.1816 19.058V5.572C67.1816 5.19067 67.3063 4.87533 67.5556 4.626C67.805 4.362 68.1203 4.23 68.5016 4.23C68.883 4.23 69.1983 4.362 69.4476 4.626C69.697 4.87533 69.8216 5.19067 69.8216 5.572V5.66C70.1736 5.22 70.665 4.83867 71.2956 4.516C71.9263 4.17867 72.5863 4.01 73.2756 4.01ZM72.9456 13.8C73.8843 13.8 74.6543 13.448 75.2556 12.744C75.857 12.04 76.1576 11.16 76.1576 10.104C76.1576 9.048 75.857 8.17533 75.2556 7.486C74.669 6.782 73.899 6.43 72.9456 6.43C71.9923 6.43 71.215 6.782 70.6136 7.486C70.0123 8.17533 69.7116 9.048 69.7116 10.104C69.7116 11.16 70.0123 12.04 70.6136 12.744C71.215 13.448 71.9923 13.8 72.9456 13.8Z" fill="#525252"/>
</svg>
