<svg width="6" height="3" viewBox="0 0 6 3" fill="none" xmlns="http://www.w3.org/2000/svg">
<path d="M5.21213 0.85642C5.32929 0.739262 5.32929 0.549313 5.21213 0.432155C5.09497 0.314998 4.90503 0.314998 4.78787 0.432155L5.21213 0.85642ZM3 2.64429L2.78787 2.85642C2.90503 2.97358 3.09497 2.97358 3.21213 2.85642L3 2.64429ZM1.21213 0.432155C1.09497 0.314998 0.905025 0.314998 0.787868 0.432155C0.670711 0.549312 0.670711 0.739262 0.787868 0.856419L1.21213 0.432155ZM4.78787 0.432155L2.78787 2.43215L3.21213 2.85642L5.21213 0.85642L4.78787 0.432155ZM3.21213 2.43215L1.21213 0.432155L0.787868 0.856419L2.78787 2.85642L3.21213 2.43215Z" fill="white"/>
</svg>
