<svg height='100px' width='100px'  fill="#6930db" xmlns="http://www.w3.org/2000/svg" xmlns:xlink="http://www.w3.org/1999/xlink" version="1.1" x="0px" y="0px" viewBox="0 0 52 52" enable-background="new 0 0 52 52" xml:space="preserve"><g><path d="M42.7663689,28.2466183l-18.3828621,18.382864C22.2131863,48.7998009,19.3227234,50,16.2422276,50   c-3.0704241,0-5.9608879-1.2001991-8.1312695-3.3705177c-2.1803317-2.1803932-3.3705192-5.070797-3.3705192-8.1412811   s1.1901875-5.9609489,3.3705192-8.1412811l18.3828621-18.3728504c1.4402275-1.4402266,3.3505573-2.2403383,5.4008636-2.2403383   c2.0402946,0,3.9506264,0.8001118,5.3908539,2.2403383c1.4502373,1.4402266,2.2403374,3.3504963,2.2403374,5.4008636   c0,2.0402946-0.7901001,3.960577-2.2403374,5.4008026L21.6430912,38.4181824l-1.4101925-1.4202042l15.6423836-15.6424465   c1.0601654-1.0601616,1.6502838-2.4803658,1.6502838-3.9805984c0-1.5102444-0.5901184-2.9305096-1.6502838-3.9906712   c-1.0601616-1.0601625-2.4803658-1.6502199-3.9805984-1.6502199c-1.5102444,0-2.9304466,0.5900574-3.9906101,1.6502199   L9.5212116,31.7671242c-1.7902565,1.7903175-2.7804618,4.1806412-2.7804618,6.721077   c0,2.5403709,0.9902053,4.9307594,2.7804618,6.7210159c1.8002672,1.8002663,4.1806421,2.7904701,6.7210159,2.7904701   c2.5404339,0,4.9308205-0.9902039,6.7310867-2.7904701l18.3728504-18.3728523   c5.2207832-5.2207813,5.2207832-13.7120924,0-18.922924c-5.2108307-5.2208433-13.7021408-5.2208433-18.9129734,0   L6.7807956,23.5558872L5.370542,22.135622L21.012989,6.493237c6.0009327-5.9909825,15.752449-5.9909825,21.7533798,0   C48.7572899,12.4941702,48.7572899,22.2456856,42.7663689,28.2466183z"></path></g></svg>
