<svg width="16" height="17" viewBox="0 0 16 17" fill="none" xmlns="http://www.w3.org/2000/svg">
<path d="M15.0519 7.60165C14.7587 7.60165 14.5207 7.36405 14.5207 7.0713C14.5207 5.04039 13.7289 3.13183 12.2909 1.69563C12.0834 1.48846 12.0834 1.15259 12.2909 0.945416C12.4984 0.738247 12.8349 0.738247 13.0425 0.945416C14.6809 2.58167 15.5832 4.7576 15.5832 7.0713C15.5832 7.36405 15.3452 7.60165 15.0519 7.60165Z" fill="white"/>
<path d="M0.53125 7.60164C0.237999 7.60164 0 7.36405 0 7.07129C0 4.75759 0.902451 2.58166 2.54147 0.946057C2.74899 0.738887 3.08556 0.738887 3.29308 0.946057C3.5006 1.15323 3.5006 1.48923 3.29308 1.6964C1.85445 3.13183 1.0625 5.04038 1.0625 7.07129C1.0625 7.36405 0.824502 7.60164 0.53125 7.60164Z" fill="white"/>
<path d="M7.79175 16.9713C6.32692 16.9713 5.1355 15.7819 5.1355 14.3195C5.1355 14.0268 5.3735 13.7892 5.66675 13.7892C5.96 13.7892 6.198 14.0268 6.198 14.3195C6.198 15.1972 6.91264 15.9106 7.79175 15.9106C8.67073 15.9106 9.3855 15.1972 9.3855 14.3195C9.3855 14.0268 9.6235 13.7892 9.91675 13.7892C10.21 13.7892 10.448 14.0268 10.448 14.3195C10.448 15.7819 9.25658 16.9713 7.79175 16.9713Z" fill="white"/>
<path d="M13.6354 14.8499H1.94792C1.26428 14.8499 0.708252 14.2948 0.708252 13.6125C0.708252 13.2503 0.866226 12.9074 1.14184 12.6719C2.21913 11.7632 2.83325 10.4424 2.83325 9.04294V7.07133C2.83325 4.34187 5.05748 2.1214 7.79168 2.1214C10.5257 2.1214 12.75 4.34187 12.75 7.07133V9.04294C12.75 10.4424 13.3641 11.7632 14.4344 12.667C14.717 12.9074 14.875 13.2503 14.875 13.6125C14.875 14.2948 14.3189 14.8499 13.6354 14.8499ZM7.79168 3.18211C5.6432 3.18211 3.89575 4.92661 3.89575 7.07133V9.04294C3.89575 10.7548 3.14427 12.3714 1.83457 13.4766C1.80979 13.4979 1.77075 13.5418 1.77075 13.6125C1.77075 13.7085 1.85156 13.7892 1.94792 13.7892H13.6354C13.7317 13.7892 13.8125 13.7085 13.8125 13.6125C13.8125 13.5418 13.7736 13.4979 13.7501 13.4781C12.439 12.3714 11.6875 10.7548 11.6875 9.04294V7.07133C11.6875 4.92661 9.94003 3.18211 7.79168 3.18211Z" fill="white"/>
<path d="M7.79174 3.18213C7.49849 3.18213 7.26049 2.94453 7.26049 2.65177V0.530355C7.26049 0.237598 7.49849 0 7.79174 0C8.08499 0 8.32299 0.237598 8.32299 0.530355V2.65177C8.32299 2.94453 8.08499 3.18213 7.79174 3.18213Z" fill="white"/>
</svg>
