<svg height='100px' width='100px'  fill="#000000" xmlns="http://www.w3.org/2000/svg" data-name="Layer 1" viewBox="0 0 512 512" x="0px" y="0px"><title>bell10</title><path d="M77,395.33c9.34-11.62,13.26-25.22,16.25-39,2.92-13.45,5.08-27.07,7.26-40.67,2.49-15.51,4.65-31.08,6.94-46.63,2-13.63,3.9-27.28,6-40.9,3.05-19.57,5.76-39.23,11-58.36a130.14,130.14,0,0,1,22.18-44.25c4.2-5.55,9.48-10,15-14.15,2.25-1.68,4.61-3.24,6.66-5.12,6.67-6.11,14.63-9.8,23.08-12.63a240.11,240.11,0,0,1,36.62-9c5.71-1,5.67-.92,5.77-6.86,0.14-7.87.38-15.73,0.53-23.6,0.07-3.6,0-3.51-3.52-4.55-6.7-2-13.38-4-20.06-6.09-0.92-.28-1.77-0.79-2.66-1.16a8,8,0,0,1-4.78-5.31c-2.25-6.76-4.41-13.53-4.41-20.75a19.36,19.36,0,0,1,.58-4.14A6.27,6.27,0,0,1,205,7c9.74-1.69,19.46-3.57,29.23-5A192,192,0,0,1,253.82.06a82.54,82.54,0,0,1,13.86.71c8.43,1,16.82,2.36,25.21,3.68,4.88,0.77,9.74,1.71,14.59,2.68,3.2,0.64,5.06,2.87,5.44,6.39A35.52,35.52,0,0,1,312,26c-0.87,3.44-2.06,6.8-2.94,10.24a9.19,9.19,0,0,1-6.37,6.7c-4.17,1.45-8.31,3-12.52,4.28-3.28,1-6.63,1.83-10,2.63a2.55,2.55,0,0,0-2.29,2.91c0.17,9.06.19,18.12,0.4,27.17,0.07,2.85,0,3.58,3.5,4.19,13.9,2.39,27.65,5.43,41,10.19,7.36,2.63,14.32,5.94,20.18,11.28a66.19,66.19,0,0,0,6.66,5.13c11.39,8,19.59,18.59,26.22,30.7a145.38,145.38,0,0,1,16,46.53c3.32,20.07,6.65,40.14,9.8,60.24,2.45,15.63,4.63,31.31,7,47,2,13.09,3.9,26.19,6,39.27A231,231,0,0,0,423,371.56c2.69,8.11,5.77,16,11.36,22.7a2.26,2.26,0,0,1,.27.81,1.93,1.93,0,0,1-.22.34,0.54,0.54,0,0,1-.28.16,14.26,14.26,0,0,1-1.6.14l-354.26,0A7,7,0,0,1,77,395.33Z"></path><path d="M305.29,460.13c0.52,16.84-5.36,30.34-17.86,40.69-10.07,8.34-21.82,11.78-34.87,11.09-21.11-1.1-46.55-19.06-46.14-51.31-1.56-.09-3.14-0.25-4.72-0.25q-62.12,0-124.24,0c-8.2,0-16.4-.18-24.59.07-4.6.14-7.43-1.95-9-5.88a38.16,38.16,0,0,1,0-29.88,14.05,14.05,0,0,1,1.24-2.26,8,8,0,0,1,7.26-4c10,0.09,20.06,0,30.09,0l96.74-.13,278.88-.32c6.15,0,8.57,1.5,10.66,7.32a40.27,40.27,0,0,1,0,27.55,17.13,17.13,0,0,1-2.32,4.23,6.82,6.82,0,0,1-6.07,3.08c-1.08,0-2.16,0-3.24,0H305.29Z"></path></svg>
