<svg width="8" height="7" viewBox="0 0 8 7" fill="none" xmlns="http://www.w3.org/2000/svg">
<path d="M7.07962 5.1015C7.07962 5.22642 7.03 5.34623 6.94166 5.43456C6.85333 5.52289 6.73353 5.57252 6.60861 5.57252H0.956433C0.831512 5.57252 0.711708 5.52289 0.623376 5.43456C0.535043 5.34623 0.485419 5.22642 0.485419 5.1015V2.27542C0.485419 2.15049 0.535043 2.03069 0.623376 1.94236C0.711708 1.85403 0.831512 1.8044 0.956433 1.8044H1.50846C1.88303 1.8042 2.24219 1.65528 2.50701 1.39038L2.89795 1.00038C2.98604 0.912271 3.10544 0.862648 3.23002 0.862372H4.33408C4.45899 0.862399 4.57877 0.912041 4.66709 1.00038L5.05709 1.39038C5.18832 1.52166 5.34414 1.62579 5.51564 1.69683C5.68714 1.76787 5.87095 1.80442 6.05658 1.8044H6.60861C6.73353 1.8044 6.85333 1.85403 6.94166 1.94236C7.03 2.03069 7.07962 2.15049 7.07962 2.27542V5.1015ZM0.956433 1.33339C0.706592 1.33339 0.466983 1.43264 0.290318 1.6093C0.113654 1.78596 0.0144043 2.02557 0.0144043 2.27542L0.0144043 5.1015C0.0144043 5.35134 0.113654 5.59095 0.290318 5.76762C0.466983 5.94428 0.706592 6.04353 0.956433 6.04353H6.60861C6.85845 6.04353 7.09806 5.94428 7.27472 5.76762C7.45139 5.59095 7.55064 5.35134 7.55064 5.1015V2.27542C7.55064 2.02557 7.45139 1.78596 7.27472 1.6093C7.09806 1.43264 6.85845 1.33339 6.60861 1.33339H6.05658C5.80676 1.33333 5.56719 1.23405 5.39056 1.05737L5.00056 0.667372C4.82394 0.490695 4.58437 0.391411 4.33455 0.391357H3.23049C2.98067 0.391411 2.7411 0.490695 2.56448 0.667372L2.17448 1.05737C1.99785 1.23405 1.75828 1.33333 1.50846 1.33339H0.956433Z" fill="black"/>
<path d="M3.78263 4.63053C3.47033 4.63053 3.17082 4.50647 2.94999 4.28564C2.72916 4.06481 2.60509 3.7653 2.60509 3.45299C2.60509 3.14069 2.72916 2.84118 2.94999 2.62035C3.17082 2.39952 3.47033 2.27546 3.78263 2.27546C4.09493 2.27546 4.39444 2.39952 4.61527 2.62035C4.8361 2.84118 4.96017 3.14069 4.96017 3.45299C4.96017 3.7653 4.8361 4.06481 4.61527 4.28564C4.39444 4.50647 4.09493 4.63053 3.78263 4.63053ZM3.78263 5.10154C4.21985 5.10154 4.63917 4.92786 4.94833 4.6187C5.25749 4.30953 5.43118 3.89022 5.43118 3.45299C5.43118 3.01577 5.25749 2.59646 4.94833 2.28729C4.63917 1.97813 4.21985 1.80444 3.78263 1.80444C3.34541 1.80444 2.92609 1.97813 2.61693 2.28729C2.30777 2.59646 2.13408 3.01577 2.13408 3.45299C2.13408 3.89022 2.30777 4.30953 2.61693 4.6187C2.92609 4.92786 3.34541 5.10154 3.78263 5.10154ZM1.42756 2.51097C1.42756 2.57343 1.40275 2.63333 1.35858 2.67749C1.31441 2.72166 1.25451 2.74647 1.19205 2.74647C1.12959 2.74647 1.06969 2.72166 1.02552 2.67749C0.981355 2.63333 0.956543 2.57343 0.956543 2.51097C0.956543 2.4485 0.981355 2.3886 1.02552 2.34444C1.06969 2.30027 1.12959 2.27546 1.19205 2.27546C1.25451 2.27546 1.31441 2.30027 1.35858 2.34444C1.40275 2.3886 1.42756 2.4485 1.42756 2.51097Z" fill="black"/>
</svg>
