<svg height='100px' width='100px'  fill="#6930db" xmlns="http://www.w3.org/2000/svg" xmlns:xlink="http://www.w3.org/1999/xlink" version="1.1" x="0px" y="0px" viewBox="0 0 100 100" enable-background="new 0 0 100 100" xml:space="preserve"><path d="M37.243,30.907c0.068,0.007,0.135,0.01,0.202,0.01c1.015,0,1.884-0.77,1.988-1.801l1-10c0.11-1.099-0.692-2.08-1.791-2.189  c-1.107-0.115-2.08,0.692-2.189,1.791l-1,10C35.342,29.816,36.144,30.797,37.243,30.907z"></path><path d="M10.442,14.25c1.104,0,2-0.896,2-2V7.917c0-1.104-0.896-2-2-2s-2,0.896-2,2v4.333C8.442,13.354,9.337,14.25,10.442,14.25z"></path><path d="M46.723,11.105c0.374,0.629,1.039,0.979,1.721,0.979c0.348,0,0.7-0.091,1.02-0.281c0.95-0.564,1.262-1.792,0.697-2.741  l-3.667-6.167c-0.564-0.949-1.792-1.262-2.741-0.697c-0.95,0.564-1.262,1.792-0.697,2.741L46.723,11.105z"></path><path d="M53.823,27.351c0.207,0.932,1.033,1.566,1.95,1.566c0.144,0,0.29-0.016,0.436-0.048c1.079-0.24,1.759-1.308,1.519-2.386  l-0.667-3c-0.239-1.078-1.31-1.762-2.386-1.518c-1.079,0.24-1.759,1.308-1.519,2.386L53.823,27.351z"></path><path d="M16.231,52.786c0.559-2.331,1.985-3.162,4.458-4.43c2.454-1.258,5.508-2.825,6.523-7.056  c1.015-4.232-0.996-7.014-2.613-9.248c-1.629-2.252-2.523-3.64-1.964-5.972c0.559-2.33,1.985-3.161,4.458-4.429  c2.454-1.258,5.508-2.824,6.523-7.056c0.258-1.074-0.404-2.154-1.479-2.411c-1.075-0.258-2.154,0.404-2.411,1.479  c-0.559,2.33-1.985,3.161-4.458,4.429c-2.454,1.258-5.508,2.824-6.523,7.056c-1.015,4.232,0.996,7.014,2.613,9.248  c1.629,2.252,2.523,3.64,1.964,5.972c-0.559,2.33-1.985,3.161-4.458,4.429c-2.454,1.258-5.508,2.825-6.523,7.056  c-1.015,4.233,0.996,7.016,2.612,9.251c1.629,2.253,2.523,3.642,1.964,5.974c-0.56,2.333-1.986,3.165-4.46,4.435  c-2.454,1.26-5.508,2.826-6.523,7.06c-0.258,1.074,0.404,2.154,1.479,2.412c0.157,0.037,0.313,0.055,0.468,0.055  c0.904,0,1.723-0.616,1.943-1.533c0.56-2.333,1.986-3.165,4.46-4.435c2.454-1.26,5.508-2.826,6.523-7.06s-0.996-7.016-2.612-9.251  C16.566,56.507,15.672,55.118,16.231,52.786z"></path><path d="M39.648,41.365l-2.082,4.218l-4.655,0.677c-0.753,0.109-1.379,0.637-1.615,1.361c-0.235,0.724-0.039,1.519,0.506,2.05  l3.369,3.283l-0.795,4.637c-0.129,0.75,0.18,1.509,0.796,1.956c0.615,0.447,1.433,0.506,2.106,0.152l4.164-2.189l4.164,2.189  c0.292,0.153,0.612,0.229,0.931,0.229c0.415,0,0.827-0.129,1.175-0.382c0.616-0.447,0.925-1.206,0.796-1.956l-0.795-4.637  l3.368-3.283c0.546-0.531,0.742-1.326,0.507-2.05c-0.235-0.724-0.861-1.251-1.615-1.361l-4.655-0.677l-2.082-4.218  c-0.337-0.683-1.032-1.115-1.793-1.115S39.985,40.683,39.648,41.365z M40.688,48.296l0.753-1.527l0.753,1.527  c0.292,0.59,0.854,1,1.506,1.094l1.685,0.245l-1.219,1.188c-0.471,0.46-0.687,1.122-0.575,1.771l0.288,1.679l-1.507-0.793  c-0.291-0.153-0.611-0.229-0.931-0.229s-0.64,0.076-0.931,0.229l-1.507,0.793l0.288-1.679c0.111-0.648-0.104-1.311-0.575-1.771  l-1.219-1.188l1.685-0.245C39.834,49.296,40.397,48.887,40.688,48.296z"></path><path d="M60.708,14.005l4.512,2.467l2.468,4.512c0.351,0.641,1.023,1.04,1.755,1.04s1.404-0.399,1.755-1.04l2.468-4.512l4.512-2.467  c0.642-0.351,1.04-1.024,1.04-1.755s-0.398-1.404-1.04-1.755l-4.512-2.467l-2.468-4.512c-0.351-0.641-1.023-1.04-1.755-1.04  s-1.404,0.399-1.755,1.04L65.22,8.028l-4.512,2.467c-0.642,0.351-1.04,1.024-1.04,1.755S60.066,13.654,60.708,14.005z   M67.653,11.256c0.335-0.184,0.611-0.459,0.795-0.795l0.994-1.818l0.994,1.818c0.184,0.335,0.46,0.611,0.795,0.795l1.817,0.994  l-1.817,0.994c-0.335,0.184-0.611,0.459-0.795,0.795l-0.994,1.818l-0.994-1.818c-0.184-0.335-0.46-0.611-0.795-0.795l-1.817-0.994  L67.653,11.256z"></path><path d="M79.607,37.313c-1.069-0.278-2.16,0.368-2.436,1.437l-1.892,7.334c-0.276,1.069,0.367,2.16,1.438,2.436  c0.167,0.043,0.335,0.064,0.5,0.064c0.891,0,1.703-0.599,1.936-1.501l1.892-7.334C81.321,38.68,80.678,37.589,79.607,37.313z"></path><path d="M61.668,44.25c1.104,0,2-0.896,2-2v-3c0-1.104-0.896-2-2-2s-2,0.896-2,2v3C59.668,43.355,60.563,44.25,61.668,44.25z"></path><path d="M63.595,56.359l-6.333,5c-0.867,0.684-1.015,1.941-0.33,2.809c0.395,0.5,0.979,0.761,1.57,0.761  c0.435,0,0.871-0.141,1.238-0.431l6.333-5c0.867-0.684,1.015-1.941,0.33-2.809C65.718,55.822,64.461,55.676,63.595,56.359z"></path><path d="M84.055,64.64c3.523-1.653,7.518-3.528,8.928-7.223c1.226-3.21-0.206-6.838-1.59-10.348c-1.064-2.698-2.165-5.488-1.81-7.56  c0.308-1.787,2.184-3.89,3.998-5.922c2.611-2.925,5.311-5.949,5.311-9.671c0-1.104-0.896-2-2-2s-2,0.896-2,2  c0,2.196-2.184,4.642-4.294,7.007c-2.19,2.454-4.455,4.991-4.956,7.909c-0.546,3.175,0.764,6.495,2.03,9.705  c1.104,2.8,2.246,5.694,1.574,7.453c-0.835,2.187-3.914,3.631-6.891,5.029c-2.807,1.317-5.709,2.68-7.299,4.923  c-1.769,2.495-2.295,5.835-2.805,9.065c-0.486,3.08-0.988,6.265-2.53,7.262c-1.982,1.281-5.184,0.109-8.574-1.135  c-2.526-0.927-5.138-1.885-7.589-1.885c-1.104,0-2,0.896-2,2s0.896,2,2,2c1.74,0,4.013,0.834,6.211,1.64  c2.523,0.926,5.26,1.931,7.859,1.931c1.489,0,2.933-0.33,4.265-1.191c3.042-1.968,3.687-6.05,4.31-9.998  c0.438-2.774,0.891-5.645,2.117-7.376C79.301,66.872,81.718,65.737,84.055,64.64z"></path><path d="M9.733,41.417c3.998,0,7.25-3.252,7.25-7.25s-3.252-7.25-7.25-7.25s-7.25,3.252-7.25,7.25S5.736,41.417,9.733,41.417z   M9.733,30.917c1.792,0,3.25,1.458,3.25,3.25s-1.458,3.25-3.25,3.25s-3.25-1.458-3.25-3.25S7.941,30.917,9.733,30.917z"></path><path d="M32.775,76.25c-4.595,0-8.333,3.738-8.333,8.334c0,4.595,3.738,8.333,8.333,8.333s8.333-3.738,8.333-8.333  C41.109,79.988,37.371,76.25,32.775,76.25z M32.775,88.917c-2.39,0-4.333-1.943-4.333-4.333s1.944-4.334,4.333-4.334  s4.333,1.944,4.333,4.334S35.165,88.917,32.775,88.917z"></path><path d="M89.721,84.277c0-3.478-2.829-6.307-6.306-6.307c-3.478,0-6.307,2.829-6.307,6.307c0,3.477,2.829,6.306,6.307,6.306  C86.892,90.583,89.721,87.754,89.721,84.277z M83.415,86.583c-1.271,0-2.307-1.034-2.307-2.306s1.035-2.307,2.307-2.307  s2.306,1.035,2.306,2.307S84.687,86.583,83.415,86.583z"></path><path d="M26.382,74.792l7.667-6.333c0.852-0.703,0.972-1.964,0.268-2.815c-0.704-0.854-1.965-0.972-2.816-0.269l-7.667,6.333  c-0.852,0.703-0.972,1.964-0.268,2.815c0.396,0.479,0.967,0.727,1.543,0.727C25.558,75.25,26.009,75.1,26.382,74.792z"></path><path d="M12.358,91.25c-1.534,0-3.25-2.566-3.25-6c0-1.104-0.896-2-2-2s-2,0.896-2,2c0,5.607,3.185,10,7.25,10c1.104,0,2-0.896,2-2  S13.463,91.25,12.358,91.25z"></path><path d="M55.108,88.917c-6.916,0-12.333,3.88-12.333,8.833c0,1.104,0.896,2,2,2s2-0.896,2-2c0-2.574,3.894-4.833,8.333-4.833  c1.104,0,2-0.896,2-2S56.213,88.917,55.108,88.917z"></path><path d="M87.721,9c1.104,0,2-0.896,2-2s-0.896-2-2-2c-2.83,0-4.945-1.452-4.945-2.75c0-1.104-0.896-2-2-2s-2,0.896-2,2  C78.775,6.035,82.705,9,87.721,9z"></path><path d="M24.209,12.333c0.371,0.642,1.043,1.001,1.734,1.001c0.339,0,0.683-0.086,0.998-0.268c0.957-0.552,1.285-1.775,0.733-2.732  l-5-8.667c-0.553-0.957-1.776-1.286-2.732-0.733c-0.957,0.552-1.285,1.775-0.733,2.732L24.209,12.333z"></path><path d="M6.383,59.804l-1.375-4.179c-0.345-1.05-1.477-1.619-2.525-1.274c-1.049,0.345-1.62,1.476-1.275,2.524l1.375,4.179  c0.277,0.842,1.059,1.376,1.899,1.376c0.208,0,0.418-0.033,0.625-0.102C6.158,61.983,6.729,60.853,6.383,59.804z"></path><path d="M93.344,66.708l-0.333,3.167c-0.115,1.099,0.682,2.082,1.78,2.198c0.071,0.007,0.142,0.011,0.211,0.011  c1.011,0,1.879-0.764,1.987-1.791l0.333-3.167c0.115-1.099-0.682-2.082-1.78-2.198C94.43,64.82,93.46,65.61,93.344,66.708z"></path><path d="M95.696,89.313l-9.171,6.833c-0.886,0.66-1.068,1.913-0.408,2.799c0.393,0.526,0.995,0.805,1.605,0.805  c0.415,0,0.834-0.129,1.193-0.396l9.171-6.833c0.886-0.66,1.068-1.913,0.408-2.799C97.836,88.837,96.584,88.653,95.696,89.313z"></path><path d="M69.442,95.75h-6.109c-1.104,0-2,0.896-2,2s0.896,2,2,2h6.109c1.104,0,2-0.896,2-2S70.547,95.75,69.442,95.75z"></path><path d="M55.775,73.501c0.826,0,1.6-0.517,1.888-1.341c0.365-1.043-0.185-2.184-1.228-2.548l-13.109-4.583  c-1.044-0.365-2.184,0.185-2.548,1.228c-0.364,1.043,0.186,2.184,1.228,2.548l13.109,4.583  C55.334,73.464,55.557,73.501,55.775,73.501z"></path></svg>
