<svg height='100px' width='100px'  fill="#000000" xmlns="http://www.w3.org/2000/svg" xmlns:xlink="http://www.w3.org/1999/xlink" version="1.1" x="0px" y="0px" viewBox="0 0 100 100" enable-background="new 0 0 100 100" xml:space="preserve"><path d="M77.3,2.4H22.7v8.7H4v14.3c0,10.3,8.4,18.7,18.7,18.7h2.4c3.5,7.8,10.6,13.6,19.1,15.5v11.7h-6.7c-2.1,0-3.7,1.7-3.7,3.7V80  h-5.7v17.5h43.9V80h-5.7v-4.9c0-2.1-1.7-3.7-3.7-3.7h-6.7V59.7c8.6-1.8,15.6-7.7,19.1-15.5h2.4c10.3,0,18.7-8.4,18.7-18.7V11.2H77.3  V2.4z M22.7,34.7c-5.1,0-9.2-4.1-9.2-9.2v-4.9h9.2v12.3C22.7,33.5,22.7,34.1,22.7,34.7L22.7,34.7z M57.6,80.9v9.4H42.4v-9.4H57.6z   M48.1,25.3c0.5,0.5,1.3,1.1,2.6,1.6c2.9,1.2,5,2.4,6.4,3.7c1.4,1.2,2,2.9,2,5.2c0,2.1-0.7,3.9-2,5.2c-1.2,1.1-2.7,1.8-4.5,2.2v3.1  c0,0.4-0.3,0.7-0.8,0.7h-2.7c-0.4,0-0.8-0.3-0.8-0.7v-3c-2.3-0.3-4.2-1.1-5.8-2.5c-1.4-1.3-2.2-3.1-2.3-5.4c0-0.5,0.4-0.9,0.9-0.9  l4.5-0.1c0,0,0,0,0,0c0.4,0,0.8,0.3,0.9,0.8c0.1,1.1,0.4,2,1,2.5c0.7,0.7,1.5,1,2.6,1c0.9,0,1.6-0.3,2-0.8c0.5-0.5,0.7-1.2,0.7-2  c0-1-0.2-1.7-0.7-2.3c-0.5-0.5-1.3-1.1-2.5-1.6c-2.9-1.2-5.1-2.3-6.4-3.5c-1.3-1.2-2-2.9-2-5.2c0-2.1,0.7-3.8,2.1-5.2  c1.3-1.2,3-2,5.1-2.3v-3.2c0-0.4,0.3-0.7,0.8-0.7h2.7c0.4,0,0.8,0.3,0.8,0.7v3.3c1.9,0.4,3.5,1.3,4.7,2.6c1.1,1.3,1.8,2.9,1.9,4.9  c0,0.5-0.4,0.9-0.9,0.9l-4.5,0.1h0c-0.4,0-0.8-0.3-0.9-0.8c-0.1-1-0.3-1.7-0.8-2.2c-0.5-0.7-1.2-1-2.1-1c-0.9,0-1.5,0.3-2,0.8  c-0.4,0.5-0.6,1.2-0.6,2.1C47.4,24,47.7,24.7,48.1,25.3z M86.6,20.6v4.9c0,5.1-4.1,9.2-9.2,9.2h-0.1c0-0.6,0.1-1.2,0.1-1.8V20.6  H86.6z"></path></svg>
