<svg height='100px' width='100px'  fill="#000000" xmlns="http://www.w3.org/2000/svg" data-name="Слой 1" viewBox="0 0 128 128" x="0px" y="0px"><title>ic_change_password_key</title><path d="M119.39,64a55.3,55.3,0,0,0-38-52.6,2,2,0,1,0-1.25,3.8,51.4,51.4,0,0,1-11.07,99.94L74,110.2a2,2,0,1,0-2.82-2.83L62.59,116a1.42,1.42,0,0,0-.25.3.55.55,0,0,0-.08.15,1.28,1.28,0,0,0-.11.2l-.06.2A.84.84,0,0,0,62,117a2,2,0,0,0,0,.78,1.21,1.21,0,0,0,.05.18l.06.2.11.19a.55.55,0,0,0,.08.15,1.79,1.79,0,0,0,.25.31l8.61,8.6A2,2,0,0,0,74,124.59l-5.4-5.41A55.44,55.44,0,0,0,119.39,64Z"></path><path d="M47.78,112.78A51.4,51.4,0,0,1,58.92,12.86L54,17.8a2,2,0,1,0,2.82,2.83L65.41,12a1.42,1.42,0,0,0,.25-.3.55.55,0,0,0,.08-.15,1.28,1.28,0,0,0,.11-.2l.06-.2A.84.84,0,0,0,66,11a2,2,0,0,0,0-.78,1.21,1.21,0,0,0,0-.18l-.06-.2-.11-.19a.55.55,0,0,0-.08-.15,1.79,1.79,0,0,0-.25-.31L56.8.59A2,2,0,0,0,54,.59a2,2,0,0,0,0,2.82l5.4,5.41A55.39,55.39,0,0,0,46.52,116.58a2,2,0,0,0,.63.1,2,2,0,0,0,.63-3.9Z"></path><path d="M64.8,76l5.72-5.73A19.49,19.49,0,1,0,57.74,57.48L33.26,82a2,2,0,0,0-.59,1.32l-.5,10.45a2,2,0,0,0,.59,1.51,2,2,0,0,0,1.41.59h.1l10.46-.5a2,2,0,0,0,1.83-1.49l1.85-7,6.64-1.55a2,2,0,0,0,1.49-1.49l1.51-6.48,5.62-.8A2,2,0,0,0,64.8,76Zm-8.67-2.4a2,2,0,0,0-1.66,1.52l-1.54,6.6-6.6,1.54a2,2,0,0,0-1.47,1.43L43.07,91.4l-6.8.33.36-7.49L61.45,59.42a2,2,0,0,0,.45-2.14A15.49,15.49,0,0,1,76.34,36.17a15.35,15.35,0,0,1,11,4.54A15.49,15.49,0,0,1,70.72,66.1a2,2,0,0,0-2.14.45l-6.13,6.14Z"></path><path d="M81.16,59.31a2,2,0,0,0,1.41.59A2,2,0,0,0,84,59.31,10.82,10.82,0,1,0,68.69,44a2,2,0,0,0-.59,1.42,2,2,0,0,0,.59,1.41Zm0-12.47a6.85,6.85,0,0,1,1.2,8l-9.22-9.22A6.85,6.85,0,0,1,81.16,46.84Z"></path></svg>
