<svg width="17" height="17" viewBox="0 0 17 17" fill="none" xmlns="http://www.w3.org/2000/svg">
<path d="M7.98441 6.67065H5.52482C5.2743 6.67065 5.06934 6.87527 5.06934 7.12537C5.06934 7.37546 5.2743 7.58008 5.52482 7.58008H7.98441C8.23493 7.58008 8.43989 7.37546 8.43989 7.12537C8.43989 6.87527 8.23493 6.67065 7.98441 6.67065Z" fill="#6930DB"/>
<path d="M11.1728 8.94409H5.52482C5.2743 8.94409 5.06934 9.14871 5.06934 9.3988C5.06934 9.6489 5.2743 9.85352 5.52482 9.85352H11.1728C11.4233 9.85352 11.6283 9.6489 11.6283 9.3988C11.6283 9.14871 11.4233 8.94409 11.1728 8.94409Z" fill="#6930DB"/>
<path d="M8.3854 0C8.38084 0.00454713 8.37173 0.00454713 8.35807 0.00454713C3.74861 0.00454713 0 3.74683 0 8.34852C0 10.2265 0.642228 12.0499 1.81737 13.5186L0.601234 16.3378C0.501029 16.5697 0.610344 16.838 0.838084 16.9335C0.920071 16.9699 1.01117 16.979 1.09771 16.9653L5.55686 16.1832C6.44961 16.5061 7.3879 16.6698 8.3353 16.6652C12.9448 16.6652 16.6934 12.9229 16.6934 8.32124C16.7025 3.73319 12.9812 0.00454713 8.3854 0ZM8.33985 15.7603C7.46077 15.7603 6.59081 15.6012 5.76639 15.292C5.68895 15.2602 5.60697 15.2556 5.52498 15.2692L1.77182 15.924L2.76477 13.6186C2.83309 13.4595 2.80576 13.2731 2.69189 13.1412C2.15442 12.5182 1.72627 11.8089 1.42565 11.0404C1.0886 10.181 0.915516 9.26704 0.915516 8.34398C0.915516 4.24247 4.25874 0.909425 8.36262 0.909425C12.4574 0.900331 15.7824 4.20609 15.787 8.29396C15.787 8.30305 15.787 8.31215 15.787 8.32124C15.787 12.4273 12.4437 15.7603 8.33985 15.7603Z" fill="#6930DB"/>
</svg>
