<svg width="15" height="15" viewBox="0 0 15 15" fill="none" xmlns="http://www.w3.org/2000/svg">
<path d="M7.05694 5.89575H4.88304C4.66163 5.89575 4.48047 6.0766 4.48047 6.29765C4.48047 6.51869 4.66163 6.69954 4.88304 6.69954H7.05694C7.27835 6.69954 7.45951 6.51869 7.45951 6.29765C7.45951 6.0766 7.27835 5.89575 7.05694 5.89575Z" fill="black"/>
<path d="M9.87495 7.90515H4.88304C4.66163 7.90515 4.48047 8.086 4.48047 8.30705C4.48047 8.52809 4.66163 8.70894 4.88304 8.70894H9.87495C10.0964 8.70894 10.2775 8.52809 10.2775 8.30705C10.2775 8.086 10.0964 7.90515 9.87495 7.90515Z" fill="black"/>
<path d="M7.41137 0C7.40735 0.00401894 7.3993 0.00401894 7.38722 0.00401894C3.31318 0.00401894 0 3.31161 0 7.37878C0 9.0386 0.567628 10.6502 1.60627 11.9483L0.531397 14.4401C0.442831 14.645 0.539448 14.8821 0.740735 14.9665C0.813198 14.9987 0.893713 15.0067 0.970201 14.9947L4.91139 14.3034C5.70044 14.5888 6.52974 14.7334 7.36709 14.7294C11.4411 14.7294 14.7543 11.4218 14.7543 7.35467C14.7624 3.29955 11.4733 0.00401894 7.41137 0ZM7.37112 13.9297C6.59415 13.9297 5.82523 13.789 5.09658 13.5157C5.02814 13.4876 4.95568 13.4836 4.88321 13.4956L1.56601 14.0743L2.44362 12.0367C2.50401 11.8961 2.47985 11.7313 2.37921 11.6147C1.90417 11.0642 1.52575 10.4372 1.26005 9.75799C0.96215 8.99841 0.809172 8.19061 0.809172 7.37476C0.809172 3.74967 3.76406 0.803789 7.39124 0.803789C11.0104 0.795751 13.9492 3.71752 13.9532 7.33055C13.9532 7.33859 13.9532 7.34663 13.9532 7.35467C13.9532 10.9838 10.9983 13.9297 7.37112 13.9297Z" fill="black"/>
</svg>
