<svg height='100px' width='100px'  fill="#000000" xmlns="http://www.w3.org/2000/svg" xmlns:xlink="http://www.w3.org/1999/xlink" version="1.1" x="0px" y="0px" viewBox="0 0 500 500" enable-background="new 0 0 500 500" xml:space="preserve"><g><g><path d="M401.7,411.8c-38,0-76.1,0-114.1,0c-55.6,0-111.2,0-166.8,0c-6.3,0-12.6,0-19,0c-1.1,0-2.3,0-3.4,0    c-0.5,0-1.1,0-1.5,0c-4.5,0.1,4.2,1.3,0,0c-0.9-0.3-2.2-0.8-3.2-0.9c-2.3-0.2,4,2.4,0.6,0.2c-0.2-0.1-3.4-1.9-3.3-2    c0.1-0.2,3.5,3.2,0.1-0.2c-0.6-0.6-1.2-1.2-1.7-1.9c1.8,2.4,2.1,2.7,0.8,0.9c-0.1-0.2-2-3.3-1.9-3.4c0.7-0.4,1.2,4.6,0.4,0.5    c-0.1-0.3-0.9-3.2-0.8-3.2c0.1,0.9,0.2,1.8,0.4,2.6c-0.1-0.9-0.1-1.8-0.1-2.7c0-0.2,0-0.5,0-0.7c0-1.5,0-3.1,0-4.6    c0-7.2,0-14.5,0-21.7c0-56.3,0-112.6,0-168.9c0-25.9,0-51.9,0-77.8c0-7.6,0-15.3,0-22.9c0-1.8,0-3.6,0-5.4c0-0.4,0-0.7,0-1.1    c0-0.5,0-1.1,0-1.5c0-3.3,0.5,1.4-0.3,1.3c0,0,1.1-5.2,1.4-5.1c0.1,0-2.2,4.2,0.2,0.1c2.4-4.1,0,0-0.2-0.2    c-0.1-0.1,2.5-2.6,2.7-2.8c2.9-3.1-3.7,2,0,0c0.7-0.4,1.5-0.9,2.2-1.3c3.6-2.3-4.2,1,0,0c0.3-0.1,3.8-1.1,3.9-1    c-3.1,0.4-3.5,0.4-1.3,0.3c0.5,0,0.9,0,1.4,0c0.9,0,1.8,0,2.6,0c5.9,0,11.8,0,17.7,0c24,0,48,0,72,0c58.1,0,116.3,0,174.4,0    c12.2,0,24.4-0.2,36.6,0c0.5,0,1.2,0,1.4,0c4.5-0.1-4.2-1.3,0,0c0.3,0.1,3.8,0.9,3.8,1.1c0,0.1-4.2-2.2-0.1,0.2    c4.1,2.4,0,0,0.2-0.2c0.1-0.1,2.1,2,2.3,2.2c3.5,3.1-1.2-2.7,0.5,0.5c0.1,0.2,2,3.3,1.9,3.4c-0.3,0.1-1.5-4.5-0.2,0.1    c0.1,0.4,0.2,0.9,0.3,1.3c0.4,2.2,0.4,1.7-0.1-1.3c0.1,0,0.1,2.7,0.1,2.7c0,0.2,0,0.5,0,0.7c0,4.5,0,9.1,0,13.7    c0,53.1,0,106.2,0,159.2c0,42.9,0.2,85.8,0,128.7c0,0.3,0,0.7,0,1c0,0.5,0,1.1,0,1.5c0.1,4.5,1.3-4.2,0,0    c-0.1,0.3-0.9,3.8-1.1,3.8c-0.1,0,2.2-4.2-0.2-0.1c-0.2,0.3-1.3,2.2-1.4,2.2c-0.2-0.1,3.2-3.5-0.2-0.1c-3.3,3.3,0,0,0.1,0.2    c0.1,0.2-3.1,1.9-3.3,2c-3.6,2.3,4.2-1,0,0c-0.3,0.1-3.8,1.1-3.9,1c0.9-0.1,1.8-0.2,2.6-0.4C403.5,411.7,402.6,411.8,401.7,411.8    c-10.5,0.2-20.5,9-20,20c0.5,10.6,8.8,20.3,20,20c27.8-0.6,49.6-22.6,50.1-50.3c0.1-4.1,0-8.3,0-12.4c0-22.3,0-44.6,0-67    c0-60,0-120.1,0-180.1c0-14.4,0.2-28.8,0-43.2c-0.3-23.1-16.1-44.8-39.4-49.4c-6.3-1.3-12.3-1.2-18.7-1.2c-51.3,0-102.5,0-153.8,0    c-46.5,0-93,0-139.5,0c-17.6,0-33,7.3-43.3,21.6c-7,9.7-9,21.1-9,32.8c0,18.3,0,36.6,0,54.8c0,60.9,0,121.8,0,182.8    c0,18.8,0,37.6,0,56.5c0,10.2,1.3,20,6.2,29.2c8.9,16.8,27,25.9,45.6,25.9c45.4,0.1,90.7,0,136.1,0c52.2,0,104.4,0,156.7,0    c3,0,6,0,9,0c10.5,0,20.5-9.2,20-20C421.2,420.9,412.9,411.8,401.7,411.8z"></path></g></g></svg>
