<svg height='100px' width='100px'  fill="#000000" xmlns:rdf="http://www.w3.org/1999/02/22-rdf-syntax-ns#" xmlns="http://www.w3.org/2000/svg" xmlns:cc="http://creativecommons.org/ns#" xmlns:dc="http://purl.org/dc/elements/1.1/" version="1.1" x="0px" y="0px" viewBox="0 0 100 100"><g transform="translate(0,-952.36218)"><path style="baseline-shift:baseline;block-progression:tb;color:#000000;direction:ltr;text-indent:0;enable-background:accumulate;text-transform:none;" fill="#000000" d="m48.188,956.61c-10.924,0-20.944,3.8286-28.812,10.219a0.80039,0.80039,0,1,0,1,1.25c7.5944-6.1678,17.263-9.875,27.812-9.875,24.397,0,44.156,19.764,44.156,44.156,0,24.393-19.759,44.156-44.156,44.156-8.658,0-16.717-2.4796-23.531-6.7813a0.80008,0.80008,0,1,0,-0.84375,1.3438c7.0612,4.4574,15.41,7.0312,24.375,7.0312,25.262,0,45.781-20.492,45.781-45.75s-20.519-45.75-45.781-45.75zm-2,12.438a0.80008,0.80008,0,0,0,-0.71875,0.8125v35.438a0.80008,0.80008,0,0,0,1.25,0.6563l19.688-12.75a0.80008,0.80008,0,1,0,-0.84375,-1.3438l-18.5,11.969v-33.969a0.80008,0.80008,0,0,0,-0.875,-0.8125zm-25.969,1.5938c-3.8166,0-6.9062,3.1328-6.9062,7s3.0897,7.0312,6.9062,7.0312c3.8166,0,6.9375-3.1641,6.9375-7.0312,0-3.8672-3.1209-7-6.9375-7zm0,1.5938c2.9576,0,5.3438,2.4095,5.3438,5.4062,0,2.9968-2.3862,5.4062-5.3438,5.4062s-5.3438-2.4095-5.3438-5.4062c0-2.9968,2.3862-5.4062,5.3438-5.4062zm-10.938,12.938c-0.81714-0.0527-1.5999,0.12784-2.2188,0.5625-0.46459,0.32633-0.80575,0.85114-0.9375,1.4375-0.043918,0.19545-0.070162,0.38568-0.0625,0.59375h-0.03125v24.25a0.80008,0.80008,0,0,0,0.03125,0.062c0.078565,1.0927,0.59021,1.9543,1.3125,2.4687,0.72229,0.5143,1.6027,0.6969,2.4375,0.625,0.59362-0.051,1.1725-0.2362,1.6875-0.5312v18.406,0.062c-0.16786,3.6902,6.4421,4.8689,8.7188,1.4063,0.18894,0.3059,0.34324,0.6402,0.59375,0.875,0.84188,0.7892,1.9377,1.1471,3.0312,1.1875,2.187,0.081,4.5378-1.0711,5.0938-3.2813a0.80008,0.80008,0,0,0,0.03125,-0.1875v-18.375c0.55393,0.331,1.1797,0.4791,1.8125,0.5,0.84374,0.028,1.7111-0.2172,2.4062-0.75,0.69514-0.5327,1.183-1.3905,1.2188-2.4375a0.80008,0.80008,0,0,0,0,-0.031v-23.781c0.02604-0.87651-0.32202-1.6353-0.84375-2.1875-0.50776-0.53745-1.2043-0.91552-1.9688-0.875h-0.0625-22.188-0.0625zm-0.4375,1.5938c0.12261-0.0105,0.24084-0.0106,0.375,0a0.80008,0.80008,0,0,0,0.0625,0h22.312a0.80008,0.80008,0,0,0,0.09375,0c0.14113-0.0117,0.46012,0.10125,0.71875,0.375,0.25863,0.27374,0.41807,0.66463,0.40625,1.0625a0.80008,0.80008,0,0,0,0,0.0312v23.75,0.031c-0.02862,0.5881-0.24973,0.9551-0.59375,1.2187-0.35118,0.2692-0.8622,0.392-1.375,0.375s-1.0143-0.1742-1.3438-0.4687c-0.32942-0.2945-0.5232-0.6998-0.5-1.3438a0.80008,0.80008,0,0,0,-0.03125,-0.3125v-18.469a0.8125,0.8125,0,1,0,-1.625,0v39.938c-0.3359,1.2141-1.8925,2.0883-3.4375,2.0312-0.78121-0.029-1.4922-0.274-2-0.75-0.47378-0.444-0.83189-1.1027-0.875-2.125l0.03125-16.75a0.80008,0.80008,0,0,0,-0.90625,-0.8125,0.80008,0.80008,0,0,0,-0.6875,0.8125l-0.03125,16.5a0.80008,0.80008,0,0,0,0,0.031c-0.04098,5.1147-6.456,2.961-6.3438,1.2812a0.80008,0.80008,0,0,0,0,-0.062v-21.281a0.80008,0.80008,0,0,0,0,-0.1563v-18.656a0.80008,0.80008,0,0,0,-0.8125,-0.8125,0.80008,0.80008,0,0,0,-0.78125,0.8125v18.688a0.80008,0.80008,0,0,0,0,0.2187c0.01258,0.2399-0.01519,0.4484-0.09375,0.625-0.03928,0.088-0.09467,0.1712-0.15625,0.25-0.06158,0.079-0.1352,0.1451-0.21875,0.2188-0.3342,0.2948-0.85759,0.5179-1.375,0.5625-0.2587,0.022-0.51461,0.021-0.75-0.031-0.1177-0.026-0.23888-0.049-0.34375-0.094s-0.19388-0.1254-0.28125-0.1875c-0.34947-0.2488-0.5753-0.6213-0.625-1.3125v-24.188a0.80008,0.80008,0,0,0,0,-0.0625c-0.021743-0.3378,0.059931-0.47885,0.3125-0.65625,0.18943-0.13305,0.50717-0.24968,0.875-0.28125z"></path></g></svg>
