<svg height='100px' width='100px'  fill="#000000" xmlns="http://www.w3.org/2000/svg" xmlns:xlink="http://www.w3.org/1999/xlink" version="1.1" x="0px" y="0px" viewBox="0 0 100 100" style="enable-background:new 0 0 100 100;" xml:space="preserve"><g><path d="M73.8,30.98V16.01c0-8.1-17.61-12.48-34.18-12.48C23.04,3.53,5.43,7.9,5.43,16.01v67.98c0,8.1,17.61,12.48,34.18,12.48   c16.57,0,34.18-4.37,34.18-12.48v-8.58c11.58-0.77,20.77-10.44,20.77-22.21S85.38,31.76,73.8,30.98z M50.78,47.47   c-3.57,0.44-7.31,0.68-11.17,0.68c-18.38,0-31.18-4.99-31.18-9.48v-17.3c5.72,4.65,18.75,7.12,31.18,7.12   c12.44,0,25.46-2.46,31.18-7.12v9.62C61.17,31.63,53.19,38.42,50.78,47.47z M8.43,44.03c5.72,4.65,18.75,7.12,31.18,7.12   c3.63,0,7.18-0.21,10.58-0.59c-0.1,0.87-0.16,1.75-0.16,2.64c0,6.24,2.59,11.89,6.74,15.94c-5.09,1.08-11.06,1.67-17.15,1.67   c-18.38,0-31.18-4.99-31.18-9.48V44.03z M39.62,6.53c18.38,0,31.18,4.99,31.18,9.48c0,4.48-12.81,9.48-31.18,9.48   c-18.38,0-31.18-4.99-31.18-9.48C8.43,11.52,21.24,6.53,39.62,6.53z M39.62,93.47c-18.38,0-31.18-4.99-31.18-9.48v-17.3   c5.72,4.66,18.75,7.12,31.18,7.12c7.33,0,14.24-0.79,20.07-2.27c3.2,2.21,7.01,3.6,11.11,3.87v8.58   C70.8,88.48,57.99,93.47,39.62,93.47z M72.3,72.46c-10.62,0-19.27-8.64-19.27-19.27s8.64-19.27,19.27-19.27s19.27,8.64,19.27,19.27   S82.92,72.46,72.3,72.46z"></path><path d="M73.39,42.75c-1.96,1.96-2.25,4.96-0.91,7.25l-5.57,5.57l-4.11,4.11l-1.36,1.36c-0.59,0.59-0.59,1.54,0,2.12   c0.29,0.29,0.68,0.44,1.06,0.44s0.77-0.15,1.06-0.44l0.3-0.3l2.11,2.11c0.29,0.29,0.68,0.44,1.06,0.44s0.77-0.15,1.06-0.44   c0.59-0.59,0.59-1.54,0-2.12l-2.11-2.11l1.99-1.99l2.11,2.11c0.29,0.29,0.68,0.44,1.06,0.44s0.77-0.15,1.06-0.44   c0.59-0.59,0.59-1.54,0-2.12l-2.11-2.11l4.51-4.51c0.93,0.55,1.97,0.84,3.02,0.84c1.53,0,3.06-0.58,4.23-1.75   c2.33-2.33,2.33-6.13,0-8.46C79.51,40.41,75.72,40.41,73.39,42.75z M79.72,49.08c-1.16,1.16-3.05,1.16-4.22,0   c-1.16-1.16-1.16-3.05,0-4.22c0.58-0.58,1.34-0.87,2.11-0.87s1.53,0.29,2.11,0.87C80.89,46.03,80.89,47.92,79.72,49.08z"></path></g></svg>
