<svg height='100px' width='100px'  fill="#000000" xmlns="http://www.w3.org/2000/svg" xmlns:xlink="http://www.w3.org/1999/xlink" version="1.1" x="0px" y="0px" viewBox="0 0 36 36" style="enable-background:new 0 0 36 36;" xml:space="preserve"><g><path d="M26,34v-6c0-4.71-2.91-8.93-7.21-10.66C21.38,15.83,23,13.07,23,10c0-4.69-3.81-8.5-8.5-8.5S6,5.31,6,10   c0,3.07,1.62,5.83,4.21,7.34C5.91,19.07,3,23.29,3,28v6c0,0.28,0.22,0.5,0.5,0.5h22C25.78,34.5,26,34.28,26,34z M25,33.5H4V28   c0-4.68,3.15-8.83,7.65-10.1c0.21-0.06,0.35-0.24,0.36-0.45c0.01-0.21-0.11-0.41-0.31-0.49C8.85,15.81,7,13.08,7,10   c0-4.14,3.36-7.5,7.5-7.5S22,5.86,22,10c0,3.08-1.85,5.81-4.71,6.96c-0.2,0.08-0.32,0.28-0.31,0.49c0.01,0.21,0.16,0.4,0.36,0.45   C21.85,19.17,25,23.32,25,28V33.5z"></path><path d="M32.85,2.65c-0.2-0.2-0.51-0.2-0.71,0L28.5,6.29l-3.65-3.65c-0.2-0.2-0.51-0.2-0.71,0s-0.2,0.51,0,0.71L27.79,7l-3.65,3.65   c-0.2,0.2-0.2,0.51,0,0.71c0.1,0.1,0.23,0.15,0.35,0.15s0.26-0.05,0.35-0.15l3.65-3.65l3.65,3.65c0.1,0.1,0.23,0.15,0.35,0.15   s0.26-0.05,0.35-0.15c0.2-0.2,0.2-0.51,0-0.71L29.21,7l3.65-3.65C33.05,3.16,33.05,2.84,32.85,2.65z"></path></g></svg>
