<svg height='100px' width='100px'  fill="#000000" xmlns:dc="http://purl.org/dc/elements/1.1/" xmlns:cc="http://creativecommons.org/ns#" xmlns:rdf="http://www.w3.org/1999/02/22-rdf-syntax-ns#" xmlns:svg="http://www.w3.org/2000/svg" xmlns="http://www.w3.org/2000/svg" xmlns:sodipodi="http://sodipodi.sourceforge.net/DTD/sodipodi-0.dtd" xmlns:inkscape="http://www.inkscape.org/namespaces/inkscape" viewBox="0 0 16.933333 16.933334" version="1.1" x="0px" y="0px"><g transform="translate(0,-280.06665)"><path style="color:#000000;font-style:normal;font-variant:normal;font-weight:normal;font-stretch:normal;font-size:medium;line-height:normal;font-family:sans-serif;font-variant-ligatures:normal;font-variant-position:normal;font-variant-caps:normal;font-variant-numeric:normal;font-variant-alternates:normal;font-feature-settings:normal;text-indent:0;text-align:start;text-decoration:none;text-decoration-line:none;text-decoration-style:solid;text-decoration-color:#000000;letter-spacing:normal;word-spacing:normal;text-transform:none;writing-mode:lr-tb;direction:ltr;text-orientation:mixed;dominant-baseline:auto;baseline-shift:baseline;text-anchor:start;white-space:normal;shape-padding:0;clip-rule:nonzero;display:inline;overflow:visible;visibility:visible;opacity:1;isolation:auto;mix-blend-mode:normal;color-interpolation:sRGB;color-interpolation-filters:linearRGB;solid-color:#000000;solid-opacity:1;vector-effect:none;fill:#000000;fill-opacity:1;fill-rule:nonzero;stroke:none;stroke-width:0.52899998;stroke-linecap:round;stroke-linejoin:round;stroke-miterlimit:4;stroke-dasharray:none;stroke-dashoffset:0;stroke-opacity:1;paint-order:normal;color-rendering:auto;image-rendering:auto;shape-rendering:auto;text-rendering:auto;enable-background:accumulate" d="m 13.73537,288.49041 a 0.26454869,0.26457765 0 0 0 -0.18139,0.077 l -1.12344,1.12241 a 0.26454869,0.26457765 0 0 0 -5.2e-4,5.2e-4 0.26452644,0.26455493 0 0 0 -5.2e-4,5.2e-4 l -3.92792,3.92844 a 0.26452644,0.26455493 0 0 0 -0.078,0.18758 v 1.87121 a 0.26452644,0.26455493 0 0 0 0.26355,0.26355 h 1.8712 a 0.26452644,0.26455493 0 0 0 0.18759,-0.076 l 3.929475,-3.92999 a 0.26452644,0.26455493 0 0 0 0,-5.2e-4 l 0.0062,-0.006 1.116729,-1.11724 a 0.26454869,0.26457765 0 0 0 0,-0.37259 l -1.87172,-1.87172 a 0.26454869,0.26457765 0 0 0 -0.191204,-0.077 z m 0.005,0.63872 1.497066,1.49759 -0.748792,0.74827 -1.497064,-1.49707 z m -1.12344,1.12293 1.496545,1.49603 -3.663865,3.66438 H 8.95307 v -1.49603 z"></path><path style="color:#000000;font-style:normal;font-variant:normal;font-weight:normal;font-stretch:normal;font-size:medium;line-height:normal;font-family:sans-serif;font-variant-ligatures:normal;font-variant-position:normal;font-variant-caps:normal;font-variant-numeric:normal;font-variant-alternates:normal;font-feature-settings:normal;text-indent:0;text-align:start;text-decoration:none;text-decoration-line:none;text-decoration-style:solid;text-decoration-color:#000000;letter-spacing:normal;word-spacing:normal;text-transform:none;writing-mode:lr-tb;direction:ltr;text-orientation:mixed;dominant-baseline:auto;baseline-shift:baseline;text-anchor:start;white-space:normal;shape-padding:0;clip-rule:nonzero;display:inline;overflow:visible;visibility:visible;opacity:1;isolation:auto;mix-blend-mode:normal;color-interpolation:sRGB;color-interpolation-filters:linearRGB;solid-color:#000000;solid-opacity:1;vector-effect:none;fill:#000000;fill-opacity:1;fill-rule:nonzero;stroke:none;stroke-width:0.52916676;stroke-linecap:butt;stroke-linejoin:round;stroke-miterlimit:4;stroke-dasharray:none;stroke-dashoffset:0;stroke-opacity:1;paint-order:normal;color-rendering:auto;image-rendering:auto;shape-rendering:auto;text-rendering:auto;enable-background:accumulate" d="m 6.61457,281.12498 c -1.60439,0 -2.91042,1.30603 -2.91042,2.91042 0,1.60438 1.30603,2.91041 2.91042,2.91041 1.60439,0 2.91042,-1.30603 2.91042,-2.91041 0,-1.60439 -1.30603,-2.91042 -2.91042,-2.91042 z m 0,0.52935 c 1.31838,0 2.38108,1.06268 2.38108,2.38107 0,1.31838 -1.0627,2.38302 -2.38108,2.38302 -1.31838,0 -2.38107,-1.06464 -2.38107,-2.38302 0,-1.31839 1.06269,-2.38107 2.38107,-2.38107 z"></path><path style="color:#000000;font-style:normal;font-variant:normal;font-weight:normal;font-stretch:normal;font-size:medium;line-height:normal;font-family:sans-serif;font-variant-ligatures:normal;font-variant-position:normal;font-variant-caps:normal;font-variant-numeric:normal;font-variant-alternates:normal;font-feature-settings:normal;text-indent:0;text-align:start;text-decoration:none;text-decoration-line:none;text-decoration-style:solid;text-decoration-color:#000000;letter-spacing:normal;word-spacing:normal;text-transform:none;writing-mode:lr-tb;direction:ltr;text-orientation:mixed;dominant-baseline:auto;baseline-shift:baseline;text-anchor:start;white-space:normal;shape-padding:0;clip-rule:nonzero;display:inline;overflow:visible;visibility:visible;opacity:1;isolation:auto;mix-blend-mode:normal;color-interpolation:sRGB;color-interpolation-filters:linearRGB;solid-color:#000000;solid-opacity:1;vector-effect:none;fill:#000000;fill-opacity:1;fill-rule:nonzero;stroke:none;stroke-width:0.5291667;stroke-linecap:butt;stroke-linejoin:round;stroke-miterlimit:4;stroke-dasharray:none;stroke-dashoffset:0;stroke-opacity:1;paint-order:normal;color-rendering:auto;image-rendering:auto;shape-rendering:auto;text-rendering:auto;enable-background:accumulate" d="m 5.55623,287.47498 c -2.48709,0 -4.49791,2.01021 -4.49791,4.49688 v 2.11667 c -5.3e-4,0.14632 0.11772,0.26533 0.26407,0.26561 h 6.30762 c 0.14612,0 0.26458,-0.11846 0.26458,-0.26458 0,-0.14612 -0.11846,-0.26458 -0.26458,-0.26458 H 1.588 v -1.85312 c 0,-2.20273 1.76512,-3.96772 3.96823,-3.96772 h 2.11719 c 1.42696,0 2.66985,0.74009 3.36878,1.86035 0.0731,0.12653 0.23107,0.17022 0.35761,0.0972 0.12655,-0.073 0.16968,-0.23518 0.0966,-0.36174 -0.79295,-1.27618 -2.20737,-2.12493 -3.82302,-2.12493 z"></path></g></svg>
