<svg height='100px' width='100px'  fill="#000000" xmlns="http://www.w3.org/2000/svg" xmlns:xlink="http://www.w3.org/1999/xlink" version="1.1" x="0px" y="0px" viewBox="0 0 100 100" enable-background="new 0 0 100 100" xml:space="preserve"><path d="M34.5,58c-14.337,0-26-11.663-26-26s11.663-26,26-26s26,11.663,26,26c0,1.104,0.895,2,2,2s2-0.896,2-2  c0-16.542-13.458-30-30-30s-30,13.458-30,30s13.458,30,30,30c1.104,0,2-0.895,2-2S35.604,58,34.5,58z M34.5,16  c-4.529,0-9.375,3.036-9.992,9.819l3.984,0.361C29.026,20.298,33.591,20,34.5,20c1.407,0,6,0.369,6,5.125  c0,2.509-1.589,3.729-3.773,5.51C34.732,32.261,32,34.285,32,38v2h4v-2c0-1.731,1.336-2.701,3.254-4.266  c2.227-1.814,5.121-4.073,5.121-8.609C44.375,19.667,40.481,16,34.5,16z M32,48h4v-4h-4V48z M86.5,40h-36c-4.411,0-8.5,3.589-8.5,8  v34c0,4.412,4.089,8,8.5,8h11l5.4,7.199C67.277,97.703,67.871,98,68.5,98s1.223-0.297,1.6-0.801L75.5,90h11c4.412,0,7.5-3.588,7.5-8  V48C94,43.589,90.912,40,86.5,40z M90,82c0,2.205-1.295,4-3.5,4h-12c-0.629,0-1.223,0.297-1.6,0.801l-4.4,5.865l-4.4-5.865  C63.723,86.297,63.129,86,62.5,86h-12c-2.206,0-4.5-1.795-4.5-4V48c0-2.206,2.294-4,4.5-4h36c2.205,0,3.5,1.794,3.5,4V82z M66,72h4  V52h-4V72z M66,80h4v-4h-4V80z"></path></svg>
