<!-- <svg height='100px' width='100px'  fill="#000000" xmlns="http://www.w3.org/2000/svg" xmlns:xlink="http://www.w3.org/1999/xlink" version="1.1" x="0px" y="0px" viewBox="0 0 48 48" style="enable-background:new 0 0 48 48;" xml:space="preserve"><g><path d="M38.5,26H44c0.2,0,0.38-0.12,0.46-0.31s0.03-0.4-0.11-0.54l-3.85-3.85V8.5C40.5,8.22,40.28,8,40,8h-7   c-0.28,0-0.5,0.22-0.5,0.5v4.79l-8.15-8.15c-0.2-0.2-0.51-0.2-0.71,0l-20,20c-0.14,0.14-0.19,0.36-0.11,0.54S3.8,26,4,26h5.5v16.5   c0,0.28,0.22,0.5,0.5,0.5h10h8h10c0.28,0,0.5-0.22,0.5-0.5V26z M33.5,9h6v11.29l-6-6V9z M27.5,42h-7v-7h7V42z M38,25   c-0.28,0-0.5,0.22-0.5,0.5V42h-9v-7.5c0-0.28-0.22-0.5-0.5-0.5h-8c-0.28,0-0.5,0.22-0.5,0.5V42h-9V25.5c0-0.28-0.22-0.5-0.5-0.5   H5.21L24,6.21l8.65,8.65c0,0,0,0,0,0l7,7c0,0,0,0,0,0L42.79,25H38z"></path></g></svg> -->

<svg height='100px' width='100px'  fill="#000000" xmlns="http://www.w3.org/2000/svg" xmlns:xlink="http://www.w3.org/1999/xlink" version="1.1" x="0px" y="0px" viewBox="0 0 100 100" enable-background="new 0 0 100 100" xml:space="preserve"><path fill="#000000" d="M11.779,53.191v40.218c0,0.734,0.294,1.458,0.814,1.976s1.24,0.813,1.978,0.813h22.483V66.667  c0-0.737,0.292-1.461,0.814-1.978c0.518-0.521,1.24-0.819,1.971-0.819h19.203c0.737,0,1.451,0.299,1.974,0.819  c0.521,0.517,0.814,1.24,0.814,1.978v29.531h22.487c0.741,0,1.446-0.285,1.973-0.813c0.521-0.527,0.814-1.231,0.814-1.976V53.139  L49.035,23.54L11.779,53.191z"></path><path fill="#000000" d="M95.549,40.734L52.845,7.886c-2.002-1.542-4.806-1.542-6.811,0L23.159,25.482v-8.885H11.989v17.474  l-8.653,6.66c-2.442,1.881-2.901,5.388-1.02,7.829c1.096,1.429,2.754,2.179,4.425,2.179c0.612,0,1.226-0.103,1.819-0.306  l39.162-31.16c0.754-0.602,1.814-0.608,2.57-0.02l40.119,31.191c2.188,0.711,4.674,0.046,6.159-1.884  C98.452,46.119,97.992,42.613,95.549,40.734z"></path></svg>
