<svg width="20" height="20" viewBox="0 0 20 20" fill="none" xmlns="http://www.w3.org/2000/svg">
<path fill-rule="evenodd" clip-rule="evenodd" d="M10.5949 1.24654C10.4346 1.08615 10.2266 1 10.0001 1C9.77351 1 9.56546 1.08613 9.40503 1.24654L1.25327 9.39732L1.25112 9.39952L1.24384 9.40689C0.918075 9.7345 0.918871 10.2682 1.24532 10.5946C1.39524 10.7446 1.5905 10.8305 1.80302 10.8396L1.83018 10.8408L1.83697 10.8414H3.14212V17.8453C3.14212 18.4809 3.66095 19 4.29733 19H7.07549V14.707C7.07549 13.6125 7.96433 12.7239 9.05871 12.7239H10.9415C12.0359 12.7239 12.9248 13.6125 12.9248 14.707V19H15.7029C16.3393 19 16.8581 18.4809 16.8581 17.8453V10.8414H18.1597C18.386 10.8414 18.5941 10.7554 18.7547 10.5949C19.0815 10.2678 19.0818 9.73335 18.7553 9.40581C18.7552 9.40568 18.7554 9.40593 18.7553 9.40581L10.5949 1.24654ZM19.4628 8.69904L11.3021 0.539551C10.9544 0.19165 10.492 0 10.0001 0C9.50828 0 9.04589 0.191498 8.69796 0.539398L0.542984 8.69339L0.534743 8.70178C-0.179441 9.42001 -0.17822 10.5853 0.538253 11.3017C0.865587 11.6292 1.29791 11.8188 1.76015 11.8387C1.77892 11.8405 1.79784 11.8414 1.81692 11.8414H2.14212V17.8453C2.14212 19.0334 3.10886 20 4.29733 20H7.48949C7.81301 20 8.07549 19.7377 8.07549 19.4141V14.707C8.07549 14.1649 8.51651 13.7239 9.05871 13.7239H10.9415C11.4837 13.7239 11.9248 14.1649 11.9248 14.707V19.4141C11.9248 19.7377 12.1871 20 12.5108 20H15.7029C16.8914 20 17.8581 19.0334 17.8581 17.8453V11.8414H18.1597C18.6514 11.8414 19.1138 11.6499 19.4618 11.302C20.1791 10.5844 20.1794 9.41711 19.4628 8.69904Z" fill="#2B2B2B"/>
</svg>
