<svg width="20" height="20" viewBox="0 0 20 20" fill="none" xmlns="http://www.w3.org/2000/svg">
<path d="M10.9486 0.893129L10.9485 0.893045C10.6945 0.638902 10.3593 0.5 10.0001 0.5C9.6409 0.5 9.30567 0.638815 9.05149 0.892969L8.69796 0.539398L9.05149 0.892973L0.897206 9.04628L10.9486 0.893129ZM10.9486 0.893129L19.1078 9.05122L19.1079 9.05124M10.9486 0.893129L19.1079 9.05124M19.1084 10.9484C19.1083 10.9484 19.1083 10.9485 19.1082 10.9486C18.8538 11.2027 18.5186 11.3414 18.1597 11.3414H17.8581H17.3581V11.8414V17.8453C17.3581 18.7571 16.6153 19.5 15.7029 19.5H12.5108C12.4632 19.5 12.4248 19.4615 12.4248 19.4141V14.707C12.4248 13.8887 11.7598 13.2239 10.9415 13.2239H9.05871C8.24042 13.2239 7.57549 13.8887 7.57549 14.707V19.4141C7.57549 19.4614 7.537 19.5 7.48949 19.5H4.29733C3.38491 19.5 2.64212 18.7571 2.64212 17.8453V11.8414V11.3414H2.14212H1.81692C1.81387 11.3414 1.81115 11.3413 1.80869 11.341L1.79517 11.3397L1.78159 11.3391C1.44421 11.3247 1.1305 11.187 0.891871 10.9482L0.891788 10.9482C0.370325 10.4267 0.369317 9.57726 0.889294 9.05434L0.896516 9.04696L19.4618 11.302L19.1084 10.9484ZM19.1084 10.9484C19.6302 10.426 19.6306 9.57538 19.1092 9.05259L19.1084 10.9484ZM19.1079 9.05124L19.1088 9.05223L19.1079 9.05124Z" stroke="#2B2B2B"/>
</svg>
