<svg width="20" height="20" viewBox="0 0 20 20" fill="none" xmlns="http://www.w3.org/2000/svg">
<path d="M10.9486 0.893129L10.9485 0.893045C10.6945 0.638902 10.3593 0.5 10.0001 0.5C9.6409 0.5 9.30567 0.638815 9.05149 0.892969L8.69796 0.539398L9.05149 0.892973L0.897206 9.04628L10.9486 0.893129ZM10.9486 0.893129L19.1078 9.05122L19.4449 8.71418L19.1079 9.05124L19.1079 9.05125L19.1079 9.05126L19.1079 9.05128L19.1079 9.05129L19.1079 9.0513L19.1079 9.05131L19.1079 9.05133L19.108 9.05134L19.108 9.05135L19.108 9.05136L19.108 9.05137L19.108 9.05138L19.108 9.0514L19.108 9.05141L19.108 9.05142L19.1081 9.05144L19.1081 9.05145L19.1081 9.05146L19.1081 9.05147L19.1081 9.05148L19.1081 9.0515L19.1081 9.05151L19.1081 9.05152L19.1082 9.05153L19.1082 9.05155L19.1082 9.05156L19.1082 9.05157L19.1082 9.05158L19.1082 9.0516L19.1082 9.05161L19.1082 9.05162L19.1082 9.05163L19.1083 9.05164L19.1083 9.05166L19.1083 9.05167L19.1083 9.05168L19.1083 9.05169L19.1083 9.05171L19.1083 9.05172L19.1083 9.05173L19.1084 9.05174L19.1084 9.05175L19.1084 9.05177L19.1084 9.05178L19.1084 9.05179L19.1084 9.0518L19.1084 9.05181L19.1084 9.05183L19.1085 9.05184L19.1085 9.05185L19.1085 9.05186L19.1085 9.05188L19.1085 9.05189L19.1085 9.0519L19.1085 9.05191L19.1085 9.05193L19.1086 9.05194L19.1086 9.05195L19.1086 9.05196L19.1086 9.05198L19.1086 9.05199L19.1086 9.052L19.1086 9.05201L19.1086 9.05203L19.1087 9.05204L19.1087 9.05205L19.1087 9.05206L19.1087 9.05207L19.1087 9.05208L19.1087 9.0521L19.1087 9.05211L19.1087 9.05212L19.1088 9.05214L19.1088 9.05215L19.1088 9.05216L19.1088 9.05217L19.1088 9.05218L19.1088 9.0522L19.1088 9.05221L19.1088 9.05222M10.9486 0.893129L19.1092 9.05259M19.1084 10.9484C19.1083 10.9484 19.1083 10.9485 19.1082 10.9486C18.8538 11.2027 18.5186 11.3414 18.1597 11.3414H17.8581H17.3581V11.8414V17.8453C17.3581 18.7571 16.6153 19.5 15.7029 19.5H12.5108C12.4632 19.5 12.4248 19.4615 12.4248 19.4141V14.707C12.4248 13.8887 11.7598 13.2239 10.9415 13.2239H9.05871C8.24042 13.2239 7.57549 13.8887 7.57549 14.707V19.4141C7.57549 19.4614 7.537 19.5 7.48949 19.5H4.29733C3.38491 19.5 2.64212 18.7571 2.64212 17.8453V11.8414V11.3414H2.14212H1.81692C1.81387 11.3414 1.81115 11.3413 1.80869 11.341L1.79517 11.3397L1.78159 11.3391C1.44421 11.3247 1.1305 11.187 0.891871 10.9482L0.891788 10.9482C0.370325 10.4267 0.369317 9.57726 0.889294 9.05434L0.896516 9.04696L19.4614 8.69766L19.4628 8.69904C20.1794 9.41711 20.1791 10.5844 19.4618 11.302L19.1084 10.9484ZM19.1084 10.9484C19.6302 10.426 19.6306 9.57539 19.1092 9.05259M19.1084 10.9484L19.1092 9.05259M19.1092 9.05259L19.4616 8.70022L19.1088 9.05222M19.1092 9.05259C19.1092 9.05258 19.1092 9.05257 19.1092 9.05256M19.1092 9.05259L19.1092 9.05258L19.1092 9.05256M19.1088 9.05222C19.1089 9.05224 19.1089 9.05226 19.1089 9.05228M19.1088 9.05222L19.1088 9.05223L19.1089 9.05224L19.1089 9.05226L19.1089 9.05227L19.1089 9.05228M19.1089 9.05228C19.1089 9.05229 19.1089 9.0523 19.1089 9.05231M19.1089 9.05228L19.1089 9.05229L19.1089 9.05231M19.1089 9.05231L19.1089 9.05232L19.1089 9.05233L19.109 9.05234L19.109 9.05236L19.109 9.05237M19.1089 9.05231L19.109 9.05237M19.109 9.05237C19.109 9.05238 19.109 9.05239 19.109 9.05239M19.109 9.05237L19.109 9.05239M19.109 9.05239L19.109 9.0524L19.109 9.05241L19.109 9.05243L19.1091 9.05244L19.1091 9.05245M19.109 9.05239L19.1092 9.05254M19.109 9.05239C19.109 9.05241 19.1091 9.05243 19.1091 9.05245M19.109 9.05239L19.1091 9.05245M19.1091 9.05245C19.1091 9.05246 19.1091 9.05247 19.1091 9.05248C19.1091 9.0525 19.1091 9.05252 19.1092 9.05254M19.1092 9.05254C19.1092 9.05255 19.1092 9.05256 19.1092 9.05256M19.1092 9.05254L19.1092 9.05256" stroke="black"/>
</svg>
