<svg height='100px' width='100px'  fill="#dc3545" xmlns="http://www.w3.org/2000/svg" xmlns:xlink="http://www.w3.org/1999/xlink" version="1.1" x="0px" y="0px" viewBox="0 0 48 48" style="enable-background:new 0 0 48 48;" xml:space="preserve"><g><path d="M38.5,26H44c0.2,0,0.38-0.12,0.46-0.31s0.03-0.4-0.11-0.54l-3.85-3.85V8.5C40.5,8.22,40.28,8,40,8h-7   c-0.28,0-0.5,0.22-0.5,0.5v4.79l-8.15-8.15c-0.2-0.2-0.51-0.2-0.71,0l-20,20c-0.14,0.14-0.19,0.36-0.11,0.54S3.8,26,4,26h5.5v16.5   c0,0.28,0.22,0.5,0.5,0.5h10h8h10c0.28,0,0.5-0.22,0.5-0.5V26z M33.5,9h6v11.29l-6-6V9z M27.5,42h-7v-7h7V42z M38,25   c-0.28,0-0.5,0.22-0.5,0.5V42h-9v-7.5c0-0.28-0.22-0.5-0.5-0.5h-8c-0.28,0-0.5,0.22-0.5,0.5V42h-9V25.5c0-0.28-0.22-0.5-0.5-0.5   H5.21L24,6.21l8.65,8.65c0,0,0,0,0,0l7,7c0,0,0,0,0,0L42.79,25H38z"></path></g></svg>
