<svg width="5" height="5" viewBox="0 0 5 5" fill="none" xmlns="http://www.w3.org/2000/svg">
<path fill-rule="evenodd" clip-rule="evenodd" d="M2.5 4.54545C3.62967 4.54545 4.54545 3.62967 4.54545 2.5C4.54545 1.37033 3.62967 0.454545 2.5 0.454545C1.37033 0.454545 0.454545 1.37033 0.454545 2.5C0.454545 3.62967 1.37033 4.54545 2.5 4.54545ZM2.5 5C3.88071 5 5 3.88071 5 2.5C5 1.11929 3.88071 0 2.5 0C1.11929 0 0 1.11929 0 2.5C0 3.88071 1.11929 5 2.5 5Z" fill="#F42222"/>
<path d="M2.4335 1.7697C2.34259 1.7697 2.26784 1.74343 2.20925 1.69091C2.15269 1.63636 2.12441 1.5697 2.12441 1.49091C2.12441 1.4101 2.15269 1.34343 2.20925 1.29091C2.26784 1.23636 2.34259 1.20909 2.4335 1.20909C2.52239 1.20909 2.59511 1.23636 2.65168 1.29091C2.71026 1.34343 2.73956 1.4101 2.73956 1.49091C2.73956 1.5697 2.71026 1.63636 2.65168 1.69091C2.59511 1.74343 2.52239 1.7697 2.4335 1.7697ZM2.69107 1.94545V3.63636H2.17289V1.94545H2.69107Z" fill="#F42222"/>
</svg>
