<svg width="207" height="192" viewBox="0 0 207 192" fill="none" xmlns="http://www.w3.org/2000/svg">
<path opacity="0.5" d="M95.363 191.109C43.0148 191.109 0.431091 148.446 0.431091 96C0.431091 43.5543 43.0148 0.891296 95.363 0.891296C147.711 0.891296 190.295 43.5543 190.295 96C190.295 148.446 147.711 191.109 95.363 191.109ZM95.363 13.163C49.7957 13.163 12.68 50.3261 12.68 96C12.68 141.674 49.774 178.837 95.363 178.837C140.952 178.837 178.046 141.652 178.046 96C178.046 50.3478 140.957 13.163 95.363 13.163Z" fill="#F4EFFD"/>
<path d="M206.07 60.9239C206.07 66.7488 204.346 72.4428 201.116 77.286C197.885 82.1292 193.294 85.9041 187.923 88.1331C182.551 90.3622 176.641 90.9455 170.939 89.8091C165.236 88.6727 159.998 85.8678 155.887 81.749C151.776 77.6302 148.976 72.3825 147.842 66.6695C146.708 60.9566 147.29 55.035 149.515 49.6535C151.74 44.272 155.508 39.6723 160.342 36.4362C165.176 33.2001 170.859 31.4728 176.673 31.4728C184.47 31.4728 191.947 34.5757 197.46 40.0989C202.973 45.622 206.07 53.113 206.07 60.9239Z" fill="#6930DB"/>
</svg>
