<svg width="32" height="27" viewBox="0 0 32 27" fill="none" xmlns="http://www.w3.org/2000/svg">
<path d="M7.34294 23.7795H7.33911H7.34294Z" fill="white"/>
<path d="M7.34294 23.7795H7.33911" stroke="#FDEE24" stroke-miterlimit="10"/>
<path d="M31.6925 17.1279C30.9819 21.6857 29.3862 29.9496 16.2389 25.9283C16.6024 25.9717 16.5519 25.9135 17.3339 25.6999C21.3815 24.5966 24.3627 20.8252 24.3627 16.3427C24.3627 13.0435 23.4913 10.2347 24.2655 9.39178C25.048 9.18091 32.7897 10.0881 31.6925 17.1279Z" fill="white"/>
<path d="M26.6701 14.9369C26.6701 18.3854 25.6817 20.4128 23.6499 22.6291C21.7197 24.7334 19.0965 26.0271 16.2059 26.0271C15.1211 26.0275 14.0441 25.8435 13.021 25.4829C13.0174 25.4822 13.0139 25.4811 13.0105 25.4796C14.9874 25.3424 16.1993 23.0426 14.8347 23.6126C5.50338 26.026 -0.248211 15.6727 0.00823319 8.69218C0.00823319 6.39737 0.709472 1.86704 0.709472 1.86704C1.79455 2.27175 2.92411 1.34757 4.06795 0C3.15859 1.49473 0.418434 12.7063 8.90799 13.6239C10.3253 13.6239 11.4521 12.8107 12.6119 11.4988C13.8156 10.1369 16.2586 7.56976 20.1245 7.91956C21.9723 8.20291 23.5105 8.28088 24.5494 9.39122C25.6158 10.5312 26.6701 12.4938 26.6701 14.9369Z" fill="white"/>
<path d="M26.6701 14.9369C26.6701 18.3854 25.6817 20.4128 23.6499 22.6291C21.7197 24.7334 19.0965 26.0271 16.2059 26.0271C15.1211 26.0275 14.0441 25.8435 13.021 25.4829C13.0174 25.4822 13.0139 25.4811 13.0105 25.4797C14.9001 25.4835 16.2394 23.025 14.8347 23.6126C9.17869 22.4896 9.32915 17.6112 9.12378 13.6184C10.8102 13.451 11.73 12.4499 12.6113 11.4999C13.815 10.1381 15.8984 7.82073 19.5995 7.92012C21.4512 7.92012 23.4841 8.25619 24.5488 9.39234C25.6136 10.5285 26.6701 12.4938 26.6701 14.9369Z" fill="white"/>
</svg>
