<svg height='100px' width='100px'  fill="#000000" xmlns="http://www.w3.org/2000/svg" xmlns:xlink="http://www.w3.org/1999/xlink" viewBox="0 0 100 100" version="1.1" x="0px" y="0px"><title>Upload s25.2</title><desc>Created with Sketch.</desc><g stroke="none" stroke-width="1" fill="none" fill-rule="evenodd"><g fill="#000000"><path d="M58.3332461,74.5771942 C57.81253,74.761241 57.2412068,74.4883165 57.0571601,73.9676004 C56.8731134,73.4468843 57.1460378,72.8755612 57.6667539,72.6915145 C66.7815288,69.4699038 73,60.8258982 73,51 C73,38.2974508 62.7025492,28 50,28 C37.2974508,28 27,38.2974508 27,51 C27,60.8258982 33.2184712,69.4699038 42.3332461,72.6915145 C42.8539622,72.8755612 43.1268866,73.4468843 42.9428399,73.9676004 C42.7587932,74.4883165 42.18747,74.761241 41.6667539,74.5771942 C31.7588425,71.07525 25,61.6800995 25,51 C25,37.1928813 36.1928813,26 50,26 C63.8071187,26 75,37.1928813 75,51 C75,61.6800995 68.2411575,71.07525 58.3332461,74.5771942 Z M50.6832666,38.6922426 L62.6892767,50.7727554 C63.6312763,51.7156932 62.2187763,53.1296 61.2767767,52.1866622 L51.7053766,42.6020196 C51.3178047,42.2139115 50.9989392,42.338546 50.9989392,42.8861753 L50.9989392,67.0106816 C50.9989392,67.549105 50.5516989,68.0022521 50,68.0022521 C49.4444548,68.0022521 49.0010608,67.5583108 49.0010608,67.0106816 L49.0010608,42.8861753 C49.0010608,42.3477519 48.684778,42.2113252 48.2946234,42.6020196 L38.7232233,52.1866622 C37.7812237,53.1296 36.3687237,51.7156932 37.3107233,50.7727554 L49.2826557,38.6922426 C49.6687424,38.3026543 50.2959489,38.3025214 50.6832666,38.6922426 Z" transform="translate(50.000000, 50.317313) rotate(-270.000000) translate(-50.000000, -50.317313) "></path></g></g></svg>
