<svg width="12" height="16" viewBox="0 0 12 16" fill="none" xmlns="http://www.w3.org/2000/svg">
<path d="M6 11C7.95 11 9.5 9.45 9.5 7.5V3.5C9.5 1.55 7.95 0 6 0C4.05 0 2.5 1.55 2.5 3.5V7.5C2.5 9.45 4.05 11 6 11ZM3.5 3.5C3.5 2.1 4.6 1 6 1C7.4 1 8.5 2.1 8.5 3.5V7.5C8.5 8.9 7.4 10 6 10C4.6 10 3.5 8.9 3.5 7.5V3.5Z" fill="#2B2B2B"/>
<path d="M12 7.5H11C11 10.25 8.75 12.5 6 12.5C3.25 12.5 1 10.25 1 7.5H0C0 10.65 2.4 13.2 5.5 13.45V15H4C3.7 15 3.5 15.2 3.5 15.5C3.5 15.8 3.7 16 4 16H8C8.3 16 8.5 15.8 8.5 15.5C8.5 15.2 8.3 15 8 15H6.5V13.45C9.6 13.2 12 10.65 12 7.5Z" fill="#2B2B2B"/>
</svg>
