<svg height='100px' width='100px'  fill="#000000" xmlns="http://www.w3.org/2000/svg" xmlns:xlink="http://www.w3.org/1999/xlink" version="1.1" x="0px" y="0px" viewBox="0 0 100 100" style="enable-background:new 0 0 100 100;" xml:space="preserve"><path d="M50,65.44c4.17,0,8.09-1.62,11.04-4.57s4.57-6.87,4.57-11.04V28.8c0-4.17-1.62-8.09-4.57-11.04S54.17,13.19,50,13.19  s-8.09,1.62-11.04,4.57s-4.57,6.87-4.57,11.04v21.02c0,4.17,1.62,8.09,4.57,11.04S45.83,65.44,50,65.44z M38.34,28.8  c0-6.43,5.23-11.66,11.66-11.66s11.66,5.23,11.66,11.66v21.02c0,6.43-5.23,11.66-11.66,11.66s-11.66-5.23-11.66-11.66V28.8z"></path><path d="M28.98,48.11c-1.09,0-1.98,0.89-1.98,1.98c0,3.1,0.61,6.12,1.81,8.95c1.16,2.74,2.82,5.2,4.93,7.31  c2.11,2.11,4.57,3.77,7.31,4.93c2.23,0.94,4.57,1.52,6.98,1.72v12.74h-7.91c-1.09,0-1.98,0.89-1.98,1.98c0,1.09,0.89,1.98,1.98,1.98  h19.77c1.09,0,1.98-0.89,1.98-1.98c0-1.09-0.89-1.98-1.98-1.98h-7.91V73c2.41-0.2,4.75-0.78,6.98-1.72c2.74-1.16,5.2-2.82,7.31-4.93  c2.11-2.11,3.77-4.57,4.93-7.31c1.2-2.84,1.81-5.85,1.81-8.95c0-1.09-0.89-1.98-1.98-1.98c-1.09,0-1.98,0.89-1.98,1.98  c0,10.5-8.54,19.04-19.04,19.04s-19.04-8.54-19.04-19.04C30.96,48.99,30.07,48.11,28.98,48.11z"></path><path d="M16.25,10.89c-11.66,11.66-11.66,30.64,0,42.31c0.39,0.39,0.89,0.58,1.4,0.58c0.51,0,1.01-0.19,1.4-0.58  c0.77-0.77,0.77-2.02,0-2.8c-10.12-10.12-10.12-26.59,0-36.72c0.77-0.77,0.77-2.02,0-2.8S17.02,10.12,16.25,10.89z"></path><path d="M21.23,15.88c-2.18,2.18-3.87,4.72-5.02,7.56c-1.11,2.74-1.67,5.64-1.67,8.61c0,2.97,0.56,5.87,1.67,8.61  c1.15,2.84,2.84,5.38,5.02,7.56c0.39,0.39,0.89,0.58,1.4,0.58s1.01-0.19,1.4-0.58c0.77-0.77,0.77-2.02,0-2.8  c-3.57-3.57-5.53-8.31-5.53-13.37s1.96-9.81,5.53-13.37c0.77-0.77,0.77-2.02,0-2.8S22.01,15.1,21.23,15.88z"></path><path d="M29.02,20.86c-0.77-0.77-2.02-0.77-2.8,0c-2.98,2.98-4.63,6.95-4.63,11.18s1.64,8.2,4.63,11.18  c0.39,0.39,0.89,0.58,1.4,0.58s1.01-0.19,1.4-0.58c0.77-0.77,0.77-2.02,0-2.8c-2.24-2.24-3.47-5.21-3.47-8.39  c0-3.17,1.23-6.15,3.47-8.39C29.79,22.88,29.79,21.63,29.02,20.86z"></path><path d="M80.96,10.89c-0.77,0.77-0.77,2.02,0,2.8c10.12,10.12,10.12,26.59,0,36.72c-0.77,0.77-0.77,2.02,0,2.8  c0.39,0.39,0.89,0.58,1.4,0.58s1.01-0.19,1.4-0.58c11.66-11.66,11.66-30.64,0-42.31C82.98,10.12,81.73,10.12,80.96,10.89z"></path><path d="M85.45,32.04c0-2.97-0.56-5.87-1.67-8.61c-1.15-2.84-2.84-5.38-5.02-7.56c-0.77-0.77-2.02-0.77-2.8,0s-0.77,2.02,0,2.8  c3.57,3.57,5.53,8.31,5.53,13.37s-1.96,9.81-5.53,13.37c-0.77,0.77-0.77,2.02,0,2.8c0.39,0.39,0.89,0.58,1.4,0.58  c0.51,0,1.01-0.19,1.4-0.58c2.18-2.18,3.87-4.72,5.02-7.56C84.89,37.91,85.45,35.01,85.45,32.04z"></path><path d="M70.98,43.23c0.39,0.39,0.89,0.58,1.4,0.58s1.01-0.19,1.4-0.58c2.98-2.98,4.63-6.95,4.63-11.18s-1.64-8.2-4.63-11.18  c-0.77-0.77-2.02-0.77-2.8,0c-0.77,0.77-0.77,2.02,0,2.8c2.24,2.24,3.47,5.21,3.47,8.39c0,3.17-1.23,6.15-3.47,8.39  C70.21,41.2,70.21,42.45,70.98,43.23z"></path></svg>
