<svg height='100px' width='100px'  fill="#000000" xmlns="http://www.w3.org/2000/svg" viewBox="0 0 64 64" x="0px" y="0px"><title>microphone, mike, megaphone, speaker, loud, audio, party</title><g><path d="M55,23a14,14,0,1,0-27.4091,4.0051L4.293,50.293a.9995.9995,0,0,0,0,1.414L5.5859,53,2.293,56.293a.9994.9994,0,0,0,0,1.414l4,4a.9995.9995,0,0,0,1.414,0L11,58.4141l1.293,1.2929a.9995.9995,0,0,0,1.414,0L37.0113,36.4133A13.981,13.981,0,0,0,55,23Zm-6.9188,9.6662L31.3336,15.919a11.0974,11.0974,0,0,1,2.5852-2.5852L50.6662,30.0812A11.0523,11.0523,0,0,1,48.0812,32.6662ZM53,23a11.9085,11.9085,0,0,1-1.2617,5.3242L35.6758,12.2617A11.9741,11.9741,0,0,1,53,23ZM7,59.5859,4.4141,57,7,54.4141,9.5859,57ZM34.9639,35.6318,13,57.5859,6.4146,51,28.3765,29.0479A14.3413,14.3413,0,0,0,34.9639,35.6318ZM29,23a11.9085,11.9085,0,0,1,1.2617-5.3242L46.3242,33.7383A11.9085,11.9085,0,0,1,41,35,12.0371,12.0371,0,0,1,29,23Zm-.707,11.293,1.414,1.414-4,4-1.414-1.414Zm-5,5,1.414,1.414-2,2-1.414-1.414ZM42,7H40V2h2ZM28.98,12.3936,25.4438,8.8574l1.4141-1.414L30.3936,10.98ZM25,24H20V22h5ZM40,39h2v5H40Zm13.02-5.3936,3.5361,3.5362-1.414,1.414-3.5362-3.5361ZM62,22v2H57V22ZM55.1426,7.4434l1.414,1.414-3.5361,3.5362L51.6064,10.98Z"></path></g></svg>
