<svg height='100px' width='100px'  fill="#000000" xmlns="http://www.w3.org/2000/svg" xmlns:xlink="http://www.w3.org/1999/xlink" version="1.1" x="0px" y="0px" viewBox="0 0 66 66" enable-background="new 0 0 66 66" xml:space="preserve"><g><path d="M9.96,37.89C8.95,37.89,8,38.28,7.28,39c-0.71,0.71-1.1,1.66-1.1,2.67c0,2.08,1.69,3.78,3.78,3.78h6.33   c-0.28-1.21-0.43-2.48-0.43-3.78s0.15-2.57,0.43-3.78H9.96z"></path><path d="M9.94,26.32c0,0,0.01,0,0.02,0h12.31c2.08-0.01,3.77-1.7,3.77-3.78c0-2.09-1.7-3.79-3.79-3.79H6.78   c-2.09,0-3.78,1.7-3.78,3.79c0,2.08,1.69,3.78,3.78,3.78H9.94z"></path><path d="M22.27,28.32H9.94c-1,0.01-1.94,0.4-2.66,1.11c-0.71,0.71-1.1,1.66-1.1,2.67c0,2.09,1.69,3.79,3.78,3.79h6.9   C17.94,32.89,19.83,30.28,22.27,28.32z"></path><path d="M9.96,16.75h15.47c2.09,0,3.79-1.69,3.79-3.78c0-2.08-1.7-3.78-3.79-3.78H9.96c-2.09,0-3.78,1.7-3.78,3.78   C6.18,15.06,7.87,16.75,9.96,16.75z"></path><path d="M57.73,34.78c0.72-0.71,1.12-1.66,1.12-2.68c0-2.08-1.69-3.77-3.77-3.78H43.73c2.44,1.96,4.33,4.57,5.41,7.57h5.92   C56.08,35.89,57.02,35.5,57.73,34.78z"></path><path d="M56.41,37.89h-6.7c0.28,1.21,0.43,2.48,0.43,3.78s-0.15,2.57-0.43,3.78h6.7c1.01,0,1.96-0.39,2.67-1.11   c0.72-0.71,1.11-1.66,1.11-2.67C60.19,39.58,58.5,37.89,56.41,37.89z"></path><path d="M59.21,18.75H43.74c-2.08,0-3.78,1.7-3.78,3.79c0,2.08,1.69,3.77,3.76,3.78h15.49c2.09,0,3.79-1.7,3.79-3.78   C63,20.45,61.3,18.75,59.21,18.75z"></path><path d="M30.54,37.09c0,1.15,0.82,1.51,2,1.89v-3.61C31.48,35.47,30.54,36.02,30.54,37.09z"></path><path d="M33.87,41.89v3.75c1.13-0.11,2.17-0.67,2.17-1.79C36.04,42.65,35.12,42.27,33.87,41.89z"></path><path d="M33,26.53c-8.35,0-15.14,6.79-15.14,15.14c0,8.35,6.79,15.14,15.14,15.14c8.35,0,15.14-6.79,15.14-15.14   C48.14,33.32,41.35,26.53,33,26.53z M33.87,47.87v1.5h-1.33v-1.52c-1.9-0.19-3.61-0.95-5.12-2.27l1.52-1.81   c1.16,1.01,2.36,1.62,3.6,1.81v-4.04C29.81,40.89,28,40,28,37.34c0-2.53,1.99-4.06,4.54-4.19V32.1h1.33v1.07   c1.53,0.11,2.97,0.63,4.33,1.56l-1.35,1.92c-0.92-0.66-1.91-1.06-2.98-1.21v3.91h0.06c2.68,0.63,4.65,1.56,4.65,4.3   C38.58,46.25,36.52,47.74,33.87,47.87z"></path></g></svg>
