<svg height='100px' width='100px'  fill="#000000" xmlns:dc="http://purl.org/dc/elements/1.1/" xmlns:cc="http://creativecommons.org/ns#" xmlns:rdf="http://www.w3.org/1999/02/22-rdf-syntax-ns#" xmlns:svg="http://www.w3.org/2000/svg" xmlns="http://www.w3.org/2000/svg" xmlns:sodipodi="http://sodipodi.sourceforge.net/DTD/sodipodi-0.dtd" xmlns:inkscape="http://www.inkscape.org/namespaces/inkscape" version="1.1" x="0px" y="0px" viewBox="0 0 100 100"><g transform="translate(0,-952.36218)"><path style="font-size:medium;font-style:normal;font-variant:normal;font-weight:normal;font-stretch:normal;text-indent:0;text-align:start;text-decoration:none;line-height:normal;letter-spacing:normal;word-spacing:normal;text-transform:none;direction:ltr;block-progression:tb;writing-mode:lr-tb;text-anchor:start;baseline-shift:baseline;opacity:1;color:#000000;fill:#000000;fill-opacity:1;stroke:none;stroke-width:2;marker:none;visibility:visible;display:inline;overflow:visible;enable-background:accumulate;font-family:Sans;-inkscape-font-specification:Sans" d="M 24.15625 23 C 21.866227 23 20 24.86623 20 27.15625 L 20 28 L 19.15625 28 C 16.87734 28 15 29.84728 15 32.125 L 15 61.84375 C 15 64.12135 16.877343 66 19.15625 66 L 55.5625 66 C 57.312031 72.337126 63.109819 77 70 77 C 78.272427 77 85 70.2724 85 62 C 85 55.477748 80.821136 49.933641 75 47.875 L 75 27.15625 C 75 24.86623 73.133774 23 70.84375 23 L 24.15625 23 z M 24.15625 25 L 70.84375 25 C 72.060366 25 73 25.93963 73 27.15625 L 73 31 L 22 31 L 22 27.15625 C 22 25.93963 22.939635 25 24.15625 25 z M 19.15625 30 L 20 30 L 20 56.8125 C 20 59.1025 21.866235 61 24.15625 61 L 55.0625 61 C 55.040468 61.33214 55 61.662325 55 62 C 55 62.678307 55.068777 63.345458 55.15625 64 L 19.15625 64 C 17.945707 64 17 63.04925 17 61.84375 L 17 32.125 C 17 30.91944 17.94571 30 19.15625 30 z M 22 33 L 73 33 L 73 39 L 22 39 L 22 33 z M 22 41 L 73 41 L 73 47.3125 C 72.033898 47.116637 71.023506 47 70 47 C 62.751079 47 56.699683 52.157652 55.3125 59 L 24.15625 59 C 22.939627 59 22 58.0291 22 56.8125 L 22 41 z M 26.8125 46 A 1.0043849 1.0043849 0 0 0 27 48 L 47 48 A 1.0001 1.0001 0 1 0 47 46 L 27 46 A 1.0001 1.0001 0 0 0 26.8125 46 z M 70 49 C 77.191547 49 83 54.8084 83 62 C 83 69.1915 77.191547 75 70 75 C 62.808453 75 57 69.1915 57 62 C 57 54.8084 62.808453 49 70 49 z M 26.8125 52 A 1.0043849 1.0043849 0 0 0 27 54 L 37 54 A 1.0001 1.0001 0 1 0 37 52 L 27 52 A 1.0001 1.0001 0 0 0 26.8125 52 z M 69.875 52.96875 A 1.0001 1.0001 0 0 0 69 54 L 69 55.0625 C 68.158093 55.122364 67.237141 55.249864 66.375 55.625 C 65.154651 56.1556 64 57.3435 64 59 C 64 59.9269 64.552894 60.66305 65.15625 61.15625 C 65.759606 61.64955 66.472157 61.9884 67.15625 62.25 C 67.840342 62.5116 68.499148 62.6982 69 62.8125 L 69 66.90625 C 67.27075 66.589439 65.5 65.625 65.5 65.625 A 1.0001 1.0001 0 1 0 64.5 67.34375 C 64.5 67.34375 66.589747 68.627406 69 68.9375 L 69 70 A 1.0001 1.0001 0 1 0 71 70 L 71 68.96875 C 71.84197 68.899641 72.762785 68.718567 73.625 68.34375 C 74.845344 67.81315 76 66.6565 76 65 C 76 64.073 75.447111 63.3058 74.84375 62.8125 C 74.240389 62.3192 73.527848 62.0116 72.84375 61.75 C 72.159652 61.48835 71.50085 61.309588 71 61.1875 L 71 57.125 C 72.729246 57.434622 74.5 58.34375 74.5 58.34375 A 1.0001 1.0001 0 1 0 75.5 56.625 C 75.5 56.625 73.410189 55.398033 71 55.09375 L 71 54 A 1.0001 1.0001 0 0 0 69.875 52.96875 z M 69 57.0625 L 69 60.75 C 68.641339 60.654901 68.244865 60.52842 67.84375 60.375 C 67.277843 60.1586 66.740394 59.86685 66.40625 59.59375 C 66.072106 59.32055 66 59.1609 66 59 C 66 58.1594 66.362512 57.81385 67.15625 57.46875 C 67.677268 57.242157 68.343248 57.125847 69 57.0625 z M 71 63.25 C 71.357582 63.344938 71.75679 63.440962 72.15625 63.59375 C 72.722152 63.81015 73.259611 64.1018 73.59375 64.375 C 73.927889 64.6482 74 64.8391 74 65 C 74 65.8405 73.637493 66.1549 72.84375 66.5 C 72.323027 66.726398 71.656402 66.864853 71 66.9375 L 71 63.25 z " transform="translate(0,952.36218)"></path></g></svg>
