<svg height='100px' width='100px'  fill="#000000" xmlns="http://www.w3.org/2000/svg" data-name="Layer 1" viewBox="0 0 512 512" x="0px" y="0px"><title>Password2</title><g data-name="Group"><path data-name="Compound Path" d="M48.7,451H463.3c3.866,0,6.7-3.536,6.7-7.4V331.781A6.568,6.568,0,0,0,463.3,325H389V212.742A38.656,38.656,0,0,0,350.518,174H338V144.531C338,98.693,301.376,61.4,256,61.4s-82,37.291-82,83.129V174H161.482A38.656,38.656,0,0,0,123,212.742V325H48.7a6.568,6.568,0,0,0-6.7,6.781V443.6C42,447.464,44.837,451,48.7,451ZM188,144.531c0-38.118,30.344-69.129,68-69.129s68,31.011,68,69.129V174H188Zm-51,68.211A24.639,24.639,0,0,1,161.482,188H350.518A24.639,24.639,0,0,1,375,212.742V325H137ZM56,339H456v98H56Z"></path><path data-name="Compound Path" d="M256,362.134a25.556,25.556,0,1,0,25.555,25.555A25.584,25.584,0,0,0,256,362.134Zm0,37.111a11.556,11.556,0,1,1,11.555-11.556A11.568,11.568,0,0,1,256,399.245Z"></path><path data-name="Compound Path" d="M183.392,362.134a25.556,25.556,0,1,0,25.555,25.555A25.584,25.584,0,0,0,183.392,362.134Zm0,37.111a11.556,11.556,0,1,1,11.555-11.556A11.569,11.569,0,0,1,183.392,399.245Z"></path><path data-name="Compound Path" d="M110.783,362.134a25.556,25.556,0,1,0,25.555,25.555A25.584,25.584,0,0,0,110.783,362.134Zm0,37.111a11.556,11.556,0,1,1,11.555-11.556A11.568,11.568,0,0,1,110.783,399.245Z"></path><path data-name="Compound Path" d="M401.217,362.134a25.556,25.556,0,1,0,25.555,25.555A25.584,25.584,0,0,0,401.217,362.134Zm0,37.111a11.556,11.556,0,1,1,11.555-11.556A11.568,11.568,0,0,1,401.217,399.245Z"></path><path data-name="Compound Path" d="M328.608,362.134a25.556,25.556,0,1,0,25.556,25.555A25.584,25.584,0,0,0,328.608,362.134Zm0,37.111a11.556,11.556,0,1,1,11.556-11.556A11.569,11.569,0,0,1,328.608,399.245Z"></path></g></svg>
