<svg width="16" height="14" viewBox="0 0 16 14" fill="none" xmlns="http://www.w3.org/2000/svg">
<path d="M4.62134 7.38916C4.62134 7.38916 5.25054 7.77374 5.69475 7.86501C6.13896 7.95629 6.68053 7.94412 7.47646 8.76804C7.76976 9.07108 8.02777 9.67107 8.15555 10.0009C8.16651 10.0301 8.21154 10.0203 8.2091 9.98871C8.16772 9.48243 7.92554 8.03174 6.50284 7.59849" fill="#D10000"/>
<path d="M12.235 3.13597C11.8869 3.00453 9.88981 2.53476 9.53079 2.46904C8.57178 2.29501 8.08254 2.77208 8.08254 3.58383C8.08375 4.75095 8.0728 6.04342 8.16164 6.47789C8.32472 7.27504 9.32268 7.91641 9.96404 7.01825M12.6476 4.31286C12.6476 4.31286 11.8383 4.31286 10.9389 4.36884C10.261 4.41022 9.7499 4.87512 9.7925 5.62359C9.83631 6.40248 9.97383 7.29577 10.16 8.00285C10.3207 8.6138 11.6935 8.78905 12.5064 8.1708M7.0043 5.8366C7.6481 7.22886 6.57469 7.60005 5.83961 7.60005C5.09601 7.60005 3.79867 6.52421 2.3918 6.52421C1.79668 6.52421 1.06647 6.7238 1.16262 7.61587C1.21373 8.09295 2.22872 8.38868 2.22872 8.38868C4.866 9.27954 4.61408 10.3043 5.60716 11.4677C7.32072 13.4758 10.0395 13.6097 11.7969 12.9817C12.7997 12.6239 13.934 11.6126 14.4889 10.5112C15.2654 8.97163 15.0999 6.76518 14.377 5.2074C13.6638 3.67031 11.0655 2.38027 9.07809 1.24966C7.87811 0.566916 7.04933 1.45169 6.93371 1.99569C6.69152 3.12874 6.59659 3.67396 6.48585 4.72059C6.36658 5.83295 7.46554 6.17736 8.03876 5.93761M6.78161 2.23415C6.78161 2.23415 6.7524 2.26214 6.41772 2.05403C5.96377 1.77047 5.08387 1.57453 4.4924 2.15261C3.6198 2.88404 2.99304 3.23454 1.88677 3.70552C1.24905 3.97692 0.68801 4.53796 1.19916 5.21219C2.13261 6.44137 5.365 4.31281 5.365 4.31281C5.365 4.31281 6.08304 4.83491 6.54186 5.28643" stroke="#D10000" stroke-width="0.365105" stroke-miterlimit="10" stroke-linecap="round" stroke-linejoin="round"/>
</svg>
