<svg width="13" height="15" viewBox="0 0 13 15" fill="none" xmlns="http://www.w3.org/2000/svg">
<path d="M8.42861 6.30919L8.04396 5.6987M8.04396 5.6987C7.38937 4.63053 5.60563 2.01867 5.56533 1.9674C5.26826 1.58763 4.88594 1.38933 4.49587 1.67836C4.10528 1.96488 4.38918 2.33434 4.61522 2.85687L6.40282 6.49919L7.1189 7.93154L5.39718 7.04308C5.33835 6.97883 5.21462 6.96179 5.13885 6.91741C5.03441 6.84258 4.87437 6.76602 4.74515 6.75505C4.58929 6.72127 4.4272 6.72602 4.27371 6.76887L1.78733 7.53544C1.68856 7.56614 1.59319 7.60639 1.50266 7.65558C1.14204 7.90314 1.02554 7.9798 1.07539 8.45306C1.1096 8.55541 1.16565 8.64958 1.23987 8.72939C1.31409 8.8092 1.4048 8.87285 1.50606 8.91618C1.60732 8.95951 1.71685 8.98153 1.82747 8.98081C1.93809 8.98009 2.0473 8.95664 2.14796 8.912L4.39926 8.41536C4.39926 8.41536 6.17215 8.92808 6.30182 9.55315C6.43149 10.1782 6.17215 10.5618 5.78466 10.8131C5.39718 11.0644 5.26801 11.0644 5.10138 11.0368C4.93475 11.0091 4.1689 10.9277 3.71807 10.6874C2.66023 10.1237 1.54249 9.53678 1.13482 9.93342C0.941074 10.1219 0.981544 10.4361 1.09735 10.6854C1.39013 11.3158 2.29728 11.8184 3.1469 12.4284L4.5806 13.295C4.5806 13.295 6.2344 13.951 7.22249 13.9457C8.86647 14.2061 11.2634 13.5285 11.7261 11.9441C11.8362 11.5671 11.9669 10.3104 11.9669 10.3104C11.9212 10.0536 12.0578 9.127 11.9697 8.88083L11.9669 8.87957C11.9732 8.83486 11.9757 8.78972 11.9744 8.74461C11.9744 8.74461 11.7334 4.64309 11.6734 3.65787C11.6664 3.46763 11.6173 3.28109 11.5295 3.11097C11.4763 2.98676 11.3828 2.88283 11.2634 2.8149C11.144 2.74696 11.0051 2.71873 10.8677 2.73447C10.4461 2.78147 10.3102 3.20597 10.2795 3.68526L10.1333 5.7188C9.77577 4.33194 8.8892 1.59668 8.86647 1.54038C8.84466 1.44894 8.80412 1.36272 8.74728 1.28687C8.69044 1.21102 8.61846 1.1471 8.53565 1.09893C8.45284 1.05076 8.3609 1.01934 8.26532 1.00653C8.16974 0.993722 8.07249 0.999798 7.97938 1.02439C7.51853 1.19354 7.45756 1.70048 7.52989 2.14534L7.78228 3.82601L8.04396 5.6987Z" stroke="#F42222" stroke-width="0.5" stroke-linecap="round" stroke-linejoin="round"/>
</svg>
