<svg height='100px' width='100px'  fill="#000000" xmlns="http://www.w3.org/2000/svg" data-name="Layer 1" viewBox="0 0 128 128" x="0px" y="0px"><title>Artboard 13</title><path d="M24,76A40,40,0,1,0,88,44V35a24,24,0,0,0-48,0v9A40,40,0,0,0,24,76ZM42,35a22,22,0,0,1,44,0v7.62a39.87,39.87,0,0,0-44,0Zm22,3A38,38,0,1,1,26,76,38,38,0,0,1,64,38Z"></path><path d="M52,76A12,12,0,1,0,64,64,12,12,0,0,0,52,76Zm22,0A10,10,0,1,1,64,66,10,10,0,0,1,74,76Z"></path><path d="M57,76a7,7,0,1,0,7-7A7,7,0,0,0,57,76Zm12,0a5,5,0,1,1-5-5A5,5,0,0,1,69,76Z"></path><path d="M64,110A34,34,0,1,0,30,76,34,34,0,0,0,64,110Zm8.42-54.33a.84.84,0,0,0,.38.08,1,1,0,0,0,.93-.62l1.14-2.75a26.14,26.14,0,0,1,6.79,4.55L79.56,59a1,1,0,0,0,0,1.41,1,1,0,0,0,1.41,0l2.1-2.1a26.23,26.23,0,0,1,4.55,6.79l-2.75,1.14a1,1,0,0,0-.54,1.31,1,1,0,0,0,.92.62,1,1,0,0,0,.38-.08L88.39,67A26.09,26.09,0,0,1,90,75H87a1,1,0,0,0,0,2h3a25.75,25.75,0,0,1-1.58,8l-2.76-1.14a1,1,0,0,0-.76,1.85l2.74,1.13a25.86,25.86,0,0,1-4.54,6.79L81,91.56A1,1,0,0,0,79.56,93l2.09,2.1a25.86,25.86,0,0,1-6.79,4.54l-1.13-2.74a1,1,0,0,0-1.85.76L73,100.39A25.75,25.75,0,0,1,65,102V99a1,1,0,0,0-2,0v3a25.75,25.75,0,0,1-8-1.58l1.14-2.76a1,1,0,0,0-1.85-.76l-1.13,2.74a25.86,25.86,0,0,1-6.79-4.54L48.44,93A1,1,0,0,0,47,91.56l-2.1,2.09a25.86,25.86,0,0,1-4.54-6.79l2.74-1.13a1,1,0,0,0-.76-1.85L39.61,85A25.75,25.75,0,0,1,38,77h3a1,1,0,0,0,0-2H38a26.09,26.09,0,0,1,1.57-8l2.76,1.14a1,1,0,0,0,.38.08,1,1,0,0,0,.92-.62,1,1,0,0,0-.54-1.31l-2.75-1.14a26,26,0,0,1,4.55-6.79l2.1,2.1a1,1,0,0,0,1.41,0,1,1,0,0,0,0-1.41l-2.1-2.1a26.14,26.14,0,0,1,6.79-4.55l1.14,2.75a1,1,0,0,0,.93.62.84.84,0,0,0,.38-.08,1,1,0,0,0,.54-1.3L55,51.61a24.82,24.82,0,0,1,3.69-1l4.44,8.88a1,1,0,0,0,1.78,0l4.44-8.88a25.17,25.17,0,0,1,3.69,1l-1.14,2.76A1,1,0,0,0,72.42,55.67ZM64,56.76,58.84,46.45a29.81,29.81,0,0,1,10.32,0Zm5.13-12.34a32.11,32.11,0,0,0-10.26,0,31.54,31.54,0,0,1,10.26,0Zm1.64.31c-.51-.11-1-.21-1.54-.3C69.75,44.52,70.26,44.62,70.77,44.73Zm-12-.3c-.51.09-1,.19-1.54.3C57.74,44.62,58.25,44.52,58.77,44.43Zm-1.64.32a1,1,0,0,0-.66,1.42l1.28,2.56a28,28,0,0,0-4.41,1.39h-.06l-.05,0a28,28,0,0,0-15,15s0,.05,0,.07,0,.06,0,.09a27.86,27.86,0,0,0,0,21.32v0h0a28.15,28.15,0,0,0,6,9s0,0,0,.06l.06,0a28.15,28.15,0,0,0,9,6,0,0,0,0,1,0,0h0a27.89,27.89,0,0,0,21.38,0h0a0,0,0,0,1,0,0,28.15,28.15,0,0,0,9-6l.06,0s0,0,0-.06a28.15,28.15,0,0,0,6-9h0v0a27.86,27.86,0,0,0,0-21.32s0-.06,0-.09,0,0-.05-.07a28,28,0,0,0-15-15l0,0h-.06a28,28,0,0,0-4.41-1.39l1.28-2.56a1,1,0,0,0-.66-1.42,32,32,0,1,1-13.74,0Z"></path><circle cx="64" cy="76" r="2"></circle></svg>
