<svg width="21" height="20" viewBox="0 0 21 20" fill="none" xmlns="http://www.w3.org/2000/svg">
<path d="M17.6672 13.0851C16.0056 11.3979 13.8027 10.4688 11.4645 10.4688H8.76695C6.42874 10.4688 4.22585 11.3979 2.56417 13.0851C0.910639 14.7641 0 16.9803 0 19.3256C0 19.6981 0.301943 20 0.674381 20H19.557C19.9295 20 20.2314 19.6981 20.2314 19.3256C20.2314 16.9803 19.3208 14.7641 17.6672 13.0851Z" fill="#6930DB"/>
<path d="M9.84375 0C7.15137 0 4.96094 2.19043 4.96094 4.88281C4.96094 7.57519 7.15137 9.76562 9.84375 9.76562C12.5361 9.76562 14.7266 7.57519 14.7266 4.88281C14.7266 2.19043 12.5361 0 9.84375 0Z" fill="#6930DB"/>
</svg>
