<svg width="21" height="20" viewBox="0 0 21 20" fill="none" xmlns="http://www.w3.org/2000/svg">
<path d="M11.4645 10.9688C13.6669 10.9688 15.742 11.8428 17.311 13.436L17.6672 13.0851L17.311 13.436C18.8729 15.0219 19.7314 17.1122 19.7314 19.3256C19.7314 19.4219 19.6533 19.5 19.557 19.5H0.674381C0.578085 19.5 0.5 19.4219 0.5 19.3256C0.5 17.1122 1.35851 15.0219 2.92041 13.436L2.56417 13.0851L2.92041 13.436C4.48946 11.8428 6.56457 10.9688 8.76695 10.9688H11.4645Z" stroke="#FFFFFF"/>
<path d="M5.46094 4.88281C5.46094 2.46657 7.42751 0.5 9.84375 0.5C12.26 0.5 14.2266 2.46657 14.2266 4.88281C14.2266 7.29905 12.26 9.26562 9.84375 9.26562C7.42751 9.26562 5.46094 7.29905 5.46094 4.88281Z" stroke="#FFFFFF"/>
</svg>
