<svg width="16" height="17" viewBox="0 0 16 17" fill="none" xmlns="http://www.w3.org/2000/svg">
<path d="M7.55519 8.5C9.62762 8.5 11.3077 6.82107 11.3077 4.75C11.3077 2.67893 9.62762 1 7.55519 1C5.48277 1 3.80273 2.67893 3.80273 4.75C3.80273 6.82107 5.48277 8.5 7.55519 8.5Z" stroke="black"/>
<path d="M11.3076 16H2.50131C2.28846 16 2.07803 15.9548 1.88399 15.8674C1.68995 15.78 1.51674 15.6523 1.37585 15.4928C1.23497 15.3334 1.12963 15.1458 1.06682 14.9426C1.00402 14.7393 0.985191 14.5251 1.01158 14.314L1.30428 11.971C1.37234 11.4267 1.63706 10.9259 2.04864 10.563C2.46022 10.2 2.99032 9.99979 3.53924 10H3.80266" stroke="black" stroke-linecap="round" stroke-linejoin="round"/>
<path d="M10.5571 11.5L12.2457 13L15.0601 10" stroke="black" stroke-linecap="round" stroke-linejoin="round"/>
</svg>
