<svg width="16" height="17" viewBox="0 0 16 17" fill="none" xmlns="http://www.w3.org/2000/svg">
<path d="M7.82069 8.5C9.89311 8.5 11.5731 6.82107 11.5731 4.75C11.5731 2.67893 9.89311 1 7.82069 1C5.74827 1 4.06824 2.67893 4.06824 4.75C4.06824 6.82107 5.74827 8.5 7.82069 8.5Z" stroke="black"/>
<path d="M11.5732 16H2.76693C2.55408 16 2.34365 15.9549 2.14961 15.8674C1.95557 15.78 1.78236 15.6523 1.64148 15.4928C1.50059 15.3334 1.39525 15.1458 1.33245 14.9426C1.26965 14.7393 1.25082 14.5251 1.27721 14.314L1.5699 11.971C1.63797 11.4267 1.90268 10.9259 2.31426 10.563C2.72584 10.2 3.25593 9.99979 3.80486 10H4.06828" stroke="black" stroke-linecap="round" stroke-linejoin="round"/>
<path d="M14.6855 9.92969L11.4627 13.0703" stroke="black" stroke-linecap="round" stroke-linejoin="round"/>
<path d="M11.5028 9.88745L14.6454 13.1124" stroke="black" stroke-linecap="round" stroke-linejoin="round"/>
</svg>
