<svg width="17" height="17" viewBox="0 0 17 17" fill="none" xmlns="http://www.w3.org/2000/svg">
<path d="M16.816 15.9009L12.252 11.3446C12.0066 11.0996 11.6092 11.0996 11.3638 11.3446C11.1185 11.5894 11.1185 11.9865 11.3638 12.2312L15.9279 16.7876C16.0506 16.91 16.2112 16.9713 16.372 16.9713C16.5328 16.9713 16.6933 16.91 16.816 16.7876C17.0614 16.5428 17.0614 16.1457 16.816 15.9009Z" fill="white"/>
<path d="M7.18105 0C3.2214 0 0 3.21597 0 7.16894C0 11.1219 3.2214 14.3379 7.18105 14.3379C11.1407 14.3379 14.3621 11.1219 14.3621 7.16894C14.3621 3.21597 11.1407 0 7.18105 0ZM7.18105 13.0838C3.91399 13.0838 1.25618 10.4305 1.25618 7.16894C1.25618 3.90739 3.91399 1.25406 7.18105 1.25406C10.4479 1.25406 13.1059 3.90739 13.1059 7.16894C13.1059 10.4305 10.4481 13.0838 7.18105 13.0838Z" fill="white"/>
<path d="M4.69396 3.86222C4.44879 3.61726 4.05101 3.61726 3.80584 3.86222C2.89554 4.77098 2.44813 6.03693 2.57815 7.33571C2.61059 7.65926 2.88362 7.90043 3.20247 7.90043C3.22343 7.90043 3.24454 7.89937 3.26549 7.89729C3.61074 7.86281 3.86259 7.55534 3.82805 7.21091C3.73552 6.28792 4.05125 5.39047 4.69396 4.7488C4.93933 4.50408 4.93933 4.10694 4.69396 3.86222Z" fill="white"/>
</svg>
