<svg width="17" height="17" viewBox="0 0 17 17" fill="none" xmlns="http://www.w3.org/2000/svg">
<path d="M16.8159 15.9009L12.2518 11.3446C12.0065 11.0996 11.6091 11.0996 11.3637 11.3446C11.1183 11.5894 11.1183 11.9865 11.3637 12.2312L15.9278 16.7876C16.0505 16.91 16.211 16.9713 16.3718 16.9713C16.5326 16.9713 16.6932 16.91 16.8159 16.7876C17.0612 16.5428 17.0612 16.1457 16.8159 15.9009Z" fill="#6930DB"/>
<path d="M7.18105 0C3.2214 0 0 3.21597 0 7.16894C0 11.1219 3.2214 14.3379 7.18105 14.3379C11.1407 14.3379 14.3621 11.1219 14.3621 7.16894C14.3621 3.21597 11.1407 0 7.18105 0ZM7.18105 13.0838C3.91399 13.0838 1.25618 10.4305 1.25618 7.16894C1.25618 3.90739 3.91399 1.25406 7.18105 1.25406C10.4479 1.25406 13.1059 3.90739 13.1059 7.16894C13.1059 10.4305 10.4481 13.0838 7.18105 13.0838Z" fill="#6930DB"/>
<path d="M4.69408 3.86218C4.44891 3.61723 4.05114 3.61723 3.80596 3.86218C2.89567 4.77095 2.44825 6.0369 2.57828 7.33568C2.61072 7.65922 2.88375 7.9004 3.2026 7.9004C3.22355 7.9004 3.24466 7.89934 3.26562 7.89725C3.61086 7.86278 3.86271 7.55531 3.82818 7.21088C3.73564 6.28789 4.05137 5.39043 4.69408 4.74877C4.93945 4.50405 4.93945 4.10691 4.69408 3.86218Z" fill="#6930DB"/>
</svg>
