<svg width="16" height="17" viewBox="0 0 16 17" fill="none" xmlns="http://www.w3.org/2000/svg">
<path d="M7.55634 8.5C9.62913 8.5 11.3095 6.82107 11.3095 4.75C11.3095 2.67893 9.62913 1 7.55634 1C5.48355 1 3.80322 2.67893 3.80322 4.75C3.80322 6.82107 5.48355 8.5 7.55634 8.5Z" stroke="black"/>
<path d="M11.3094 16H2.50157C2.28868 16 2.07822 15.9549 1.88415 15.8674C1.69007 15.78 1.51683 15.6523 1.37592 15.4928C1.23501 15.3334 1.12965 15.1458 1.06684 14.9426C1.00402 14.7393 0.985188 14.5251 1.01159 14.314L1.30433 11.971C1.37241 11.4267 1.63717 10.9259 2.04882 10.563C2.46048 10.2 2.99066 9.99979 3.53969 10H3.80315" stroke="black" stroke-linecap="round" stroke-linejoin="round"/>
<path d="M12.8105 9.25V13.75" stroke="black" stroke-linecap="round" stroke-linejoin="round"/>
<path d="M10.5588 11.5H15.0626" stroke="black" stroke-linecap="round" stroke-linejoin="round"/>
</svg>
