<svg height='100px' width='100px'  fill="#000000" xmlns="http://www.w3.org/2000/svg" xmlns:xlink="http://www.w3.org/1999/xlink" version="1.1" x="0px" y="0px" viewBox="0 0 60 60" style="enable-background:new 0 0 60 60;" xml:space="preserve"><path d="M27.95,22.08c-4.37,0-7.92,3.55-7.92,7.92s3.55,7.92,7.92,7.92s7.92-3.55,7.92-7.92S32.32,22.08,27.95,22.08z M27.95,35.92  c-3.26,0-5.92-2.65-5.92-5.92s2.65-5.92,5.92-5.92s5.92,2.65,5.92,5.92S31.22,35.92,27.95,35.92z"></path><path d="M43.84,27.56c0.54-0.12,0.87-0.65,0.76-1.19c-0.43-1.98-1.21-3.85-2.31-5.57c-0.3-0.46-0.91-0.6-1.37-0.31  c-0.53,0.33-1.68,0.1-2.62-0.84c-0.94-0.94-1.17-2.09-0.84-2.62c0.29-0.46,0.15-1.08-0.31-1.37c-1.72-1.11-3.59-1.88-5.57-2.31  c-0.54-0.12-1.07,0.22-1.19,0.76c-0.14,0.61-1.11,1.26-2.44,1.26s-2.31-0.65-2.44-1.26c-0.12-0.54-0.65-0.87-1.19-0.76  c-1.97,0.43-3.85,1.21-5.57,2.31c-0.46,0.3-0.6,0.91-0.31,1.37c0.33,0.52,0.1,1.67-0.84,2.62c-0.94,0.94-2.09,1.17-2.62,0.84  c-0.46-0.29-1.08-0.16-1.37,0.31c-1.11,1.72-1.88,3.59-2.31,5.57c-0.12,0.54,0.22,1.07,0.76,1.19c0.61,0.14,1.26,1.11,1.26,2.44  s-0.65,2.31-1.26,2.44c-0.54,0.12-0.87,0.65-0.76,1.19c0.43,1.98,1.21,3.85,2.31,5.57c0.3,0.46,0.91,0.6,1.37,0.31  c0.52-0.33,1.67-0.1,2.62,0.84c0.94,0.94,1.17,2.09,0.84,2.62c-0.29,0.46-0.15,1.08,0.31,1.37c1.72,1.11,3.59,1.88,5.57,2.31  c0.54,0.12,1.07-0.22,1.19-0.76c0.14-0.61,1.11-1.26,2.44-1.26s2.31,0.65,2.44,1.26c0.1,0.46,0.52,0.78,0.97,0.78  c0.07,0,0.14-0.01,0.21-0.02c1.97-0.43,3.85-1.21,5.57-2.31c0.46-0.3,0.6-0.91,0.31-1.37c-0.33-0.53-0.1-1.68,0.84-2.62  c0.94-0.94,2.09-1.17,2.62-0.84c0.46,0.29,1.08,0.15,1.37-0.31c1.11-1.72,1.88-3.59,2.31-5.57c0.12-0.54-0.22-1.07-0.76-1.19  c-0.61-0.14-1.26-1.11-1.26-2.44S43.23,27.69,43.84,27.56z M42.45,33.99c-0.33,1.2-0.81,2.35-1.43,3.44  c-1.32-0.27-2.92,0.28-4.14,1.5c-1.22,1.22-1.77,2.82-1.5,4.14c-1.09,0.62-2.24,1.1-3.44,1.43c-0.74-1.12-2.26-1.87-3.99-1.87  s-3.25,0.75-3.99,1.87c-1.2-0.33-2.35-0.81-3.44-1.43c0.27-1.32-0.28-2.92-1.5-4.14c-1.22-1.22-2.82-1.77-4.14-1.5  c-0.62-1.09-1.1-2.24-1.43-3.44c1.12-0.74,1.87-2.26,1.87-3.99s-0.75-3.25-1.87-3.99c0.33-1.2,0.81-2.35,1.43-3.44  c1.32,0.27,2.92-0.28,4.14-1.5c1.22-1.22,1.77-2.82,1.5-4.14c1.09-0.62,2.24-1.1,3.44-1.43c0.74,1.12,2.26,1.87,3.99,1.87  s3.25-0.75,3.99-1.87c1.2,0.33,2.35,0.81,3.44,1.43c-0.27,1.32,0.28,2.92,1.5,4.14s2.82,1.77,4.14,1.5c0.62,1.09,1.1,2.24,1.43,3.44  c-1.12,0.74-1.87,2.26-1.87,3.99S41.32,33.25,42.45,33.99z"></path><path d="M29.39,7.04c0.02,0,0.04,0,0.06,0c0.52,0,0.96-0.41,1-0.94c0.03-0.55-0.39-1.03-0.94-1.06C29,5.02,28.48,5,27.95,5  c-0.55,0-1,0.45-1,1s0.45,1,1,1C28.44,7,28.92,7.02,29.39,7.04z"></path><path d="M42.68,12.33c0.19,0.16,0.41,0.23,0.64,0.23c0.29,0,0.57-0.12,0.77-0.36c0.35-0.42,0.3-1.05-0.13-1.41  c-0.86-0.72-1.79-1.39-2.74-1.99c-0.47-0.29-1.08-0.15-1.38,0.32c-0.29,0.47-0.15,1.08,0.32,1.38  C41.04,11.05,41.89,11.67,42.68,12.33z"></path><path d="M49.88,20.18c-0.51,0.2-0.76,0.79-0.56,1.3c0.38,0.96,0.7,1.96,0.95,2.96c0.11,0.46,0.52,0.76,0.97,0.76  c0.08,0,0.16-0.01,0.24-0.03c0.54-0.13,0.86-0.68,0.73-1.21c-0.27-1.09-0.62-2.17-1.04-3.22C50.98,20.23,50.4,19.98,49.88,20.18z"></path><path d="M47.15,13.99c-0.35-0.42-0.98-0.48-1.41-0.13c-0.42,0.35-0.48,0.98-0.13,1.41c0.67,0.8,1.28,1.65,1.83,2.52  c0.19,0.3,0.52,0.47,0.85,0.47c0.18,0,0.37-0.05,0.53-0.15c0.47-0.29,0.61-0.91,0.31-1.38C48.54,15.77,47.87,14.85,47.15,13.99z"></path><path d="M36.46,8.63c0.12,0.05,0.25,0.07,0.37,0.07c0.4,0,0.77-0.24,0.93-0.63c0.2-0.51-0.05-1.09-0.56-1.3  C36.16,6.35,35.07,6,33.98,5.73c-0.54-0.14-1.08,0.19-1.21,0.73C32.63,7,32.96,7.54,33.5,7.67C34.5,7.92,35.5,8.24,36.46,8.63z"></path><path d="M8.05,50.14c0.55,0,1-0.45,1-1v-2.79C13.77,51.81,20.64,55,27.95,55c13.79,0,25-11.21,25-25c0-0.52-0.02-1.04-0.05-1.56  c-0.03-0.55-0.5-0.97-1.06-0.94c-0.55,0.03-0.97,0.51-0.94,1.06c0.03,0.48,0.04,0.96,0.04,1.44c0,12.68-10.32,23-23,23  c-7.01,0-13.57-3.19-17.92-8.6h3.75c0.55,0,1-0.45,1-1s-0.45-1-1-1H8.05c-0.06,0-0.11,0.02-0.16,0.03c-0.01,0-0.03,0.01-0.04,0.01  c-0.12,0.03-0.23,0.07-0.33,0.14c0,0-0.01,0-0.01,0.01S7.49,42.6,7.48,42.6c-0.1,0.07-0.18,0.15-0.25,0.25  c-0.01,0.01-0.02,0.03-0.03,0.04c-0.05,0.09-0.09,0.18-0.11,0.28c-0.01,0.04-0.02,0.07-0.02,0.11c-0.01,0.04-0.02,0.08-0.02,0.12  v5.74C7.05,49.69,7.49,50.14,8.05,50.14z"></path></svg>
