<svg width="14" height="14" viewBox="0 0 14 14" fill="none" xmlns="http://www.w3.org/2000/svg">
<path d="M11.7936 7.36018V7.58035L11.956 7.729L12.901 8.594L12.9009 8.59409L12.909 8.60115C12.9962 8.67762 13.0541 8.78203 13.0728 8.89651C13.0915 9.01098 13.0698 9.1284 13.0115 9.22865L13.0114 9.22864L13.0092 9.23258L11.8706 11.2302C11.8704 11.2305 11.8702 11.2309 11.87 11.2312C11.8261 11.3067 11.7633 11.3694 11.6878 11.4131C11.6119 11.4569 11.5258 11.4801 11.4381 11.4802L11.4348 11.4802C11.381 11.4806 11.3276 11.4724 11.2765 11.4558L10.069 11.0466L9.83749 10.9682L9.63337 11.1027C9.44031 11.23 9.23903 11.3444 9.03086 11.4451L8.80769 11.553L8.75852 11.796L8.50352 13.056L8.50316 13.0578C8.4803 13.1729 8.41769 13.2763 8.32628 13.3498C8.23487 13.4234 8.12049 13.4625 8.00316 13.4603L8.00316 13.4602H7.99358H5.63358V13.4601L5.624 13.4603C5.50668 13.4625 5.3923 13.4234 5.30089 13.3498C5.20948 13.2763 5.14686 13.1729 5.12401 13.0578L5.12365 13.056L4.86865 11.796L4.81965 11.5539L4.59761 11.4457C4.39114 11.3451 4.1916 11.2309 4.00031 11.1037L3.79607 10.968L3.56372 11.0464L2.35088 11.4557C2.29972 11.4723 2.24621 11.4806 2.19241 11.4802L2.1891 11.4802C2.10141 11.4801 2.0153 11.4569 1.93939 11.4131C1.86348 11.3692 1.80044 11.3061 1.7566 11.2302L1.75662 11.2302L1.75422 11.2261L0.574218 9.22611L0.574237 9.2261L0.571793 9.22204C0.510767 9.12081 0.487578 9.00123 0.506342 8.88453C0.525107 8.76783 0.58461 8.66154 0.674293 8.58454L0.674341 8.5846L0.680765 8.57889L1.62577 7.73889L1.79358 7.58972V7.36518V6.60018V6.38002L1.63118 6.23136L0.68618 5.36636L0.686258 5.36628L0.678206 5.35922C0.590986 5.28275 0.533067 5.17834 0.514368 5.06386C0.495735 4.94979 0.5172 4.8328 0.575089 4.73278L1.75422 2.73426L1.75424 2.73427L1.7566 2.73018C1.80044 2.65425 1.86347 2.59118 1.93939 2.5473C2.0153 2.50342 2.10142 2.48027 2.1891 2.48018L2.20583 2.48017L2.22252 2.47903C2.26997 2.4758 2.31761 2.47936 2.364 2.48958L3.52866 2.91043L3.76447 2.99563L3.97379 2.85763C4.16686 2.73035 4.36813 2.61599 4.5763 2.51529L4.79947 2.40735L4.84865 2.16436L5.10365 0.904364L5.104 0.902592C5.12686 0.787493 5.18948 0.684102 5.28089 0.610518C5.3723 0.536933 5.48668 0.497844 5.604 0.500092L5.604 0.500184H5.61358H7.95358V0.500275L7.96316 0.500092C8.08049 0.497844 8.19487 0.536933 8.28628 0.610517C8.37769 0.684102 8.4403 0.787493 8.46316 0.902592L8.46352 0.904364L8.71852 2.16436L8.76751 2.40646L8.98956 2.51466C9.19603 2.61527 9.39556 2.72951 9.58685 2.85662L9.7911 2.99235L10.0234 2.91394L11.2363 2.50467C11.2874 2.48803 11.341 2.47976 11.3948 2.48018L11.3981 2.48018C11.4858 2.48027 11.5719 2.50342 11.6478 2.5473C11.7237 2.59118 11.7867 2.65425 11.8306 2.73018L11.8306 2.7302L11.8329 2.73426L13.0129 4.73426L13.0129 4.73431L13.018 4.74259C13.0799 4.84299 13.1043 4.96203 13.0869 5.07869C13.0696 5.19508 13.0117 5.30161 12.9236 5.37955C12.9234 5.37973 12.9232 5.37991 12.923 5.38009L11.9643 6.21889L11.7936 6.3683V6.59518V6.98018V7.36018Z" stroke="white"/>
<path d="M6.79363 9.98007C6.2003 9.98007 5.62029 9.80413 5.12696 9.47449C4.63362 9.14486 4.24912 8.67633 4.02206 8.12817C3.795 7.58001 3.73559 6.97682 3.85135 6.39489C3.9671 5.81296 4.25281 5.27843 4.67236 4.85888C5.09191 4.43934 5.62644 4.15362 6.20837 4.03787C6.7903 3.92212 7.39348 3.98152 7.94165 4.20858C8.48981 4.43564 8.95833 4.82015 9.28797 5.31348C9.61761 5.80682 9.79355 6.38682 9.79355 6.98015C9.79756 7.37522 9.7227 7.76712 9.57336 8.1329C9.42402 8.49868 9.2032 8.83098 8.92383 9.11035C8.64446 9.38973 8.31215 9.61055 7.94637 9.75989C7.5806 9.90923 7.1887 9.98408 6.79363 9.98007Z" stroke="white"/>
</svg>
