<svg height='100px' width='100px'  fill="#000000" xmlns="http://www.w3.org/2000/svg" xmlns:xlink="http://www.w3.org/1999/xlink" version="1.1" x="0px" y="0px" viewBox="0 0 100 100" style="enable-background:new 0 0 100 100;" xml:space="preserve"><path d="M85.018,93.365v-53.42c5.65-0.81,10.01-5.67,10.01-11.54c0-5.88-4.36-10.75-10.01-11.55V6.645c0-0.93-0.74-1.67-1.66-1.67  c-0.93,0-1.67,0.74-1.67,1.67v10.21c-5.65,0.81-10.01,5.68-10.01,11.55c0,5.87,4.36,10.73,10.01,11.54v53.42  c0,0.92,0.74,1.66,1.67,1.66C84.278,95.025,85.018,94.285,85.018,93.365z M18.367,93.365v-53.42c5.65-0.81,10.01-5.67,10.01-11.54  c0-5.88-4.36-10.75-10.01-11.55V6.645c0-0.93-0.74-1.67-1.66-1.67c-0.93,0-1.67,0.74-1.67,1.67v10.21  c-5.65,0.81-10.01,5.68-10.01,11.55c0,5.87,4.36,10.73,10.01,11.54v53.42c0,0.92,0.74,1.66,1.67,1.66  C17.627,95.025,18.367,94.285,18.367,93.365z M51.35,93.36V62.288c6.007-0.66,10.696-5.762,10.696-11.942  S57.355,39.064,51.35,38.403V6.641c0-0.921-0.745-1.668-1.668-1.668s-1.668,0.747-1.668,1.668v31.868  c-5.67,0.962-10.006,5.897-10.006,11.837s4.336,10.873,10.006,11.835V93.36c0,0.922,0.745,1.668,1.668,1.668  S51.35,94.282,51.35,93.36z"></path></svg>
