<svg height='100px' width='100px'  fill="#000000" xmlns="http://www.w3.org/2000/svg" data-name="Layer 2" viewBox="0 0 100 100" x="0px" y="0px"><title>Support</title><path d="M50,49.63A14.85,14.85,0,0,1,35.17,34.79V30.52c0-7.33,1.76-14.83,14.83-14.83s14.83,7.5,14.83,14.83v4.27A14.85,14.85,0,0,1,50,49.63Zm0-31.94c-10.68,0-12.83,4.91-12.83,12.83v4.27a12.83,12.83,0,1,0,25.66,0V30.52C62.83,22.6,60.68,17.69,50,17.69Z"></path><path d="M50,88.5a85.39,85.39,0,0,1-18.78-1.83C25.11,85.22,22,83.08,22,80.3V72.76c0-9.24,5.22-17.39,13.3-20.75a19.59,19.59,0,0,1,5.11-1.36.94.94,0,0,1,.62.12,16.94,16.94,0,0,0,17.9,0,.94.94,0,0,1,.62-.12A19.22,19.22,0,0,1,64.68,52C72.76,55.37,78,63.52,78,72.76V80.3C78,86.35,62.91,88.5,50,88.5ZM40.37,52.68a17.66,17.66,0,0,0-4.28,1.18C28.76,56.91,24,64.33,24,72.76V80.3c0,3.48,11.41,6.2,26,6.2s26-2.72,26-6.2V72.76c0-8.43-4.74-15.85-12.07-18.9a17.66,17.66,0,0,0-4.28-1.18A18.93,18.93,0,0,1,40.37,52.68Z"></path><path d="M67.32,39.9a1,1,0,0,1-1-1V27.49a14,14,0,0,0-14-14H47.66a14,14,0,0,0-14,14V38.9a1,1,0,0,1-2,0V27.49a16,16,0,0,1,16-16h4.68a16,16,0,0,1,16,16V38.9A1,1,0,0,1,67.32,39.9Z"></path><path d="M69.8,39.9H67.32a1,1,0,0,1-1-1V25.7a1,1,0,0,1,1-1H69.8a5.13,5.13,0,0,1,5.12,5.12v5A5.13,5.13,0,0,1,69.8,39.9Zm-1.48-2H69.8a3.13,3.13,0,0,0,3.12-3.13v-5A3.12,3.12,0,0,0,69.8,26.7H68.32Z"></path><path d="M32.68,39.9H30.2a5.13,5.13,0,0,1-5.12-5.13v-5A5.13,5.13,0,0,1,30.2,24.7h2.48a1,1,0,0,1,1,1V38.9A1,1,0,0,1,32.68,39.9ZM30.2,26.7a3.12,3.12,0,0,0-3.12,3.12v5A3.13,3.13,0,0,0,30.2,37.9h1.48V26.7Z"></path><path d="M62.47,44.75H53.13a1,1,0,1,1,0-2h9.34a3.85,3.85,0,0,0,3.85-3.85,1,1,0,0,1,2,0A5.85,5.85,0,0,1,62.47,44.75Z"></path></svg>
