<svg height='100px' width='100px'  xmlns="http://www.w3.org/2000/svg" viewBox="0 0 20 24" fill="none" x="0px" y="0px"><path d="M16.2552 15.6854L13.2327 19.2471L11.3016 17.7107C11.1137 17.5606 10.8385 17.5918 10.6887 17.7805C10.5387 17.9687 10.5701 18.2436 10.7586 18.3934L13.0201 20.1933C13.1001 20.2573 13.1961 20.2882 13.2918 20.2882C13.4157 20.2882 13.5384 20.2355 13.6248 20.1343L16.9204 16.25C17.076 16.0661 17.0539 15.791 16.8698 15.6351C16.6857 15.4789 16.4108 15.5015 16.2552 15.6854ZM15.3689 12.03V4.56934C15.3689 4.45415 15.3235 4.34391 15.2421 4.26188L11.1454 0.129148C11.0637 0.0465399 10.9523 0 10.8359 0H0.436311C0.195177 0 0 0.195467 0 0.436311V20.4359C0 20.6768 0.195177 20.8722 0.436311 20.8722H8.49264C9.53514 22.7356 11.5262 24 13.8092 24C17.1674 24 19.899 21.2681 19.899 17.91C19.899 15.0917 17.9725 12.7214 15.3689 12.03ZM11.2722 1.49655L13.8854 4.13303H11.2722V1.49655ZM8.09618 19.9996H0.872622V0.872622H10.3993V4.56934C10.3993 4.81018 10.5948 5.00565 10.8356 5.00565H14.496V11.8613C14.27 11.8357 14.0414 11.8197 13.8092 11.8197C10.4511 11.8197 7.71892 14.5518 7.71892 17.91C7.71921 18.645 7.8565 19.3469 8.09618 19.9996ZM13.8095 23.1274C10.9325 23.1274 8.59183 20.787 8.59183 17.91C8.59183 15.0329 10.9325 12.6923 13.8095 12.6923C16.6866 12.6923 19.0266 15.0329 19.0266 17.91C19.0266 20.787 16.6863 23.1274 13.8095 23.1274Z" fill="black"></path></svg>
