<svg height='100px' width='100px'  fill="#000000" xmlns="http://www.w3.org/2000/svg" viewBox="0 0 100 100" x="0px" y="0px"><title>Multimedia</title><g data-name="Capa 2"><path d="M78.14,26.23H64.06v-2.3a7.45,7.45,0,0,0-7.45-7.44H43.22a7.45,7.45,0,0,0-7.44,7.44v2.3H21.7a1.88,1.88,0,1,0,0,3.76h3.39V74.13A10.06,10.06,0,0,0,35.14,84.18H64.7a10.05,10.05,0,0,0,10-10.05V30h3.4a1.88,1.88,0,0,0,0-3.76Zm-38.6-2.3a3.68,3.68,0,0,1,3.68-3.68H56.61a3.69,3.69,0,0,1,3.69,3.68v2.3H39.54ZM71,74.13a6.31,6.31,0,0,1-6.29,6.29H35.14a6.3,6.3,0,0,1-6.29-6.29V30H71V74.13Zm0,0"></path></g></svg>
