<svg height='100px' width='100px'  fill="#000000" xmlns="http://www.w3.org/2000/svg" xmlns:xlink="http://www.w3.org/1999/xlink" version="1.1" x="0px" y="0px" viewBox="0 0 96 96" enable-background="new 0 0 96 96" xml:space="preserve"><path d="M17.289,53.603c0.325,0,0.628-0.035,0.906-0.109c0.996,1.25,3.208,2.513,4.474,3.171c-0.426,0.566-0.703,1.094-0.778,1.562  c-0.097,0.609,0.075,1.154,0.497,1.576c1.205,1.205,2.151,1.683,3.13,1.683c0.784,0,1.592-0.31,2.568-0.794  c-2.633,2.152-5.162,4.638-5.336,6.371c-0.059,0.583,0.117,1.099,0.509,1.49c0.658,0.658,1.457,0.968,2.436,0.968  c1.103,0,2.437-0.396,4.052-1.125c-0.273,1.127-0.281,2.579,0.75,3.926c0.494,0.646,1.299,0.936,2.34,0.935  c2.184,0,5.399-1.274,8.923-3.181c0.11,1.005,0.468,2.34,1.543,3.139c0.587,0.436,1.299,0.654,2.13,0.654  c0.834,0,1.789-0.22,2.856-0.66c1.075-0.442,3.535-1.811,6.615-3.642c1.238,1.089,5.34,4.481,8.373,4.481  c0.066,0,0.133-0.001,0.198-0.005c0.908-0.046,1.652-0.394,2.212-1.034c0.636-0.726,0.898-1.6,0.758-2.526  c-0.104-0.692-0.43-1.372-0.865-2.014c1.568,0.555,3.252,0.973,4.78,0.973c1.405,0,2.678-0.353,3.6-1.275  c0.992-0.991,1.021-1.959,0.871-2.596c-0.249-1.059-1.204-2.008-2.352-2.804c0.625-0.479,1.086-1.064,1.338-1.776  c0.474-1.336,0.132-2.709-0.154-3.496c2.352-1.671,4.124-3.054,4.845-3.863c2.876-1.055,11.648-4.423,12.624-6.653  c0.176-0.402,0.712-1.627-3.883-10.11c-0.073-0.136-7.363-13.544-9.945-13.976c-2.774-0.457-10.604,5.583-12.479,8.906  c-3.298-0.409-13.945-1.48-16.948,1.197c-3.5-2.363-14.821-2.259-17.099-2.218c-1.784-2.265-8.26-10.044-11.883-8.65  C15.158,23.564,5.168,36.604,4.75,46.914l-0.016,0.394l0.314,0.236C5.93,48.206,13.233,53.603,17.289,53.603z M64.559,72.02  c-0.287,0.328-0.666,0.499-1.16,0.524c-2.067,0.144-5.395-2.303-7.142-3.788c1.353-0.815,2.793-1.699,4.27-2.62  c0.372,0.211,0.872,0.483,1.468,0.784c1.301,1.038,2.772,2.497,2.967,3.785C65.038,71.202,64.91,71.62,64.559,72.02z M73.372,65.913  c0.059,0.25,0.074,0.646-0.472,1.191c-1.932,1.933-6.861,0.133-10.104-1.469c-0.238-0.186-0.466-0.356-0.669-0.502  c1.72-1.085,3.456-2.198,5.129-3.295C69.578,62.673,73.015,64.393,73.372,65.913z M72.405,60.488  c-0.212,0.598-0.661,1.058-1.337,1.411c-0.811-0.44-1.617-0.802-2.276-1.073c1.265-0.84,2.474-1.658,3.587-2.432  C72.543,58.979,72.661,59.767,72.405,60.488z M77.036,24.365c2.231,0.762,13.16,19.72,12.724,22.01  c-0.479,1.096-6.07,3.718-11.229,5.646c-1.828-3.988-10.693-17.022-12.403-19.48C67.71,29.496,75.259,24.063,77.036,24.365z   M64.842,33.31c2.686,3.708,11.526,17.221,12.463,19.504C75.01,55.101,53.469,69.454,47.718,71.82  c-1.107,0.455-2.615,0.856-3.518,0.19c-0.821-0.606-0.989-1.965-0.987-2.749c2.978-1.714,6.1-3.799,8.957-5.904l-0.89-1.207  c-11.639,8.576-18.571,10.599-19.593,9.259c-1.2-1.568-0.265-3.457,0.049-3.999c2.488-1.321,5.532-3.213,9.273-5.539l1.866-1.159  l-0.791-1.275l-1.867,1.161c-8.762,5.448-14.052,8.739-15.898,6.894c-0.048-0.049-0.094-0.11-0.077-0.279  c0.204-2.026,6.515-6.906,10.445-9.506l-0.134-0.203c0.776-0.329,1.624-0.667,2.559-1.012l-0.519-1.408  c-3.732,1.375-6.136,2.658-7.891,3.595c-3.006,1.605-3.466,1.851-5.254,0.063c-0.057-0.057-0.102-0.117-0.076-0.279  c0.465-2.921,14.078-10.844,22.767-15.274c0.92,0.454,2.412,1.697,3.764,2.83c3.569,2.988,7.616,6.377,9.989,4.003  c0.533-0.533,0.78-1.263,0.714-2.111c-0.313-4.055-7.962-11.125-11.504-13.987C51.238,32.39,59.189,32.594,64.842,33.31z   M47.129,34.285c3.461,2.529,11.712,10.255,11.982,13.739c0.042,0.546-0.139,0.796-0.279,0.936c-1.4,1.401-5.195-1.773-7.965-4.093  c-2.396-2.006-3.924-3.241-5.096-3.358c-1.481-0.147-2.768,0.482-4.129,1.15c-1.397,0.685-2.981,1.46-5.08,1.525  c-1.786,0.056-2.888,0.268-3.692,0.422c-1.104,0.211-1.303,0.249-1.998-0.271l-0.9,1.199c1.226,0.92,2.003,0.771,3.18,0.545  c0.755-0.145,1.79-0.343,3.457-0.395c0.822-0.025,1.569-0.15,2.261-0.324c-5.313,2.949-12.003,6.976-15.171,10.141  c-1.531-0.771-3.476-1.95-4.235-2.816c0.156-0.188,0.295-0.392,0.396-0.632c1.899-4.523,9.338-18.299,10.813-19.774  C34.574,32.181,44.494,32.359,47.129,34.285z M19.436,23.526c1.959-0.761,6.877,4.054,10,7.968  c-2.753,3.31-9.948,17.568-10.96,19.979c-0.128,0.305-0.333,0.481-0.664,0.57c-2.225,0.603-8.112-2.937-11.541-5.46  C6.892,37.238,16.19,24.774,19.436,23.526z"></path></svg>
