<svg height='100px' width='100px'  fill="#000000" xmlns="http://www.w3.org/2000/svg" xmlns:xlink="http://www.w3.org/1999/xlink" version="1.1" x="0px" y="0px" viewBox="0 0 48 48" style="enable-background:new 0 0 48 48;" xml:space="preserve"><g style="" display="none"><path style="" d="M24,3c-6.07,0-11,4.93-11,11s4.93,11,11,11s11-4.93,11-11S30.07,3,24,3z M24,23   c-4.96,0-9-4.04-9-9c0-4.96,4.04-9,9-9s9,4.04,9,9C33,18.96,28.96,23,24,23z" display="inline"></path><path style="" d="M34,29H14c-4.96,0-9,4.04-9,9v7h38v-7C43,33.04,38.96,29,34,29z M41,43H7v-5   c0-3.86,3.14-7,7-7h20c3.86,0,7,3.14,7,7V43z" display="inline"></path></g><g style="" display="none"><path style="" d="M45,45H3V19.52l21-16.8l21,16.8V45z M5,43h38V20.48l-19-15.2L5,20.48V43z" display="inline"></path></g><g style="" display="none"><g style="" display="inline"><path d="M31.62,32.38C34.93,29.29,37,24.88,37,20c0-9.37-7.63-17-17-17S3,10.63,3,20s7.63,17,17,17    c3.77,0,7.26-1.24,10.08-3.33l9.15,10.97l1.54-1.28L31.62,32.38z M5,20c0-8.27,6.73-15,15-15s15,6.73,15,15c0,8.27-6.73,15-15,15    S5,28.27,5,20z"></path></g></g><g style="" display="none"><path style="" d="M39,31h-2V16c0-7.17-5.83-13-13-13S11,8.83,11,16v15H9c-2.21,0-4,1.79-4,4   c0,2.21,1.79,4,4,4h8.08c0.48,3.39,3.4,6,6.92,6s6.44-2.61,6.92-6H39c2.21,0,4-1.79,4-4C43,32.79,41.21,31,39,31z M13,16   c0-6.07,4.93-11,11-11s11,4.93,11,11v15H13V16z M24,43c-2.42,0-4.44-1.72-4.9-4h9.8C28.44,41.28,26.42,43,24,43z M39,37H9   c-1.1,0-2-0.9-2-2c0-1.1,0.9-2,2-2h30c1.1,0,2,0.9,2,2C41,36.1,40.1,37,39,37z" display="inline"></path></g><g style="" display="none"><path style="" d="M27.618,44.179l-4.837-20.96L1.822,18.382L43.741,2.259L27.618,44.179z    M8.639,17.902l15.81,3.648l3.647,15.81L40.259,5.741L8.639,17.902z" display="inline"></path></g><g style="" display="none"><path style="" d="M33.553,1.229L12.856,21.926L8.083,39.427l17.501-4.773l20.697-20.697   L33.553,1.229z M33.553,4.057l9.899,9.899L39.21,18.2L29.31,8.3L33.553,4.057z M24.552,32.858L10.94,36.57l3.712-13.612   L27.896,9.714l9.899,9.899L24.552,32.858z" display="inline"></path></g><g style="" display="none"><path style="" d="M45,41H3V9h10.586l4-4h12.828l4,4H45V41z M5,39h38V11h-9.414l-4-4H18.414l-4,4H5   V39z M24,33c-4.411,0-8-3.589-8-8s3.589-8,8-8s8,3.589,8,8S28.411,33,24,33z M24,19c-3.309,0-6,2.691-6,6s2.691,6,6,6s6-2.691,6-6   S27.309,19,24,19z" display="inline"></path></g><g style="" display="none"><path style="" d="M34,33H12c-4.962,0-9-4.037-9-9c0-3.878,2.473-7.281,6.097-8.512   C9.856,8.431,15.832,3,23,3c5.496,0,10.422,3.172,12.709,8.132C41.046,11.958,45,16.531,45,22C45,28.065,40.065,33,34,33z M23,5   c-6.347,0-11.602,4.968-11.964,11.31l-0.042,0.732l-0.711,0.18C7.172,18.008,5,20.795,5,24c0,3.859,3.14,7,7,7h22   c4.963,0,9-4.037,9-9c0-4.638-3.475-8.487-8.081-8.954l-0.596-0.061l-0.229-0.553C32.233,7.917,27.879,5,23,5z" display="inline"></path></g><g style="" display="none"><path style="" d="M12.997,46.171v-8.374L17,33.6v-5.981l-12,6v-8.087l12-10V9.586l7-7l7,7v5.946   l12,10v8.087l-12-6v5.968l4,4v8.181l-10.985-6.592L12.997,46.171z M14.997,38.598v3.935l8.989-5.707L33,42.233v-3.819l-4-4V24.382   l12,6v-3.913l-12-10v-6.054l-5-5l-5,5v6.054l-12,10v3.913l12-6V34.4L14.997,38.598z" display="inline"></path></g><g style="" display="none"><path style="" d="M41.456,41.456l-13.507-3.859C25.731,38.528,23.396,39,21,39   c-9.925,0-18-8.075-18-18c0-9.925,8.075-18,18-18c9.925,0,18,8.075,18,18c0,2.396-0.472,4.731-1.403,6.949L41.456,41.456z    M27.807,35.476l10.737,3.068l-3.068-10.737l0.147-0.331C36.537,25.415,37,23.236,37,21c0-8.822-7.178-16-16-16S5,12.178,5,21   s7.178,16,16,16c2.236,0,4.415-0.463,6.476-1.377L27.807,35.476z" display="inline"></path></g><g style="" display="none"><path style="" d="M14.591,46.041L16.895,23H10.78l4.4-22h18.208l-4,12h6.444L14.591,46.041z    M13.22,21h5.885l-1.696,16.959L32.168,15h-5.556l4-12H16.82L13.22,21z" display="inline"></path></g><g style="" display="none"><polygon style="" points="44,23 44,25 25,25 25,44 23,44 23,25 4,25 4,23 23,23 23,4 25,4 25,23     " display="inline"></polygon></g><g style="" display="none"><rect x="4" y="23" style="" width="40" height="2" display="inline"></rect></g><g style="" display="none"><path style="" d="M39.949,43.825l-13.024-6.848L13.9,43.825l2.487-14.503L5.851,19.051l14.562-2.116   L26.925,3.74l6.512,13.195l14.562,2.116L37.461,29.322L39.949,43.825z M10.149,20.448l8.388,8.175l-1.98,11.546l10.368-5.451   l10.368,5.451l-1.98-11.546l8.388-8.175l-11.592-1.684L26.925,8.26l-5.184,10.504L10.149,20.448z" display="inline"></path></g><g style="" display="none"><path style="" d="M14,44H4V6h10V44z M6,42h6V8H6V42z M30,44H20V12h10V44z M22,42h6V14h-6V42z M46,44   H36V18h10V44z M38,42h6V20h-6V42z" display="inline"></path></g><g style="" display="none"><polygon style="" points="37.56,32 24.64,42.77 23.36,41.23 33.24,33 7,33 7,4 9,4 9,31 33.24,31    23.36,22.77 24.64,21.23  " display="inline"></polygon></g><g style="" display="none"><path style="" d="M14,35H1V1h26v21h-2V3H3v30h11V35z M35,34c0-4.963-4.037-9-9-9   c-4.962,0-9,4.037-9,9s4.038,9,9,9C30.963,43,35,38.963,35,34z M33,34c0,3.859-3.141,7-7,7c-3.86,0-7-3.141-7-7s3.14-7,7-7   C29.859,27,33,30.141,33,34z" display="inline"></path></g><g style="" display="none"><path style="" d="M15,36H2V2h26v21h-2V4H4v30h11V36z M34.71,26.71l-1.42-1.42L26,32.58l-7.29-7.29   l-1.42,1.42L24.58,34l-7.29,7.29l1.42,1.42L26,35.42l7.29,7.29l1.42-1.42L27.42,34L34.71,26.71z" display="inline"></path></g><g style="" display="none"><path style="" d="M15,36H2V2h26v21h-2V4H4v30h11V36z M38.65,26.759l-1.301-1.518L24.052,36.638   l-5.345-5.345l-1.414,1.414l6.655,6.655L38.65,26.759z" display="inline"></path></g><g style="" display="none"><path style="" d="M37,46.135L24,35.302L11,46.135V7h26V46.135z M24,32.698l11,9.167V9H13v32.865   L24,32.698z" display="inline"></path></g><g style="" display="none"><path style="" d="M33,45H3V3h30v9h-2V5H5v38h26v-7h2V45z M36.71,15.29l-1.42,1.42l6.3,6.29H18v2   h23.59l-6.3,6.29l1.42,1.42l8.7-8.71L36.71,15.29z" display="inline"></path></g><g style="" display="none"><path style="" d="M39,43H9V3h17.414L39,15.585V43z M11,41h26V16.414L25.586,5H11V41z M30,21H18v2h12   V21z M30,29H18v2h12V29z" display="inline"></path></g><g style="" display="none"><path style="" d="M40.414,33H7.586L3,28.414V7.586L7.586,3h32.828L45,7.585v20.829L40.414,33z    M8.414,31h31.172L43,27.586V8.414L39.586,5H8.414L5,8.414v19.172L8.414,31z M32,37H16v2h16V37z" display="inline"></path></g><g style="" display="none"><path style="" d="M5,11v34h28l4-6.7V2.7L5,11z M7,13h24v30H7V13z M35,37.7l-2,3V11H13.63L35,5.3   V37.7z" display="inline"></path></g><g style="" display="none"><polygon style="" points="22.705,42.705 39.415,26.005 37.995,24.585 23.705,38.885 23.705,5.295    21.705,5.295 21.705,38.885 7.415,24.585 5.995,26.005  " display="inline"></polygon></g><g style="" display="none"><path style="" d="M24,3C14.63,3,7,10.63,7,20c0,6.73,3.9,12.73,10,15.49V43h2v4h10v-4h2v-7.51   c6.1-2.76,10-8.76,10-15.49C41,10.63,33.37,3,24,3z M27,45h-6v-2h6V45z M29,41H19v-2h10V41z M29.62,33.9L29,34.15V37H19v-2.85   l-0.62-0.25C12.68,31.59,9,26.14,9,20c0-8.27,6.73-15,15-15s15,6.73,15,15C39,26.14,35.32,31.59,29.62,33.9z" display="inline"></path></g><g style="" display="none"><path style="" d="M11,7.08V4H9v3.08C5.61,7.56,3,10.48,3,14c0,3.52,2.61,6.44,6,6.92V44h2V20.92   c3.39-0.48,6-3.4,6-6.92C17,10.48,14.39,7.56,11,7.08z M10,19c-2.76,0-5-2.24-5-5s2.24-5,5-5s5,2.24,5,5S12.76,19,10,19z M25,27.08   V4h-2v23.08c-3.39,0.48-6,3.4-6,6.92c0,3.52,2.61,6.44,6,6.92V44h2v-3.08c3.39-0.48,6-3.4,6-6.92C31,30.48,28.39,27.56,25,27.08z    M24,39c-2.76,0-5-2.24-5-5s2.24-5,5-5s5,2.24,5,5S26.76,39,24,39z M39,7.08V4h-2v3.08c-3.39,0.48-6,3.4-6,6.92   c0,3.52,2.61,6.44,6,6.92V44h2V20.92c3.39-0.48,6-3.4,6-6.92C45,10.48,42.39,7.56,39,7.08z M38,19c-2.76,0-5-2.24-5-5s2.24-5,5-5   s5,2.24,5,5S40.76,19,38,19z" display="inline"></path></g><g style="" display="none"><path style="" d="M29,43.618l-10-5V22.343L3.956,3h40.089L29,22.343V43.618z M21,37.382l6,3V21.657   L39.955,5H8.044L21,21.657V37.382z" display="inline"></path></g><g><path d="M24,39c-9.541,0-17.951-5.745-21.425-14.636L2.433,24l0.142-0.364C6.049,14.745,14.459,9,24,9   s17.951,5.745,21.425,14.636L45.566,24l-0.142,0.364C41.951,33.255,33.541,39,24,39z M4.584,24C7.841,31.911,15.419,37,24,37   c8.581,0,16.159-5.089,19.416-13C40.159,16.089,32.581,11,24,11C15.419,11,7.841,16.089,4.584,24z M24,31c-3.86,0-7-3.141-7-7   c0-3.86,3.14-7,7-7c3.859,0,7,3.14,7,7C31,27.859,27.859,31,24,31z M24,19c-2.757,0-5,2.243-5,5s2.243,5,5,5s5-2.243,5-5   S26.757,19,24,19z"></path></g></svg>
