<svg height='100px' width='100px'  fill="#000000" xmlns="http://www.w3.org/2000/svg" viewBox="0 0 32 32" x="0px" y="0px"><title>workflow, process, work, business</title><g data-name="Layer 2"><path d="M26,22a3.99577,3.99577,0,0,0-3.858,3H10a4,4,0,0,1,0-8h2.142A3.98066,3.98066,0,0,0,19.858,17H22A6,6,0,0,0,22,5H9.858a4,4,0,1,0,0,2H22a4,4,0,0,1,0,8H19.858A3.98066,3.98066,0,0,0,12.142,15H10a6,6,0,0,0,0,12H22.142A3.99345,3.99345,0,1,0,26,22ZM6,8A2,2,0,1,1,8,6,2.00229,2.00229,0,0,1,6,8Zm10,6a2,2,0,1,1-2,2A2.00229,2.00229,0,0,1,16,14ZM26,28a2,2,0,1,1,2-2A2.00229,2.00229,0,0,1,26,28Z"></path></g></svg>
