<svg width="1175" height="978" viewBox="0 0 1175 978" fill="none" xmlns="http://www.w3.org/2000/svg">
<path d="M611.441 942.538C610.657 942.566 609.873 942.59 609.089 942.612C606.094 942.697 603.091 942.744 600.08 942.755C599.666 942.756 599.252 942.757 598.837 942.757C588.816 942.761 578.804 942.346 568.846 941.519C538.97 939.039 509.496 932.84 481.141 923.045C481.009 923.017 480.88 922.977 480.755 922.926C551.341 918.121 595.534 840.178 552.939 853.557C551.456 854.024 549.868 854.602 548.171 855.298C203.365 942.717 -9.1717 567.699 0.304215 314.849C0.304215 231.726 26.2159 67.6282 26.2159 67.6282C66.3109 82.2876 108.05 48.8116 150.316 0C116.714 54.1423 15.4616 460.25 329.161 493.487C332.141 493.487 335.086 493.391 337.999 493.203C360.085 490.945 378.598 484.882 394.752 476.457C409.599 468.452 423.868 457.814 437.987 444.949C447.617 435.988 456.59 426.506 465.447 417.147L465.482 417.11L466.024 416.51C467.793 414.548 469.635 412.517 471.549 410.426C506.227 372.234 559.09 317.976 640.994 296.276C671.595 287.569 705.764 283.505 743.626 286.863C744.696 287.024 745.763 287.183 746.828 287.34C792.999 289.242 840.082 297.348 875.56 316.612C886.768 322.458 897.026 329.801 906.241 339.247C963.866 338.219 1208.79 383.199 1171.07 620.412C1145.02 784.205 1086.78 1080.13 611.441 942.538Z" fill="#6930DB"/>
</svg>
