<svg width="288" height="53" viewBox="0 0 288 53" fill="none" xmlns="http://www.w3.org/2000/svg">
<path d="M20.688 1.128C21.072 1.128 21.424 1.28 21.744 1.584C22.08 1.872 22.248 2.24 22.248 2.688C22.248 2.832 22.224 2.992 22.176 3.168L17.448 17.088C17.352 17.36 17.184 17.576 16.944 17.736C16.704 17.896 16.44 17.984 16.152 18C15.864 18 15.592 17.92 15.336 17.76C15.08 17.6 14.88 17.368 14.736 17.064L11.328 9.312L7.896 17.064C7.752 17.368 7.552 17.6 7.296 17.76C7.04 17.92 6.768 18 6.48 18C6.192 17.984 5.928 17.896 5.688 17.736C5.448 17.576 5.28 17.36 5.184 17.088L0.456 3.168C0.408 2.992 0.384 2.832 0.384 2.688C0.384 2.24 0.544 1.872 0.864 1.584C1.2 1.28 1.568 1.128 1.968 1.128C2.288 1.128 2.576 1.216 2.832 1.392C3.088 1.552 3.264 1.776 3.36 2.064L6.936 12.912L10.056 5.424C10.184 5.136 10.368 4.912 10.608 4.752C10.848 4.576 11.12 4.496 11.424 4.512C11.728 4.496 11.992 4.576 12.216 4.752C12.456 4.912 12.64 5.136 12.768 5.424L15.72 12.84L19.272 2.064C19.368 1.776 19.544 1.552 19.8 1.392C20.072 1.216 20.368 1.128 20.688 1.128ZM35.6091 11.28C35.5931 11.664 35.4411 11.976 35.1531 12.216C34.8651 12.456 34.5291 12.576 34.1451 12.576H26.2251C26.4171 13.52 26.8571 14.264 27.5451 14.808C28.2331 15.336 29.0091 15.6 29.8731 15.6C30.5291 15.6 31.0411 15.544 31.4091 15.432C31.7771 15.304 32.0651 15.176 32.2731 15.048C32.4971 14.904 32.6491 14.808 32.7291 14.76C33.0171 14.616 33.2891 14.544 33.5451 14.544C33.8811 14.544 34.1691 14.664 34.4091 14.904C34.6491 15.144 34.7691 15.424 34.7691 15.744C34.7691 16.176 34.5451 16.568 34.0971 16.92C33.6491 17.288 33.0491 17.6 32.2971 17.856C31.5451 18.112 30.7851 18.24 30.0171 18.24C28.6731 18.24 27.4971 17.96 26.4891 17.4C25.4971 16.84 24.7291 16.072 24.1851 15.096C23.6411 14.104 23.3691 12.992 23.3691 11.76C23.3691 10.384 23.6571 9.176 24.2331 8.136C24.8091 7.096 25.5691 6.304 26.5131 5.76C27.4571 5.2 28.4651 4.92 29.5371 4.92C30.5931 4.92 31.5851 5.208 32.5131 5.784C33.4571 6.36 34.2091 7.136 34.7691 8.112C35.3291 9.088 35.6091 10.144 35.6091 11.28ZM29.5371 7.56C27.6811 7.56 26.5851 8.432 26.2491 10.176H32.5371V10.008C32.4731 9.336 32.1451 8.76 31.5531 8.28C30.9611 7.8 30.2891 7.56 29.5371 7.56ZM55.6095 4.92C56.0255 4.92 56.3695 5.056 56.6415 5.328C56.9135 5.6 57.0495 5.952 57.0495 6.384V16.536C57.0495 16.952 56.9135 17.304 56.6415 17.592C56.3695 17.864 56.0255 18 55.6095 18C55.1935 18 54.8495 17.864 54.5775 17.592C54.3215 17.32 54.1855 16.976 54.1695 16.56C53.7695 17.024 53.2255 17.424 52.5375 17.76C51.8655 18.08 51.1535 18.24 50.4015 18.24C49.2975 18.24 48.2975 17.96 47.4015 17.4C46.5055 16.824 45.7935 16.032 45.2655 15.024C44.7535 14.016 44.4975 12.872 44.4975 11.592C44.4975 10.312 44.7535 9.168 45.2655 8.16C45.7775 7.136 46.4735 6.344 47.3535 5.784C48.2495 5.208 49.2335 4.92 50.3055 4.92C51.0735 4.92 51.7935 5.064 52.4655 5.352C53.1375 5.624 53.7055 5.976 54.1695 6.408V6.384C54.1695 5.968 54.3055 5.624 54.5775 5.352C54.8495 5.064 55.1935 4.92 55.6095 4.92ZM50.7615 15.6C51.8015 15.6 52.6495 15.224 53.3055 14.472C53.9615 13.704 54.2895 12.744 54.2895 11.592C54.2895 10.44 53.9615 9.48 53.3055 8.712C52.6495 7.944 51.8015 7.56 50.7615 7.56C49.7375 7.56 48.8975 7.944 48.2415 8.712C47.5855 9.48 47.2575 10.44 47.2575 11.592C47.2575 12.744 47.5775 13.704 48.2175 14.472C48.8735 15.224 49.7215 15.6 50.7615 15.6ZM67.0826 4.92C67.5626 4.92 67.9626 5.056 68.2826 5.328C68.6186 5.6 68.7866 5.92 68.7866 6.288C68.7866 6.784 68.6586 7.16 68.4026 7.416C68.1466 7.656 67.8426 7.776 67.4906 7.776C67.2506 7.776 66.9786 7.72 66.6746 7.608C66.6266 7.592 66.5146 7.56 66.3386 7.512C66.1786 7.464 66.0026 7.44 65.8106 7.44C65.3946 7.44 64.9946 7.568 64.6106 7.824C64.2266 8.08 63.9066 8.472 63.6506 9C63.4106 9.512 63.2906 10.128 63.2906 10.848V16.536C63.2906 16.952 63.1546 17.304 62.8826 17.592C62.6106 17.864 62.2666 18 61.8506 18C61.4346 18 61.0906 17.864 60.8186 17.592C60.5466 17.304 60.4106 16.952 60.4106 16.536V6.624C60.4106 6.208 60.5466 5.864 60.8186 5.592C61.0906 5.304 61.4346 5.16 61.8506 5.16C62.2666 5.16 62.6106 5.304 62.8826 5.592C63.1546 5.864 63.2906 6.208 63.2906 6.624V6.936C63.6586 6.28 64.1866 5.784 64.8746 5.448C65.5626 5.096 66.2986 4.92 67.0826 4.92ZM82.0378 11.28C82.0218 11.664 81.8698 11.976 81.5818 12.216C81.2938 12.456 80.9578 12.576 80.5738 12.576H72.6538C72.8458 13.52 73.2858 14.264 73.9738 14.808C74.6618 15.336 75.4378 15.6 76.3018 15.6C76.9578 15.6 77.4698 15.544 77.8378 15.432C78.2058 15.304 78.4938 15.176 78.7018 15.048C78.9258 14.904 79.0778 14.808 79.1578 14.76C79.4458 14.616 79.7178 14.544 79.9738 14.544C80.3098 14.544 80.5978 14.664 80.8378 14.904C81.0778 15.144 81.1978 15.424 81.1978 15.744C81.1978 16.176 80.9738 16.568 80.5258 16.92C80.0778 17.288 79.4778 17.6 78.7258 17.856C77.9738 18.112 77.2138 18.24 76.4458 18.24C75.1018 18.24 73.9258 17.96 72.9178 17.4C71.9258 16.84 71.1578 16.072 70.6138 15.096C70.0698 14.104 69.7978 12.992 69.7978 11.76C69.7978 10.384 70.0858 9.176 70.6618 8.136C71.2378 7.096 71.9978 6.304 72.9418 5.76C73.8858 5.2 74.8938 4.92 75.9658 4.92C77.0218 4.92 78.0138 5.208 78.9418 5.784C79.8858 6.36 80.6378 7.136 81.1978 8.112C81.7578 9.088 82.0378 10.144 82.0378 11.28ZM75.9658 7.56C74.1098 7.56 73.0138 8.432 72.6778 10.176H78.9658V10.008C78.9018 9.336 78.5738 8.76 77.9818 8.28C77.3898 7.8 76.7178 7.56 75.9658 7.56ZM102.278 4.92C102.694 4.92 103.038 5.056 103.31 5.328C103.582 5.6 103.718 5.952 103.718 6.384V17.064C103.718 19.016 103.11 20.456 101.894 21.384C100.694 22.328 99.1663 22.8 97.3103 22.8C96.8303 22.8 96.1663 22.72 95.3183 22.56C94.4863 22.4 93.8943 22.24 93.5423 22.08C92.7583 21.744 92.3663 21.28 92.3663 20.688C92.3663 20.576 92.3903 20.448 92.4383 20.304C92.5343 19.952 92.6943 19.68 92.9183 19.488C93.1583 19.312 93.4143 19.224 93.6863 19.224C93.8463 19.224 93.9983 19.248 94.1423 19.296C94.2063 19.312 94.5983 19.456 95.3183 19.728C96.0543 20.016 96.7183 20.16 97.3103 20.16C98.4943 20.16 99.3743 19.92 99.9503 19.44C100.542 18.976 100.838 18.312 100.838 17.448V16.296C100.486 16.792 99.9503 17.24 99.2303 17.64C98.5263 18.04 97.7663 18.24 96.9503 18.24C95.8303 18.24 94.8063 17.96 93.8783 17.4C92.9663 16.824 92.2463 16.032 91.7183 15.024C91.1903 14.016 90.9263 12.872 90.9263 11.592C90.9263 10.312 91.1823 9.168 91.6943 8.16C92.2223 7.136 92.9343 6.344 93.8303 5.784C94.7423 5.208 95.7503 4.92 96.8543 4.92C97.6703 4.92 98.4303 5.088 99.1343 5.424C99.8383 5.76 100.406 6.168 100.838 6.648V6.384C100.838 5.968 100.974 5.624 101.246 5.352C101.518 5.064 101.862 4.92 102.278 4.92ZM97.3103 15.6C98.3823 15.6 99.2543 15.224 99.9263 14.472C100.614 13.704 100.958 12.744 100.958 11.592C100.958 10.44 100.614 9.48 99.9263 8.712C99.2543 7.944 98.3823 7.56 97.3103 7.56C96.2383 7.56 95.3663 7.944 94.6943 8.712C94.0223 9.48 93.6863 10.44 93.6863 11.592C93.6863 12.744 94.0223 13.704 94.6943 14.472C95.3663 15.224 96.2383 15.6 97.3103 15.6ZM110.194 16.536C110.194 16.952 110.05 17.304 109.762 17.592C109.49 17.864 109.146 18 108.73 18C108.33 18 107.994 17.864 107.722 17.592C107.45 17.304 107.314 16.952 107.314 16.536V1.704C107.314 1.288 107.45 0.943999 107.722 0.671999C108.01 0.383999 108.362 0.24 108.778 0.24C109.178 0.24 109.514 0.383999 109.786 0.671999C110.058 0.943999 110.194 1.288 110.194 1.704V16.536ZM124.175 4.92C124.591 4.92 124.935 5.056 125.207 5.328C125.479 5.6 125.615 5.952 125.615 6.384V16.536C125.615 16.952 125.479 17.304 125.207 17.592C124.935 17.864 124.591 18 124.175 18C123.759 18 123.415 17.864 123.143 17.592C122.887 17.32 122.751 16.976 122.735 16.56C122.335 17.024 121.791 17.424 121.103 17.76C120.431 18.08 119.719 18.24 118.967 18.24C117.863 18.24 116.863 17.96 115.967 17.4C115.071 16.824 114.359 16.032 113.831 15.024C113.319 14.016 113.063 12.872 113.063 11.592C113.063 10.312 113.319 9.168 113.831 8.16C114.343 7.136 115.039 6.344 115.919 5.784C116.815 5.208 117.799 4.92 118.871 4.92C119.639 4.92 120.359 5.064 121.031 5.352C121.703 5.624 122.271 5.976 122.735 6.408V6.384C122.735 5.968 122.871 5.624 123.143 5.352C123.415 5.064 123.759 4.92 124.175 4.92ZM119.327 15.6C120.367 15.6 121.215 15.224 121.871 14.472C122.527 13.704 122.855 12.744 122.855 11.592C122.855 10.44 122.527 9.48 121.871 8.712C121.215 7.944 120.367 7.56 119.327 7.56C118.303 7.56 117.463 7.944 116.807 8.712C116.151 9.48 115.823 10.44 115.823 11.592C115.823 12.744 116.143 13.704 116.783 14.472C117.439 15.224 118.287 15.6 119.327 15.6ZM139.368 0.24C139.784 0.24 140.128 0.375999 140.4 0.647999C140.672 0.919999 140.808 1.272 140.808 1.704V16.536C140.808 16.952 140.672 17.304 140.4 17.592C140.128 17.864 139.784 18 139.368 18C138.952 18 138.608 17.864 138.336 17.592C138.08 17.32 137.944 16.976 137.928 16.56C137.528 17.024 136.984 17.424 136.296 17.76C135.624 18.08 134.912 18.24 134.16 18.24C133.056 18.24 132.056 17.96 131.16 17.4C130.264 16.824 129.552 16.032 129.024 15.024C128.512 14.016 128.256 12.872 128.256 11.592C128.256 10.312 128.512 9.168 129.024 8.16C129.536 7.136 130.232 6.344 131.112 5.784C132.008 5.208 132.992 4.92 134.064 4.92C134.832 4.92 135.552 5.064 136.224 5.352C136.896 5.624 137.464 5.976 137.928 6.408V1.704C137.928 1.288 138.064 0.943999 138.336 0.671999C138.608 0.383999 138.952 0.24 139.368 0.24ZM134.52 15.6C135.56 15.6 136.408 15.224 137.064 14.472C137.72 13.704 138.048 12.744 138.048 11.592C138.048 10.44 137.72 9.48 137.064 8.712C136.408 7.944 135.56 7.56 134.52 7.56C133.496 7.56 132.656 7.944 132 8.712C131.344 9.48 131.016 10.44 131.016 11.592C131.016 12.744 131.336 13.704 131.976 14.472C132.632 15.224 133.48 15.6 134.52 15.6ZM157.327 15.288C157.551 15.288 157.751 15.4 157.927 15.624C158.119 15.832 158.215 16.112 158.215 16.464C158.215 16.896 157.975 17.264 157.495 17.568C157.031 17.856 156.503 18 155.911 18C154.919 18 154.079 17.792 153.391 17.376C152.719 16.944 152.383 16.04 152.383 14.664V8.04H151.279C150.895 8.04 150.575 7.912 150.319 7.656C150.063 7.4 149.935 7.08 149.935 6.696C149.935 6.328 150.063 6.024 150.319 5.784C150.575 5.528 150.895 5.4 151.279 5.4H152.383V3.864C152.383 3.448 152.519 3.104 152.791 2.832C153.079 2.544 153.431 2.4 153.847 2.4C154.247 2.4 154.583 2.544 154.855 2.832C155.127 3.104 155.263 3.448 155.263 3.864V5.4H156.967C157.351 5.4 157.671 5.528 157.927 5.784C158.183 6.04 158.311 6.36 158.311 6.744C158.311 7.112 158.183 7.424 157.927 7.68C157.671 7.92 157.351 8.04 156.967 8.04H155.263V14.544C155.263 14.88 155.351 15.128 155.527 15.288C155.703 15.432 155.943 15.504 156.247 15.504C156.375 15.504 156.551 15.472 156.775 15.408C156.967 15.328 157.151 15.288 157.327 15.288ZM173.414 11.592C173.414 12.872 173.126 14.024 172.55 15.048C171.974 16.056 171.182 16.84 170.174 17.4C169.182 17.96 168.086 18.24 166.886 18.24C165.67 18.24 164.566 17.96 163.574 17.4C162.582 16.84 161.798 16.056 161.222 15.048C160.646 14.024 160.358 12.872 160.358 11.592C160.358 10.312 160.646 9.168 161.222 8.16C161.798 7.136 162.582 6.344 163.574 5.784C164.566 5.208 165.67 4.92 166.886 4.92C168.086 4.92 169.182 5.208 170.174 5.784C171.182 6.344 171.974 7.136 172.55 8.16C173.126 9.168 173.414 10.312 173.414 11.592ZM170.534 11.592C170.534 10.808 170.366 10.112 170.03 9.504C169.71 8.88 169.27 8.4 168.71 8.064C168.166 7.728 167.558 7.56 166.886 7.56C166.214 7.56 165.598 7.728 165.038 8.064C164.494 8.4 164.054 8.88 163.718 9.504C163.398 10.112 163.238 10.808 163.238 11.592C163.238 12.376 163.398 13.072 163.718 13.68C164.054 14.288 164.494 14.76 165.038 15.096C165.598 15.432 166.214 15.6 166.886 15.6C167.558 15.6 168.166 15.432 168.71 15.096C169.27 14.76 169.71 14.288 170.03 13.68C170.366 13.072 170.534 12.376 170.534 11.592ZM189.771 4.92C191.355 4.92 192.451 5.408 193.059 6.384C193.667 7.344 193.971 8.68 193.971 10.392V16.536C193.971 16.952 193.835 17.304 193.563 17.592C193.291 17.864 192.947 18 192.531 18C192.115 18 191.771 17.864 191.499 17.592C191.227 17.304 191.091 16.952 191.091 16.536V10.392C191.091 9.512 190.915 8.824 190.563 8.328C190.227 7.816 189.627 7.56 188.763 7.56C187.867 7.56 187.163 7.832 186.651 8.376C186.155 8.904 185.907 9.576 185.907 10.392V16.536C185.907 16.952 185.771 17.304 185.499 17.592C185.227 17.864 184.883 18 184.467 18C184.051 18 183.707 17.864 183.435 17.592C183.163 17.304 183.027 16.952 183.027 16.536V1.704C183.027 1.288 183.163 0.943999 183.435 0.671999C183.707 0.383999 184.051 0.24 184.467 0.24C184.883 0.24 185.227 0.383999 185.499 0.671999C185.771 0.943999 185.907 1.288 185.907 1.704V7.008C186.339 6.432 186.883 5.944 187.539 5.544C188.211 5.128 188.955 4.92 189.771 4.92ZM207.722 4.92C208.138 4.92 208.482 5.056 208.754 5.328C209.026 5.6 209.162 5.952 209.162 6.384V16.536C209.162 16.952 209.026 17.304 208.754 17.592C208.482 17.864 208.138 18 207.722 18C207.306 18 206.962 17.864 206.69 17.592C206.434 17.32 206.298 16.976 206.282 16.56C205.882 17.024 205.338 17.424 204.65 17.76C203.978 18.08 203.266 18.24 202.514 18.24C201.41 18.24 200.41 17.96 199.514 17.4C198.618 16.824 197.906 16.032 197.378 15.024C196.866 14.016 196.61 12.872 196.61 11.592C196.61 10.312 196.866 9.168 197.378 8.16C197.89 7.136 198.586 6.344 199.466 5.784C200.362 5.208 201.346 4.92 202.418 4.92C203.186 4.92 203.906 5.064 204.578 5.352C205.25 5.624 205.818 5.976 206.282 6.408V6.384C206.282 5.968 206.418 5.624 206.69 5.352C206.962 5.064 207.306 4.92 207.722 4.92ZM202.874 15.6C203.914 15.6 204.762 15.224 205.418 14.472C206.074 13.704 206.402 12.744 206.402 11.592C206.402 10.44 206.074 9.48 205.418 8.712C204.762 7.944 203.914 7.56 202.874 7.56C201.85 7.56 201.01 7.944 200.354 8.712C199.698 9.48 199.37 10.44 199.37 11.592C199.37 12.744 199.69 13.704 200.33 14.472C200.986 15.224 201.834 15.6 202.874 15.6ZM222.106 5.184C222.49 5.184 222.81 5.312 223.066 5.568C223.322 5.808 223.45 6.112 223.45 6.48C223.45 6.672 223.386 6.912 223.258 7.2L218.77 17.088C218.658 17.36 218.49 17.576 218.266 17.736C218.058 17.896 217.818 17.984 217.546 18L217.33 18.024C217.058 18.024 216.802 17.944 216.562 17.784C216.338 17.608 216.162 17.376 216.034 17.088L211.57 7.2C211.458 6.944 211.402 6.688 211.402 6.432C211.402 6.112 211.538 5.824 211.81 5.568C212.082 5.296 212.418 5.16 212.818 5.16C213.122 5.16 213.402 5.24 213.658 5.4C213.914 5.56 214.106 5.784 214.234 6.072L217.546 13.656L220.834 6.096C220.962 5.792 221.138 5.56 221.362 5.4C221.586 5.24 221.834 5.168 222.106 5.184ZM237.361 11.28C237.345 11.664 237.193 11.976 236.905 12.216C236.617 12.456 236.281 12.576 235.897 12.576H227.977C228.169 13.52 228.609 14.264 229.297 14.808C229.985 15.336 230.761 15.6 231.625 15.6C232.281 15.6 232.793 15.544 233.161 15.432C233.529 15.304 233.817 15.176 234.025 15.048C234.249 14.904 234.401 14.808 234.481 14.76C234.769 14.616 235.041 14.544 235.297 14.544C235.633 14.544 235.921 14.664 236.161 14.904C236.401 15.144 236.521 15.424 236.521 15.744C236.521 16.176 236.297 16.568 235.849 16.92C235.401 17.288 234.801 17.6 234.049 17.856C233.297 18.112 232.537 18.24 231.769 18.24C230.425 18.24 229.249 17.96 228.241 17.4C227.249 16.84 226.481 16.072 225.937 15.096C225.393 14.104 225.121 12.992 225.121 11.76C225.121 10.384 225.409 9.176 225.985 8.136C226.561 7.096 227.321 6.304 228.265 5.76C229.209 5.2 230.217 4.92 231.289 4.92C232.345 4.92 233.337 5.208 234.265 5.784C235.209 6.36 235.961 7.136 236.521 8.112C237.081 9.088 237.361 10.144 237.361 11.28ZM231.289 7.56C229.433 7.56 228.337 8.432 228.001 10.176H234.289V10.008C234.225 9.336 233.897 8.76 233.305 8.28C232.713 7.8 232.041 7.56 231.289 7.56ZM256.497 5.16C256.913 5.16 257.257 5.304 257.529 5.592C257.801 5.864 257.937 6.208 257.937 6.624V16.824C257.937 18.904 257.377 20.416 256.257 21.36C255.137 22.32 253.641 22.8 251.769 22.8C251.225 22.8 250.665 22.752 250.089 22.656C249.529 22.576 249.073 22.464 248.721 22.32C247.937 21.984 247.545 21.52 247.545 20.928C247.545 20.816 247.569 20.688 247.617 20.544C247.713 20.192 247.873 19.92 248.097 19.728C248.337 19.552 248.593 19.464 248.865 19.464C249.025 19.464 249.177 19.488 249.321 19.536C249.433 19.584 249.625 19.664 249.897 19.776C250.185 19.888 250.481 19.976 250.785 20.04C251.105 20.12 251.433 20.16 251.769 20.16C252.905 20.16 253.737 19.912 254.265 19.416C254.809 18.936 255.081 18.104 255.081 16.92V16.68C254.249 17.72 252.953 18.24 251.193 18.24C250.361 18.24 249.625 18.048 248.985 17.664C248.345 17.264 247.849 16.72 247.497 16.032C247.145 15.328 246.969 14.528 246.969 13.632V6.624C246.969 6.208 247.105 5.864 247.377 5.592C247.649 5.304 247.993 5.16 248.409 5.16C248.825 5.16 249.169 5.304 249.441 5.592C249.713 5.864 249.849 6.208 249.849 6.624V12.768C249.849 13.776 250.065 14.504 250.497 14.952C250.945 15.384 251.593 15.6 252.441 15.6C253.273 15.6 253.913 15.36 254.361 14.88C254.825 14.384 255.057 13.68 255.057 12.768V6.624C255.057 6.208 255.193 5.864 255.465 5.592C255.737 5.304 256.081 5.16 256.497 5.16ZM273.514 11.592C273.514 12.872 273.226 14.024 272.65 15.048C272.074 16.056 271.282 16.84 270.274 17.4C269.282 17.96 268.186 18.24 266.986 18.24C265.77 18.24 264.666 17.96 263.674 17.4C262.682 16.84 261.898 16.056 261.322 15.048C260.746 14.024 260.458 12.872 260.458 11.592C260.458 10.312 260.746 9.168 261.322 8.16C261.898 7.136 262.682 6.344 263.674 5.784C264.666 5.208 265.77 4.92 266.986 4.92C268.186 4.92 269.282 5.208 270.274 5.784C271.282 6.344 272.074 7.136 272.65 8.16C273.226 9.168 273.514 10.312 273.514 11.592ZM270.634 11.592C270.634 10.808 270.466 10.112 270.13 9.504C269.81 8.88 269.37 8.4 268.81 8.064C268.266 7.728 267.658 7.56 266.986 7.56C266.314 7.56 265.698 7.728 265.138 8.064C264.594 8.4 264.154 8.88 263.818 9.504C263.498 10.112 263.338 10.808 263.338 11.592C263.338 12.376 263.498 13.072 263.818 13.68C264.154 14.288 264.594 14.76 265.138 15.096C265.698 15.432 266.314 15.6 266.986 15.6C267.658 15.6 268.266 15.432 268.81 15.096C269.37 14.76 269.81 14.288 270.13 13.68C270.466 13.072 270.634 12.376 270.634 11.592ZM285.688 5.16C286.104 5.16 286.448 5.304 286.72 5.592C286.992 5.864 287.128 6.208 287.128 6.624V12.72C287.128 14.448 286.648 15.8 285.688 16.776C284.744 17.752 283.392 18.24 281.632 18.24C279.872 18.24 278.52 17.752 277.576 16.776C276.632 15.8 276.16 14.448 276.16 12.72V6.624C276.16 6.208 276.296 5.864 276.568 5.592C276.84 5.304 277.184 5.16 277.6 5.16C278.016 5.16 278.36 5.304 278.632 5.592C278.904 5.864 279.04 6.208 279.04 6.624V12.72C279.04 13.696 279.256 14.424 279.688 14.904C280.12 15.368 280.768 15.6 281.632 15.6C282.512 15.6 283.168 15.368 283.6 14.904C284.032 14.424 284.248 13.696 284.248 12.72V6.624C284.248 6.208 284.384 5.864 284.656 5.592C284.928 5.304 285.272 5.16 285.688 5.16ZM4.272 46.536C4.272 46.952 4.136 47.304 3.864 47.592C3.592 47.864 3.248 48 2.832 48C2.416 48 2.072 47.864 1.8 47.592C1.528 47.304 1.392 46.952 1.392 46.536V36.624C1.392 36.208 1.528 35.864 1.8 35.592C2.072 35.304 2.416 35.16 2.832 35.16C3.248 35.16 3.592 35.304 3.864 35.592C4.136 35.864 4.272 36.208 4.272 36.624V46.536ZM2.808 33.6C2.264 33.6 1.88 33.512 1.656 33.336C1.432 33.16 1.32 32.848 1.32 32.4V31.944C1.32 31.496 1.44 31.184 1.68 31.008C1.92 30.832 2.304 30.744 2.832 30.744C3.392 30.744 3.784 30.832 4.008 31.008C4.232 31.184 4.344 31.496 4.344 31.944V32.4C4.344 32.864 4.224 33.184 3.984 33.36C3.76 33.52 3.368 33.6 2.808 33.6ZM14.3359 34.92C15.9679 34.92 17.0959 35.408 17.7199 36.384C18.3439 37.344 18.6559 38.68 18.6559 40.392V46.536C18.6559 46.952 18.5199 47.304 18.2479 47.592C17.9759 47.864 17.6319 48 17.2159 48C16.7999 48 16.4559 47.864 16.1839 47.592C15.9119 47.304 15.7759 46.952 15.7759 46.536V40.392C15.7759 39.512 15.5919 38.824 15.2239 38.328C14.8559 37.816 14.2239 37.56 13.3279 37.56C12.3999 37.56 11.6719 37.832 11.1439 38.376C10.6159 38.904 10.3519 39.576 10.3519 40.392V46.536C10.3519 46.952 10.2159 47.304 9.94388 47.592C9.67188 47.864 9.32787 48 8.91187 48C8.49587 48 8.15187 47.864 7.87987 47.592C7.60787 47.304 7.47187 46.952 7.47187 46.536V36.624C7.47187 36.208 7.60787 35.864 7.87987 35.592C8.15187 35.304 8.49587 35.16 8.91187 35.16C9.32787 35.16 9.67188 35.304 9.94388 35.592C10.2159 35.864 10.3519 36.208 10.3519 36.624V37.032C10.7839 36.456 11.3439 35.96 12.0319 35.544C12.7359 35.128 13.5039 34.92 14.3359 34.92ZM41.3113 41.592C41.3113 42.872 41.0233 44.024 40.4473 45.048C39.8713 46.056 39.0793 46.84 38.0713 47.4C37.0793 47.96 35.9833 48.24 34.7833 48.24C33.5673 48.24 32.4633 47.96 31.4713 47.4C30.4793 46.84 29.6953 46.056 29.1193 45.048C28.5433 44.024 28.2553 42.872 28.2553 41.592C28.2553 40.312 28.5433 39.168 29.1193 38.16C29.6953 37.136 30.4793 36.344 31.4713 35.784C32.4633 35.208 33.5673 34.92 34.7833 34.92C35.9833 34.92 37.0793 35.208 38.0713 35.784C39.0793 36.344 39.8713 37.136 40.4473 38.16C41.0233 39.168 41.3113 40.312 41.3113 41.592ZM38.4313 41.592C38.4313 40.808 38.2633 40.112 37.9273 39.504C37.6073 38.88 37.1673 38.4 36.6073 38.064C36.0633 37.728 35.4553 37.56 34.7833 37.56C34.1113 37.56 33.4953 37.728 32.9353 38.064C32.3913 38.4 31.9513 38.88 31.6153 39.504C31.2953 40.112 31.1353 40.808 31.1353 41.592C31.1353 42.376 31.2953 43.072 31.6153 43.68C31.9513 44.288 32.3913 44.76 32.9353 45.096C33.4953 45.432 34.1113 45.6 34.7833 45.6C35.4553 45.6 36.0633 45.432 36.6073 45.096C37.1673 44.76 37.6073 44.288 37.9273 43.68C38.2633 43.072 38.4313 42.376 38.4313 41.592ZM53.4855 35.16C53.9015 35.16 54.2455 35.304 54.5175 35.592C54.7895 35.864 54.9255 36.208 54.9255 36.624V42.72C54.9255 44.448 54.4455 45.8 53.4855 46.776C52.5415 47.752 51.1895 48.24 49.4295 48.24C47.6695 48.24 46.3175 47.752 45.3735 46.776C44.4295 45.8 43.9575 44.448 43.9575 42.72V36.624C43.9575 36.208 44.0935 35.864 44.3655 35.592C44.6375 35.304 44.9815 35.16 45.3975 35.16C45.8135 35.16 46.1575 35.304 46.4295 35.592C46.7015 35.864 46.8375 36.208 46.8375 36.624V42.72C46.8375 43.696 47.0535 44.424 47.4855 44.904C47.9175 45.368 48.5655 45.6 49.4295 45.6C50.3095 45.6 50.9655 45.368 51.3975 44.904C51.8295 44.424 52.0455 43.696 52.0455 42.72V36.624C52.0455 36.208 52.1815 35.864 52.4535 35.592C52.7255 35.304 53.0695 35.16 53.4855 35.16ZM64.9554 34.92C65.4354 34.92 65.8354 35.056 66.1554 35.328C66.4914 35.6 66.6594 35.92 66.6594 36.288C66.6594 36.784 66.5314 37.16 66.2754 37.416C66.0194 37.656 65.7154 37.776 65.3634 37.776C65.1234 37.776 64.8514 37.72 64.5474 37.608C64.4994 37.592 64.3874 37.56 64.2114 37.512C64.0514 37.464 63.8754 37.44 63.6834 37.44C63.2674 37.44 62.8674 37.568 62.4834 37.824C62.0994 38.08 61.7794 38.472 61.5234 39C61.2834 39.512 61.1634 40.128 61.1634 40.848V46.536C61.1634 46.952 61.0274 47.304 60.7554 47.592C60.4834 47.864 60.1394 48 59.7234 48C59.3074 48 58.9634 47.864 58.6914 47.592C58.4194 47.304 58.2834 46.952 58.2834 46.536V36.624C58.2834 36.208 58.4194 35.864 58.6914 35.592C58.9634 35.304 59.3074 35.16 59.7234 35.16C60.1394 35.16 60.4834 35.304 60.7554 35.592C61.0274 35.864 61.1634 36.208 61.1634 36.624V36.936C61.5314 36.28 62.0594 35.784 62.7474 35.448C63.4354 35.096 64.1714 34.92 64.9554 34.92ZM81.4883 34.92C82.8483 34.92 83.9443 35.136 84.7763 35.568C85.6083 35.984 86.0243 36.544 86.0243 37.248C86.0243 37.6 85.9203 37.912 85.7123 38.184C85.5043 38.44 85.2323 38.568 84.8963 38.568C84.6403 38.568 84.4323 38.536 84.2723 38.472C84.1123 38.392 83.9523 38.296 83.7923 38.184C83.6483 38.056 83.5043 37.952 83.3603 37.872C83.2003 37.792 82.9603 37.72 82.6403 37.656C82.3363 37.592 82.0883 37.56 81.8963 37.56C80.6963 37.56 79.7523 37.936 79.0643 38.688C78.3923 39.424 78.0563 40.392 78.0563 41.592C78.0563 42.744 78.4003 43.704 79.0883 44.472C79.7763 45.224 80.6563 45.6 81.7283 45.6C82.5123 45.6 83.0963 45.504 83.4803 45.312C83.5763 45.264 83.7043 45.184 83.8643 45.072C84.0403 44.944 84.2003 44.848 84.3443 44.784C84.4883 44.72 84.6643 44.688 84.8723 44.688C85.2723 44.688 85.5843 44.816 85.8083 45.072C86.0483 45.328 86.1683 45.656 86.1683 46.056C86.1683 46.44 85.9443 46.8 85.4963 47.136C85.0483 47.472 84.4563 47.744 83.7203 47.952C82.9843 48.144 82.2003 48.24 81.3683 48.24C80.1363 48.24 79.0483 47.952 78.1043 47.376C77.1763 46.8 76.4563 46.008 75.9443 45C75.4323 43.976 75.1763 42.84 75.1763 41.592C75.1763 40.296 75.4403 39.144 75.9683 38.136C76.5123 37.128 77.2643 36.344 78.2243 35.784C79.1843 35.208 80.2723 34.92 81.4883 34.92ZM100.824 41.592C100.824 42.872 100.536 44.024 99.9598 45.048C99.3838 46.056 98.5918 46.84 97.5838 47.4C96.5918 47.96 95.4958 48.24 94.2958 48.24C93.0798 48.24 91.9758 47.96 90.9838 47.4C89.9918 46.84 89.2078 46.056 88.6318 45.048C88.0558 44.024 87.7678 42.872 87.7678 41.592C87.7678 40.312 88.0558 39.168 88.6318 38.16C89.2078 37.136 89.9918 36.344 90.9838 35.784C91.9758 35.208 93.0798 34.92 94.2958 34.92C95.4958 34.92 96.5918 35.208 97.5838 35.784C98.5918 36.344 99.3838 37.136 99.9598 38.16C100.536 39.168 100.824 40.312 100.824 41.592ZM97.9438 41.592C97.9438 40.808 97.7758 40.112 97.4398 39.504C97.1198 38.88 96.6798 38.4 96.1198 38.064C95.5758 37.728 94.9678 37.56 94.2958 37.56C93.6238 37.56 93.0078 37.728 92.4478 38.064C91.9038 38.4 91.4638 38.88 91.1278 39.504C90.8078 40.112 90.6478 40.808 90.6478 41.592C90.6478 42.376 90.8078 43.072 91.1278 43.68C91.4638 44.288 91.9038 44.76 92.4478 45.096C93.0078 45.432 93.6238 45.6 94.2958 45.6C94.9678 45.6 95.5758 45.432 96.1198 45.096C96.6798 44.76 97.1198 44.288 97.4398 43.68C97.7758 43.072 97.9438 42.376 97.9438 41.592ZM118.278 34.92C119.862 34.92 120.958 35.408 121.566 36.384C122.174 37.344 122.478 38.68 122.478 40.392V46.536C122.478 46.952 122.342 47.304 122.07 47.592C121.798 47.864 121.454 48 121.038 48C120.622 48 120.278 47.864 120.006 47.592C119.734 47.304 119.598 46.952 119.598 46.536V40.392C119.598 39.512 119.422 38.824 119.07 38.328C118.734 37.816 118.134 37.56 117.27 37.56C116.374 37.56 115.67 37.832 115.158 38.376C114.662 38.904 114.414 39.576 114.414 40.392V46.536C114.414 46.952 114.278 47.304 114.006 47.592C113.734 47.864 113.39 48 112.974 48C112.558 48 112.214 47.864 111.942 47.592C111.67 47.304 111.534 46.952 111.534 46.536V40.392C111.534 39.512 111.358 38.824 111.006 38.328C110.67 37.816 110.07 37.56 109.206 37.56C108.31 37.56 107.606 37.832 107.094 38.376C106.598 38.904 106.35 39.576 106.35 40.392V46.536C106.35 46.952 106.214 47.304 105.942 47.592C105.67 47.864 105.326 48 104.91 48C104.494 48 104.15 47.864 103.878 47.592C103.606 47.304 103.47 46.952 103.47 46.536V36.624C103.47 36.208 103.606 35.864 103.878 35.592C104.15 35.304 104.494 35.16 104.91 35.16C105.326 35.16 105.67 35.304 105.942 35.592C106.214 35.864 106.35 36.208 106.35 36.624V37.008C106.782 36.432 107.326 35.944 107.982 35.544C108.654 35.128 109.398 34.92 110.214 34.92C112.23 34.92 113.518 35.8 114.078 37.56C114.446 36.888 114.998 36.28 115.734 35.736C116.486 35.192 117.334 34.92 118.278 34.92ZM140.643 34.92C142.227 34.92 143.323 35.408 143.931 36.384C144.539 37.344 144.843 38.68 144.843 40.392V46.536C144.843 46.952 144.707 47.304 144.435 47.592C144.163 47.864 143.819 48 143.403 48C142.987 48 142.643 47.864 142.371 47.592C142.099 47.304 141.963 46.952 141.963 46.536V40.392C141.963 39.512 141.787 38.824 141.435 38.328C141.099 37.816 140.499 37.56 139.635 37.56C138.739 37.56 138.035 37.832 137.523 38.376C137.027 38.904 136.779 39.576 136.779 40.392V46.536C136.779 46.952 136.643 47.304 136.371 47.592C136.099 47.864 135.755 48 135.339 48C134.923 48 134.579 47.864 134.307 47.592C134.035 47.304 133.899 46.952 133.899 46.536V40.392C133.899 39.512 133.723 38.824 133.371 38.328C133.035 37.816 132.435 37.56 131.571 37.56C130.675 37.56 129.971 37.832 129.459 38.376C128.963 38.904 128.715 39.576 128.715 40.392V46.536C128.715 46.952 128.579 47.304 128.307 47.592C128.035 47.864 127.691 48 127.275 48C126.859 48 126.515 47.864 126.243 47.592C125.971 47.304 125.835 46.952 125.835 46.536V36.624C125.835 36.208 125.971 35.864 126.243 35.592C126.515 35.304 126.859 35.16 127.275 35.16C127.691 35.16 128.035 35.304 128.307 35.592C128.579 35.864 128.715 36.208 128.715 36.624V37.008C129.147 36.432 129.691 35.944 130.347 35.544C131.019 35.128 131.763 34.92 132.579 34.92C134.595 34.92 135.883 35.8 136.443 37.56C136.811 36.888 137.363 36.28 138.099 35.736C138.851 35.192 139.699 34.92 140.643 34.92ZM157.728 35.16C158.144 35.16 158.488 35.304 158.76 35.592C159.032 35.864 159.168 36.208 159.168 36.624V42.72C159.168 44.448 158.688 45.8 157.728 46.776C156.784 47.752 155.432 48.24 153.672 48.24C151.912 48.24 150.56 47.752 149.616 46.776C148.672 45.8 148.2 44.448 148.2 42.72V36.624C148.2 36.208 148.336 35.864 148.608 35.592C148.88 35.304 149.224 35.16 149.64 35.16C150.056 35.16 150.4 35.304 150.672 35.592C150.944 35.864 151.08 36.208 151.08 36.624V42.72C151.08 43.696 151.296 44.424 151.728 44.904C152.16 45.368 152.808 45.6 153.672 45.6C154.552 45.6 155.208 45.368 155.64 44.904C156.072 44.424 156.288 43.696 156.288 42.72V36.624C156.288 36.208 156.424 35.864 156.696 35.592C156.968 35.304 157.312 35.16 157.728 35.16ZM169.39 34.92C171.022 34.92 172.15 35.408 172.774 36.384C173.398 37.344 173.71 38.68 173.71 40.392V46.536C173.71 46.952 173.574 47.304 173.302 47.592C173.03 47.864 172.686 48 172.27 48C171.854 48 171.51 47.864 171.238 47.592C170.966 47.304 170.83 46.952 170.83 46.536V40.392C170.83 39.512 170.646 38.824 170.278 38.328C169.91 37.816 169.278 37.56 168.382 37.56C167.454 37.56 166.726 37.832 166.198 38.376C165.67 38.904 165.406 39.576 165.406 40.392V46.536C165.406 46.952 165.27 47.304 164.998 47.592C164.726 47.864 164.382 48 163.966 48C163.55 48 163.206 47.864 162.934 47.592C162.662 47.304 162.526 46.952 162.526 46.536V36.624C162.526 36.208 162.662 35.864 162.934 35.592C163.206 35.304 163.55 35.16 163.966 35.16C164.382 35.16 164.726 35.304 164.998 35.592C165.27 35.864 165.406 36.208 165.406 36.624V37.032C165.838 36.456 166.398 35.96 167.086 35.544C167.79 35.128 168.558 34.92 169.39 34.92ZM179.775 46.536C179.775 46.952 179.639 47.304 179.367 47.592C179.095 47.864 178.751 48 178.335 48C177.919 48 177.575 47.864 177.303 47.592C177.031 47.304 176.895 46.952 176.895 46.536V36.624C176.895 36.208 177.031 35.864 177.303 35.592C177.575 35.304 177.919 35.16 178.335 35.16C178.751 35.16 179.095 35.304 179.367 35.592C179.639 35.864 179.775 36.208 179.775 36.624V46.536ZM178.311 33.6C177.767 33.6 177.383 33.512 177.159 33.336C176.935 33.16 176.823 32.848 176.823 32.4V31.944C176.823 31.496 176.943 31.184 177.183 31.008C177.423 30.832 177.807 30.744 178.335 30.744C178.895 30.744 179.287 30.832 179.511 31.008C179.735 31.184 179.847 31.496 179.847 31.944V32.4C179.847 32.864 179.727 33.184 179.487 33.36C179.263 33.52 178.871 33.6 178.311 33.6ZM189.167 45.288C189.391 45.288 189.591 45.4 189.767 45.624C189.959 45.832 190.055 46.112 190.055 46.464C190.055 46.896 189.815 47.264 189.335 47.568C188.871 47.856 188.343 48 187.751 48C186.759 48 185.919 47.792 185.231 47.376C184.559 46.944 184.223 46.04 184.223 44.664V38.04H183.119C182.735 38.04 182.415 37.912 182.159 37.656C181.903 37.4 181.775 37.08 181.775 36.696C181.775 36.328 181.903 36.024 182.159 35.784C182.415 35.528 182.735 35.4 183.119 35.4H184.223V33.864C184.223 33.448 184.359 33.104 184.631 32.832C184.919 32.544 185.271 32.4 185.687 32.4C186.087 32.4 186.423 32.544 186.695 32.832C186.967 33.104 187.103 33.448 187.103 33.864V35.4H188.807C189.191 35.4 189.511 35.528 189.767 35.784C190.023 36.04 190.151 36.36 190.151 36.744C190.151 37.112 190.023 37.424 189.767 37.68C189.511 37.92 189.191 38.04 188.807 38.04H187.103V44.544C187.103 44.88 187.191 45.128 187.367 45.288C187.543 45.432 187.783 45.504 188.087 45.504C188.215 45.504 188.391 45.472 188.615 45.408C188.807 45.328 188.991 45.288 189.167 45.288ZM202.563 35.16C202.979 35.16 203.323 35.304 203.595 35.592C203.867 35.864 204.003 36.208 204.003 36.624V46.824C204.003 48.904 203.443 50.416 202.323 51.36C201.203 52.32 199.707 52.8 197.835 52.8C197.291 52.8 196.731 52.752 196.155 52.656C195.595 52.576 195.139 52.464 194.787 52.32C194.003 51.984 193.611 51.52 193.611 50.928C193.611 50.816 193.635 50.688 193.683 50.544C193.779 50.192 193.939 49.92 194.163 49.728C194.403 49.552 194.659 49.464 194.931 49.464C195.091 49.464 195.243 49.488 195.387 49.536C195.499 49.584 195.691 49.664 195.963 49.776C196.251 49.888 196.547 49.976 196.851 50.04C197.171 50.12 197.499 50.16 197.835 50.16C198.971 50.16 199.803 49.912 200.331 49.416C200.875 48.936 201.147 48.104 201.147 46.92V46.68C200.315 47.72 199.019 48.24 197.259 48.24C196.427 48.24 195.691 48.048 195.051 47.664C194.411 47.264 193.915 46.72 193.563 46.032C193.211 45.328 193.035 44.528 193.035 43.632V36.624C193.035 36.208 193.171 35.864 193.443 35.592C193.715 35.304 194.059 35.16 194.475 35.16C194.891 35.16 195.235 35.304 195.507 35.592C195.779 35.864 195.915 36.208 195.915 36.624V42.768C195.915 43.776 196.131 44.504 196.563 44.952C197.011 45.384 197.659 45.6 198.507 45.6C199.339 45.6 199.979 45.36 200.427 44.88C200.891 44.384 201.123 43.68 201.123 42.768V36.624C201.123 36.208 201.259 35.864 201.531 35.592C201.803 35.304 202.147 35.16 202.563 35.16ZM209.017 42.696C208.473 42.696 208.177 42.392 208.129 41.784L207.433 32.952C207.401 32.456 207.529 32.04 207.817 31.704C208.121 31.368 208.513 31.2 208.993 31.2C209.473 31.2 209.865 31.368 210.169 31.704C210.473 32.04 210.601 32.456 210.553 32.952L209.881 41.784C209.833 42.392 209.545 42.696 209.017 42.696ZM208.849 48C208.385 48 208.025 47.88 207.769 47.64C207.529 47.384 207.409 47.024 207.409 46.56V46.152C207.409 45.688 207.529 45.336 207.769 45.096C208.025 44.84 208.385 44.712 208.849 44.712H209.161C209.625 44.712 209.977 44.84 210.217 45.096C210.473 45.336 210.601 45.688 210.601 46.152V46.56C210.601 47.024 210.473 47.384 210.217 47.64C209.977 47.88 209.625 48 209.161 48H208.849Z" fill="white"/>
</svg>
