<svg width="145" height="33" viewBox="0 0 145 33" fill="none" xmlns="http://www.w3.org/2000/svg">
<circle cx="136.222" cy="15.1897" r="7.45441" stroke="white" stroke-width="2"/>
<path d="M129.088 15.4952H138.6M138.6 15.4952L135.429 12.6176M138.6 15.4952L135.429 18.7324" stroke="white" stroke-width="2" stroke-linejoin="round"/>
<path d="M10.142 19.426C10.5233 19.426 10.8387 19.5507 11.088 19.8C11.352 20.0347 11.484 20.3427 11.484 20.724C11.484 21.0907 11.352 21.3987 11.088 21.648C10.8387 21.8827 10.5233 22 10.142 22H2.992C2.61067 22 2.288 21.8753 2.024 21.626C1.77467 21.362 1.65 21.0393 1.65 20.658V7.942C1.65 7.56067 1.782 7.24533 2.046 6.996C2.31 6.732 2.64733 6.6 3.058 6.6C3.42467 6.6 3.74 6.732 4.004 6.996C4.268 7.24533 4.4 7.56067 4.4 7.942V19.426H10.142ZM24.5635 15.84C24.5488 16.192 24.4095 16.478 24.1455 16.698C23.8815 16.918 23.5735 17.028 23.2215 17.028H15.9615C16.1375 17.8933 16.5408 18.5753 17.1715 19.074C17.8022 19.558 18.5135 19.8 19.3055 19.8C19.9068 19.8 20.3762 19.7487 20.7135 19.646C21.0508 19.5287 21.3148 19.4113 21.5055 19.294C21.7108 19.162 21.8502 19.074 21.9235 19.03C22.1875 18.898 22.4368 18.832 22.6715 18.832C22.9795 18.832 23.2435 18.942 23.4635 19.162C23.6835 19.382 23.7935 19.6387 23.7935 19.932C23.7935 20.328 23.5882 20.6873 23.1775 21.01C22.7668 21.3473 22.2168 21.6333 21.5275 21.868C20.8382 22.1027 20.1415 22.22 19.4375 22.22C18.2055 22.22 17.1275 21.9633 16.2035 21.45C15.2942 20.9367 14.5902 20.2327 14.0915 19.338C13.5928 18.4287 13.3435 17.4093 13.3435 16.28C13.3435 15.0187 13.6075 13.9113 14.1355 12.958C14.6635 12.0047 15.3602 11.2787 16.2255 10.78C17.0908 10.2667 18.0148 10.01 18.9975 10.01C19.9655 10.01 20.8748 10.274 21.7255 10.802C22.5908 11.33 23.2802 12.0413 23.7935 12.936C24.3068 13.8307 24.5635 14.7987 24.5635 15.84ZM18.9975 12.43C17.2962 12.43 16.2915 13.2293 15.9835 14.828H21.7475V14.674C21.6888 14.058 21.3882 13.53 20.8455 13.09C20.3028 12.65 19.6868 12.43 18.9975 12.43ZM36.5972 10.01C36.9785 10.01 37.2938 10.1347 37.5432 10.384C37.7925 10.6333 37.9172 10.956 37.9172 11.352V20.658C37.9172 21.0393 37.7925 21.362 37.5432 21.626C37.2938 21.8753 36.9785 22 36.5972 22C36.2158 22 35.9005 21.8753 35.6512 21.626C35.4165 21.3767 35.2918 21.0613 35.2772 20.68C34.9105 21.1053 34.4118 21.472 33.7812 21.78C33.1652 22.0733 32.5125 22.22 31.8232 22.22C30.8112 22.22 29.8945 21.9633 29.0732 21.45C28.2518 20.922 27.5992 20.196 27.1152 19.272C26.6458 18.348 26.4112 17.2993 26.4112 16.126C26.4112 14.9527 26.6458 13.904 27.1152 12.98C27.5845 12.0413 28.2225 11.3153 29.0292 10.802C29.8505 10.274 30.7525 10.01 31.7352 10.01C32.4392 10.01 33.0992 10.142 33.7152 10.406C34.3312 10.6553 34.8518 10.978 35.2772 11.374V11.352C35.2772 10.9707 35.4018 10.6553 35.6512 10.406C35.9005 10.142 36.2158 10.01 36.5972 10.01ZM32.1532 19.8C33.1065 19.8 33.8838 19.4553 34.4852 18.766C35.0865 18.062 35.3872 17.182 35.3872 16.126C35.3872 15.07 35.0865 14.19 34.4852 13.486C33.8838 12.782 33.1065 12.43 32.1532 12.43C31.2145 12.43 30.4445 12.782 29.8432 13.486C29.2418 14.19 28.9412 15.07 28.9412 16.126C28.9412 17.182 29.2345 18.062 29.8212 18.766C30.4225 19.4553 31.1998 19.8 32.1532 19.8ZM47.1142 10.01C47.5542 10.01 47.9209 10.1347 48.2142 10.384C48.5222 10.6333 48.6762 10.9267 48.6762 11.264C48.6762 11.7187 48.5589 12.0633 48.3242 12.298C48.0895 12.518 47.8109 12.628 47.4882 12.628C47.2682 12.628 47.0189 12.5767 46.7402 12.474C46.6962 12.4593 46.5935 12.43 46.4322 12.386C46.2855 12.342 46.1242 12.32 45.9482 12.32C45.5669 12.32 45.2002 12.4373 44.8482 12.672C44.4962 12.9067 44.2029 13.266 43.9682 13.75C43.7482 14.2193 43.6382 14.784 43.6382 15.444V20.658C43.6382 21.0393 43.5135 21.362 43.2642 21.626C43.0149 21.8753 42.6995 22 42.3182 22C41.9369 22 41.6215 21.8753 41.3722 21.626C41.1229 21.362 40.9982 21.0393 40.9982 20.658V11.572C40.9982 11.1907 41.1229 10.8753 41.3722 10.626C41.6215 10.362 41.9369 10.23 42.3182 10.23C42.6995 10.23 43.0149 10.362 43.2642 10.626C43.5135 10.8753 43.6382 11.1907 43.6382 11.572V11.858C43.9755 11.2567 44.4595 10.802 45.0902 10.494C45.7209 10.1713 46.3955 10.01 47.1142 10.01ZM57.0493 10.01C58.5453 10.01 59.5793 10.4573 60.1513 11.352C60.7233 12.232 61.0093 13.4567 61.0093 15.026V20.658C61.0093 21.0393 60.8846 21.362 60.6353 21.626C60.3859 21.8753 60.0706 22 59.6893 22C59.3079 22 58.9926 21.8753 58.7433 21.626C58.4939 21.362 58.3693 21.0393 58.3693 20.658V15.026C58.3693 14.2193 58.2006 13.5887 57.8633 13.134C57.5259 12.6647 56.9466 12.43 56.1253 12.43C55.2746 12.43 54.6073 12.6793 54.1233 13.178C53.6393 13.662 53.3973 14.278 53.3973 15.026V20.658C53.3973 21.0393 53.2726 21.362 53.0233 21.626C52.7739 21.8753 52.4586 22 52.0773 22C51.6959 22 51.3806 21.8753 51.1313 21.626C50.8819 21.362 50.7573 21.0393 50.7573 20.658V11.572C50.7573 11.1907 50.8819 10.8753 51.1313 10.626C51.3806 10.362 51.6959 10.23 52.0773 10.23C52.4586 10.23 52.7739 10.362 53.0233 10.626C53.2726 10.8753 53.3973 11.1907 53.3973 11.572V11.946C53.7933 11.418 54.3066 10.9633 54.9373 10.582C55.5826 10.2007 56.2866 10.01 57.0493 10.01ZM84.0428 6.578C84.4094 6.578 84.7248 6.71 84.9888 6.974C85.2674 7.22333 85.4068 7.53867 85.4068 7.92V20.658C85.4068 21.0393 85.2821 21.362 85.0328 21.626C84.7834 21.8753 84.4534 22 84.0428 22C83.6321 22 83.2948 21.8753 83.0308 21.626C82.7814 21.3767 82.6568 21.054 82.6568 20.658V11.792L79.0268 17.336C78.8801 17.512 78.7114 17.6587 78.5208 17.776C78.3301 17.8787 78.1321 17.9227 77.9268 17.908C77.7361 17.9227 77.5454 17.8787 77.3548 17.776C77.1641 17.6587 76.9954 17.512 76.8488 17.336L73.2187 11.594V20.658C73.2187 21.054 73.1014 21.3767 72.8667 21.626C72.6321 21.8753 72.3241 22 71.9427 22C71.5761 22 71.2754 21.8753 71.0407 21.626C70.8061 21.362 70.6887 21.0393 70.6887 20.658V7.92C70.6887 7.55333 70.8207 7.238 71.0847 6.974C71.3634 6.71 71.6934 6.578 72.0747 6.578C72.2947 6.578 72.5147 6.63667 72.7347 6.754C72.9547 6.85667 73.1234 6.996 73.2408 7.172L78.0367 14.542L82.9648 7.172C83.0821 6.996 83.2361 6.85667 83.4268 6.754C83.6321 6.63667 83.8374 6.578 84.0428 6.578ZM100.022 16.126C100.022 17.2993 99.7581 18.3553 99.2301 19.294C98.7021 20.218 97.9761 20.9367 97.0521 21.45C96.1428 21.9633 95.1381 22.22 94.0381 22.22C92.9235 22.22 91.9115 21.9633 91.0021 21.45C90.0928 20.9367 89.3741 20.218 88.8461 19.294C88.3181 18.3553 88.0541 17.2993 88.0541 16.126C88.0541 14.9527 88.3181 13.904 88.8461 12.98C89.3741 12.0413 90.0928 11.3153 91.0021 10.802C91.9115 10.274 92.9235 10.01 94.0381 10.01C95.1381 10.01 96.1428 10.274 97.0521 10.802C97.9761 11.3153 98.7021 12.0413 99.2301 12.98C99.7581 13.904 100.022 14.9527 100.022 16.126ZM97.3821 16.126C97.3821 15.4073 97.2281 14.7693 96.9201 14.212C96.6268 13.64 96.2235 13.2 95.7101 12.892C95.2115 12.584 94.6541 12.43 94.0381 12.43C93.4221 12.43 92.8575 12.584 92.3441 12.892C91.8455 13.2 91.4421 13.64 91.1341 14.212C90.8408 14.7693 90.6941 15.4073 90.6941 16.126C90.6941 16.8447 90.8408 17.4827 91.1341 18.04C91.4421 18.5973 91.8455 19.03 92.3441 19.338C92.8575 19.646 93.4221 19.8 94.0381 19.8C94.6541 19.8 95.2115 19.646 95.7101 19.338C96.2235 19.03 96.6268 18.5973 96.9201 18.04C97.2281 17.4827 97.3821 16.8447 97.3821 16.126ZM108.564 10.01C109.004 10.01 109.37 10.1347 109.664 10.384C109.972 10.6333 110.126 10.9267 110.126 11.264C110.126 11.7187 110.008 12.0633 109.774 12.298C109.539 12.518 109.26 12.628 108.938 12.628C108.718 12.628 108.468 12.5767 108.19 12.474C108.146 12.4593 108.043 12.43 107.882 12.386C107.735 12.342 107.574 12.32 107.398 12.32C107.016 12.32 106.65 12.4373 106.298 12.672C105.946 12.9067 105.652 13.266 105.418 13.75C105.198 14.2193 105.088 14.784 105.088 15.444V20.658C105.088 21.0393 104.963 21.362 104.714 21.626C104.464 21.8753 104.149 22 103.768 22C103.386 22 103.071 21.8753 102.822 21.626C102.572 21.362 102.448 21.0393 102.448 20.658V11.572C102.448 11.1907 102.572 10.8753 102.822 10.626C103.071 10.362 103.386 10.23 103.768 10.23C104.149 10.23 104.464 10.362 104.714 10.626C104.963 10.8753 105.088 11.1907 105.088 11.572V11.858C105.425 11.2567 105.909 10.802 106.54 10.494C107.17 10.1713 107.845 10.01 108.564 10.01ZM122.273 15.84C122.258 16.192 122.119 16.478 121.855 16.698C121.591 16.918 121.283 17.028 120.931 17.028H113.671C113.847 17.8933 114.25 18.5753 114.881 19.074C115.511 19.558 116.223 19.8 117.015 19.8C117.616 19.8 118.085 19.7487 118.423 19.646C118.76 19.5287 119.024 19.4113 119.215 19.294C119.42 19.162 119.559 19.074 119.633 19.03C119.897 18.898 120.146 18.832 120.381 18.832C120.689 18.832 120.953 18.942 121.173 19.162C121.393 19.382 121.503 19.6387 121.503 19.932C121.503 20.328 121.297 20.6873 120.887 21.01C120.476 21.3473 119.926 21.6333 119.237 21.868C118.547 22.1027 117.851 22.22 117.147 22.22C115.915 22.22 114.837 21.9633 113.913 21.45C113.003 20.9367 112.299 20.2327 111.801 19.338C111.302 18.4287 111.053 17.4093 111.053 16.28C111.053 15.0187 111.317 13.9113 111.845 12.958C112.373 12.0047 113.069 11.2787 113.935 10.78C114.8 10.2667 115.724 10.01 116.707 10.01C117.675 10.01 118.584 10.274 119.435 10.802C120.3 11.33 120.989 12.0413 121.503 12.936C122.016 13.8307 122.273 14.7987 122.273 15.84ZM116.707 12.43C115.005 12.43 114.001 13.2293 113.693 14.828H119.457V14.674C119.398 14.058 119.097 13.53 118.555 13.09C118.012 12.65 117.396 12.43 116.707 12.43Z" fill="white"/>
</svg>
