<svg width="98" height="18" viewBox="0 0 98 18" fill="none" xmlns="http://www.w3.org/2000/svg">
<path d="M18.964 1.534C19.316 1.534 19.6387 1.67333 19.932 1.952C20.24 2.216 20.394 2.55333 20.394 2.964C20.394 3.096 20.372 3.24267 20.328 3.404L15.994 16.164C15.906 16.4133 15.752 16.6113 15.532 16.758C15.312 16.9047 15.07 16.9853 14.806 17C14.542 17 14.2927 16.9267 14.058 16.78C13.8233 16.6333 13.64 16.4207 13.508 16.142L10.384 9.036L7.238 16.142C7.106 16.4207 6.92267 16.6333 6.688 16.78C6.45333 16.9267 6.204 17 5.94 17C5.676 16.9853 5.434 16.9047 5.214 16.758C4.994 16.6113 4.84 16.4133 4.752 16.164L0.418 3.404C0.374 3.24267 0.352 3.096 0.352 2.964C0.352 2.55333 0.498667 2.216 0.792 1.952C1.1 1.67333 1.43733 1.534 1.804 1.534C2.09733 1.534 2.36133 1.61467 2.596 1.776C2.83067 1.92267 2.992 2.128 3.08 2.392L6.358 12.336L9.218 5.472C9.33533 5.208 9.504 5.00267 9.724 4.856C9.944 4.69467 10.1933 4.62133 10.472 4.636C10.7507 4.62133 10.9927 4.69467 11.198 4.856C11.418 5.00267 11.5867 5.208 11.704 5.472L14.41 12.27L17.666 2.392C17.754 2.128 17.9153 1.92267 18.15 1.776C18.3993 1.61467 18.6707 1.534 18.964 1.534ZM32.6416 10.84C32.627 11.192 32.4876 11.478 32.2236 11.698C31.9596 11.918 31.6516 12.028 31.2996 12.028H24.0396C24.2156 12.8933 24.619 13.5753 25.2496 14.074C25.8803 14.558 26.5916 14.8 27.3836 14.8C27.985 14.8 28.4543 14.7487 28.7916 14.646C29.129 14.5287 29.393 14.4113 29.5836 14.294C29.789 14.162 29.9283 14.074 30.0016 14.03C30.2656 13.898 30.515 13.832 30.7496 13.832C31.0576 13.832 31.3216 13.942 31.5416 14.162C31.7616 14.382 31.8716 14.6387 31.8716 14.932C31.8716 15.328 31.6663 15.6873 31.2556 16.01C30.845 16.3473 30.295 16.6333 29.6056 16.868C28.9163 17.1027 28.2196 17.22 27.5156 17.22C26.2836 17.22 25.2056 16.9633 24.2816 16.45C23.3723 15.9367 22.6683 15.2327 22.1696 14.338C21.671 13.4287 21.4216 12.4093 21.4216 11.28C21.4216 10.0187 21.6856 8.91133 22.2136 7.958C22.7416 7.00467 23.4383 6.27867 24.3036 5.78C25.169 5.26667 26.093 5.01 27.0756 5.01C28.0436 5.01 28.953 5.274 29.8036 5.802C30.669 6.33 31.3583 7.04133 31.8716 7.936C32.385 8.83067 32.6416 9.79867 32.6416 10.84ZM27.0756 7.43C25.3743 7.43 24.3696 8.22933 24.0616 9.828H29.8256V9.674C29.767 9.058 29.4663 8.53 28.9236 8.09C28.381 7.65 27.765 7.43 27.0756 7.43ZM37.9234 15.658C37.9234 16.0393 37.7914 16.362 37.5274 16.626C37.278 16.8753 36.9627 17 36.5814 17C36.2147 17 35.9067 16.8753 35.6574 16.626C35.408 16.362 35.2834 16.0393 35.2834 15.658V2.062C35.2834 1.68067 35.408 1.36533 35.6574 1.116C35.9214 0.851999 36.244 0.72 36.6254 0.72C36.992 0.72 37.3 0.851999 37.5494 1.116C37.7987 1.36533 37.9234 1.68067 37.9234 2.062V15.658ZM46.1242 5.01C47.3709 5.01 48.3755 5.208 49.1382 5.604C49.9009 5.98533 50.2822 6.49867 50.2822 7.144C50.2822 7.46667 50.1869 7.75267 49.9962 8.002C49.8055 8.23667 49.5562 8.354 49.2482 8.354C49.0135 8.354 48.8229 8.32467 48.6762 8.266C48.5295 8.19267 48.3829 8.10467 48.2362 8.002C48.1042 7.88467 47.9722 7.78933 47.8402 7.716C47.6935 7.64267 47.4735 7.57667 47.1802 7.518C46.9015 7.45933 46.6742 7.43 46.4982 7.43C45.3982 7.43 44.5329 7.77467 43.9022 8.464C43.2862 9.13867 42.9782 10.026 42.9782 11.126C42.9782 12.182 43.2935 13.062 43.9242 13.766C44.5549 14.4553 45.3615 14.8 46.3442 14.8C47.0629 14.8 47.5982 14.712 47.9502 14.536C48.0382 14.492 48.1555 14.4187 48.3022 14.316C48.4635 14.1987 48.6102 14.1107 48.7422 14.052C48.8742 13.9933 49.0355 13.964 49.2262 13.964C49.5929 13.964 49.8789 14.0813 50.0842 14.316C50.3042 14.5507 50.4142 14.8513 50.4142 15.218C50.4142 15.57 50.2089 15.9 49.7982 16.208C49.3875 16.516 48.8449 16.7653 48.1702 16.956C47.4955 17.132 46.7769 17.22 46.0142 17.22C44.8849 17.22 43.8875 16.956 43.0222 16.428C42.1715 15.9 41.5115 15.174 41.0422 14.25C40.5729 13.3113 40.3382 12.27 40.3382 11.126C40.3382 9.938 40.5802 8.882 41.0642 7.958C41.5629 7.034 42.2522 6.31533 43.1322 5.802C44.0122 5.274 45.0095 5.01 46.1242 5.01ZM63.8485 11.126C63.8485 12.2993 63.5845 13.3553 63.0565 14.294C62.5285 15.218 61.8025 15.9367 60.8785 16.45C59.9691 16.9633 58.9645 17.22 57.8645 17.22C56.7498 17.22 55.7378 16.9633 54.8285 16.45C53.9191 15.9367 53.2005 15.218 52.6725 14.294C52.1445 13.3553 51.8805 12.2993 51.8805 11.126C51.8805 9.95267 52.1445 8.904 52.6725 7.98C53.2005 7.04133 53.9191 6.31533 54.8285 5.802C55.7378 5.274 56.7498 5.01 57.8645 5.01C58.9645 5.01 59.9691 5.274 60.8785 5.802C61.8025 6.31533 62.5285 7.04133 63.0565 7.98C63.5845 8.904 63.8485 9.95267 63.8485 11.126ZM61.2085 11.126C61.2085 10.4073 61.0545 9.76933 60.7465 9.212C60.4531 8.64 60.0498 8.2 59.5365 7.892C59.0378 7.584 58.4805 7.43 57.8645 7.43C57.2485 7.43 56.6838 7.584 56.1705 7.892C55.6718 8.2 55.2685 8.64 54.9605 9.212C54.6671 9.76933 54.5205 10.4073 54.5205 11.126C54.5205 11.8447 54.6671 12.4827 54.9605 13.04C55.2685 13.5973 55.6718 14.03 56.1705 14.338C56.6838 14.646 57.2485 14.8 57.8645 14.8C58.4805 14.8 59.0378 14.646 59.5365 14.338C60.0498 14.03 60.4531 13.5973 60.7465 13.04C61.0545 12.4827 61.2085 11.8447 61.2085 11.126ZM79.8481 5.01C81.3001 5.01 82.3048 5.45733 82.8621 6.352C83.4195 7.232 83.6981 8.45667 83.6981 10.026V15.658C83.6981 16.0393 83.5735 16.362 83.3241 16.626C83.0748 16.8753 82.7595 17 82.3781 17C81.9968 17 81.6815 16.8753 81.4321 16.626C81.1828 16.362 81.0581 16.0393 81.0581 15.658V10.026C81.0581 9.21933 80.8968 8.58867 80.5741 8.134C80.2661 7.66467 79.7161 7.43 78.9241 7.43C78.1028 7.43 77.4575 7.67933 76.9881 8.178C76.5335 8.662 76.3061 9.278 76.3061 10.026V15.658C76.3061 16.0393 76.1815 16.362 75.9321 16.626C75.6828 16.8753 75.3675 17 74.9861 17C74.6048 17 74.2895 16.8753 74.0401 16.626C73.7908 16.362 73.6661 16.0393 73.6661 15.658V10.026C73.6661 9.21933 73.5048 8.58867 73.1821 8.134C72.8741 7.66467 72.3241 7.43 71.5321 7.43C70.7108 7.43 70.0655 7.67933 69.5961 8.178C69.1415 8.662 68.9141 9.278 68.9141 10.026V15.658C68.9141 16.0393 68.7895 16.362 68.5401 16.626C68.2908 16.8753 67.9755 17 67.5941 17C67.2128 17 66.8975 16.8753 66.6481 16.626C66.3988 16.362 66.2741 16.0393 66.2741 15.658V6.572C66.2741 6.19067 66.3988 5.87533 66.6481 5.626C66.8975 5.362 67.2128 5.23 67.5941 5.23C67.9755 5.23 68.2908 5.362 68.5401 5.626C68.7895 5.87533 68.9141 6.19067 68.9141 6.572V6.924C69.3101 6.396 69.8088 5.94867 70.4101 5.582C71.0261 5.20067 71.7081 5.01 72.4561 5.01C74.3041 5.01 75.4848 5.81667 75.9981 7.43C76.3355 6.814 76.8415 6.25667 77.5161 5.758C78.2055 5.25933 78.9828 5.01 79.8481 5.01ZM97.3354 10.84C97.3207 11.192 97.1814 11.478 96.9174 11.698C96.6534 11.918 96.3454 12.028 95.9934 12.028H88.7334C88.9094 12.8933 89.3127 13.5753 89.9434 14.074C90.5741 14.558 91.2854 14.8 92.0774 14.8C92.6787 14.8 93.1481 14.7487 93.4854 14.646C93.8227 14.5287 94.0867 14.4113 94.2774 14.294C94.4827 14.162 94.6221 14.074 94.6954 14.03C94.9594 13.898 95.2087 13.832 95.4434 13.832C95.7514 13.832 96.0154 13.942 96.2354 14.162C96.4554 14.382 96.5654 14.6387 96.5654 14.932C96.5654 15.328 96.3601 15.6873 95.9494 16.01C95.5387 16.3473 94.9887 16.6333 94.2994 16.868C93.6101 17.1027 92.9134 17.22 92.2094 17.22C90.9774 17.22 89.8994 16.9633 88.9754 16.45C88.0661 15.9367 87.3621 15.2327 86.8634 14.338C86.3647 13.4287 86.1154 12.4093 86.1154 11.28C86.1154 10.0187 86.3794 8.91133 86.9074 7.958C87.4354 7.00467 88.1321 6.27867 88.9974 5.78C89.8627 5.26667 90.7867 5.01 91.7694 5.01C92.7374 5.01 93.6467 5.274 94.4974 5.802C95.3627 6.33 96.0521 7.04133 96.5654 7.936C97.0787 8.83067 97.3354 9.79867 97.3354 10.84ZM91.7694 7.43C90.0681 7.43 89.0634 8.22933 88.7554 9.828H94.5194V9.674C94.4607 9.058 94.1601 8.53 93.6174 8.09C93.0747 7.65 92.4587 7.43 91.7694 7.43Z" fill="#525252"/>
</svg>
