<svg width="15" height="15" viewBox="0 0 15 15" fill="none" xmlns="http://www.w3.org/2000/svg">
<g clip-path="url(#clip0)">
<path d="M11.7188 15H3.28125C2.50625 15 1.875 14.3694 1.875 13.5938V7.03125C1.875 6.25562 2.50625 5.625 3.28125 5.625H11.7188C12.4937 5.625 13.125 6.25562 13.125 7.03125V13.5938C13.125 14.3694 12.4937 15 11.7188 15ZM3.28125 6.5625C3.02313 6.5625 2.8125 6.7725 2.8125 7.03125V13.5938C2.8125 13.8525 3.02313 14.0625 3.28125 14.0625H11.7188C11.9769 14.0625 12.1875 13.8525 12.1875 13.5938V7.03125C12.1875 6.7725 11.9769 6.5625 11.7188 6.5625H3.28125Z" fill="black"/>
<path d="M10.7812 6.5625C10.5225 6.5625 10.3125 6.3525 10.3125 6.09375V3.75C10.3125 2.19937 9.05062 0.937499 7.5 0.937499C5.94938 0.937499 4.6875 2.19937 4.6875 3.75V6.09375C4.6875 6.3525 4.4775 6.5625 4.21875 6.5625C3.96 6.5625 3.75 6.3525 3.75 6.09375V3.75C3.75 1.68187 5.43187 -1.07288e-06 7.5 -1.07288e-06C9.56812 -1.07288e-06 11.25 1.68187 11.25 3.75V6.09375C11.25 6.3525 11.04 6.5625 10.7812 6.5625Z" fill="black"/>
<path d="M7.5 10.625C6.81063 10.625 6.25 10.0644 6.25 9.375C6.25 8.68562 6.81063 8.125 7.5 8.125C8.18938 8.125 8.75 8.68562 8.75 9.375C8.75 10.0644 8.18938 10.625 7.5 10.625ZM7.5 9.0625C7.32813 9.0625 7.1875 9.2025 7.1875 9.375C7.1875 9.5475 7.32813 9.6875 7.5 9.6875C7.67188 9.6875 7.8125 9.5475 7.8125 9.375C7.8125 9.2025 7.67188 9.0625 7.5 9.0625Z" fill="black"/>
<path d="M7.5 12.5C7.24125 12.5 7.03125 12.29 7.03125 12.0312V10.3125C7.03125 10.0537 7.24125 9.84375 7.5 9.84375C7.75875 9.84375 7.96875 10.0537 7.96875 10.3125V12.0312C7.96875 12.29 7.75875 12.5 7.5 12.5Z" fill="black"/>
</g>
<defs>
<clipPath id="clip0">
<rect width="15" height="15" fill="white"/>
</clipPath>
</defs>
</svg>
