<svg width="15" height="15" viewBox="0 0 15 15" fill="none" xmlns="http://www.w3.org/2000/svg">
<g clip-path="url(#clip0)">
<path d="M6.64248 0.0482148C3.25939 0.425617 0.511727 3.11167 0.0667953 6.4865C-0.563615 11.2689 3.34623 15.3375 8.0821 14.9782C9.82421 14.8459 11.4549 14.0674 12.7326 12.8758L12.8423 12.7735C12.9686 12.6558 12.9754 12.4581 12.8577 12.3319L12.4313 11.8746C12.3136 11.7484 12.1159 11.7415 11.9896 11.8592L11.761 12.0724C10.3398 13.3976 8.38884 13.9938 6.42068 13.6586C3.63117 13.1835 1.48676 10.8153 1.26893 7.99397C0.980917 4.26321 3.99029 1.14559 7.68513 1.25296C11.092 1.35201 13.7498 4.25929 13.7498 7.6676V8.12527C13.7498 8.85576 13.1204 9.44164 12.3752 9.36922C11.7258 9.30606 11.2499 8.72237 11.2499 8.06987V5.3128C11.2499 5.14019 11.1099 5.00029 10.9373 5.00029H10.3124C10.1869 5.00029 10.0803 5.07529 10.0306 5.18202C9.40172 4.4961 8.50157 4.06279 7.49986 4.06279C5.60441 4.06279 4.06236 5.60484 4.06236 7.50028C4.06236 9.39573 5.60441 10.9378 7.49986 10.9378C8.69385 10.9378 9.74666 10.3252 10.3631 9.39855C10.8272 10.1742 11.6895 10.6853 12.6711 10.6196C13.9983 10.5306 14.9999 9.36723 14.9999 8.03703V7.50028C14.9999 3.08237 11.1599 -0.45575 6.64248 0.0482148ZM7.49986 9.68779C6.29379 9.68779 5.31234 8.70635 5.31234 7.50028C5.31234 6.29422 6.29379 5.31277 7.49986 5.31277C8.70592 5.31277 9.68737 6.29422 9.68737 7.50028C9.68737 8.70635 8.70592 9.68779 7.49986 9.68779Z" fill="black"/>
</g>
<defs>
<clipPath id="clip0">
<rect width="15" height="15" fill="white"/>
</clipPath>
</defs>
</svg>
