<svg width="15" height="15" viewBox="0 0 15 15" fill="none" xmlns="http://www.w3.org/2000/svg">
<path d="M7.49872 0C6.3287 0.000199201 5.17494 0.274139 4.1297 0.799917C3.08447 1.3257 2.17674 2.08873 1.47909 3.02801C0.781445 3.9673 0.313233 5.05678 0.111887 6.20935C-0.0894593 7.36192 -0.0183532 8.54562 0.31952 9.6658C0.657393 10.786 1.25266 11.8116 2.05773 12.6606C2.8628 13.5096 3.85535 14.1585 4.95601 14.5554C6.05667 14.9522 7.23492 15.0861 8.39656 14.9462C9.5582 14.8064 10.671 14.3966 11.646 13.7499C11.6949 13.7181 11.7371 13.6769 11.77 13.6288C11.8029 13.5806 11.826 13.5264 11.8378 13.4692C11.8496 13.4121 11.85 13.3532 11.8389 13.2959C11.8278 13.2386 11.8054 13.1841 11.7731 13.1356C11.7408 13.087 11.6992 13.0453 11.6507 13.0129C11.6022 12.9805 11.5477 12.9581 11.4904 12.9469C11.4332 12.9357 11.3743 12.9359 11.3171 12.9477C11.26 12.9594 11.2057 12.9823 11.1575 13.0151C9.92885 13.8304 8.46315 14.2121 6.99294 14.0995C5.52272 13.987 4.1322 13.3867 3.042 12.3938C1.9518 11.401 1.22437 10.0726 0.975133 8.61929C0.725892 7.16599 0.969115 5.67108 1.66621 4.37175C2.36331 3.07241 3.47435 2.04309 4.82305 1.44709C6.17174 0.851089 7.68085 0.722553 9.11092 1.08187C10.541 1.4412 11.8101 2.26779 12.7169 3.43052C13.6237 4.59324 14.1162 6.02548 14.1164 7.5C14.1164 9.67522 13.1028 10 12.4987 10C11.8946 10 10.8811 9.67522 10.8811 7.5V4.55882C10.8811 4.44182 10.8346 4.3296 10.7519 4.24686C10.6691 4.16413 10.5569 4.11765 10.4399 4.11765C10.3229 4.11765 10.2107 4.16413 10.1279 4.24686C10.0452 4.3296 9.99872 4.44182 9.99872 4.55882V5.22426C9.52448 4.70297 8.89925 4.34284 8.21037 4.19418C7.52149 4.04553 6.80338 4.11578 6.15637 4.39511C5.50936 4.67445 4.96577 5.14892 4.60154 5.75224C4.23732 6.35556 4.07065 7.05758 4.12483 7.76023C4.17901 8.46288 4.45133 9.13106 4.90374 9.67141C5.35615 10.2118 5.96605 10.5973 6.64824 10.7741C7.33042 10.951 8.05081 10.9103 8.70876 10.6578C9.36671 10.4053 9.92934 9.95357 10.3181 9.36574C10.7163 10.3381 11.4717 10.8824 12.4987 10.8824C14.0642 10.8824 14.9987 9.61794 14.9987 7.5C14.9965 5.51156 14.2056 3.60521 12.7996 2.19917C11.3935 0.793133 9.48716 0.00223808 7.49872 0ZM7.49872 10C7.00427 10 6.52092 9.85338 6.1098 9.57867C5.69867 9.30397 5.37824 8.91352 5.18902 8.45671C4.99981 7.99989 4.9503 7.49723 5.04676 7.01227C5.14322 6.52732 5.38132 6.08186 5.73096 5.73223C6.08059 5.3826 6.52604 5.1445 7.011 5.04804C7.49595 4.95157 7.99862 5.00108 8.45543 5.1903C8.91225 5.37952 9.30269 5.69995 9.5774 6.11107C9.8521 6.5222 9.99872 7.00555 9.99872 7.5C9.99798 8.16281 9.73435 8.79827 9.26567 9.26695C8.79699 9.73563 8.16154 9.99926 7.49872 10Z" fill="black"/>
</svg>
