<svg width="179" height="22" viewBox="0 0 179 22" fill="none" xmlns="http://www.w3.org/2000/svg">
<path d="M3.4 4.13V8.002H8.152C8.53333 8.002 8.84867 8.12667 9.098 8.376C9.362 8.61067 9.494 8.91867 9.494 9.3C9.494 9.62267 9.362 9.90867 9.098 10.158C8.84867 10.4073 8.53333 10.532 8.152 10.532H3.4V15.658C3.4 16.0393 3.26067 16.362 2.982 16.626C2.718 16.8753 2.40267 17 2.036 17C1.62533 17 1.288 16.8753 1.024 16.626C0.774667 16.3767 0.65 16.054 0.65 15.658V2.942C0.65 2.56067 0.774667 2.24533 1.024 1.996C1.288 1.732 1.61067 1.6 1.992 1.6H9.142C9.52333 1.6 9.83867 1.72467 10.088 1.974C10.352 2.20867 10.484 2.51667 10.484 2.898C10.484 3.22067 10.352 3.50667 10.088 3.756C9.83867 4.00533 9.52333 4.13 9.142 4.13H3.4ZM23.9893 11.126C23.9893 12.2993 23.7253 13.3553 23.1973 14.294C22.6693 15.218 21.9433 15.9367 21.0193 16.45C20.1099 16.9633 19.1053 17.22 18.0053 17.22C16.8906 17.22 15.8786 16.9633 14.9693 16.45C14.0599 15.9367 13.3413 15.218 12.8133 14.294C12.2853 13.3553 12.0213 12.2993 12.0213 11.126C12.0213 9.95267 12.2853 8.904 12.8133 7.98C13.3413 7.04133 14.0599 6.31533 14.9693 5.802C15.8786 5.274 16.8906 5.01 18.0053 5.01C19.1053 5.01 20.1099 5.274 21.0193 5.802C21.9433 6.31533 22.6693 7.04133 23.1973 7.98C23.7253 8.904 23.9893 9.95267 23.9893 11.126ZM21.3493 11.126C21.3493 10.4073 21.1953 9.76933 20.8873 9.212C20.5939 8.64 20.1906 8.2 19.6773 7.892C19.1786 7.584 18.6213 7.43 18.0053 7.43C17.3893 7.43 16.8246 7.584 16.3113 7.892C15.8126 8.2 15.4093 8.64 15.1013 9.212C14.8079 9.76933 14.6613 10.4073 14.6613 11.126C14.6613 11.8447 14.8079 12.4827 15.1013 13.04C15.4093 13.5973 15.8126 14.03 16.3113 14.338C16.8246 14.646 17.3893 14.8 18.0053 14.8C18.6213 14.8 19.1786 14.646 19.6773 14.338C20.1906 14.03 20.5939 13.5973 20.8873 13.04C21.1953 12.4827 21.3493 11.8447 21.3493 11.126ZM32.5309 5.01C32.9709 5.01 33.3376 5.13467 33.6309 5.384C33.9389 5.63333 34.0929 5.92667 34.0929 6.264C34.0929 6.71867 33.9756 7.06333 33.7409 7.298C33.5063 7.518 33.2276 7.628 32.9049 7.628C32.6849 7.628 32.4356 7.57667 32.1569 7.474C32.1129 7.45933 32.0103 7.43 31.8489 7.386C31.7023 7.342 31.5409 7.32 31.3649 7.32C30.9836 7.32 30.6169 7.43733 30.2649 7.672C29.9129 7.90667 29.6196 8.266 29.3849 8.75C29.1649 9.21933 29.0549 9.784 29.0549 10.444V15.658C29.0549 16.0393 28.9303 16.362 28.6809 16.626C28.4316 16.8753 28.1163 17 27.7349 17C27.3536 17 27.0383 16.8753 26.7889 16.626C26.5396 16.362 26.4149 16.0393 26.4149 15.658V6.572C26.4149 6.19067 26.5396 5.87533 26.7889 5.626C27.0383 5.362 27.3536 5.23 27.7349 5.23C28.1163 5.23 28.4316 5.362 28.6809 5.626C28.9303 5.87533 29.0549 6.19067 29.0549 6.572V6.858C29.3923 6.25667 29.8763 5.802 30.5069 5.494C31.1376 5.17133 31.8123 5.01 32.5309 5.01ZM45.5977 5.01C45.9791 5.01 46.2944 5.13467 46.5437 5.384C46.7931 5.63333 46.9177 5.956 46.9177 6.352V16.142C46.9177 17.9313 46.3604 19.2513 45.2457 20.102C44.1457 20.9673 42.7451 21.4 41.0437 21.4C40.6037 21.4 39.9951 21.3267 39.2177 21.18C38.4551 21.0333 37.9124 20.8867 37.5897 20.74C36.8711 20.432 36.5117 20.0067 36.5117 19.464C36.5117 19.3613 36.5337 19.244 36.5777 19.112C36.6657 18.7893 36.8124 18.54 37.0177 18.364C37.2377 18.2027 37.4724 18.122 37.7217 18.122C37.8684 18.122 38.0077 18.144 38.1397 18.188C38.1984 18.2027 38.5577 18.3347 39.2177 18.584C39.8924 18.848 40.5011 18.98 41.0437 18.98C42.1291 18.98 42.9357 18.76 43.4637 18.32C44.0064 17.8947 44.2777 17.286 44.2777 16.494V15.438C43.9551 15.8927 43.4637 16.3033 42.8037 16.67C42.1584 17.0367 41.4617 17.22 40.7137 17.22C39.6871 17.22 38.7484 16.9633 37.8977 16.45C37.0617 15.922 36.4017 15.196 35.9177 14.272C35.4337 13.348 35.1917 12.2993 35.1917 11.126C35.1917 9.95267 35.4264 8.904 35.8957 7.98C36.3797 7.04133 37.0324 6.31533 37.8537 5.802C38.6897 5.274 39.6137 5.01 40.6257 5.01C41.3737 5.01 42.0704 5.164 42.7157 5.472C43.3611 5.78 43.8817 6.154 44.2777 6.594V6.352C44.2777 5.97067 44.4024 5.65533 44.6517 5.406C44.9011 5.142 45.2164 5.01 45.5977 5.01ZM41.0437 14.8C42.0264 14.8 42.8257 14.4553 43.4417 13.766C44.0724 13.062 44.3877 12.182 44.3877 11.126C44.3877 10.07 44.0724 9.19 43.4417 8.486C42.8257 7.782 42.0264 7.43 41.0437 7.43C40.0611 7.43 39.2617 7.782 38.6457 8.486C38.0297 9.19 37.7217 10.07 37.7217 11.126C37.7217 12.182 38.0297 13.062 38.6457 13.766C39.2617 14.4553 40.0611 14.8 41.0437 14.8ZM60.8719 11.126C60.8719 12.2993 60.6079 13.3553 60.0799 14.294C59.5519 15.218 58.8259 15.9367 57.9019 16.45C56.9926 16.9633 55.9879 17.22 54.8879 17.22C53.7732 17.22 52.7612 16.9633 51.8519 16.45C50.9426 15.9367 50.2239 15.218 49.6959 14.294C49.1679 13.3553 48.9039 12.2993 48.9039 11.126C48.9039 9.95267 49.1679 8.904 49.6959 7.98C50.2239 7.04133 50.9426 6.31533 51.8519 5.802C52.7612 5.274 53.7732 5.01 54.8879 5.01C55.9879 5.01 56.9926 5.274 57.9019 5.802C58.8259 6.31533 59.5519 7.04133 60.0799 7.98C60.6079 8.904 60.8719 9.95267 60.8719 11.126ZM58.2319 11.126C58.2319 10.4073 58.0779 9.76933 57.7699 9.212C57.4766 8.64 57.0732 8.2 56.5599 7.892C56.0612 7.584 55.5039 7.43 54.8879 7.43C54.2719 7.43 53.7072 7.584 53.1939 7.892C52.6952 8.2 52.2919 8.64 51.9839 9.212C51.6906 9.76933 51.5439 10.4073 51.5439 11.126C51.5439 11.8447 51.6906 12.4827 51.9839 13.04C52.2919 13.5973 52.6952 14.03 53.1939 14.338C53.7072 14.646 54.2719 14.8 54.8879 14.8C55.5039 14.8 56.0612 14.646 56.5599 14.338C57.0732 14.03 57.4766 13.5973 57.7699 13.04C58.0779 12.4827 58.2319 11.8447 58.2319 11.126ZM68.9736 14.514C69.1789 14.514 69.3622 14.6167 69.5236 14.822C69.6996 15.0127 69.7876 15.2693 69.7876 15.592C69.7876 15.988 69.5676 16.3253 69.1276 16.604C68.7022 16.868 68.2182 17 67.6756 17C66.7662 17 65.9962 16.8093 65.3656 16.428C64.7496 16.032 64.4416 15.2033 64.4416 13.942V7.87H63.4296C63.0776 7.87 62.7842 7.75267 62.5496 7.518C62.3149 7.28333 62.1976 6.99 62.1976 6.638C62.1976 6.30067 62.3149 6.022 62.5496 5.802C62.7842 5.56733 63.0776 5.45 63.4296 5.45H64.4416V4.042C64.4416 3.66067 64.5662 3.34533 64.8156 3.096C65.0796 2.832 65.4022 2.7 65.7836 2.7C66.1502 2.7 66.4582 2.832 66.7076 3.096C66.9569 3.34533 67.0816 3.66067 67.0816 4.042V5.45H68.6436C68.9956 5.45 69.2889 5.56733 69.5236 5.802C69.7582 6.03667 69.8756 6.33 69.8756 6.682C69.8756 7.01933 69.7582 7.30533 69.5236 7.54C69.2889 7.76 68.9956 7.87 68.6436 7.87H67.0816V13.832C67.0816 14.14 67.1622 14.3673 67.3236 14.514C67.4849 14.646 67.7049 14.712 67.9836 14.712C68.1009 14.712 68.2622 14.6827 68.4676 14.624C68.6436 14.5507 68.8122 14.514 68.9736 14.514ZM85.4835 1.6C86.2315 1.6 86.9429 1.82733 87.6175 2.282C88.2922 2.722 88.8349 3.32333 89.2455 4.086C89.6562 4.834 89.8615 5.65533 89.8615 6.55C89.8615 7.43 89.6562 8.25133 89.2455 9.014C88.8349 9.77667 88.2922 10.3853 87.6175 10.84C86.9429 11.28 86.2315 11.5 85.4835 11.5H81.6555V15.658C81.6555 16.054 81.5382 16.3767 81.3035 16.626C81.0689 16.8753 80.7609 17 80.3795 17C80.0129 17 79.7122 16.8753 79.4775 16.626C79.2429 16.362 79.1255 16.0393 79.1255 15.658V2.942C79.1255 2.56067 79.2502 2.24533 79.4995 1.996C79.7635 1.732 80.0862 1.6 80.4675 1.6H85.4835ZM85.4835 8.992C85.7622 8.992 86.0335 8.87467 86.2975 8.64C86.5762 8.40533 86.7962 8.10467 86.9575 7.738C87.1335 7.35667 87.2215 6.96067 87.2215 6.55C87.2215 6.13933 87.1335 5.75067 86.9575 5.384C86.7962 5.00267 86.5762 4.702 86.2975 4.482C86.0335 4.24733 85.7622 4.13 85.4835 4.13H81.6555V8.992H85.4835ZM101.8 5.01C102.181 5.01 102.497 5.13467 102.746 5.384C102.995 5.63333 103.12 5.956 103.12 6.352V15.658C103.12 16.0393 102.995 16.362 102.746 16.626C102.497 16.8753 102.181 17 101.8 17C101.419 17 101.103 16.8753 100.854 16.626C100.619 16.3767 100.495 16.0613 100.48 15.68C100.113 16.1053 99.6147 16.472 98.984 16.78C98.368 17.0733 97.7153 17.22 97.026 17.22C96.014 17.22 95.0973 16.9633 94.276 16.45C93.4547 15.922 92.802 15.196 92.318 14.272C91.8487 13.348 91.614 12.2993 91.614 11.126C91.614 9.95267 91.8487 8.904 92.318 7.98C92.7873 7.04133 93.4253 6.31533 94.232 5.802C95.0533 5.274 95.9553 5.01 96.938 5.01C97.642 5.01 98.302 5.142 98.918 5.406C99.534 5.65533 100.055 5.978 100.48 6.374V6.352C100.48 5.97067 100.605 5.65533 100.854 5.406C101.103 5.142 101.419 5.01 101.8 5.01ZM97.356 14.8C98.3093 14.8 99.0867 14.4553 99.688 13.766C100.289 13.062 100.59 12.182 100.59 11.126C100.59 10.07 100.289 9.19 99.688 8.486C99.0867 7.782 98.3093 7.43 97.356 7.43C96.4173 7.43 95.6473 7.782 95.046 8.486C94.4447 9.19 94.144 10.07 94.144 11.126C94.144 12.182 94.4373 13.062 95.024 13.766C95.6253 14.4553 96.4027 14.8 97.356 14.8ZM105.519 15.174C105.387 14.998 105.321 14.778 105.321 14.514C105.321 14.1327 105.512 13.81 105.893 13.546C106.098 13.414 106.311 13.348 106.531 13.348C106.839 13.348 107.132 13.4873 107.411 13.766C107.851 14.2207 108.306 14.558 108.775 14.778C109.259 14.998 109.838 15.108 110.513 15.108C111.657 15.064 112.229 14.6313 112.229 13.81C112.229 13.3847 112.031 13.062 111.635 12.842C111.254 12.622 110.652 12.402 109.831 12.182C108.98 11.9473 108.284 11.7127 107.741 11.478C107.213 11.2433 106.751 10.8913 106.355 10.422C105.974 9.938 105.783 9.29267 105.783 8.486C105.783 7.782 105.981 7.17333 106.377 6.66C106.788 6.132 107.316 5.72867 107.961 5.45C108.621 5.15667 109.318 5.01 110.051 5.01C110.799 5.01 111.547 5.14933 112.295 5.428C113.043 5.70667 113.63 6.11733 114.055 6.66C114.246 6.89467 114.341 7.15867 114.341 7.452C114.341 7.78933 114.202 8.068 113.923 8.288C113.718 8.44933 113.483 8.53 113.219 8.53C112.896 8.53 112.632 8.42733 112.427 8.222C112.163 7.89933 111.818 7.64267 111.393 7.452C110.982 7.26133 110.513 7.166 109.985 7.166C108.87 7.166 108.313 7.56933 108.313 8.376C108.313 8.69867 108.416 8.96267 108.621 9.168C108.826 9.35867 109.083 9.51267 109.391 9.63C109.714 9.73267 110.161 9.86467 110.733 10.026C111.525 10.246 112.185 10.4733 112.713 10.708C113.241 10.9427 113.688 11.302 114.055 11.786C114.422 12.27 114.605 12.908 114.605 13.7C114.605 14.4187 114.392 15.0493 113.967 15.592C113.542 16.12 112.992 16.5233 112.317 16.802C111.657 17.0807 110.975 17.22 110.271 17.22C109.303 17.22 108.401 17.0587 107.565 16.736C106.729 16.4133 106.047 15.8927 105.519 15.174ZM116.352 15.174C116.22 14.998 116.154 14.778 116.154 14.514C116.154 14.1327 116.345 13.81 116.726 13.546C116.932 13.414 117.144 13.348 117.364 13.348C117.672 13.348 117.966 13.4873 118.244 13.766C118.684 14.2207 119.139 14.558 119.608 14.778C120.092 14.998 120.672 15.108 121.346 15.108C122.49 15.064 123.062 14.6313 123.062 13.81C123.062 13.3847 122.864 13.062 122.468 12.842C122.087 12.622 121.486 12.402 120.664 12.182C119.814 11.9473 119.117 11.7127 118.574 11.478C118.046 11.2433 117.584 10.8913 117.188 10.422C116.807 9.938 116.616 9.29267 116.616 8.486C116.616 7.782 116.814 7.17333 117.21 6.66C117.621 6.132 118.149 5.72867 118.794 5.45C119.454 5.15667 120.151 5.01 120.884 5.01C121.632 5.01 122.38 5.14933 123.128 5.428C123.876 5.70667 124.463 6.11733 124.888 6.66C125.079 6.89467 125.174 7.15867 125.174 7.452C125.174 7.78933 125.035 8.068 124.756 8.288C124.551 8.44933 124.316 8.53 124.052 8.53C123.73 8.53 123.466 8.42733 123.26 8.222C122.996 7.89933 122.652 7.64267 122.226 7.452C121.816 7.26133 121.346 7.166 120.818 7.166C119.704 7.166 119.146 7.56933 119.146 8.376C119.146 8.69867 119.249 8.96267 119.454 9.168C119.66 9.35867 119.916 9.51267 120.224 9.63C120.547 9.73267 120.994 9.86467 121.566 10.026C122.358 10.246 123.018 10.4733 123.546 10.708C124.074 10.9427 124.522 11.302 124.888 11.786C125.255 12.27 125.438 12.908 125.438 13.7C125.438 14.4187 125.226 15.0493 124.8 15.592C124.375 16.12 123.825 16.5233 123.15 16.802C122.49 17.0807 121.808 17.22 121.104 17.22C120.136 17.22 119.234 17.0587 118.398 16.736C117.562 16.4133 116.88 15.8927 116.352 15.174ZM141.42 5.23C141.772 5.23 142.065 5.362 142.3 5.626C142.549 5.87533 142.674 6.198 142.674 6.594C142.674 6.726 142.644 6.89467 142.586 7.1L139.22 16.164C139.132 16.428 138.97 16.6407 138.736 16.802C138.516 16.9487 138.274 17.022 138.01 17.022L137.834 17C137.335 16.9707 136.961 16.692 136.712 16.164L134.842 10.752L133.06 16.164C132.81 16.692 132.436 16.9707 131.938 17L131.762 17.022C131.498 17.022 131.248 16.9487 131.014 16.802C130.794 16.6407 130.64 16.428 130.552 16.164L127.186 7.1C127.127 6.93867 127.098 6.77 127.098 6.594C127.098 6.22733 127.215 5.912 127.45 5.648C127.699 5.36933 128.022 5.23 128.418 5.23C128.711 5.23 128.96 5.30333 129.166 5.45C129.386 5.582 129.54 5.78733 129.628 6.066L132.004 12.512L133.742 7.804C133.976 7.26133 134.38 6.99 134.952 6.99C135.26 6.99 135.494 7.056 135.656 7.188C135.832 7.32 135.978 7.52533 136.096 7.804L137.79 12.402L140.144 6.066C140.232 5.78733 140.386 5.582 140.606 5.45C140.826 5.30333 141.097 5.23 141.42 5.23ZM156.282 11.126C156.282 12.2993 156.018 13.3553 155.49 14.294C154.962 15.218 154.236 15.9367 153.312 16.45C152.403 16.9633 151.398 17.22 150.298 17.22C149.184 17.22 148.172 16.9633 147.262 16.45C146.353 15.9367 145.634 15.218 145.106 14.294C144.578 13.3553 144.314 12.2993 144.314 11.126C144.314 9.95267 144.578 8.904 145.106 7.98C145.634 7.04133 146.353 6.31533 147.262 5.802C148.172 5.274 149.184 5.01 150.298 5.01C151.398 5.01 152.403 5.274 153.312 5.802C154.236 6.31533 154.962 7.04133 155.49 7.98C156.018 8.904 156.282 9.95267 156.282 11.126ZM153.642 11.126C153.642 10.4073 153.488 9.76933 153.18 9.212C152.887 8.64 152.484 8.2 151.97 7.892C151.472 7.584 150.914 7.43 150.298 7.43C149.682 7.43 149.118 7.584 148.604 7.892C148.106 8.2 147.702 8.64 147.394 9.212C147.101 9.76933 146.954 10.4073 146.954 11.126C146.954 11.8447 147.101 12.4827 147.394 13.04C147.702 13.5973 148.106 14.03 148.604 14.338C149.118 14.646 149.682 14.8 150.298 14.8C150.914 14.8 151.472 14.646 151.97 14.338C152.484 14.03 152.887 13.5973 153.18 13.04C153.488 12.4827 153.642 11.8447 153.642 11.126ZM164.824 5.01C165.264 5.01 165.631 5.13467 165.924 5.384C166.232 5.63333 166.386 5.92667 166.386 6.264C166.386 6.71867 166.269 7.06333 166.034 7.298C165.799 7.518 165.521 7.628 165.198 7.628C164.978 7.628 164.729 7.57667 164.45 7.474C164.406 7.45933 164.303 7.43 164.142 7.386C163.995 7.342 163.834 7.32 163.658 7.32C163.277 7.32 162.91 7.43733 162.558 7.672C162.206 7.90667 161.913 8.266 161.678 8.75C161.458 9.21933 161.348 9.784 161.348 10.444V15.658C161.348 16.0393 161.223 16.362 160.974 16.626C160.725 16.8753 160.409 17 160.028 17C159.647 17 159.331 16.8753 159.082 16.626C158.833 16.362 158.708 16.0393 158.708 15.658V6.572C158.708 6.19067 158.833 5.87533 159.082 5.626C159.331 5.362 159.647 5.23 160.028 5.23C160.409 5.23 160.725 5.362 160.974 5.626C161.223 5.87533 161.348 6.19067 161.348 6.572V6.858C161.685 6.25667 162.169 5.802 162.8 5.494C163.431 5.17133 164.105 5.01 164.824 5.01ZM177.499 0.72C177.88 0.72 178.196 0.844666 178.445 1.094C178.694 1.34333 178.819 1.666 178.819 2.062V15.658C178.819 16.0393 178.694 16.362 178.445 16.626C178.196 16.8753 177.88 17 177.499 17C177.118 17 176.802 16.8753 176.553 16.626C176.318 16.3767 176.194 16.0613 176.179 15.68C175.812 16.1053 175.314 16.472 174.683 16.78C174.067 17.0733 173.414 17.22 172.725 17.22C171.713 17.22 170.796 16.9633 169.975 16.45C169.154 15.922 168.501 15.196 168.017 14.272C167.548 13.348 167.313 12.2993 167.313 11.126C167.313 9.95267 167.548 8.904 168.017 7.98C168.486 7.04133 169.124 6.31533 169.931 5.802C170.752 5.274 171.654 5.01 172.637 5.01C173.341 5.01 174.001 5.142 174.617 5.406C175.233 5.65533 175.754 5.978 176.179 6.374V2.062C176.179 1.68067 176.304 1.36533 176.553 1.116C176.802 0.851999 177.118 0.72 177.499 0.72ZM173.055 14.8C174.008 14.8 174.786 14.4553 175.387 13.766C175.988 13.062 176.289 12.182 176.289 11.126C176.289 10.07 175.988 9.19 175.387 8.486C174.786 7.782 174.008 7.43 173.055 7.43C172.116 7.43 171.346 7.782 170.745 8.486C170.144 9.19 169.843 10.07 169.843 11.126C169.843 12.182 170.136 13.062 170.723 13.766C171.324 14.4553 172.102 14.8 173.055 14.8Z" fill="#525252"/>
</svg>
